<svg width="77" height="78" viewBox="0 0 77 78" fill="none" xmlns="http://www.w3.org/2000/svg">
<rect width="77" height="78" rx="12" fill="#036EC2"/>
<path d="M38.5 42.1668L52.375 34.2502L38.5 26.3335L24.625 34.2502L38.5 42.1668ZM38.5 42.1668L47.9953 36.7491C48.8319 38.9156 49.2917 41.2777 49.2917 43.7501C49.2917 44.8605 49.1989 45.9487 49.0209 47.0068C44.997 47.4087 41.3506 49.1345 38.5 51.7548C35.6494 49.1345 32.003 47.4087 27.9791 47.0069C27.8011 45.9486 27.7083 44.8604 27.7083 43.75C27.7083 41.2776 28.1681 38.9155 29.0047 36.7491L38.5 42.1668ZM32.3333 51.6667V39.7918L38.5 36.2733" stroke="white" stroke-width="2" stroke-linecap="round" stroke-linejoin="round"/>
</svg>
