<svg width="66" height="66" viewBox="0 0 66 66" fill="none" xmlns="http://www.w3.org/2000/svg">
<path d="M0 8C0 3.58172 3.58172 0 8 0H58C62.4183 0 66 3.58172 66 8V58C66 62.4183 62.4183 66 58 66H8C3.58172 66 0 62.4183 0 58V8Z" fill="white"/>
<path fill-rule="evenodd" clip-rule="evenodd" d="M35.7071 28.2929C36.0976 28.6834 36.0976 29.3166 35.7071 29.7071L32.4142 33L35.7071 36.2929C36.0976 36.6834 36.0976 37.3166 35.7071 37.7071C35.3166 38.0976 34.6834 38.0976 34.2929 37.7071L30.2929 33.7071C29.9024 33.3166 29.9024 32.6834 30.2929 32.2929L34.2929 28.2929C34.6834 27.9024 35.3166 27.9024 35.7071 28.2929Z" fill="black"/>
<path d="M8 2H58V-2H8V2ZM64 8V58H68V8H64ZM58 64H8V68H58V64ZM2 58V8H-2V58H2ZM8 64C4.68629 64 2 61.3137 2 58H-2C-2 63.5228 2.47715 68 8 68V64ZM64 58C64 61.3137 61.3137 64 58 64V68C63.5228 68 68 63.5228 68 58H64ZM58 2C61.3137 2 64 4.68629 64 8H68C68 2.47715 63.5228 -2 58 -2V2ZM8 -2C2.47715 -2 -2 2.47715 -2 8H2C2 4.68629 4.68629 2 8 2V-2Z" fill="#2ED8A7"/>
</svg>
