<svg width="609" height="394" viewBox="0 0 609 394" fill="none" xmlns="http://www.w3.org/2000/svg">
<rect y="329" width="609" height="65" rx="32.5" fill="white"/>
<path d="M120.366 109.996C115.965 119.041 102.231 189.748 99.8229 213.439C97.4144 237.13 84.2609 353.335 84.106 355.896L119.639 359.192C119.639 359.192 152.499 217.624 155.744 208.313L173.515 109.783L120.37 109.991L120.366 109.996Z" fill="#036EC2"/>
<path d="M129.668 37.5673C133.981 37.5673 137.477 34.0778 137.477 29.7734C137.477 25.4689 133.981 21.9795 129.668 21.9795C125.354 21.9795 121.858 25.4689 121.858 29.7734C121.858 34.0778 125.354 37.5673 129.668 37.5673Z" fill="#036EC2"/>
<path d="M180.869 127.171C179.904 124.565 179.382 121.827 179.328 119.063C179.218 114.409 190.941 107.089 190.282 92.9652C189.786 82.1414 177.124 66.3988 157.254 67.08L141.236 68.0752C123.788 68.6503 110.245 83.4507 109.807 95.0088H109.753C109.753 95.3228 109.807 95.6369 109.807 95.951V96.265C111.294 115.458 125.329 114.308 120.375 128.011L180.869 127.175V127.171Z" fill="#94D5F1"/>
<path d="M162.319 67.2407L149.741 124.452L137.322 68.1254L162.319 67.2363V67.2407Z" fill="white"/>
<path d="M167.667 37.5673C171.98 37.5673 175.476 34.0778 175.476 29.7734C175.476 25.4689 171.98 21.9795 167.667 21.9795C163.353 21.9795 159.857 25.4689 159.857 29.7734C159.857 34.0778 163.353 37.5673 167.667 37.5673Z" fill="#036EC2"/>
<path d="M144.008 67.6732C134.627 67.3592 129.07 70.8624 129.07 70.8624L142.485 79.7002L144.008 67.6732Z" fill="black"/>
<path d="M137.322 70.2614L137.69 33.4993L159.857 32.7119L162.319 69.3768C162.868 75.9675 157.958 81.7576 151.348 82.3061C151.073 82.3282 150.799 82.3415 150.524 82.3459H149.581C142.98 82.5184 137.495 77.3166 137.322 70.7347C137.322 70.5799 137.322 70.4207 137.322 70.2659V70.2614Z" fill="#036EC2"/>
<path d="M156.554 53.6285L137.477 64.4037L137.317 49.8643L156.55 53.6285H156.554Z" fill="black"/>
<path d="M149.112 55.1459C139.354 55.1237 131.177 47.7766 130.141 38.0984L128.308 21.1527C128.308 9.69188 137.614 0.394072 149.103 0.389648H149.17C160.658 0.389648 169.973 9.67861 169.973 21.1394V21.2013L168.087 38.1471C167.113 47.8518 158.892 55.2211 149.116 55.1414L149.112 55.1459Z" fill="#036EC2"/>
<path d="M149.741 35.9976C149.993 36.0197 150.228 35.8694 150.316 35.6305C150.48 35.312 150.365 34.9183 150.055 34.7414L148.116 33.6931C147.908 33.5471 147.775 33.3171 147.748 33.065C147.717 32.8261 147.775 32.5873 147.908 32.3838C149.09 30.8268 149.67 28.8938 149.537 26.9431L149.484 26.3681C149.44 26.0054 149.112 25.7488 148.749 25.793C148.386 25.8373 148.129 26.1646 148.173 26.5273L148.226 27.1023C148.35 28.7124 147.886 30.3092 146.916 31.6009C146.557 32.083 146.389 32.6757 146.442 33.2729C146.531 33.901 146.872 34.4672 147.385 34.8431L147.438 34.8962L149.426 35.9446C149.528 35.9446 149.634 35.9976 149.741 35.9976Z" fill="black"/>
<path d="M145.863 41.5928C146.385 46.8742 152.256 45.4057 152.256 41.5928H145.863Z" fill="white"/>
<path d="M176.362 99.0654C180.763 108.111 201.363 189.748 203.772 213.439C206.18 237.13 227.095 353.335 227.25 355.896L191.716 359.192C191.716 359.192 151.149 217.624 147.904 208.312L134.644 154.919L155.922 113.605L176.362 99.0654Z" fill="#036EC2"/>
<path d="M236.161 368.299H196.435C193.402 368.308 190.927 365.884 190.879 362.859L190.719 355.538L227.302 355.905L236.892 362.704C238.415 363.111 239.318 364.672 238.91 366.189C238.578 367.432 237.449 368.299 236.157 368.299H236.161Z" fill="black"/>
<path d="M68.8497 368.299H114.969C118.002 368.308 120.476 365.884 120.525 362.859L120.684 355.538L84.1061 355.905L68.1192 362.704C66.5962 363.111 65.693 364.668 66.0959 366.189C66.4279 367.437 67.5569 368.304 68.8497 368.304V368.299Z" fill="black"/>
<path d="M151.653 217.358H151.813C152.158 217.274 152.37 216.929 152.286 216.584V216.57L143.117 180.852C143.024 180.507 142.666 180.304 142.32 180.396C141.984 180.489 141.78 180.826 141.86 181.166L151.033 216.884C151.109 217.168 151.365 217.362 151.658 217.353L151.653 217.358Z" fill="black"/>
<path d="M159.118 30.0659C160.385 30.0659 161.411 29.3431 161.411 28.4514C161.411 27.5598 160.385 26.8369 159.118 26.8369C157.851 26.8369 156.825 27.5598 156.825 28.4514C156.825 29.3431 157.851 30.0659 159.118 30.0659Z" fill="black"/>
<path d="M139.226 29.991C140.529 29.991 141.586 29.3275 141.586 28.5092C141.586 27.6908 140.529 27.0273 139.226 27.0273C137.923 27.0273 136.866 27.6908 136.866 28.5092C136.866 29.3275 137.923 29.991 139.226 29.991Z" fill="black"/>
<path d="M76.876 127.724L67.7115 147.642C63.8332 156.117 67.5654 166.123 76.0525 170.006C76.1234 170.082 76.3492 170.082 76.4244 170.157C83.3797 173.134 91.4728 171.13 96.2277 165.251L122.517 132.705L117.08 79.8018L104.648 90.5814C92.8674 100.87 83.4063 113.53 76.876 127.728V127.724Z" fill="#94D5F1"/>
<path d="M219.09 128.242L226.594 148.832C229.76 157.573 225.271 167.224 216.536 170.449C216.451 170.52 216.234 170.498 216.15 170.568C208.974 172.966 201.071 170.312 196.812 164.071L173.272 129.502L183.003 77.2188L194.519 88.9671C205.396 100.18 213.773 113.565 219.095 128.242H219.09Z" fill="#94D5F1"/>
<path d="M95.3252 166.153L143.051 177.371V104.262L95.3252 93.0449V166.158V166.153Z" fill="#2ED8A7"/>
<path d="M202.098 166.153L154.372 177.371V104.262L202.098 93.0449V166.158V166.153Z" fill="#2ED8A7"/>
<path d="M154.965 104.263H142.382V177.371H154.965V104.263Z" fill="black"/>
<path d="M77.6203 135.527C78.9883 144.303 87.2142 150.319 96.0113 148.974C96.3655 148.93 96.7108 148.855 97.0517 148.753L98.9156 148.381C107.509 146.492 112.946 138.009 111.051 129.432C109.413 122.005 102.736 116.777 95.117 116.954L93.2531 117.033C84.3763 117.312 77.3724 124.663 77.5406 133.528C77.4521 134.196 77.4786 134.872 77.6159 135.536L77.6203 135.527Z" fill="#036EC2"/>
<path d="M219.595 133.947C217.519 142.582 208.828 147.907 200.168 145.855C199.818 145.78 199.477 145.678 199.145 145.55L197.321 145.028C188.91 142.436 184.199 133.536 186.793 125.14C189.038 117.886 196.104 113.228 203.67 114.011L205.516 114.237C214.344 115.237 220.724 123.132 219.83 131.952C219.83 132.625 219.746 133.293 219.591 133.947H219.595Z" fill="#036EC2"/>
<path d="M143.432 1.14149C143.432 1.14149 144.371 13.5179 169.438 25.3238C173.507 8.99288 156.258 -4.00282 143.432 1.14149Z" fill="black"/>
<path d="M127.768 25.3242C152.836 13.5184 153.774 1.14196 153.774 1.14196C140.953 -4.00678 123.704 8.99335 127.768 25.3242Z" fill="black"/>
<path d="M490.649 239.345H383.258L414.666 153.808H522.054L490.646 239.345H490.649Z" fill="white"/>
<path d="M490.65 241.188H383.259C382.251 241.196 381.425 240.386 381.414 239.371C381.414 239.147 381.451 238.927 381.53 238.718L412.938 153.181C413.196 152.45 413.89 151.961 414.667 151.965H522.058C522.656 151.965 523.216 152.252 523.567 152.737C523.911 153.233 523.997 153.864 523.787 154.431L492.379 239.972C492.121 240.703 491.427 241.192 490.65 241.188ZM385.91 237.502H489.366L519.411 155.648H415.955L385.91 237.502Z" fill="#94D5F1"/>
<path d="M454.753 241.188H340.375C339.359 241.173 338.549 240.333 338.568 239.315C338.583 238.322 339.385 237.52 340.375 237.501H454.753C455.769 237.486 456.605 238.296 456.624 239.315C456.639 240.333 455.832 241.173 454.817 241.188C454.798 241.188 454.776 241.188 454.757 241.188H454.753Z" fill="#94D5F1"/>
<path d="M510.546 368.411C509.65 368.4 508.892 367.747 508.742 366.863L488.843 239.641C488.705 238.63 489.411 237.701 490.415 237.563C491.405 237.429 492.319 238.104 492.484 239.089L512.383 366.311C512.54 367.311 511.857 368.251 510.856 368.408C510.849 368.408 510.845 368.408 510.837 368.408H510.546V368.411Z" fill="#94D5F1"/>
<path d="M418.86 368.409C418.76 368.417 418.663 368.402 418.565 368.372C417.565 368.212 416.878 367.279 417.02 366.271L436.919 239.05C437.057 238.038 437.987 237.333 438.995 237.471C440.003 237.609 440.705 238.542 440.567 239.55C440.567 239.565 440.564 239.583 440.56 239.598L420.66 366.82C420.541 367.727 419.772 368.402 418.86 368.402V368.409Z" fill="#94D5F1"/>
<path d="M412.46 368.411C411.563 368.4 410.805 367.747 410.656 366.863L390.757 239.641C390.618 238.63 391.324 237.701 392.329 237.563C393.318 237.429 394.233 238.104 394.397 239.089L414.256 366.273C414.413 367.273 413.729 368.214 412.728 368.37C412.721 368.37 412.717 368.37 412.71 368.37C412.628 368.404 412.542 368.419 412.456 368.411H412.46Z" fill="#94D5F1"/>
<path d="M320.774 368.409C320.673 368.417 320.576 368.402 320.479 368.372C319.478 368.212 318.791 367.279 318.933 366.271L338.833 239.05C338.971 238.038 339.901 237.333 340.909 237.471C341.917 237.609 342.619 238.542 342.481 239.55C342.481 239.565 342.477 239.583 342.473 239.598L322.578 366.816C322.458 367.723 321.689 368.398 320.774 368.402V368.409Z" fill="#94D5F1"/>
<path d="M416.62 168.633L394.411 237.573L421.643 237.707C421.9 237.707 422.158 237.707 422.416 237.7C436.648 237.338 447.893 225.533 447.53 211.325L446.675 177.213L416.616 168.629L416.62 168.633Z" fill="#F1F2F6"/>
<path d="M310.477 160.161L349.021 175.243C353.566 177.004 358.69 176.407 362.704 173.649L363.892 172.828L401.659 146.584C409.625 141.053 411.589 130.121 406.047 122.168C400.505 114.215 389.555 112.256 381.59 117.787L343.823 144.031L358.734 141.568L316.632 133.503L310.477 160.157V160.161Z" fill="#036EC2"/>
<path d="M446.683 177.762C446.545 163.729 435.098 156.989 434.96 152.339C434.871 149.595 435.225 146.856 436.01 144.229C439.752 131.379 432.637 117.939 420.866 113.793C418.353 112.942 415.72 112.513 413.065 112.517C407.956 112.561 407.134 113.062 395.001 113.155C392.895 113.147 390.807 113.532 388.843 114.293C377.759 118.712 373.972 134.566 378.715 146.322C384.279 160.038 370.185 159.217 370.323 179.673L446.683 177.758V177.762Z" fill="#036EC2"/>
<path d="M376.249 161.214C376.44 161.207 376.623 161.124 376.754 160.986C383.506 153.787 379.398 145.677 379.353 145.588C379.345 145.576 379.342 145.565 379.334 145.554C379.33 145.547 379.327 145.539 379.319 145.532C379.129 145.214 378.714 145.11 378.393 145.3C378.072 145.491 377.971 145.905 378.161 146.222C380.331 150.891 379.368 156.411 375.745 160.072C375.506 160.356 375.529 160.77 375.79 161.027C375.906 161.151 376.074 161.218 376.246 161.21L376.249 161.214Z" fill="black"/>
<path d="M421.639 237.632C421.911 237.632 422.184 237.632 422.453 237.617C436.764 237.207 448.034 225.294 447.627 211.007L446.772 181.042L415.57 182.994L414.659 182.904L412.881 182.718C411.649 182.624 410.465 182.58 409.278 182.531C408.09 182.486 406.906 182.486 405.719 182.438H402.163C397.421 182.483 392.678 182.804 387.931 183.259C383.233 183.714 378.49 184.352 373.792 185.08C369.094 185.856 364.396 186.722 359.698 187.723L354.634 188.816C343.793 191.164 336.249 200.994 336.798 212.052C337.377 223.991 338.075 235.927 338.897 247.866L339.536 256.842L340.223 265.814C340.678 271.781 341.227 277.749 341.728 283.72C342.822 295.66 344.054 307.64 345.47 319.579C346.198 325.595 346.93 331.559 347.796 337.53L349.073 346.506C349.574 349.511 349.985 352.474 350.534 355.482L384.607 355.982L386.702 212.825L363.53 237.431L421.643 237.621L421.639 237.632Z" fill="#29ABE2"/>
<path d="M436.879 209.762L438.201 232.043L436.431 233.147L433.518 234.976L429.634 236.607L426.21 237.432L422.669 237.712H419.353L390.37 217.431L436.879 209.762Z" fill="black"/>
<path d="M446.775 181.043C446.775 181.043 427.614 173.795 419.584 171.332C411.6 168.828 403.53 166.592 395.411 164.36C387.292 162.218 379.169 160.124 370.961 158.21L367.357 157.344C358.017 155.194 348.341 159.202 343.273 167.32C337.436 176.691 331.689 186.137 326.031 195.662L321.789 202.816L317.636 210.015C314.805 214.8 312.116 219.629 309.379 224.459C303.953 234.118 277.77 269.155 273.117 279.407L298.844 303.782L383.782 196.479L355.773 205.682L438.205 232.042L446.779 181.043H446.775Z" fill="#29ABE2"/>
<path d="M343.909 246.874L336.795 219.674L326.211 269.199L343.909 246.874Z" fill="black"/>
<path d="M360.74 199.17C360.912 199.181 361.08 199.114 361.196 198.991L361.222 198.968C361.487 198.714 361.494 198.296 361.24 198.035L356.176 192.523C355.926 192.247 355.497 192.224 355.217 192.478C354.936 192.732 354.918 193.157 355.172 193.433L360.236 198.946C360.366 199.084 360.546 199.166 360.736 199.173L360.74 199.17Z" fill="black"/>
<path d="M418.282 168.797L456.37 172.943C462.711 173.593 468.884 170.667 472.387 165.352C477.571 157.485 475.382 146.912 467.502 141.735L465.997 140.731L428.454 116.036C428.406 116.006 428.361 115.972 428.313 115.942C420.182 110.661 409.304 112.96 404.016 121.078C398.728 129.195 401.032 140.052 409.162 145.333L446.701 170.028L456.37 137.861L414.723 142.19L418.282 168.797Z" fill="#036EC2"/>
<path d="M422.341 149.208L422.36 149.193C422.666 148.977 422.741 148.555 422.524 148.249L416.049 138.273C415.828 137.97 415.41 137.888 415.093 138.086L415.074 138.101C414.768 138.318 414.693 138.739 414.91 139.045L421.385 149.025C421.509 149.23 421.736 149.353 421.979 149.342C422.114 149.342 422.244 149.297 422.341 149.204V149.208Z" fill="black"/>
<path d="M424.85 141.146L414.722 142.191C414.722 142.191 412.762 149.484 412.762 156.224C412.762 161.692 418.281 168.753 418.281 168.753L425.261 169.529C430.146 166.51 433.115 161.184 433.107 155.452C433.104 149.555 429.959 144.106 424.85 141.146Z" fill="white"/>
<path d="M341.033 368.377C337.384 368.377 336.746 363.231 340.26 362.365L349.929 354.845L384.368 354.527L384.23 362.454C384.178 365.739 381.5 368.374 378.21 368.377H341.033Z" fill="black"/>
<path d="M251.539 269.659L273.117 279.407L298.844 303.782L293.142 309.294C290.789 311.582 287.032 311.563 284.702 309.249L247.846 274.484C245.291 271.935 248.44 267.834 251.539 269.659Z" fill="black"/>
<path d="M385.967 257.625L386.012 223.499C386.012 222.151 385.907 220.808 385.691 219.479C383.487 205.987 370.745 196.833 357.23 199.027C344.54 201.136 335.562 212.56 336.522 225.365C337.978 244.365 340.447 265.914 340.447 269.195L385.971 257.622L385.967 257.625Z" fill="#29ABE2"/>
<path d="M383.55 225.003L398.832 224.638L374.793 203.178L383.55 225.003Z" fill="#29ABE2"/>
<path d="M386.789 236.393V227.69C386.789 227.69 386.789 227.668 386.789 227.656C386.781 227.28 386.467 226.981 386.087 226.988C385.709 226.996 385.411 227.309 385.418 227.686V236.39C385.426 236.763 385.728 237.065 386.102 237.073C386.475 237.061 386.777 236.763 386.785 236.39L386.789 236.393Z" fill="black"/>
<path d="M316.681 133.461L305.963 131.412C299.946 130.263 293.964 133.558 291.73 139.253C289.172 145.781 292.399 153.144 298.938 155.697L310.478 160.209L316.684 133.465L316.681 133.461Z" fill="#2ED8A7"/>
<path d="M415.865 168.709C419.973 169.16 423.887 166.861 425.485 163.055L426.811 160.002C429.093 154.646 427.393 148.428 422.707 144.969L421.246 143.924C419.364 142.55 417.041 141.919 414.722 142.147L409.113 142.741C403.059 143.356 398.298 148.171 397.756 154.221C397.118 161.192 402.41 167.298 409.341 168.026L415.861 168.709H415.865Z" fill="#2ED8A7"/>
<path d="M343.498 147.319L349.884 142.762C350.186 142.534 350.25 142.108 350.022 141.806C349.794 141.504 349.365 141.44 349.062 141.668L342.676 146.225C342.385 146.46 342.325 146.878 342.538 147.18C342.661 147.356 342.867 147.46 343.087 147.453C343.232 147.453 343.378 147.404 343.498 147.319Z" fill="black"/>
<path d="M426.217 141.691L448.341 139.365C448.703 139.324 448.968 139 448.934 138.638C448.934 138.619 448.934 138.604 448.931 138.585C448.878 138.238 448.557 137.996 448.206 138.044L426.083 140.369C426.083 140.369 426.049 140.369 426.031 140.373C425.679 140.425 425.437 140.746 425.489 141.097C425.538 141.437 425.829 141.691 426.172 141.691H426.217Z" fill="black"/>
<path d="M323.929 134.917L317.909 163.12L310.474 160.206L316.632 133.506L323.929 134.917Z" fill="white"/>
<path d="M336.018 224.277C336.391 224.265 336.69 223.967 336.701 223.597C336.657 211.934 345.507 201.727 357.32 199.768H357.409C360.255 199.365 363.153 199.992 365.577 201.544L391.304 218.04L391.326 218.051C391.651 218.238 392.069 218.13 392.267 217.813C392.469 217.484 392.364 217.055 392.039 216.857L366.312 200.361C363.638 198.637 360.43 197.943 357.282 198.402H357.193C344.693 200.454 335.297 211.251 335.342 223.597C335.349 223.971 335.652 224.273 336.025 224.28L336.018 224.277Z" fill="black"/>
<path d="M419.794 94.7893C426.167 94.7893 431.334 89.0363 431.334 81.9396C431.334 74.8429 426.167 69.0898 419.794 69.0898C413.421 69.0898 408.254 74.8429 408.254 81.9396C408.254 89.0363 413.421 94.7893 419.794 94.7893Z" fill="black"/>
<path d="M265.312 169.551H462.125V220.931H265.312V169.551Z" fill="#94D5F1"/>
<path d="M248.215 168.688H477.533V172.29H248.215V168.688Z" fill="#036EC2"/>
<path d="M263.621 170.883H266.929V368.175H263.621V170.883Z" fill="#036EC2"/>
<path d="M458.82 170.883H462.129V368.175H458.82V170.883Z" fill="#036EC2"/>
<path d="M386.482 102.171C378.18 101.664 371.865 94.5315 372.377 86.2461L373.538 66.6972V66.6711C374.244 54.9821 384.308 46.0734 396.02 46.7751H396.05C407.757 47.4879 416.675 57.5423 415.962 69.2313L414.674 90.553V90.568C414.233 97.8717 407.944 103.436 400.628 103L386.486 102.171H386.482Z" fill="#2ED8A7"/>
<path d="M417.662 112.953C417.662 112.953 439.673 123.564 413.378 122.993C412.463 122.974 411.619 123.467 411.182 124.269C409.233 127.859 403.09 136.887 394.713 127.02C394.366 126.609 393.888 126.325 393.361 126.221C391.337 125.825 386.176 124.512 385.089 121.302C383.734 117.29 391.427 113.11 391.427 113.11L417.662 112.957V112.953Z" fill="white"/>
<path d="M400.247 125.838C399.459 126.181 398.612 126.36 397.749 126.364C394.298 126.372 391.497 123.587 391.49 120.143L391.124 79.2273L413.703 77.8613L418.035 118.049L400.244 125.842L400.247 125.838Z" fill="#2ED8A7"/>
<path d="M375.608 75.5391C376.941 75.4856 377.979 74.362 377.925 73.0295C377.871 71.6969 376.747 70.6601 375.414 70.7136C374.08 70.7672 373.043 71.8908 373.096 73.2233C373.15 74.5558 374.274 75.5926 375.608 75.5391Z" fill="black"/>
<path d="M381.478 80.4576C381.646 80.174 381.571 79.8082 381.306 79.6104L379.483 78.3377C379.278 78.1698 379.155 77.9198 379.151 77.6548C379.125 77.3637 379.229 77.0726 379.435 76.8636L382.65 73.4412L382.665 73.4263C382.665 73.4263 382.673 73.4188 382.676 73.4151C382.889 73.1687 382.859 72.7993 382.613 72.5865C382.366 72.3738 381.993 72.4037 381.784 72.65L378.568 76.0723C378.154 76.5277 377.934 77.1248 377.952 77.7406C377.978 78.3489 378.262 78.9162 378.729 79.3044L380.634 80.633C380.716 80.6815 380.805 80.7077 380.899 80.7114C381.119 80.7263 381.336 80.633 381.478 80.4613V80.4576Z" fill="black"/>
<path d="M380.111 89.1531C381.287 89.2949 382.583 88.8545 383.901 87.8207C384.144 87.6229 384.189 87.2684 383.998 87.0221C383.804 86.7683 383.442 86.716 383.184 86.9101C382.019 87.8245 380.962 88.2014 380.021 87.9999C379.166 87.7386 378.449 87.1564 378.012 86.3801C378.008 86.3727 378.004 86.3615 378.001 86.354C377.851 86.0629 377.493 85.9472 377.202 86.0965C376.91 86.2458 376.791 86.6041 376.944 86.8952C377.541 87.9849 378.553 88.7874 379.756 89.1158L380.118 89.1606L380.111 89.1531Z" fill="black"/>
<path d="M389.373 76.46C390.706 76.4065 391.744 75.2829 391.69 73.9504C391.637 72.6178 390.512 71.581 389.179 71.6345C387.846 71.6881 386.808 72.8117 386.862 74.1442C386.915 75.4767 388.039 76.5135 389.373 76.46Z" fill="black"/>
<path d="M373.901 63.7148C378.438 63.0206 389 52.8207 390.695 46.7373C376.62 48.0249 373.942 63.7185 373.901 63.7148Z" fill="black"/>
<path d="M385.855 47.9922C396.733 41.2221 406.951 45.6671 413.666 53.9599C420.862 62.8573 418.498 78.6479 418.054 81.4433C416 95.1962 412.695 87.1386 398.399 72.7251C390.31 65.1451 377.755 53.0343 385.855 47.9922Z" fill="black"/>
<path d="M391.154 102.321L397.954 102.433H397.977C398.346 102.433 398.649 102.131 398.645 101.761C398.641 101.392 398.343 101.093 397.973 101.093L391.172 100.981C390.803 100.981 390.5 101.273 390.493 101.642C390.5 101.97 390.739 102.25 391.064 102.306L391.154 102.321Z" fill="black"/>
<path d="M329.874 146.751H267.398C265.602 146.758 264.149 148.25 264.145 150.092V155.883C264.152 157.726 265.605 159.221 267.398 159.225H329.874C331.67 159.217 333.123 157.726 333.127 155.883V150.092C333.138 148.257 331.696 146.758 329.907 146.751H329.874Z" fill="#94D5F1"/>
<path d="M264.145 155.508H299.348V150.376H264.145V155.508Z" fill="white"/>
<path d="M331.294 158.758H260.753C258.957 158.765 257.504 160.256 257.497 162.099V165.348C257.504 167.191 258.957 168.686 260.753 168.689H331.294C333.09 168.682 334.544 167.191 334.547 165.348V162.099C334.54 160.256 333.087 158.762 331.294 158.758Z" fill="#29ABE2"/>
<path d="M257.453 165.773H297.468V161.677H257.453V165.773Z" fill="white"/>
</svg>
