<svg width="521" height="439" viewBox="0 0 521 439" fill="none" xmlns="http://www.w3.org/2000/svg">
<path d="M127.236 0.356506H128.819V438.183H127.236V0.356506Z" fill="#C4ECFE"/>
<path d="M195.242 91.0935C202.634 91.0935 209.93 80.83 219.206 67.7818C230.467 51.908 243.973 32.2058 259.801 31.0654V26.0763C241.642 27.4152 227.051 48.1865 215.194 64.9054C207.802 75.3216 200.16 86.1349 195.298 86.1349V91.0935H195.242Z" fill="#94D5F1"/>
<path d="M520.44 168.925C506.328 168.864 494.104 165.626 484.105 159.308C465.238 147.39 458.605 127.871 452.185 108.988C445.857 90.3859 439.885 72.8423 423.018 62.1766C414.567 56.8413 404.477 53.9598 393.027 53.6034L393.226 47.3567C405.801 47.7487 416.945 50.9561 426.353 56.8922C445.088 68.7135 451.701 88.1662 458.096 106.977C464.444 125.651 470.441 143.292 487.44 154.029C496.436 159.71 507.544 162.622 520.465 162.683L520.44 168.925Z" fill="#94D5F1"/>
<path d="M288.871 83.9C290.189 83.9 291.258 82.831 291.258 81.5123C291.258 80.1936 290.189 79.1246 288.871 79.1246C287.552 79.1246 286.483 80.1936 286.483 81.5123C286.483 82.831 287.552 83.9 288.871 83.9Z" fill="#2ED8A7"/>
<path d="M431.403 34.2168C432.722 34.2168 433.791 33.1478 433.791 31.8292C433.791 30.5105 432.722 29.4415 431.403 29.4415C430.084 29.4415 429.015 30.5105 429.015 31.8292C429.015 33.1478 430.084 34.2168 431.403 34.2168Z" fill="#2ED8A7"/>
<path d="M486.02 181.713C487.339 181.713 488.408 180.644 488.408 179.326C488.408 178.007 487.339 176.938 486.02 176.938C484.701 176.938 483.632 178.007 483.632 179.326C483.632 180.644 484.701 181.713 486.02 181.713Z" fill="#2ED8A7"/>
<path d="M165.373 179.326C166.692 179.326 167.761 178.257 167.761 176.938C167.761 175.619 166.692 174.55 165.373 174.55C164.054 174.55 162.985 175.619 162.985 176.938C162.985 178.257 164.054 179.326 165.373 179.326Z" fill="#2ED8A7"/>
<path d="M156.24 315.174V422.594C156.244 424.247 155.592 425.835 154.426 427.007C153.26 428.179 151.677 428.841 150.024 428.846H8.61099C7.79225 428.847 6.9814 428.686 6.22479 428.373C5.46817 428.06 4.78063 427.601 4.20145 427.023C3.62227 426.444 3.16281 425.757 2.84934 425.001C2.53586 424.244 2.37451 423.433 2.37451 422.615V315.194L156.24 315.174Z" fill="white"/>
<path d="M155.227 294.897C154.544 294.206 153.731 293.658 152.834 293.286C151.937 292.914 150.975 292.724 150.003 292.728H8.61096C6.65081 292.735 4.77323 293.518 3.38957 294.907C2.00592 296.295 1.22899 298.175 1.229 300.135V316.33H157.39V300.135C157.399 299.162 157.212 298.196 156.84 297.296C156.469 296.397 155.92 295.581 155.227 294.897Z" fill="#94D5F1"/>
<path d="M13.905 308.581C16.1431 308.581 17.9574 306.762 17.9574 304.519C17.9574 302.275 16.1431 300.456 13.905 300.456C11.6669 300.456 9.85254 302.275 9.85254 304.519C9.85254 306.762 11.6669 308.581 13.905 308.581Z" fill="#036EC2"/>
<path d="M27.7375 308.581C29.9756 308.581 31.7899 306.762 31.7899 304.519C31.7899 302.275 29.9756 300.456 27.7375 300.456C25.4994 300.456 23.6851 302.275 23.6851 304.519C23.6851 306.762 25.4994 308.581 27.7375 308.581Z" fill="#29ABE2"/>
<path d="M41.5905 308.581C43.8286 308.581 45.643 306.762 45.643 304.519C45.643 302.275 43.8286 300.456 41.5905 300.456C39.3524 300.456 37.5381 302.275 37.5381 304.519C37.5381 306.762 39.3524 308.581 41.5905 308.581Z" fill="white"/>
<path d="M157.39 379.407V422.594C157.39 424.555 156.613 426.436 155.228 427.825C153.843 429.214 151.964 429.996 150.003 430.002H8.61097C6.64998 429.998 4.77085 429.215 3.38661 427.826C2.00237 426.437 1.22631 424.555 1.22901 422.594V379.407H3.53524V422.594C3.53183 423.725 3.90473 424.824 4.59514 425.719C5.28555 426.614 6.25419 427.254 7.34839 427.538C7.51595 427.58 7.68597 427.613 7.85749 427.634C8.11515 427.675 8.37558 427.695 8.63642 427.695H150.003C150.263 427.695 150.521 427.675 150.777 427.634C150.949 427.613 151.119 427.581 151.286 427.538C152.381 427.255 153.35 426.616 154.041 425.722C154.732 424.828 155.107 423.73 155.105 422.599V379.407H157.39Z" fill="#94D5F1"/>
<path d="M73.2516 430.002L72.8646 428.846L72.4777 427.696L64.7394 404.638C63.9201 402.161 63.659 399.532 63.9748 396.941C64.2906 394.351 65.1754 391.862 66.566 389.654C67.9566 387.445 69.8184 385.572 72.0181 384.167C74.2178 382.763 76.7009 381.862 79.2895 381.53H79.3913C80.1868 381.434 80.988 381.393 81.7892 381.408C82.3746 381.408 82.955 381.459 83.5303 381.525H83.571C86.8596 381.926 89.9694 383.243 92.5456 385.326C95.1219 387.409 97.0609 390.174 98.1415 393.306L109.703 427.701L110.09 428.851L110.477 430.007L73.2516 430.002Z" fill="#2ED8A7"/>
<path d="M100.901 428.846C101.038 429.218 101.165 429.605 101.288 430.002H37.314C37.4616 429.61 37.6143 429.223 37.7823 428.846C37.9503 428.469 38.1285 428.072 38.3169 427.695C41.1424 421.988 45.4188 418.374 45.4443 415.706C45.4628 413.284 45.0792 410.875 44.309 408.579C43.0574 404.642 42.9211 400.435 43.915 396.425C44.9089 392.415 46.9942 388.759 49.9397 385.863C51.5367 384.299 53.3828 383.012 55.4023 382.055C56.0328 381.754 56.6805 381.49 57.342 381.266C57.8511 381.077 58.4111 380.914 58.966 380.756C59.5209 380.599 60.0402 380.507 60.59 380.415C61.5478 380.256 62.516 380.167 63.4868 380.151C64.393 380.151 65.1465 380.151 65.8541 380.151C66.1698 380.151 66.4701 380.151 66.7705 380.181C69.204 380.263 71.7444 380.431 79.2486 380.278H79.2944C79.5438 380.278 79.8035 380.278 80.0275 380.278H80.1649C80.7 380.299 81.2336 380.348 81.7635 380.426C82.2781 380.493 82.7882 380.591 83.2908 380.721H83.3366L83.525 380.772C83.5397 380.766 83.5561 380.766 83.5708 380.772C84.7618 381.094 85.904 381.575 86.9665 382.202C88.285 382.984 89.475 383.965 90.4946 385.109C95.7689 390.938 97.2656 400.932 94.3179 408.92C91.4313 416.724 95.4685 419.071 98.8235 424.514C99.4398 425.51 99.9826 426.549 100.448 427.624C100.605 428.067 100.758 428.449 100.901 428.846Z" fill="#2ED8A7"/>
<path d="M54.8979 382.386L73.7805 411.43L83.7029 410.228L83.5705 380.812C80.908 380.143 78.1702 379.819 75.4249 379.85C70.6699 379.85 60.8137 380.461 60.8137 380.461C60.8137 380.461 58.37 380.156 54.8979 382.386Z" fill="white"/>
<path d="M84.7522 370.32L72.4167 369.908C69.3503 369.809 66.4483 368.498 64.3483 366.261C62.2482 364.025 61.1218 361.046 61.2165 357.979C61.214 357.951 61.214 357.922 61.2165 357.893L61.8172 339.158C61.9557 334.244 64.0406 329.586 67.6132 326.209C71.1859 322.832 75.9536 321.013 80.8677 321.151H80.9339C85.8537 321.322 90.5045 323.438 93.8661 327.035C97.2276 330.631 99.0252 335.414 98.8645 340.334V340.38L98.3044 357.577C98.1795 361.059 96.6841 364.35 94.1438 366.733C91.6036 369.117 88.2243 370.401 84.742 370.305L84.7522 370.32Z" fill="#94D5F1"/>
<path d="M97.0111 345.995C97.0611 346.422 97.2412 346.824 97.5272 347.145C97.8132 347.467 98.1911 347.693 98.6097 347.792L98.7573 343.643C98.2198 343.736 97.7386 344.032 97.4135 344.47C97.0884 344.907 96.9443 345.454 97.0111 345.995Z" fill="black"/>
<path d="M79.9971 390.256L91.7776 384.559C91.7776 384.559 85.6684 380.191 79.3047 380.314L79.9971 390.256Z" fill="black"/>
<path d="M74.3411 391.218L62.3213 386.316C61.2697 385.88 60.382 385.124 59.7844 384.156C59.1867 383.187 58.9094 382.055 58.9917 380.919L61.4762 349.467L81.1784 350.093L81.9064 385.985C81.9268 386.894 81.7214 387.795 81.3086 388.605C80.8958 389.416 80.2886 390.112 79.5411 390.63C78.7936 391.149 77.9292 391.474 77.0253 391.576C76.1214 391.679 75.2062 391.556 74.3615 391.218H74.3411Z" fill="#94D5F1"/>
<path d="M93.8854 352.084C93.9808 352.08 94.0737 352.052 94.1552 352.003L95.9676 350.984C96.4313 350.626 96.7466 350.11 96.8535 349.533C96.9171 348.958 96.7647 348.379 96.4258 347.909L93.8854 344.697C93.8321 344.618 93.7632 344.55 93.683 344.499C93.6027 344.447 93.5128 344.412 93.4187 344.396C93.3245 344.381 93.2282 344.384 93.1355 344.407C93.0428 344.43 92.9557 344.471 92.8795 344.529C92.8033 344.586 92.7396 344.658 92.6924 344.741C92.6451 344.824 92.6152 344.916 92.6045 345.011C92.5938 345.106 92.6026 345.202 92.6302 345.293C92.6579 345.384 92.7039 345.469 92.7654 345.542V345.573L95.2803 348.795C95.4012 348.965 95.4588 349.172 95.4432 349.381C95.4291 349.482 95.3943 349.58 95.3409 349.667C95.2874 349.755 95.2166 349.831 95.1327 349.89L93.4476 350.837C93.3712 350.877 93.3036 350.933 93.2487 350.999C93.1938 351.066 93.1526 351.143 93.1276 351.226C93.1025 351.309 93.094 351.396 93.1026 351.482C93.1112 351.568 93.1368 351.651 93.1777 351.728C93.2334 351.846 93.326 351.943 93.4417 352.005C93.5573 352.066 93.6898 352.089 93.8192 352.069L93.8854 352.084Z" fill="black"/>
<path d="M92.0527 358.88C92.6089 358.78 93.1387 358.567 93.6096 358.254C94.0806 357.942 94.4828 357.536 94.7917 357.063C94.8509 356.988 94.894 356.903 94.9183 356.811C94.9426 356.718 94.9475 356.622 94.9327 356.528C94.9179 356.434 94.8837 356.345 94.8324 356.264C94.781 356.184 94.7136 356.116 94.6344 356.063C94.5551 356.01 94.4658 355.975 94.3721 355.958C94.2783 355.942 94.1822 355.945 94.0898 355.968C93.9974 355.99 93.9107 356.032 93.8352 356.09C93.7597 356.148 93.6971 356.221 93.6513 356.304C93.453 356.609 93.196 356.87 92.8952 357.074C92.5945 357.278 92.2562 357.419 91.9 357.491C91.1262 357.582 90.2454 357.18 89.3545 356.315C89.2876 356.253 89.2093 356.205 89.124 356.174C89.0387 356.143 88.9481 356.129 88.8573 356.133C88.7666 356.136 88.6774 356.158 88.595 356.196C88.5126 356.234 88.4385 356.288 88.377 356.355C88.3155 356.422 88.2678 356.501 88.2365 356.586C88.2053 356.671 88.1912 356.762 88.1949 356.852C88.1987 356.943 88.2203 357.032 88.2586 357.115C88.2968 357.197 88.3509 357.271 88.4177 357.333C89.665 358.524 90.8818 359.028 92.0629 358.86L92.0527 358.88Z" fill="black"/>
<path d="M81.5953 370.188L73.521 369.913L81.7328 378.226L81.5953 370.188Z" fill="black"/>
<path d="M87.212 347.542C88.3734 347.464 89.2513 346.455 89.1728 345.288C89.0942 344.121 88.089 343.238 86.9276 343.316C85.7662 343.394 84.8884 344.404 84.9669 345.571C85.0454 346.738 86.0506 347.62 87.212 347.542Z" fill="black"/>
<path d="M65.2636 419.29L63.6344 422.014L60.2489 427.69L59.5616 428.841L58.8743 429.997H17.6372L18.3296 428.841L19.0118 427.69L39.1365 393.947C40.6329 391.449 42.722 389.358 45.219 387.859C47.7159 386.36 50.5438 385.5 53.4524 385.354C53.4066 388.052 53.3659 390.75 53.3761 393.499C53.8325 399.581 55.8911 405.434 59.3427 410.463C60.8195 413.716 62.8197 416.705 65.2636 419.311V419.29Z" fill="#2ED8A7"/>
<path d="M98.2022 334.846L77.9909 334.184C77.3727 334.167 76.7723 334.392 76.3177 334.812C75.8632 335.231 75.5903 335.812 75.5574 336.429L74.8956 347.792H70.8788L68.1551 347.008L60.5186 361.07L60.8698 332.199C60.8865 330.585 61.2207 328.992 61.8536 327.508C62.4864 326.024 63.4054 324.679 64.558 323.551C65.7107 322.422 67.0744 321.532 68.5712 320.931C70.068 320.329 71.6687 320.029 73.2817 320.046C73.5821 320.046 73.8774 320.046 74.1726 320.092L102.423 322.286L98.2022 334.846Z" fill="black"/>
<path d="M63.8482 422.941L61.1907 427.69L60.5441 428.841L59.8975 429.997H58.3193L58.9659 428.841L59.6124 427.69L62.667 422.248C62.7577 422.09 62.9072 421.975 63.0828 421.927C63.2584 421.88 63.4458 421.903 63.6038 421.994H63.6394C63.7865 422.092 63.8909 422.242 63.9316 422.414C63.9722 422.586 63.946 422.767 63.8583 422.92L63.8482 422.941Z" fill="black"/>
<path d="M101.124 428.846L101.374 430.002H99.9942L99.7448 428.846L99.4902 427.695L98.808 424.59L97.0771 416.689C97.0379 416.516 97.069 416.335 97.1635 416.185C97.258 416.035 97.4082 415.929 97.5811 415.889C97.7539 415.85 97.9352 415.881 98.0851 415.976C98.235 416.07 98.3412 416.221 98.3804 416.393L100.86 427.695L101.124 428.846Z" fill="black"/>
<path d="M83.7029 410.228L83.1938 427.69L83.1581 428.841L83.1276 429.997H81.921L81.4119 428.841L80.9028 427.69L73.7754 411.43L83.7029 410.228Z" fill="black"/>
<path d="M104.79 345.42C104.632 344.091 103.954 342.88 102.904 342.051C101.854 341.222 100.519 340.842 99.1899 340.996C99.083 340.996 98.971 341.026 98.8641 341.047C97.7442 341.257 96.7285 341.84 95.9832 342.702C95.2379 343.564 94.8069 344.653 94.7607 345.791C94.7607 345.863 94.7607 345.929 94.7607 346C94.7618 346.213 94.7754 346.425 94.8015 346.637C94.9423 347.862 95.528 348.994 96.4476 349.817C97.3672 350.64 98.5567 351.097 99.7907 351.101C99.9898 351.102 100.189 351.09 100.386 351.066C101.717 350.9 102.928 350.213 103.753 349.156C104.578 348.098 104.949 346.756 104.785 345.425L104.79 345.42ZM100.208 349.691C99.6498 349.758 99.0836 349.696 98.5535 349.508C97.8153 349.246 97.1794 348.756 96.7379 348.109C96.2964 347.462 96.0722 346.692 96.0977 345.909C96.1232 345.126 96.3971 344.371 96.8798 343.755C97.3625 343.138 98.0289 342.69 98.7826 342.477C98.9597 342.427 99.14 342.39 99.3223 342.365C99.805 342.306 100.295 342.342 100.763 342.472C101.232 342.601 101.671 342.822 102.054 343.121C102.438 343.421 102.758 343.792 102.998 344.216C103.238 344.639 103.392 345.105 103.451 345.588C103.511 346.071 103.474 346.56 103.345 347.029C103.215 347.498 102.994 347.936 102.695 348.32C102.396 348.703 102.024 349.024 101.601 349.263C101.177 349.503 100.711 349.657 100.229 349.717L100.208 349.691Z" fill="black"/>
<path d="M92.2508 344.804C92.2302 344.632 92.1996 344.462 92.1592 344.295C91.9368 343.302 91.4195 342.401 90.6753 341.708C89.931 341.015 88.9946 340.563 87.989 340.413C86.9834 340.262 85.9556 340.418 85.0408 340.862C84.1259 341.306 83.3668 342.017 82.863 342.9C82.329 343.849 82.1098 344.944 82.2368 346.026C82.3787 347.253 82.9653 348.385 83.8856 349.209C84.8058 350.032 85.996 350.49 87.2311 350.496C87.4284 350.494 87.6255 350.482 87.8216 350.46H87.8471C89.0269 350.315 90.1179 349.759 90.928 348.889C91.7382 348.02 92.2156 346.892 92.2763 345.705C92.2967 345.404 92.2882 345.103 92.2508 344.804ZM87.6689 349.075C86.7016 349.187 85.7295 348.911 84.9659 348.306C84.2023 347.702 83.7097 346.82 83.5961 345.853C83.5199 345.229 83.6058 344.596 83.8456 344.015C83.876 343.934 83.9117 343.856 83.9525 343.781C84.2378 343.214 84.6649 342.732 85.1923 342.379C85.7197 342.027 86.3293 341.818 86.9617 341.771C87.5941 341.725 88.2278 341.843 88.801 342.114C89.3741 342.386 89.8672 342.801 90.2322 343.319C90.5972 343.838 90.8216 344.442 90.8836 345.073C90.9456 345.704 90.843 346.341 90.5859 346.92C90.3288 347.5 89.9259 348.003 89.4164 348.381C88.907 348.758 88.3085 348.998 87.6791 349.075H87.6689Z" fill="black"/>
<path d="M95.4118 346.046C95.5639 346.025 95.7057 345.957 95.8178 345.853C95.93 345.748 96.0069 345.611 96.038 345.461C96.0582 345.281 96.0071 345.101 95.8956 344.959C95.7842 344.817 95.6214 344.725 95.4424 344.702L91.6903 344.228C91.5095 344.211 91.3293 344.267 91.189 344.382C91.0488 344.498 90.96 344.664 90.9419 344.844C90.927 345.021 90.9797 345.196 91.0894 345.335C91.1991 345.474 91.3575 345.566 91.5325 345.593L95.2846 346.066L95.4118 346.046Z" fill="black"/>
<path d="M83.367 344.305C83.5505 344.28 83.7167 344.183 83.83 344.037C83.9433 343.89 83.9945 343.705 83.9728 343.521C83.9523 343.362 83.8779 343.215 83.762 343.105C83.6461 342.995 83.4959 342.928 83.3364 342.915L68.99 342.238C68.9001 342.235 68.8103 342.249 68.726 342.28C68.6416 342.312 68.5643 342.359 68.4983 342.421C68.4324 342.482 68.3791 342.555 68.3416 342.637C68.3041 342.719 68.2831 342.807 68.2798 342.897C68.2764 342.987 68.2908 343.077 68.3222 343.161C68.3535 343.246 68.4011 343.323 68.4623 343.389C68.5236 343.455 68.5972 343.508 68.679 343.546C68.7608 343.583 68.8491 343.604 68.9391 343.607L83.2906 344.285C83.2753 344.315 83.3211 344.31 83.367 344.305Z" fill="black"/>
<path d="M67.8447 349.62L70.9451 349.661L70.9757 342.65C70.9977 342.234 70.9356 341.818 70.7931 341.426C70.6505 341.034 70.4303 340.675 70.1458 340.37C69.8613 340.065 69.5183 339.821 69.1372 339.652C68.7561 339.483 68.3448 339.393 67.928 339.386C67.5111 339.38 67.0972 339.457 66.7111 339.614C66.3249 339.771 65.9744 340.005 65.6805 340.301C65.3866 340.596 65.1554 340.948 65.0006 341.335C64.8459 341.722 64.7708 342.137 64.7799 342.554L64.7443 346.458C64.7362 346.864 64.8081 347.268 64.956 347.646C65.1038 348.024 65.3247 348.369 65.606 348.662C65.8873 348.954 66.2235 349.189 66.5954 349.351C66.9673 349.514 67.3676 349.602 67.7734 349.61L67.8447 349.62Z" fill="#94D5F1"/>
<path d="M73.8417 393.968L77.1305 384.473L57.6931 376.475L57.2349 382.981L65.9863 390.445L73.8417 393.968Z" fill="white"/>
<path d="M77.1304 384.473L82.1246 392.99L83.5756 388.546L83.5247 380.843L81.7326 378.226L77.1304 384.473Z" fill="white"/>
<path d="M77.1305 384.473L73.9741 393.535L81.8957 392.573L77.1305 384.473Z" fill="black"/>
<path d="M157.39 315.174V422.594C157.39 424.555 156.613 426.436 155.228 427.825C153.843 429.214 151.964 429.996 150.003 430.002H8.61097C6.64998 429.998 4.77085 429.215 3.38661 427.826C2.00237 426.437 1.22631 424.555 1.22901 422.594V315.174H3.53524V422.594C3.53183 423.725 3.90473 424.824 4.59514 425.719C5.28555 426.614 6.25419 427.254 7.34839 427.538C7.51131 427.573 7.67422 427.609 7.85749 427.634C8.11515 427.675 8.37558 427.695 8.63642 427.696H150.003C150.263 427.695 150.521 427.675 150.777 427.634C150.945 427.634 151.113 427.573 151.286 427.538C152.381 427.255 153.35 426.617 154.041 425.722C154.732 424.828 155.107 423.73 155.105 422.599V315.179L157.39 315.174Z" fill="#94D5F1"/>
<path d="M157.304 22.5635V130.539C157.306 132.203 156.648 133.8 155.474 134.978C154.3 136.157 152.706 136.822 151.042 136.826H8.66169C7.8376 136.827 7.02131 136.666 6.2595 136.352C5.49769 136.038 4.80529 135.576 4.22185 134.994C3.63842 134.412 3.17539 133.721 2.85926 132.96C2.54312 132.199 2.38006 131.383 2.37939 130.559V22.5635H157.304Z" fill="white"/>
<path d="M156.281 2.17905C155.593 1.48402 154.774 0.933256 153.871 0.559086C152.968 0.184916 151.999 -0.00512471 151.022 0.000105076H8.66187C6.69003 0.00414805 4.80026 0.789941 3.40691 2.1852C2.01356 3.58046 1.23035 5.47131 1.229 7.44315V23.7344H158.46V7.44315C158.468 6.46446 158.279 5.4941 157.905 4.58978C157.531 3.68546 156.978 2.86563 156.281 2.17905Z" fill="#94D5F1"/>
<path d="M13.9871 15.935C16.2392 15.935 18.065 14.107 18.065 11.852C18.065 9.59703 16.2392 7.76901 13.9871 7.76901C11.7349 7.76901 9.90918 9.59703 9.90918 11.852C9.90918 14.107 11.7349 15.935 13.9871 15.935Z" fill="#036EC2"/>
<path d="M27.9163 15.935C30.1684 15.935 31.9942 14.107 31.9942 11.852C31.9942 9.59703 30.1684 7.76901 27.9163 7.76901C25.6641 7.76901 23.8384 9.59703 23.8384 11.852C23.8384 14.107 25.6641 15.935 27.9163 15.935Z" fill="#29ABE2"/>
<path d="M41.865 15.935C44.1172 15.935 45.9429 14.107 45.9429 11.852C45.9429 9.59703 44.1172 7.76901 41.865 7.76901C39.6128 7.76901 37.7871 9.59703 37.7871 11.852C37.7871 14.107 39.6128 15.935 41.865 15.935Z" fill="white"/>
<path d="M118.088 137.982H80.0781L79.5995 136.826L79.1413 135.726V135.665L69.5346 112.415C68.5654 110.116 68.0967 107.637 68.1599 105.143C68.2231 102.649 68.8167 100.198 69.9012 97.9511L69.9673 97.8238C70.2571 97.2239 70.5835 96.6424 70.9448 96.0827C72.7318 93.2865 75.2757 91.055 78.281 89.6476C78.4744 89.5509 78.678 89.4644 78.8817 89.3778C82.1376 88.0027 85.7341 87.6477 89.1961 88.3596C91.9988 88.9274 94.6197 90.1732 96.8295 91.9881C99.0394 93.8031 100.771 96.1318 101.873 98.7707L101.949 98.9438L117.12 135.67L117.629 136.831L118.088 137.982Z" fill="#2ED8A7"/>
<path d="M108.42 137.982H44.2227C44.1871 137.595 44.1565 137.208 44.126 136.826C44.0955 136.444 44.0649 136.047 44.0293 135.665C43.8053 132.768 43.5864 129.968 43.3929 127.448C43.0365 122.836 42.7769 119.145 42.6598 117.475C42.39 113.463 49.5428 117.704 49.5428 117.704C46.0046 108.708 43.4336 101.194 50.4337 96.2711H50.4592L50.8003 96.0369C53.0811 94.5096 58.0652 91.4244 62.2703 89.6426C63.6834 88.9857 65.1865 88.543 66.7301 88.3291C71.1389 87.9218 71.9025 88.3291 82.3849 87.3822C83.2133 87.3134 84.046 87.3134 84.8744 87.3822C86.3604 87.488 87.8197 87.8318 89.1967 88.4004C98.1517 92.1015 102.184 104.773 99.2107 114.807C99.0032 115.488 98.8332 116.18 98.7016 116.879C98.5947 117.5 98.5334 118.128 98.5183 118.758C98.4266 123.223 101.176 125.376 103.925 128.94C105.554 130.973 106.832 133.263 107.708 135.716C107.845 136.093 107.967 136.475 108.089 136.877C108.212 137.279 108.308 137.635 108.405 138.033L108.42 137.982Z" fill="#2ED8A7"/>
<path d="M87.1548 77.0729L74.8702 77.5209C71.8146 77.6198 68.8445 76.5035 66.6105 74.4165C64.3765 72.3295 63.061 69.4421 62.9521 66.3869L62.3208 47.82C62.2212 45.4044 62.5983 42.9929 63.4306 40.7232C64.2629 38.4534 65.5342 36.3698 67.1717 34.5913C68.8093 32.8128 70.7812 31.3743 72.9747 30.3579C75.1683 29.3416 77.5406 28.7672 79.9561 28.6676H80.0426C84.935 28.5014 89.6931 30.2852 93.2704 33.6267C96.8477 36.9682 98.9513 41.5938 99.1186 46.4861L99.7041 63.5257C99.8435 66.969 98.613 70.3272 96.282 72.8652C93.951 75.4033 90.7094 76.9144 87.2668 77.0678L87.1548 77.0729Z" fill="#036EC2"/>
<path d="M99.3883 53.8529C98.9134 53.7599 98.4847 53.5071 98.1735 53.1366C97.8623 52.7661 97.6873 52.3002 97.6777 51.8165C97.6846 51.3577 97.8431 50.9141 98.1286 50.5549C98.4141 50.1957 98.8105 49.9411 99.2559 49.831L99.3883 53.8529Z" fill="black"/>
<path d="M62.1836 93.2114L91.5638 111.29L85.3527 88.0746L62.1836 93.2114Z" fill="white"/>
<path d="M78.1995 98.4857L62.229 93.2114L62.6363 58.002L82.2519 57.3249L85.3523 92.8092C85.4295 93.7102 85.2824 94.6162 84.9242 95.4464C84.5661 96.2767 84.0079 97.0054 83.2996 97.5675C82.5913 98.1296 81.7549 98.5076 80.865 98.6678C79.9751 98.828 79.0593 98.7655 78.1995 98.4857Z" fill="#036EC2"/>
<path d="M94.9035 58.3635C94.8023 58.3683 94.7016 58.3458 94.612 58.2983C94.5224 58.2509 94.4473 58.1802 94.3944 58.0937C94.3107 57.9613 94.283 57.8012 94.3174 57.6484C94.3518 57.4957 94.4454 57.3628 94.5777 57.2791L96.1966 56.2609C96.2835 56.1906 96.3531 56.1012 96.3999 55.9997C96.4467 55.8981 96.4695 55.7872 96.4665 55.6754C96.4744 55.5605 96.4586 55.4451 96.4201 55.3365C96.3816 55.2279 96.3211 55.1284 96.2425 55.0441L93.4984 52.0201C93.3956 51.8999 93.3439 51.7443 93.3543 51.5866C93.3647 51.4288 93.4364 51.2814 93.554 51.1757C93.6716 51.0701 93.8259 51.0146 93.9839 51.0211C94.1418 51.0276 94.291 51.0956 94.3995 51.2106L97.1436 54.2296C97.4962 54.6442 97.6877 55.1719 97.6832 55.7162C97.6671 55.9929 97.5947 56.2634 97.4704 56.5111C97.3461 56.7589 97.1725 56.9786 96.9603 57.1569L96.9145 57.2027L95.2497 58.2871C95.1426 58.3524 95.0186 58.3843 94.8933 58.3788L94.9035 58.3635Z" fill="black"/>
<path d="M83.9574 77.2053L76.1274 76.126L84.6803 85.1421L83.9574 77.2053Z" fill="black"/>
<path d="M87.781 54.3976C88.9254 54.3976 89.8531 53.4699 89.8531 52.3255C89.8531 51.1812 88.9254 50.2535 87.781 50.2535C86.6367 50.2535 85.709 51.1812 85.709 52.3255C85.709 53.4699 86.6367 54.3976 87.781 54.3976Z" fill="black"/>
<path d="M45.0828 136.826C45.3068 137.198 45.5461 137.585 45.8057 137.982H45.1235C45.0319 137.569 44.9301 137.182 44.8283 136.826C44.7265 136.47 44.6144 136.113 44.5024 135.808C44.6755 136.139 44.869 136.475 45.0828 136.826Z" fill="black"/>
<path d="M80.2103 137.982H44.7667L44.6139 136.826L44.4663 135.665L43.3921 127.448L41.6204 113.911C41.1609 110.427 41.7546 106.885 43.3251 103.742C44.8956 100.598 47.3711 97.996 50.433 96.2711H50.4584C52.7253 95.0019 55.2458 94.2522 57.8379 94.0761C60.4299 93.9 63.0286 94.3019 65.4463 95.2529C67.0614 95.8878 68.573 96.7594 69.9315 97.8391C70.181 98.0377 70.4406 98.2464 70.6595 98.4551C73.8281 101.262 75.8734 105.121 76.4175 109.319L78.683 126.578L79.8793 135.67L80.0321 136.831L80.2103 137.982Z" fill="#2ED8A7"/>
<path d="M80.5367 46.1909L99.1188 45.1727L100.605 41.8839C101.275 40.4038 101.562 38.7794 101.441 37.1594C101.32 35.5394 100.795 33.9757 99.913 32.6115C99.031 31.2472 97.8208 30.1261 96.3933 29.3508C94.9657 28.5755 93.3665 28.1708 91.742 28.1738H66.9029C65.6301 28.1738 64.3698 28.425 63.1942 28.9131C62.0186 29.4011 60.9509 30.1163 60.0523 31.0178C59.1537 31.9192 58.4419 32.9892 57.9576 34.1663C57.4733 35.3434 57.226 36.6045 57.23 37.8773C57.2285 38.3425 57.2625 38.8071 57.3319 39.2671L62.4229 75.062L73.0885 55.7162L73.7605 66.4429H73.8063L73.9387 71.9005C73.9876 73.3528 74.5991 74.7293 75.6441 75.7391C76.6891 76.749 78.0856 77.313 79.5388 77.3122L87.1448 77.2664C88.7767 77.2651 90.3925 76.9423 91.8997 76.3166C93.4069 75.6908 94.7761 74.7743 95.9291 73.6194C97.0822 72.4645 97.9964 71.0938 98.6197 69.5855C99.243 68.0773 99.5631 66.461 99.5618 64.8291V61.4843C99.5658 60.7033 99.2609 59.9524 98.7134 59.3954C98.166 58.8384 97.4204 58.5205 96.6395 58.5111H91.7776C90.8174 58.515 89.8744 58.7657 89.039 59.2391C88.2036 59.7125 87.504 60.3927 87.0073 61.2145L86.9615 61.3061C86.4787 62.1027 85.7988 62.7615 84.9873 63.219C84.1758 63.6764 83.2602 63.9171 82.3287 63.9178L80.1243 63.9636C79.2927 63.9776 78.4886 63.666 77.8837 63.0953C77.2787 62.5246 76.9208 61.74 76.8864 60.909L76.4333 50.9459C76.3477 49.779 76.7284 48.6258 77.4919 47.7391C78.2554 46.8525 79.3394 46.3049 80.5061 46.2164L80.5367 46.1909Z" fill="black"/>
<path d="M91.2939 63.9534C91.2939 67.4713 96.5988 67.1099 96.5988 63.4443L91.2939 63.9534Z" fill="white"/>
<path d="M73.4807 63.6021L70.6093 63.8261C69.8436 63.8679 69.0925 63.6048 68.5201 63.0944C67.9478 62.5841 67.6007 61.8679 67.5547 61.1024V61.0566C67.552 61.0278 67.552 60.9989 67.5547 60.9701L67.2543 56.2405C67.1757 55.4643 67.4064 54.6885 67.8963 54.0813C68.3862 53.4742 69.0958 53.0847 69.8711 52.9976H69.9526C70.3337 52.9741 70.7156 53.026 71.0767 53.1502C71.4377 53.2743 71.7708 53.4685 72.0568 53.7214C72.3428 53.9743 72.5762 54.2811 72.7436 54.6242C72.9111 54.9674 73.0093 55.3401 73.0326 55.7212V55.7518C73.0351 55.7806 73.0351 55.8095 73.0326 55.8383L73.4807 63.6021Z" fill="#036EC2"/>
<path d="M109.036 137.982H107.631C107.524 137.605 107.397 137.218 107.27 136.826C107.142 136.434 107.005 136.052 106.857 135.665C106.048 133.435 105.024 131.083 103.965 128.889C101.822 124.404 99.5363 120.392 98.5588 118.707C98.2585 118.198 98.0497 117.893 98.0497 117.867C98.0024 117.79 97.9708 117.704 97.9566 117.615C97.9425 117.525 97.9462 117.434 97.9675 117.346C97.9888 117.258 98.0273 117.175 98.0807 117.102C98.1341 117.029 98.2015 116.967 98.2788 116.92C98.4343 116.828 98.6193 116.8 98.795 116.842C98.9706 116.884 99.1232 116.992 99.2207 117.144C99.5363 117.653 105.401 127.367 108.303 135.66C108.44 136.047 108.573 136.439 108.695 136.821C108.817 137.203 108.939 137.6 109.046 137.977L109.036 137.982Z" fill="black"/>
<path d="M80.7912 137.982H79.4218L79.2843 136.826L79.1468 135.726V135.665L78.1286 127.341C78.1068 127.162 78.1557 126.982 78.2651 126.838C78.3745 126.694 78.5356 126.599 78.7141 126.573C78.8907 126.553 79.0682 126.603 79.2082 126.712C79.3483 126.822 79.4396 126.982 79.4625 127.158L80.5112 135.665L80.6589 136.826L80.7912 137.982Z" fill="black"/>
<path d="M158.46 22.5635V130.539C158.46 131.516 158.268 132.484 157.895 133.387C157.521 134.29 156.974 135.11 156.283 135.801C155.592 136.493 154.772 137.041 153.869 137.415C152.966 137.789 151.999 137.982 151.022 137.982H8.66188C6.69003 137.978 4.80026 137.192 3.40691 135.797C2.01356 134.401 1.23035 132.51 1.229 130.539V22.5635H3.5505V130.539C3.54933 131.676 3.92631 132.781 4.62215 133.681C5.31798 134.58 6.29315 135.223 7.3942 135.507L7.9033 135.609C8.16306 135.646 8.42501 135.665 8.68732 135.665H151.022C151.284 135.665 151.546 135.646 151.806 135.609L152.315 135.507C153.414 135.221 154.387 134.579 155.081 133.681C155.776 132.782 156.153 131.679 156.153 130.544V22.5635H158.46Z" fill="#94D5F1"/>
<path d="M156.591 169.76V277.46C156.592 278.282 156.432 279.095 156.119 279.855C155.806 280.615 155.346 281.305 154.766 281.887C154.186 282.469 153.497 282.931 152.738 283.247C151.979 283.562 151.166 283.726 150.344 283.727H8.30539C7.48373 283.728 6.66998 283.566 5.9106 283.253C5.15123 282.939 4.46111 282.478 3.87964 281.898C3.29817 281.317 2.83672 280.628 2.52167 279.869C2.20662 279.11 2.04413 278.297 2.04346 277.475V169.76H156.591Z" fill="white"/>
<path d="M155.573 149.426C154.886 148.735 154.068 148.187 153.167 147.813C152.266 147.44 151.3 147.25 150.325 147.252H8.28547C6.31721 147.256 4.4308 148.04 3.03951 149.433C1.64821 150.825 0.865483 152.712 0.862793 154.68V170.915H157.747V154.68C157.754 153.704 157.565 152.736 157.192 151.833C156.819 150.931 156.268 150.112 155.573 149.426Z" fill="#94D5F1"/>
<path d="M13.6048 163.141C15.8514 163.141 17.6725 161.32 17.6725 159.074C17.6725 156.827 15.8514 155.006 13.6048 155.006C11.3583 155.006 9.53711 156.827 9.53711 159.074C9.53711 161.32 11.3583 163.141 13.6048 163.141Z" fill="#036EC2"/>
<path d="M27.4984 163.141C29.7449 163.141 31.5661 161.32 31.5661 159.074C31.5661 156.827 29.7449 155.006 27.4984 155.006C25.2518 155.006 23.4307 156.827 23.4307 159.074C23.4307 161.32 25.2518 163.141 27.4984 163.141Z" fill="#29ABE2"/>
<path d="M41.4168 163.146C43.6634 163.146 45.4846 161.325 45.4846 159.079C45.4846 156.832 43.6634 155.011 41.4168 155.011C39.1703 155.011 37.3491 156.832 37.3491 159.079C37.3491 161.325 39.1703 163.146 41.4168 163.146Z" fill="white"/>
<path d="M157.747 234.151V277.455C157.745 279.423 156.962 281.309 155.57 282.701C154.179 284.092 152.292 284.875 150.325 284.878H8.28547C6.31727 284.876 4.43007 284.094 3.03834 282.702C1.64661 281.31 0.864142 279.423 0.862793 277.455V234.151H3.17919V277.455C3.17581 278.589 3.55111 279.692 4.24557 280.588C4.94003 281.484 5.91389 282.123 7.01272 282.403C7.17945 282.451 7.34969 282.485 7.52182 282.505C7.77948 282.546 8.03993 282.566 8.30076 282.566H150.34C150.601 282.567 150.861 282.546 151.119 282.505C151.291 282.485 151.461 282.451 151.628 282.403C152.727 282.123 153.701 281.484 154.395 280.588C155.089 279.692 155.465 278.589 155.461 277.455V234.151H157.747Z" fill="#94D5F1"/>
<path d="M157.746 265.007V277.46C157.745 279.428 156.963 281.315 155.571 282.707C154.179 284.099 152.292 284.881 150.324 284.883H69.6619C69.3615 284.506 69.0357 284.119 68.6997 283.727C68.3637 283.335 68.0378 282.963 67.6815 282.571C67.135 281.964 66.5513 281.336 65.9302 280.688C62.8043 277.45 60.8392 273.336 59.5715 268.708C57.9373 262.64 57.586 255.691 57.6318 248.691C57.6318 247.316 57.6675 245.936 57.698 244.557C57.698 244.465 57.698 244.363 57.698 244.272C57.7744 241.36 57.8864 238.478 57.9729 235.673C57.9729 235.449 57.9729 235.23 57.9729 235.006C58.1478 230.858 58.1138 226.703 57.8711 222.558C57.8253 221.912 57.7642 221.276 57.6929 220.654C57.6929 220.466 57.6471 220.278 57.6216 220.089C57.4944 219.03 57.3213 218.017 57.1125 217.035C56.5067 214.209 54.8725 210.64 53.0856 206.761L52.6885 205.911C50.9929 202.412 49.5138 198.813 48.2593 195.133C46.4265 189.34 49.5015 184.152 54.063 182.014C54.7317 181.697 55.4312 181.45 56.1504 181.276C57.6747 180.903 59.2627 180.872 60.8004 181.185C62.3381 181.499 63.7874 182.148 65.0443 183.088C67.8881 185.198 70.4285 187.689 72.5943 190.49C73.3083 191.398 74.1685 192.181 75.1398 192.807C75.2586 192.885 75.3757 192.956 75.4911 193.02L75.7405 193.163C79.6097 195.357 83.5145 197.48 88.9161 200.53C100.804 207.26 103.593 218.476 106.256 228.479C107.783 234.232 109.26 239.573 112.396 243.442C113.923 245.315 116.051 246.715 118.622 247.881L119.452 248.243C125.184 250.646 132.841 252.081 140.671 255.009C145.967 256.885 150.933 259.588 155.384 263.017C155.771 263.327 156.158 263.643 156.54 263.969C156.922 264.295 157.314 264.631 157.696 264.987L157.746 265.007Z" fill="#036EC2"/>
<path d="M147.473 202.668C147.473 202.668 150.192 242.011 145.356 250.014C143.281 253.478 140.027 256.079 136.192 257.34L134.517 257.895L76.9884 272.364C72.5357 273.802 67.6952 273.422 63.5214 271.307C59.3475 269.192 56.1784 265.513 54.7044 261.073C53.2304 256.632 53.5708 251.788 55.6516 247.597C57.7324 243.406 61.385 240.207 65.8137 238.697H65.8951L123.423 224.234L118.363 255.289L120.746 198.779L147.473 202.668Z" fill="#2ED8A7"/>
<path d="M120.714 198.728L122.832 191.29C123.721 188.236 125.71 185.619 128.415 183.946C131.12 182.274 134.349 181.663 137.479 182.233C140.608 182.803 143.415 184.513 145.357 187.032C147.298 189.551 148.237 192.7 147.992 195.872L147.483 202.673L120.714 198.728Z" fill="#EAF9FF"/>
<path d="M89.2165 283.727C89.3489 284.099 89.471 284.486 89.5881 284.883H28.6081C28.7557 284.491 28.9034 284.104 29.0612 283.727C29.219 283.35 29.387 282.948 29.5703 282.571C31.347 278.626 33.3631 275.739 33.0423 273.698C32.4111 269.681 27.4982 265.104 27.4982 265.104C23.8582 257.549 25.9149 249.617 30.9652 243.992C32.8774 241.878 35.1557 240.128 37.6904 238.824L37.8432 238.748C39.3038 238.009 40.8401 237.431 42.4251 237.022C42.7407 236.936 43.0564 236.864 43.3771 236.798C43.6978 236.732 43.8862 236.691 44.1458 236.645L44.7669 236.544C48.7175 235.953 49.6136 236.213 58.0035 235.016L59.7141 234.767C60.5398 234.645 61.3743 234.594 62.2087 234.614C63.0658 234.635 63.9186 234.743 64.7542 234.935C66.7662 235.396 68.652 236.295 70.278 237.567C70.9916 238.121 71.6621 238.729 72.2838 239.384C77.329 244.71 79.7523 253.588 78.3014 261.209C77.5377 265.206 78.1945 267.665 79.5385 269.737C79.9199 270.321 80.3418 270.877 80.8011 271.402C83.1684 274.166 86.5183 276.798 88.7736 282.602C88.9212 282.973 89.0587 283.355 89.191 283.758L89.2165 283.727Z" fill="#2ED8A7"/>
<path d="M40.8777 237.516C39.6914 238.814 39.8594 242.872 44.9759 244.506C50.0924 246.14 58.9303 249.597 62.2039 249.526C65.4774 249.454 70.0593 245.921 69.092 240.871C68.8867 239.507 68.2684 238.238 67.3203 237.236C66.3429 236.253 65.0192 235.627 62.9115 235.332C56.8023 234.466 44.6297 236.498 43.413 236.706L40.8777 237.516Z" fill="white"/>
<path d="M90.0924 284.883H89.0742C88.952 284.486 88.8247 284.099 88.6924 283.727C88.56 283.355 88.4124 282.943 88.2596 282.571C86.5134 278.224 84.141 275.688 82.1046 273.55C81.4535 272.914 80.8383 272.243 80.2617 271.539C79.9715 271.188 79.6915 270.831 79.4268 270.46C79.3495 270.352 79.3174 270.218 79.3373 270.087C79.3573 269.956 79.4278 269.837 79.5337 269.757H79.5795C79.6875 269.695 79.8145 269.675 79.9365 269.7C80.0585 269.726 80.1669 269.795 80.2413 269.895C80.5926 270.373 80.9642 270.837 81.3512 271.29C81.8144 271.834 82.3032 272.359 82.8072 272.868C84.9607 275.154 87.5113 277.837 89.3389 282.592C89.4815 282.963 89.6189 283.345 89.7513 283.742C89.8837 284.139 90.0008 284.506 90.1128 284.903L90.0924 284.883Z" fill="black"/>
<path d="M58.0747 244.689L73.5463 236.742C72.7012 236.357 71.8362 236.017 70.9549 235.724C68.1618 234.814 65.2375 234.372 62.3002 234.416L58.0747 244.689Z" fill="black"/>
<path d="M13.0908 284.883C13.1723 284.496 13.2486 284.109 13.3301 283.727C13.4116 283.345 13.4879 282.953 13.5643 282.571C15.9163 271.254 18.024 262.406 18.248 261.647L19.2917 258.231C19.6277 257.213 19.928 256.195 20.259 255.177C21.112 252.641 22.5117 250.323 24.3591 248.388C26.2065 246.452 28.4565 244.946 30.9501 243.976C34.8585 242.423 39.1953 242.327 43.1685 243.707H43.2194C43.8708 243.94 44.5082 244.21 45.1285 244.516C48.3615 246.114 51.0335 248.655 52.7915 251.804C54.5495 254.953 55.3107 258.561 54.9745 262.151C54.9389 262.533 54.8931 262.91 54.8371 263.287C54.6487 264.478 54.4298 265.628 54.2058 266.82L53.5338 270.348C53.2843 271.666 53.0247 272.975 52.7243 274.288C52.5003 275.307 52.2712 276.325 52.0421 277.379C51.8385 278.3 51.3039 280.163 50.5708 282.571L50.2195 283.722C50.1024 284.094 49.9853 284.48 49.8632 284.883H13.0908Z" fill="#2ED8A7"/>
<path d="M64.2913 220.298L52.7143 220.914C49.8507 221.073 47.0408 220.09 44.8997 218.182C42.7587 216.274 41.4608 213.595 41.2901 210.732V210.686L40.6588 196.742C40.2464 188.632 47.5062 178.964 57.1079 178.415C59.3901 178.289 61.6746 178.615 63.8309 179.373C65.9872 180.131 67.973 181.307 69.675 182.832C71.3769 184.358 72.7617 186.204 73.7501 188.265C74.7385 190.326 75.3112 192.561 75.4355 194.843L75.9955 207.337C76.1632 210.6 75.0283 213.796 72.8402 216.223C70.6522 218.649 67.59 220.108 64.3269 220.278L64.2913 220.298Z" fill="#EAF9FF"/>
<path d="M72.9607 201.97C74.0516 201.97 74.936 201.086 74.936 199.995C74.936 198.904 74.0516 198.02 72.9607 198.02C71.8697 198.02 70.9854 198.904 70.9854 199.995C70.9854 201.086 71.8697 201.97 72.9607 201.97Z" fill="black"/>
<path d="M59.1192 245.061L46.0302 240.377C45.3019 240.119 44.6643 239.655 44.1951 239.042C43.7259 238.428 43.4455 237.691 43.388 236.92L41.3516 211.185C42.1712 206.873 60.1476 206.201 60.1476 206.201L65.4829 239.242C65.6113 240.084 65.5297 240.945 65.2455 241.748C64.9612 242.551 64.483 243.271 63.8533 243.845C63.2237 244.418 62.4621 244.828 61.6362 245.036C60.8104 245.245 59.9457 245.246 59.1192 245.04V245.061Z" fill="#EAF9FF"/>
<path d="M68.3489 206.089C68.4402 206.089 68.5299 206.064 68.6085 206.018L70.2071 205C70.3945 204.846 70.5497 204.657 70.664 204.443C70.7782 204.23 70.8492 203.995 70.8728 203.754C70.8965 203.513 70.8723 203.27 70.8018 203.038C70.7312 202.806 70.6156 202.59 70.4616 202.403L70.3954 202.327L67.8499 199.501C67.8163 199.436 67.7688 199.378 67.7108 199.333C67.6527 199.287 67.5854 199.255 67.5136 199.238C67.4419 199.221 67.3672 199.22 67.295 199.235C67.2227 199.249 67.1545 199.28 67.0951 199.323C67.0357 199.367 66.9864 199.423 66.9509 199.488C66.9153 199.552 66.8941 199.624 66.889 199.698C66.8838 199.771 66.8946 199.845 66.9208 199.914C66.947 199.983 66.9878 200.045 67.0405 200.097C67.0597 200.125 67.0819 200.15 67.1067 200.173L69.6522 202.999C69.8007 203.161 69.8793 203.375 69.8711 203.595C69.8736 203.705 69.8478 203.813 69.7961 203.911C69.7444 204.008 69.6685 204.09 69.5758 204.149L68.0485 205.168C67.9921 205.204 67.9436 205.252 67.9056 205.307C67.8676 205.363 67.841 205.425 67.8273 205.491C67.8135 205.557 67.813 205.624 67.8256 205.69C67.8382 205.756 67.8638 205.819 67.9009 205.875C67.9435 205.956 68.0083 206.023 68.0877 206.068C68.1671 206.113 68.2577 206.135 68.3489 206.13V206.089Z" fill="black"/>
<path d="M68.2722 212.041H68.4554C69.7231 211.964 71.062 211.022 71.2504 209.103C71.2578 209.036 71.2519 208.969 71.2331 208.904C71.2143 208.839 71.183 208.779 71.1409 208.727C71.0988 208.674 71.0468 208.631 70.9879 208.598C70.9289 208.566 70.8642 208.545 70.7973 208.538C70.7304 208.531 70.6628 208.536 70.5982 208.555C70.5336 208.574 70.4734 208.605 70.4209 208.647C70.3684 208.69 70.3248 208.742 70.2924 208.8C70.26 208.859 70.2396 208.924 70.2322 208.991C70.2287 209.492 70.0409 209.973 69.7047 210.344C69.3685 210.715 68.9075 210.949 68.4096 211.002C67.478 211.073 66.3732 210.442 66.027 208.92C65.9933 208.785 65.9073 208.669 65.7879 208.597C65.6686 208.525 65.5257 208.504 65.3907 208.538C65.2556 208.572 65.1396 208.658 65.068 208.777C64.9963 208.896 64.9751 209.039 65.0088 209.174C65.4619 211.185 66.9129 212.041 68.2518 212.041H68.2722Z" fill="black"/>
<path d="M62.3923 220.369L54.9492 219.926L63.6039 227.624L62.3923 220.369Z" fill="black"/>
<path d="M61.6848 202.525C62.7757 202.525 63.6601 201.641 63.6601 200.55C63.6601 199.459 62.7757 198.575 61.6848 198.575C60.5938 198.575 59.7095 199.459 59.7095 200.55C59.7095 201.641 60.5938 202.525 61.6848 202.525Z" fill="black"/>
<path d="M54.3179 178.46C55.6924 183.444 71.9938 192.517 75.7001 193.077C75.7154 193.077 75.0484 177.269 54.3179 178.46Z" fill="#036EC2"/>
<path d="M54.3181 178.46C54.3181 178.46 51.8235 218.364 51.8235 227.624C51.8235 236.885 43.1688 234.426 34.402 240.861C23.0542 233.535 21.0076 212.117 31.8005 205.606C40.9185 200.102 38.2356 197.277 42.3695 188.652C46.5034 180.028 54.3181 178.46 54.3181 178.46Z" fill="#036EC2"/>
<path d="M53.0856 274.925L50.8557 282.561L50.5197 283.717L50.1837 284.872H49.1299L49.4659 283.717L49.8019 282.561L52.1234 274.619C52.1623 274.497 52.2457 274.394 52.3571 274.331C52.4684 274.268 52.5995 274.249 52.7241 274.278H52.7496C52.8773 274.318 52.9842 274.407 53.0471 274.525C53.11 274.643 53.1238 274.781 53.0856 274.909V274.925Z" fill="black"/>
<path d="M118.999 240.601C119.126 240.591 119.246 240.537 119.339 240.449C119.431 240.361 119.491 240.244 119.508 240.117L120.175 225.165C120.18 225.03 120.131 224.899 120.039 224.8C119.946 224.701 119.819 224.643 119.684 224.638C119.549 224.633 119.417 224.683 119.319 224.775C119.22 224.867 119.162 224.994 119.157 225.13L118.485 240.082C118.485 240.211 118.533 240.335 118.621 240.43C118.709 240.524 118.83 240.582 118.958 240.591L118.999 240.601Z" fill="black"/>
<path d="M157.747 169.76V277.46C157.746 279.428 156.963 281.315 155.572 282.707C154.18 284.099 152.293 284.881 150.325 284.883H8.28547C6.31727 284.881 4.43007 284.099 3.03834 282.707C1.64661 281.315 0.864142 279.428 0.862793 277.46V169.76H3.17919V277.46C3.17581 278.594 3.55111 279.697 4.24557 280.593C4.94003 281.489 5.91389 282.128 7.01272 282.408C7.17563 282.449 7.33855 282.485 7.52182 282.51C7.77948 282.551 8.03993 282.571 8.30076 282.571H150.34C150.601 282.572 150.861 282.551 151.119 282.51C151.287 282.51 151.455 282.449 151.628 282.408C152.727 282.128 153.701 281.489 154.395 280.593C155.089 279.697 155.465 278.594 155.461 277.46V169.76H157.747Z" fill="#94D5F1"/>
<path d="M388.063 308.291H391.912V432.7H388.063V308.291Z" fill="#94D5F1"/>
<path d="M443.271 433.067H336.726L348.629 430.562C361.727 427.793 375.078 426.397 388.466 426.397H391.551C404.939 426.397 418.29 427.793 431.388 430.562L443.271 433.067Z" fill="#94D5F1"/>
<path d="M443.271 434.991H336.726C336.25 434.992 335.791 434.817 335.436 434.501C335.081 434.184 334.856 433.747 334.804 433.274C334.751 432.801 334.875 432.326 335.152 431.939C335.429 431.552 335.839 431.281 336.304 431.178L348.206 428.673C361.431 425.887 374.91 424.48 388.425 424.473H391.48C404.995 424.477 418.474 425.885 431.699 428.673L443.637 431.173C444.106 431.265 444.523 431.531 444.806 431.916C445.089 432.302 445.217 432.78 445.164 433.255C445.157 433.494 445.102 433.73 445.003 433.948C444.903 434.165 444.761 434.361 444.584 434.523C444.408 434.685 444.2 434.809 443.975 434.89C443.749 434.97 443.51 435.005 443.271 434.991ZM355.777 431.137H424.164C413.372 429.275 402.441 428.335 391.49 428.327H388.435C377.498 428.338 366.581 429.278 355.802 431.137H355.777Z" fill="#94D5F1"/>
<path d="M454.75 319.542L353.893 308.291L384.52 214.464C386.148 209.482 389.309 205.142 393.55 202.063C397.791 198.984 402.896 197.323 408.137 197.317H460.066C463.992 197.316 467.864 198.245 471.362 200.029C474.86 201.814 477.885 204.401 480.19 207.581C482.495 210.76 484.013 214.441 484.62 218.32C485.227 222.2 484.906 226.168 483.683 229.9L454.75 319.542Z" fill="white"/>
<path d="M454.751 321.477H454.522L353.659 310.221C353.376 310.188 353.104 310.091 352.864 309.937C352.625 309.784 352.423 309.578 352.274 309.335C352.121 309.091 352.024 308.816 351.99 308.529C351.957 308.243 351.988 307.953 352.081 307.68L382.667 213.848C384.418 208.478 387.824 203.8 392.397 200.483C396.969 197.167 402.474 195.384 408.122 195.388H460.051C464.283 195.388 468.456 196.392 472.226 198.316C475.996 200.24 479.256 203.03 481.74 206.458C484.224 209.885 485.86 213.852 486.514 218.034C487.169 222.216 486.823 226.493 485.506 230.516L456.563 320.189C456.436 320.569 456.193 320.901 455.868 321.136C455.543 321.372 455.152 321.5 454.751 321.502V321.477ZM356.495 306.637L453.427 317.465L481.82 229.299C482.946 225.86 483.241 222.203 482.681 218.627C482.121 215.052 480.722 211.66 478.599 208.73C476.475 205.799 473.688 203.413 470.465 201.768C467.242 200.122 463.675 199.263 460.056 199.262H408.128C403.289 199.256 398.574 200.786 394.661 203.633C390.749 206.479 387.841 210.495 386.358 215.1L356.495 306.637Z" fill="#94D5F1"/>
<path d="M321.025 325.789H446.392C447.558 325.817 448.719 325.612 449.805 325.185C450.891 324.758 451.881 324.118 452.716 323.302C453.551 322.487 454.214 321.513 454.668 320.438C455.121 319.362 455.354 318.207 455.354 317.04C455.354 315.873 455.121 314.718 454.668 313.642C454.214 312.567 453.551 311.593 452.716 310.778C451.881 309.962 450.891 309.323 449.805 308.896C448.719 308.468 447.558 308.263 446.392 308.291H321.025C318.741 308.335 316.564 309.27 314.959 310.897C313.355 312.525 312.451 314.715 312.441 317C312.43 319.285 313.313 321.484 314.902 323.126C316.491 324.769 318.66 325.724 320.944 325.789H321.025Z" fill="white"/>
<path d="M446.392 327.713H321.026C318.302 327.598 315.726 326.448 313.822 324.497C311.919 322.545 310.833 319.941 310.786 317.215C310.739 314.49 311.735 311.85 313.57 309.834C315.406 307.818 317.941 306.58 320.659 306.372H446.407C448.069 306.373 449.708 306.761 451.193 307.506C452.679 308.251 453.97 309.332 454.965 310.663C455.96 311.995 456.63 313.54 456.924 315.175C457.217 316.811 457.125 318.493 456.655 320.087C455.982 322.287 454.623 324.214 452.776 325.587C450.93 326.959 448.692 327.704 446.392 327.713ZM321.026 310.221C319.249 310.269 317.562 311.009 316.323 312.282C315.083 313.556 314.39 315.263 314.39 317.04C314.39 318.817 315.083 320.524 316.323 321.797C317.562 323.071 319.249 323.811 321.026 323.859H446.392C447.303 323.884 448.21 323.726 449.059 323.395C449.908 323.063 450.682 322.565 451.335 321.929C451.989 321.294 452.508 320.533 452.863 319.694C453.217 318.854 453.4 317.952 453.4 317.04C453.4 316.128 453.217 315.226 452.863 314.386C452.508 313.547 451.989 312.786 451.335 312.151C450.682 311.515 449.908 311.017 449.059 310.685C448.21 310.354 447.303 310.196 446.392 310.221H321.026Z" fill="#94D5F1"/>
<path d="M430.289 250.279L431.118 283.549C431.288 290.2 428.809 296.647 424.226 301.471C419.644 306.295 413.333 309.102 406.682 309.274C406.432 309.274 406.172 309.274 405.928 309.274L379.424 309.141L401.036 241.904L430.289 250.279Z" fill="#29ABE2"/>
<path d="M365.373 130.294C362.935 140.293 348.415 157.76 352.32 172.158C354.677 180.812 355.517 192.242 348.415 207.219C343.573 217.401 368.27 215.747 379.093 204.949C389.917 194.151 385.401 158.779 385.401 158.779L365.373 130.294Z" fill="black"/>
<path d="M303.7 209.714L344.683 217.574L330.168 219.977L366.93 194.38C370.655 191.959 375.175 191.082 379.535 191.935C383.895 192.787 387.752 195.303 390.29 198.948C392.828 202.594 393.849 207.084 393.136 211.468C392.423 215.853 390.032 219.788 386.47 222.441L349.702 248.039L348.552 248.838C346.624 250.16 344.402 250.99 342.08 251.257C339.758 251.523 337.406 251.217 335.229 250.366L297.708 235.678L303.7 209.714Z" fill="#29ABE2"/>
<path d="M355.965 252.27C355.828 232.313 369.548 233.117 364.111 219.738C359.493 208.273 363.179 192.812 373.967 188.5C375.879 187.757 377.913 187.38 379.964 187.39C391.776 187.298 392.575 186.81 397.549 186.764C400.13 186.759 402.695 187.181 405.139 188.011C416.594 192.053 423.523 205.163 419.878 217.697C419.118 220.262 418.774 222.933 418.86 225.608C418.992 230.139 430.136 236.712 430.269 250.401L355.965 252.27Z" fill="#29ABE2"/>
<path d="M405.246 188.011C404.922 190.634 403.921 193.128 402.341 195.247C400.761 197.367 398.656 199.038 396.235 200.097L384.866 205.132C383.943 205.535 382.949 205.752 381.941 205.771C380.934 205.79 379.933 205.61 378.995 205.241C378.057 204.873 377.2 204.324 376.475 203.624C375.749 202.925 375.169 202.09 374.766 201.166C374.348 200.216 374.13 199.19 374.124 198.152L374.033 188.51C375.944 187.767 377.979 187.39 380.03 187.4C391.841 187.308 392.64 186.82 397.609 186.774C400.207 186.751 402.79 187.173 405.246 188.021V188.011Z" fill="white"/>
<path d="M398.327 220.583L386.109 243.646L414.395 249.067L419.368 239.736L398.327 220.583Z" fill="black"/>
<path d="M361.733 234.66C361.651 234.665 361.568 234.651 361.492 234.62C361.415 234.589 361.346 234.542 361.29 234.482C361.167 234.359 361.095 234.195 361.086 234.022C361.078 233.849 361.134 233.679 361.244 233.545C362.968 231.803 364.117 229.575 364.539 227.161C364.96 224.747 364.633 222.261 363.601 220.038C363.543 219.965 363.501 219.879 363.479 219.787C363.457 219.696 363.455 219.601 363.472 219.508C363.49 219.416 363.527 219.328 363.582 219.252C363.636 219.175 363.707 219.111 363.788 219.064C363.87 219.017 363.96 218.987 364.054 218.978C364.148 218.969 364.242 218.98 364.331 219.011C364.42 219.042 364.501 219.091 364.57 219.156C364.638 219.221 364.691 219.299 364.727 219.387V219.417C364.772 219.504 368.769 227.415 362.181 234.436C362.065 234.564 361.905 234.644 361.733 234.66Z" fill="black"/>
<path d="M405.913 309.202L349.347 309.014L371.905 285.02L369.869 424.646L336.701 424.137C336.166 421.205 335.769 418.313 335.28 415.38L334.033 406.629C333.193 400.805 332.48 394.986 331.773 389.116C330.393 377.478 329.197 365.789 328.128 354.146C327.618 348.322 327.109 342.503 326.666 336.684L326 327.927L325.373 319.176C324.572 307.531 323.894 295.888 323.337 284.246C323.077 279.024 324.679 273.879 327.859 269.729C331.038 265.578 335.588 262.69 340.697 261.581L345.625 260.517C350.207 259.54 354.789 258.695 359.371 257.941C363.953 257.188 368.565 256.607 373.117 256.159C377.668 255.711 382.352 255.406 386.969 255.36H390.431C391.587 255.406 392.743 255.406 393.893 255.452C395.044 255.497 396.204 255.538 397.401 255.63L399.137 255.813L400.023 255.9L430.401 254.006L431.236 283.233C431.332 286.547 430.775 289.847 429.595 292.946C428.416 296.044 426.638 298.88 424.362 301.291C422.087 303.702 419.359 305.641 416.334 306.998C413.309 308.354 410.047 309.102 406.733 309.197C406.468 309.197 406.224 309.197 405.933 309.197L405.913 309.202Z" fill="#2ED8A7"/>
<path d="M375.474 289.5L403.688 309.279H406.916L410.363 309.009L413.697 308.205L417.475 306.611L420.311 304.829L422.036 303.75L420.728 282.006L375.474 289.5Z" fill="black"/>
<path d="M422.036 303.75L341.817 278.04L369.079 269.065L286.386 373.721L261.343 349.946C265.874 339.947 291.38 305.771 296.644 296.353C299.307 291.644 301.924 286.929 304.678 282.266L308.725 275.245L312.849 268.261C318.357 258.975 323.958 249.762 329.649 240.621C332.054 236.763 335.603 233.752 339.801 232.007C343.999 230.262 348.637 229.871 353.068 230.887L356.576 231.733C364.568 233.601 372.47 235.642 380.376 237.735C388.277 239.909 396.158 242.088 403.907 244.531C411.655 246.975 430.4 254.006 430.4 254.006L422.036 303.75Z" fill="#2ED8A7"/>
<path d="M313.027 339.988L323.326 291.679L330.255 318.208L313.027 339.988Z" fill="black"/>
<path d="M346.638 271.687C346.543 271.687 346.449 271.667 346.361 271.63C346.273 271.592 346.195 271.537 346.129 271.468L341.201 266.087C341.1 265.955 341.052 265.79 341.067 265.624C341.082 265.459 341.159 265.305 341.282 265.194C341.405 265.082 341.565 265.021 341.731 265.022C341.898 265.024 342.057 265.087 342.178 265.201L347.106 270.577C347.227 270.698 347.294 270.862 347.294 271.033C347.294 271.203 347.227 271.367 347.106 271.488C347.051 271.549 346.982 271.597 346.905 271.627C346.829 271.658 346.746 271.672 346.664 271.666L346.638 271.687Z" fill="black"/>
<path d="M373.59 176.414L387.335 175.569C390.756 175.362 393.954 173.805 396.227 171.241C398.5 168.676 399.662 165.315 399.457 161.894L398.215 141.097C398.055 138.384 397.361 135.729 396.173 133.285C394.986 130.84 393.328 128.653 391.295 126.85C389.262 125.046 386.893 123.662 384.324 122.775C381.755 121.888 379.036 121.516 376.324 121.68C373.612 121.843 370.958 122.538 368.515 123.726C366.072 124.914 363.886 126.572 362.084 128.605C360.282 130.638 358.898 133.006 358.011 135.574C357.125 138.142 356.753 140.86 356.917 143.572V143.597L358.072 162.663C358.301 166.544 360.061 170.175 362.966 172.759C365.871 175.342 369.683 176.666 373.564 176.439L373.59 176.414Z" fill="#036EC2"/>
<path d="M385.89 199.344L403.199 191.743L398.984 152.542L377.001 153.876L377.357 193.784C377.367 194.792 377.625 195.781 378.109 196.664C378.593 197.548 379.288 198.298 380.132 198.848C380.976 199.397 381.943 199.73 382.947 199.816C383.95 199.901 384.96 199.737 385.885 199.339L385.89 199.344Z" fill="#036EC2"/>
<path d="M359.6 151.926C360.899 151.926 361.952 150.873 361.952 149.574C361.952 148.275 360.899 147.222 359.6 147.222C358.301 147.222 357.248 148.275 357.248 149.574C357.248 150.873 358.301 151.926 359.6 151.926Z" fill="black"/>
<path d="M365.684 156.284C365.593 156.289 365.503 156.273 365.419 156.238L363.423 155.169C363.177 155.011 362.967 154.802 362.806 154.558C362.646 154.313 362.539 154.037 362.492 153.749C362.4 153.155 362.542 152.549 362.889 152.058L365.597 148.372C365.638 148.307 365.692 148.25 365.756 148.205C365.82 148.161 365.892 148.13 365.968 148.114C366.044 148.099 366.122 148.098 366.199 148.114C366.275 148.129 366.347 148.16 366.411 148.204C366.475 148.248 366.529 148.304 366.571 148.37C366.612 148.436 366.64 148.509 366.653 148.585C366.665 148.662 366.662 148.741 366.643 148.816C366.624 148.891 366.591 148.962 366.544 149.024L363.836 152.71C363.752 152.824 363.693 152.953 363.663 153.091C363.632 153.228 363.63 153.371 363.657 153.509C363.674 153.637 363.718 153.759 363.788 153.868C363.857 153.976 363.95 154.068 364.06 154.135L365.969 155.154C366.104 155.23 366.207 155.354 366.255 155.502C366.304 155.65 366.297 155.811 366.233 155.953C366.178 156.04 366.103 156.114 366.015 156.169C365.927 156.223 365.827 156.257 365.724 156.269L365.684 156.284Z" fill="black"/>
<path d="M365.908 164.546H365.552C364.959 164.458 364.39 164.251 363.879 163.938C363.368 163.625 362.926 163.212 362.578 162.724C362.508 162.595 362.489 162.444 362.526 162.301C362.563 162.159 362.653 162.035 362.777 161.957C362.901 161.878 363.051 161.849 363.195 161.876C363.34 161.903 363.469 161.984 363.556 162.103C364.068 162.804 364.83 163.281 365.684 163.437C366.621 163.523 367.598 163.034 368.616 162.016C368.722 161.91 368.866 161.851 369.016 161.851C369.166 161.851 369.31 161.91 369.416 162.016C369.522 162.122 369.581 162.266 369.581 162.416C369.581 162.566 369.522 162.71 369.416 162.816C368.26 163.971 367.064 164.546 365.908 164.546Z" fill="black"/>
<path d="M373.01 151.213C374.309 151.213 375.362 150.16 375.362 148.861C375.362 147.562 374.309 146.509 373.01 146.509C371.711 146.509 370.658 147.562 370.658 148.861C370.658 150.16 371.711 151.213 373.01 151.213Z" fill="black"/>
<path d="M412.307 215.314L452.847 211.094L443.433 242.449L406.89 218.369C403.173 215.86 400.589 211.991 399.697 207.596C398.805 203.2 399.675 198.631 402.12 194.871C404.566 191.111 408.39 188.462 412.769 187.495C417.149 186.528 421.733 187.321 425.533 189.701L425.671 189.793L462.214 213.878L463.68 214.856C466.79 216.903 469.123 219.934 470.306 223.464C471.489 226.993 471.453 230.818 470.205 234.326C468.957 237.833 466.568 240.82 463.421 242.809C460.274 244.798 456.55 245.673 452.847 245.295L415.769 241.253L412.307 215.314Z" fill="#29ABE2"/>
<path d="M419.368 222.273C419.253 222.278 419.138 222.251 419.036 222.197C418.934 222.142 418.848 222.061 418.788 221.963L412.485 212.229C412.386 212.085 412.346 211.908 412.376 211.736C412.405 211.563 412.501 211.41 412.643 211.307C412.792 211.214 412.971 211.181 413.144 211.214C413.317 211.247 413.471 211.344 413.575 211.486L419.877 221.214C419.977 221.358 420.017 221.535 419.987 221.707C419.958 221.88 419.862 222.034 419.72 222.136C419.625 222.225 419.499 222.274 419.368 222.273Z" fill="black"/>
<path d="M430.202 228.23C430.207 230.982 429.508 233.69 428.171 236.096C426.835 238.502 424.905 240.526 422.565 241.976L415.769 241.222C415.769 241.222 410.398 234.334 410.398 229.004C410.398 222.426 412.307 215.314 412.307 215.314L422.163 214.296C424.606 215.716 426.634 217.752 428.045 220.2C429.455 222.649 430.199 225.425 430.202 228.25V228.23Z" fill="white"/>
<path d="M327.456 437.134H363.643C365.182 437.132 366.659 436.525 367.755 435.444C368.851 434.363 369.478 432.895 369.502 431.356L369.64 423.623L336.116 423.933L326.702 431.264C323.281 432.115 323.907 437.134 327.456 437.134Z" fill="black"/>
<path d="M236.743 345.135L272.62 379.041C273.71 380.125 275.182 380.737 276.719 380.745C278.256 380.754 279.735 380.158 280.837 379.087L286.386 373.711L261.343 349.936L240.343 340.426C237.324 338.654 234.259 342.66 236.743 345.135Z" fill="black"/>
<path d="M371.192 122.24C370.26 128.35 361.244 139.438 356.937 140.639C356.983 140.639 357.736 125.132 371.192 122.24Z" fill="black"/>
<path d="M326.88 339.988C326.88 336.791 324.482 315.77 323.061 297.223C322.581 291.021 324.515 284.872 328.461 280.062C332.406 275.253 338.057 272.153 344.234 271.411C350.411 270.669 356.635 272.342 361.607 276.081C366.58 279.82 369.915 285.336 370.917 291.476C371.126 292.773 371.232 294.086 371.232 295.401L371.187 328.686L326.88 339.988Z" fill="#2ED8A7"/>
<path d="M360.312 275.597L383.731 296.531L368.86 296.882L360.312 275.597Z" fill="#2ED8A7"/>
<path d="M371.345 308.663C371.17 308.656 371.004 308.584 370.88 308.46C370.756 308.337 370.684 308.171 370.678 307.996V299.509C370.678 299.332 370.748 299.163 370.873 299.037C370.998 298.912 371.168 298.842 371.345 298.842C371.522 298.842 371.691 298.912 371.816 299.037C371.941 299.163 372.012 299.332 372.012 299.509V307.996C372.007 308.171 371.935 308.338 371.811 308.462C371.687 308.586 371.52 308.658 371.345 308.663Z" fill="black"/>
<path d="M366.661 124.017C359.427 129.841 372.969 140.11 381.669 146.504C392.457 154.461 379.124 187.232 396.01 204.032C412.897 220.833 420.783 197.811 438.19 198.3C442.364 198.386 429.713 193.499 425.095 172.305C421.72 156.839 405.913 155.373 404.36 148.708C403.851 146.535 402.227 134.311 394.234 126.537C386.775 119.308 376.385 116.197 366.661 124.017Z" fill="black"/>
<path d="M297.708 235.739L286.472 231.335C283.626 230.192 281.306 228.032 279.962 225.275C278.618 222.518 278.346 219.36 279.198 216.413C280.05 213.466 281.966 210.941 284.574 209.327C287.183 207.713 290.297 207.125 293.315 207.678L303.746 209.678L297.708 235.739Z" fill="#036EC2"/>
<path d="M413.417 241.156L407.069 240.494C400.318 239.781 395.171 233.83 395.792 227.028C396.048 224.169 397.29 221.487 399.307 219.444C401.324 217.4 403.989 216.122 406.845 215.828L412.307 215.253C414.564 215.029 416.825 215.646 418.656 216.984L420.076 218.002C422.293 219.642 423.893 221.98 424.618 224.64C425.343 227.3 425.151 230.127 424.073 232.664L422.785 235.642C422.027 237.449 420.706 238.963 419.017 239.956C417.329 240.95 415.364 241.371 413.417 241.156Z" fill="#036EC2"/>
<path d="M329.456 221.25C329.352 221.254 329.249 221.231 329.156 221.185C329.062 221.139 328.982 221.07 328.922 220.986C328.822 220.841 328.78 220.665 328.805 220.491C328.829 220.318 328.918 220.16 329.054 220.049L335.27 215.609C335.412 215.517 335.583 215.482 335.75 215.512C335.916 215.541 336.065 215.633 336.167 215.768C336.268 215.903 336.315 216.072 336.297 216.24C336.279 216.408 336.197 216.563 336.069 216.673L329.853 221.118C329.736 221.199 329.599 221.245 329.456 221.25Z" fill="black"/>
<path d="M423.452 214.805C423.29 214.805 423.133 214.748 423.011 214.642C422.888 214.536 422.808 214.39 422.785 214.23C422.762 214.069 422.803 213.906 422.898 213.774C422.992 213.642 423.134 213.552 423.294 213.522H423.345L444.88 211.257C445.04 211.232 445.204 211.271 445.336 211.366C445.468 211.462 445.556 211.605 445.582 211.766C445.585 211.783 445.585 211.8 445.582 211.817C445.598 211.986 445.547 212.156 445.439 212.288C445.332 212.42 445.176 212.505 445.007 212.524L423.472 214.79L423.452 214.805Z" fill="black"/>
<path d="M303.7 209.714L297.708 235.755L304.942 238.595L310.807 211.104L303.7 209.714Z" fill="white"/>
<path d="M322.573 296.175C322.398 296.169 322.231 296.098 322.107 295.974C321.983 295.85 321.911 295.683 321.906 295.508C321.86 283.462 331.009 272.934 343.176 270.933H343.263C346.328 270.485 349.452 271.163 352.055 272.842L377.098 288.935C377.174 288.981 377.241 289.041 377.294 289.112C377.348 289.183 377.386 289.264 377.408 289.351C377.43 289.437 377.435 289.527 377.422 289.615C377.41 289.703 377.38 289.788 377.334 289.864C377.289 289.941 377.229 290.008 377.157 290.061C377.086 290.114 377.005 290.153 376.919 290.175C376.832 290.197 376.743 290.202 376.655 290.189C376.566 290.176 376.482 290.146 376.405 290.101L351.362 274.013C349.008 272.5 346.186 271.885 343.415 272.282H343.329C331.828 274.192 323.214 284.145 323.26 295.523C323.25 295.699 323.173 295.864 323.045 295.985C322.918 296.106 322.749 296.174 322.573 296.175Z" fill="black"/>
<path d="M376.075 177.702C375.919 177.704 375.767 177.652 375.646 177.554C375.524 177.457 375.44 177.32 375.408 177.167C375.381 177 375.418 176.829 375.513 176.689C375.608 176.549 375.752 176.45 375.917 176.414L382.444 175.299C382.61 175.278 382.777 175.321 382.913 175.419C383.048 175.517 383.141 175.664 383.172 175.828C383.203 175.992 383.17 176.162 383.08 176.303C382.991 176.444 382.85 176.546 382.688 176.587L376.162 177.697L376.075 177.702Z" fill="black"/>
<path d="M328.214 120.922H203.341C202.364 120.92 201.396 121.112 200.492 121.484C199.589 121.857 198.768 122.404 198.075 123.095C197.383 123.785 196.834 124.605 196.459 125.507C196.083 126.41 195.89 127.377 195.888 128.355V209.302C195.892 211.275 196.68 213.166 198.077 214.558C199.475 215.951 201.368 216.732 203.341 216.729H328.265C330.234 216.723 332.119 215.934 333.508 214.538C334.896 213.141 335.672 211.25 335.667 209.281V128.375C335.668 127.397 335.477 126.429 335.104 125.525C334.731 124.621 334.183 123.799 333.492 123.107C332.801 122.415 331.981 121.866 331.078 121.491C330.175 121.116 329.207 120.922 328.229 120.922H328.214Z" fill="black"/>
<path d="M320.807 215.94H196.54C194.691 215.942 192.918 215.209 191.609 213.903C190.3 212.597 189.563 210.825 189.561 208.976V128.64C189.557 127.723 189.735 126.814 190.083 125.965C190.432 125.117 190.944 124.345 191.591 123.695C192.238 123.045 193.007 122.529 193.853 122.176C194.7 121.823 195.608 121.641 196.525 121.64H320.807C322.656 121.638 324.43 122.371 325.74 123.677C327.05 124.983 327.788 126.755 327.792 128.604V208.966C327.773 210.811 327.031 212.576 325.725 213.88C324.418 215.185 322.653 215.924 320.807 215.94Z" fill="white"/>
<path d="M320.806 216.729H196.54C194.48 216.727 192.506 215.908 191.049 214.453C189.592 212.998 188.771 211.025 188.766 208.966V128.64C188.771 126.58 189.592 124.606 191.049 123.15C192.506 121.694 194.48 120.875 196.54 120.871H320.806C322.866 120.873 324.841 121.693 326.298 123.149C327.755 124.605 328.576 126.58 328.58 128.64V208.966C328.557 211.019 327.731 212.983 326.277 214.434C324.824 215.885 322.86 216.709 320.806 216.729ZM196.54 122.454C194.91 122.447 193.345 123.086 192.185 124.231C191.026 125.376 190.367 126.934 190.354 128.563V208.966C190.349 210.594 190.988 212.158 192.133 213.317C193.278 214.475 194.835 215.133 196.463 215.146H320.806C322.44 215.128 324.003 214.471 325.159 213.316C326.316 212.161 326.975 210.6 326.997 208.966V128.64C327.003 127.01 326.364 125.445 325.219 124.285C324.074 123.126 322.517 122.468 320.887 122.454H196.54Z" fill="black"/>
<path d="M272.477 168.059C272.295 168.025 272.107 168.054 271.943 168.141C271.779 168.228 271.65 168.368 271.576 168.538L252.23 215.625C252.185 215.744 252.167 215.872 252.175 215.999C252.184 216.127 252.22 216.251 252.281 216.363C252.35 216.471 252.443 216.561 252.554 216.625C252.665 216.688 252.79 216.724 252.918 216.729H272.263C272.472 216.725 272.671 216.641 272.819 216.494C272.967 216.347 273.052 216.149 273.058 215.94V168.854C273.074 168.673 273.024 168.493 272.918 168.347C272.811 168.2 272.654 168.098 272.477 168.059Z" fill="black"/>
<path d="M289.242 241.304H234.458C233.707 241.304 232.963 241.157 232.269 240.87C231.575 240.583 230.945 240.162 230.414 239.631C229.883 239.1 229.462 238.469 229.175 237.775C228.887 237.081 228.74 236.337 228.741 235.586C228.742 235.127 228.796 234.669 228.904 234.222L244.976 168.853H272.32L257.245 230.047C257.036 230.893 257.024 231.776 257.208 232.627C257.393 233.479 257.77 234.277 258.31 234.96C258.851 235.644 259.54 236.194 260.326 236.57C261.112 236.946 261.974 237.137 262.845 237.129L289.975 237.078C290.347 237.078 289.975 240.194 289.975 240.565C289.977 240.66 289.961 240.755 289.926 240.843C289.892 240.932 289.84 241.013 289.774 241.081C289.709 241.15 289.63 241.205 289.543 241.243C289.456 241.281 289.363 241.302 289.268 241.304H289.242Z" fill="white"/>
<path d="M289.242 242.098H234.458C233.466 242.109 232.484 241.89 231.591 241.459C230.697 241.029 229.915 240.397 229.306 239.613C228.695 238.842 228.272 237.939 228.07 236.976C227.869 236.013 227.894 235.016 228.145 234.064L244.375 168.115H273.353L258.039 230.312C257.854 231.039 257.84 231.799 257.996 232.533C258.152 233.266 258.475 233.954 258.94 234.543C259.399 235.139 259.992 235.617 260.672 235.939C261.352 236.26 262.099 236.415 262.85 236.391L289.98 236.34C290.098 236.338 290.216 236.36 290.325 236.405C290.434 236.449 290.534 236.516 290.617 236.6C290.983 236.971 291.039 237.658 290.831 240.087C290.821 240.257 290.803 240.427 290.775 240.596C290.763 240.993 290.596 241.37 290.311 241.646C290.026 241.923 289.644 242.078 289.247 242.077L289.242 242.098ZM245.597 169.648L229.698 234.436C229.509 235.153 229.492 235.905 229.647 236.63C229.803 237.355 230.127 238.034 230.594 238.61C231.051 239.199 231.636 239.676 232.304 240.006C232.973 240.336 233.707 240.51 234.453 240.515H289.186C289.183 240.301 289.2 240.088 289.237 239.878C289.288 239.456 289.344 238.448 289.344 237.872L262.871 237.923C261.877 237.947 260.892 237.74 259.992 237.318C259.093 236.895 258.304 236.27 257.688 235.49C257.069 234.712 256.637 233.803 256.427 232.832C256.216 231.86 256.231 230.854 256.471 229.89L271.261 169.699H245.597V169.648Z" fill="black"/>
<path d="M214.002 246.878H223.07V436.06H214.002V246.878Z" fill="#94D5F1"/>
<path d="M165.948 246.878H175.015V436.06H165.948V246.878Z" fill="#94D5F1"/>
<path d="M165.948 245.081H175.015V258.119H165.948V245.081Z" fill="black"/>
<path d="M214.002 245.081H223.07V258.119H214.002V245.081Z" fill="black"/>
<path d="M165.948 240.672H506.455V246.878H165.948V240.672Z" fill="black"/>
<path d="M497.118 246.878H506.185V436.06H497.118V246.878Z" fill="#94D5F1"/>
<path d="M449.064 246.878H458.131V436.06H449.064V246.878Z" fill="#94D5F1"/>
<path d="M449.064 245.081H458.131V258.119H449.064V245.081Z" fill="black"/>
<path d="M497.118 245.081H506.185V258.119H497.118V245.081Z" fill="black"/>
</svg>
