<svg width="51" height="175" viewBox="0 0 51 175" fill="none" xmlns="http://www.w3.org/2000/svg">
<path d="M50.8592 36.1613C51.2263 36.1613 51.5933 36.1613 51.9603 36.1613C53.3195 36.1626 54.666 36.4225 55.9281 36.927C57.3459 37.4309 58.6745 38.1571 59.8642 39.0785C61.0617 39.9849 62.1138 41.069 62.9839 42.2932C63.9364 43.639 64.6532 45.1369 65.1039 46.7229C65.4943 48.0192 65.7072 49.3625 65.7367 50.716C65.7324 51.5209 65.6711 52.3244 65.5532 53.1206C65.2915 55.0079 64.6753 56.8286 63.737 58.4869C62.6594 60.3735 61.1688 61.9917 59.3769 63.2203C57.2684 64.7095 54.8081 65.6233 52.2388 65.8718C50.5941 66.0148 48.9372 65.8995 47.3281 65.5301C45.9014 65.181 44.5299 64.6359 43.2528 63.9101C42.0018 63.2116 40.8697 62.3188 39.8989 61.2649C38.6974 60.0234 37.7457 58.5625 37.0956 56.9618C36.5278 55.7282 36.1583 54.4126 36.0008 53.0637C35.8285 51.3758 35.8903 49.6722 36.1843 48.0012C36.4913 46.5294 37.0048 45.1084 37.7094 43.7803C38.6763 41.9169 40.0548 40.2982 41.7404 39.0469C44.1611 37.1652 47.1352 36.1353 50.2011 36.117H50.8656L50.8592 36.1613ZM69.6981 50.8995C69.7015 48.4151 69.2135 45.9545 68.2624 43.6594C67.3113 41.3643 65.9158 39.2799 64.1562 37.5261C62.3965 35.7723 60.3074 34.3838 58.0091 33.4404C55.7108 32.497 53.2487 32.0173 50.7643 32.029C48.2656 32.0088 45.7879 32.486 43.4754 33.4329C41.163 34.3798 39.0621 35.7774 37.2952 37.5443C35.5283 39.3112 34.1307 41.412 33.1838 43.7245C32.2369 46.0369 31.7597 48.5147 31.7799 51.0134C31.7865 53.5063 32.2851 55.9733 33.2469 58.2732C34.2088 60.5731 35.615 62.6605 37.3851 64.4159C39.1552 66.1713 41.2543 67.5601 43.5621 68.5028C45.8699 69.4454 48.3411 69.9233 50.8339 69.9092C55.8478 69.8841 60.647 67.8712 64.1787 64.3122C67.7104 60.7532 69.6862 55.9387 69.6728 50.9248" fill="#036EC2"/>
<path d="M19.6109 14.3735V10.5134C19.6109 10.2982 19.6109 10.0767 19.6109 9.88054C19.6109 9.39327 19.5033 9.29202 19.054 9.24773C18.801 9.20334 18.5451 9.17796 18.2883 9.17179C15.5356 9.10851 12.7765 9.0832 10.0238 9.17179C9.05556 9.17179 9.01758 9.23508 9.01758 10.1653C9.01758 12.994 9.01758 15.8227 9.01758 18.6514C9.01758 18.7589 9.01758 18.8665 9.01758 18.9804C9.01758 19.4044 9.12517 19.4993 9.54282 19.5309C10.2389 19.5816 10.935 19.6385 11.6311 19.6385C13.7637 19.6385 15.8963 19.6385 18.0225 19.6385C19.8197 19.6385 19.6045 19.5563 19.6172 18.0691C19.6172 16.8541 19.6172 15.6455 19.6172 14.4368" fill="#0FADE8"/>
<path d="M14.2324 82.2301H10.0431C9.82165 82.2301 9.60649 82.2301 9.41032 82.2301C9.31717 82.2345 9.22892 82.2731 9.16239 82.3385C9.09587 82.4039 9.05572 82.4914 9.04961 82.5845C9.03685 82.7656 9.03685 82.9475 9.04961 83.1287C9.04961 85.9194 9.04961 88.7038 9.04961 91.4945C9.04961 92.5703 9.04961 92.5892 10.157 92.6272C13.0173 92.7284 15.884 92.8044 18.7443 92.6272C18.9288 92.6232 19.1127 92.6063 19.2949 92.5766C19.3862 92.5593 19.47 92.5141 19.5346 92.4473C19.5992 92.3804 19.6415 92.2951 19.6556 92.2032C19.6936 91.9519 19.7126 91.698 19.7125 91.4438C19.7125 88.767 19.7125 86.0839 19.7125 83.4071C19.7125 81.9896 19.4151 82.1794 18.4469 82.1415H16.4662H14.264L14.2324 82.2301Z" fill="#0FADE8"/>
<path d="M25.1925 11.1968C24.4205 11.1968 23.6548 11.1968 22.8827 11.1968C22.4524 11.1968 22.3448 11.3043 22.3132 11.6967C22.1645 13.4464 22.1645 15.2056 22.3132 16.9554C22.3448 17.3477 22.4524 17.4553 22.8637 17.4933C23.2751 17.5312 23.6674 17.5312 24.0724 17.5312C25.338 17.5312 26.6037 17.5312 27.9136 17.4806C28.3692 17.4806 28.3882 17.4363 28.5021 16.9997C28.5999 16.6472 28.651 16.2834 28.654 15.9176C28.654 14.8545 28.654 13.7977 28.654 12.7535C28.616 11.0955 28.5401 11.1588 27.0593 11.1525H25.1925V11.2095" fill="#036EC2"/>
<path d="M14.3526 6.38112C15.1562 6.38112 15.9599 6.38112 16.7699 6.38112C17.2192 6.38112 17.3331 6.24823 17.4027 5.79261C17.4088 5.72102 17.4088 5.64902 17.4027 5.57743C17.4027 3.96376 17.4027 2.3564 17.4027 0.742731C17.4027 0.299762 17.2446 0.147894 16.8332 0.0782848C16.6539 0.0444653 16.4714 0.0296132 16.289 0.0339833C14.8968 0.0339833 13.5046 0.0339833 12.1124 0.0339833C11.9672 0.0212142 11.821 0.0212142 11.6758 0.0339833C11.5045 0.0436915 11.3435 0.118642 11.2258 0.243402C11.1081 0.368161 11.0427 0.533248 11.043 0.704764C11.043 0.888279 11.043 1.07179 11.043 1.25531C11.043 2.57156 11.043 3.88992 11.043 5.21039C11.0453 5.46561 11.0729 5.71998 11.1252 5.96977C11.1434 6.07871 11.2 6.17755 11.2847 6.24837C11.3695 6.31918 11.4768 6.35728 11.5872 6.35578C11.8466 6.35578 12.0998 6.35578 12.3592 6.35578C12.992 6.35578 13.6755 6.35578 14.3399 6.35578L14.3526 6.38112Z" fill="#036EC2"/>
<path d="M17.4151 25.4034C17.4151 24.5555 17.4151 23.7138 17.4151 22.8722C17.4151 22.4862 17.2695 22.3659 16.8835 22.2963C16.7018 22.2638 16.5176 22.2469 16.333 22.2457C14.8332 22.2457 13.3271 22.2457 11.821 22.2457C11.3211 22.2457 11.2578 22.3216 11.1882 22.8215C11.0173 24.5386 11.0173 26.2683 11.1882 27.9853C11.2388 28.4346 11.3591 28.5422 11.821 28.6181C12.0015 28.6413 12.1834 28.6518 12.3653 28.6497H16.333C17.2822 28.6497 17.4278 28.4979 17.4531 27.5803C17.4531 26.8462 17.4531 26.1122 17.4531 25.3844" fill="#036EC2"/>
<path d="M14.2767 73.1871C13.4667 73.1871 12.663 73.1871 11.8593 73.1871C11.3404 73.1871 11.2265 73.3074 11.1949 73.82C11.0223 75.503 11.0223 77.1994 11.1949 78.8825C11.1932 78.9456 11.2042 79.0083 11.2274 79.067C11.2506 79.1258 11.2853 79.1792 11.3297 79.2241C11.374 79.269 11.427 79.3045 11.4854 79.3285C11.5438 79.3524 11.6064 79.3643 11.6695 79.3634C13.4162 79.5722 15.1815 79.5722 16.9282 79.3634C17.2889 79.3191 17.3585 79.2368 17.4028 78.8888C17.4055 78.853 17.4055 78.817 17.4028 78.7812C17.4028 77.1675 17.4028 75.5602 17.4028 73.9529C17.4028 73.3201 17.2256 73.1935 16.5928 73.1808C15.8271 73.1808 15.055 73.1808 14.2893 73.1808L14.2767 73.1871Z" fill="#036EC2"/>
<path d="M25.4457 84.312H23.5473C23.2878 84.312 23.0347 84.312 22.7753 84.3563C22.3703 84.4069 22.2627 84.5208 22.2057 84.8878C22.1826 85.0343 22.172 85.1825 22.1741 85.3308C22.1741 86.761 22.1741 88.1911 22.1741 89.6213C22.1763 89.8056 22.1911 89.9895 22.2184 90.1718C22.2275 90.264 22.2675 90.3503 22.3318 90.4169C22.3961 90.4835 22.481 90.5265 22.5728 90.5389C22.6795 90.5577 22.7873 90.5704 22.8955 90.5768C24.5096 90.6812 26.1288 90.6812 27.7428 90.5768C28.3757 90.5325 28.5908 90.3617 28.5971 89.6972C28.5971 88.1595 28.5971 86.6154 28.5971 85.0713C28.5971 84.5271 28.4263 84.3942 27.8314 84.3816C27.0214 84.3816 26.2114 84.3816 25.4078 84.3816V84.3183" fill="#036EC2"/>
<path d="M3.1704 17.4807C4.01837 17.4807 4.86634 17.4807 5.70165 17.4807C6.0497 17.4807 6.1573 17.3668 6.19527 17.0251C6.37978 15.3436 6.40308 13.6484 6.26487 11.9626C6.22057 11.2981 6.16362 11.2728 5.55612 11.2475C3.98041 11.1779 2.39206 11.1652 0.816354 11.2475C0.215182 11.2475 0.183534 11.3424 0.056971 11.9499C0.0189069 12.2055 -0.000146772 12.4635 8.51222e-07 12.7219C8.51222e-07 13.823 8.51222e-07 14.9241 8.51222e-07 16.0189C0.0632822 17.6579 0.132889 17.468 1.49976 17.487H3.15144" fill="#036EC2"/>
<path d="M6.41683 92.5702C6.31036 92.616 6.21038 92.6756 6.11943 92.7474C5.36005 93.4857 4.60277 94.2324 3.84761 94.9876C3.80493 95.0238 3.77063 95.0689 3.74711 95.1197C3.7236 95.1705 3.71143 95.2258 3.71143 95.2818C3.71143 95.3378 3.7236 95.3931 3.74711 95.444C3.77063 95.4948 3.80493 95.5398 3.84761 95.5761C4.588 96.3418 5.3347 97.0948 6.08142 97.8542C6.11056 97.8895 6.14661 97.9184 6.18733 97.9392C6.22805 97.96 6.27259 97.9723 6.31823 97.9752C6.36386 97.9782 6.40964 97.9718 6.45271 97.9564C6.49579 97.9411 6.53525 97.917 6.5687 97.8858C7.42664 97.1935 8.2074 96.4106 8.89745 95.5508C9.11261 95.285 9.10627 95.1331 8.85315 94.88C8.13596 94.1459 7.41033 93.4203 6.67627 92.7031C6.59283 92.6414 6.4983 92.5963 6.39783 92.5702" fill="#0FADE8"/>
<path d="M22.104 19.5816C21.1424 20.2418 20.2886 21.0465 19.5727 21.9673C19.5387 21.9982 19.5116 22.0357 19.493 22.0777C19.4745 22.1197 19.4648 22.1651 19.4648 22.2109C19.4648 22.2568 19.4745 22.3022 19.493 22.3442C19.5116 22.3861 19.5387 22.4237 19.5727 22.4545C20.3384 23.2456 21.1105 24.0239 21.8825 24.8023C21.9144 24.8356 21.9527 24.8621 21.9951 24.8802C22.0375 24.8983 22.0832 24.9077 22.1293 24.9077C22.1754 24.9077 22.2211 24.8983 22.2635 24.8802C22.3059 24.8621 22.3442 24.8356 22.3761 24.8023C22.8887 24.3277 23.4012 23.8594 23.8885 23.3658C24.2112 23.0304 24.7618 22.733 24.7745 22.3027C24.7871 21.8724 24.2302 21.5813 23.9075 21.2396C23.4013 20.7143 22.8697 20.2081 22.3445 19.7018C22.2647 19.6559 22.1797 19.6198 22.0913 19.5943" fill="#0FADE8"/>
<path d="M23.4329 55.8417C21.6469 55.731 19.8644 56.1072 18.2755 56.9302C17.9907 57.0884 17.5034 57.2149 17.5477 57.5124C17.6047 57.9743 18.1426 57.7845 18.4653 57.8414C19.5586 58.0005 20.6736 57.9162 21.7306 57.5946C22.3312 57.4319 22.9175 57.2203 23.4835 56.9618C24.4511 56.5007 25.5215 56.298 26.5906 56.3733C27.2146 56.4242 27.8422 56.3422 28.4321 56.1328C29.0013 55.984 29.5073 55.6556 29.8749 55.1963C29.394 54.6647 28.7422 54.766 28.141 54.7723C27.5489 54.7608 26.9641 54.9048 26.4451 55.1899C25.5412 55.7347 24.4796 55.9577 23.4329 55.8228" fill="#0FADE8"/>
<path d="M6.41701 24.9098C6.48866 24.9012 6.55767 24.8774 6.61952 24.8402C7.39788 24.0682 8.18257 23.2898 8.96093 22.5052C9.1571 22.309 9.07482 22.1065 8.90396 21.9293L6.69545 19.6259C6.66816 19.588 6.63285 19.5567 6.59202 19.5341C6.55118 19.5115 6.50584 19.4981 6.45926 19.4951C6.41269 19.4921 6.36602 19.4994 6.32261 19.5166C6.2792 19.5337 6.24013 19.5602 6.20817 19.5942C5.42348 20.3599 4.63882 21.1383 3.86046 21.9166C3.82333 21.9449 3.79249 21.9805 3.76992 22.0213C3.74736 22.0621 3.73354 22.1072 3.72937 22.1537C3.7252 22.2001 3.73077 22.2469 3.74571 22.2911C3.76065 22.3353 3.78465 22.3758 3.81616 22.4102C4.6135 23.2266 5.41716 24.0302 6.21451 24.8339C6.26513 24.8845 6.3474 24.8845 6.41701 24.9098Z" fill="#0FADE8"/>
<path d="M22.174 76.9335C22.0781 76.9743 21.9869 77.0252 21.9019 77.0853C21.0713 77.7493 20.3102 78.4956 19.6301 79.3129C19.5875 79.3485 19.5533 79.393 19.5298 79.4433C19.5063 79.4936 19.4941 79.5484 19.4941 79.6039C19.4941 79.6594 19.5063 79.7143 19.5298 79.7646C19.5533 79.8149 19.5875 79.8594 19.6301 79.895C20.3515 80.6207 21.075 81.3463 21.8006 82.0719C21.8373 82.1135 21.8819 82.1473 21.9319 82.1714C21.9818 82.1955 22.036 82.2095 22.0914 82.2124C22.1468 82.2154 22.2022 82.2072 22.2544 82.1886C22.3066 82.1699 22.3545 82.141 22.3954 82.1035C23.2675 81.4308 24.0613 80.6624 24.7622 79.8128C24.8167 79.763 24.8513 79.6952 24.8595 79.6218C24.8676 79.5484 24.8488 79.4746 24.8065 79.4141C24.0718 78.5465 23.2698 77.7383 22.4081 76.9968C22.3378 76.9648 22.2632 76.9435 22.1866 76.9335" fill="#0FADE8"/>
<path d="M9.1506 6.51394C9.11757 6.40813 9.07299 6.30628 9.0177 6.21021C8.27288 5.35157 7.46483 4.54989 6.60035 3.81186C6.57441 3.78526 6.54343 3.76411 6.5092 3.74967C6.47496 3.73524 6.43816 3.72781 6.40101 3.72781C6.36386 3.72781 6.3271 3.73524 6.29286 3.74967C6.25863 3.76411 6.22761 3.78526 6.20167 3.81186C5.42331 4.58389 4.64496 5.36226 3.87926 6.15328C3.84512 6.18469 3.81787 6.2228 3.79923 6.26528C3.78059 6.30776 3.771 6.35365 3.771 6.40004C3.771 6.44643 3.78059 6.49232 3.79923 6.5348C3.81787 6.57728 3.84512 6.61544 3.87926 6.64685C4.63863 7.44419 5.39171 8.24155 6.15741 9.03257C6.21139 9.08329 6.28268 9.11151 6.35675 9.11151C6.43082 9.11151 6.50207 9.08329 6.55605 9.03257C6.71438 8.94096 6.861 8.83045 6.99269 8.70349L8.85949 6.80505C8.95609 6.69092 9.04491 6.57041 9.1253 6.44434" fill="#0FADE8"/>
<path d="M26.4707 50.0516C25.4035 50.0302 24.3385 50.158 23.3067 50.4313C22.4306 50.716 21.4869 50.716 20.6109 50.4313C19.4385 50.0828 18.1788 50.1797 17.0735 50.7034C16.9786 50.7477 16.852 50.7793 16.8773 50.9122C16.9007 51.0183 16.9613 51.1126 17.0481 51.178C17.8671 51.5973 18.792 51.7646 19.706 51.6589C19.9617 51.6318 20.214 51.5788 20.459 51.5007C21.4154 51.215 22.4329 51.2041 23.3953 51.4691C24.1766 51.6764 24.9792 51.7931 25.7873 51.8171C26.7417 51.8677 27.6974 51.7477 28.6096 51.4627C28.7523 51.4247 28.8919 51.3761 29.0273 51.3172C29.2108 51.2223 29.4829 51.1653 29.4513 50.8869C29.4196 50.6084 29.2235 50.6084 29.0526 50.5452C28.7807 50.4374 28.4988 50.3569 28.211 50.3047C27.6414 50.1845 27.0641 50.1042 26.4834 50.0642" fill="#0FADE8"/>
<path d="M22.2374 98.0504C23.0981 97.2784 23.8638 96.4494 24.6548 95.6394C24.6897 95.6091 24.7176 95.5717 24.7368 95.5297C24.756 95.4876 24.7659 95.442 24.7659 95.3958C24.7659 95.3496 24.756 95.3039 24.7368 95.2619C24.7176 95.2199 24.6897 95.1825 24.6548 95.1522C23.8574 94.3485 23.0538 93.5448 22.2501 92.7538C22.1961 92.7031 22.1248 92.6748 22.0508 92.6748C21.9767 92.6748 21.9054 92.7031 21.8514 92.7538L21.5983 92.969C20.9655 93.6018 20.3327 94.2346 19.7442 94.8674C19.4657 95.1522 19.4468 95.2534 19.6429 95.5002C20.3536 96.4931 21.2366 97.3504 22.2501 98.0315" fill="#0FADE8"/>
<path d="M20.1173 37.737C20.0002 37.7357 19.8834 37.7484 19.7693 37.7749C19.6743 37.8066 19.5478 37.8635 19.5161 37.9458C19.5077 37.9949 19.5101 38.0453 19.5233 38.0934C19.5364 38.1415 19.5599 38.1862 19.5921 38.2242C20.2827 39.0001 21.2065 39.5308 22.2246 39.7367C22.3304 39.7633 22.4384 39.7802 22.5473 39.7873C23.5796 39.8827 24.56 40.2837 25.3633 40.939C26.6833 41.942 28.2353 42.595 29.8753 42.8374C30.201 42.9039 30.5368 42.9039 30.8625 42.8374C30.9071 42.8276 30.9485 42.8067 30.9829 42.7767C31.0173 42.7467 31.0436 42.7084 31.0594 42.6656C31.0751 42.6227 31.0798 42.5766 31.0731 42.5314C31.0663 42.4862 31.0483 42.4435 31.0207 42.4071C30.7886 42.1396 30.5151 41.911 30.2107 41.73C28.9164 40.8103 27.4219 40.2116 25.8506 39.9834C24.7902 39.8636 23.7865 39.4419 22.9587 38.7685C22.1536 38.1195 21.1513 37.7646 20.1173 37.7623" fill="#0FADE8"/>
<path d="M22.2375 3.76126C21.2723 4.46782 20.4098 5.30477 19.6746 6.24821C19.6346 6.28606 19.6027 6.33168 19.5809 6.38228C19.5591 6.43287 19.5479 6.4874 19.5479 6.54249C19.5479 6.59758 19.5591 6.65206 19.5809 6.70266C19.6027 6.75326 19.6346 6.79887 19.6746 6.83672C20.4508 7.6933 21.2838 8.49667 22.1679 9.24141C23.0475 8.45039 23.8322 7.58343 24.6358 6.74812C24.7031 6.68436 24.7442 6.59788 24.7512 6.50549C24.7582 6.41309 24.7306 6.3214 24.6738 6.24821C24.4523 5.95712 24.2371 5.65971 23.9903 5.3876C23.4613 4.78885 22.8741 4.24407 22.2375 3.76126Z" fill="#0FADE8"/>
<path d="M9.16337 79.7368C9.13834 79.6372 9.09999 79.5414 9.04943 79.452C8.26896 78.6715 7.48641 77.8974 6.70172 77.1296C6.53086 76.9524 6.341 76.8638 6.13217 77.0726C5.38545 77.832 4.63242 78.5851 3.89203 79.3444C3.84847 79.3794 3.81333 79.4237 3.78917 79.4741C3.76502 79.5245 3.75244 79.5797 3.75244 79.6355C3.75244 79.6914 3.76502 79.7466 3.78917 79.7969C3.81333 79.8473 3.84847 79.8916 3.89203 79.9266C4.61976 80.6544 5.34118 81.3821 6.07524 82.0972C6.32837 82.344 6.48024 82.344 6.70805 82.0972C7.52438 81.3125 8.32171 80.5088 9.10007 79.7431" fill="#0FADE8"/>
<path d="M44.183 84.2741C44.5184 84.2234 44.6386 83.983 44.7652 83.7678C45.3329 82.7815 45.7026 81.6938 45.8536 80.5658C46.0011 79.5881 46.054 78.5984 46.0118 77.6106C45.9667 76.9485 46.1187 76.2879 46.4485 75.7121C46.9894 74.6647 47.1738 73.4693 46.9737 72.3076C46.9746 72.2333 46.9518 72.1607 46.9085 72.1004C46.8653 72.0401 46.8038 71.9951 46.7332 71.9722C46.5814 71.9279 46.4675 72.0418 46.3725 72.162C45.9018 72.8631 45.6206 73.6741 45.5562 74.5161C45.5436 74.6254 45.5436 74.7358 45.5562 74.8451C45.6347 76.1615 45.3524 77.4743 44.7399 78.642C44.1581 79.9896 43.8711 81.446 43.8982 82.9135C43.8983 83.3764 43.9976 83.8338 44.1893 84.2551" fill="#0FADE8"/>
<path d="M33.033 38.8191C32.9368 38.5459 32.7811 38.2973 32.5774 38.0914C31.6188 36.9812 30.4109 36.1138 29.0526 35.5601L28.1351 35.1931C27.2123 34.8243 26.3965 34.2304 25.762 33.4655C25.0437 32.6165 24.0215 32.0827 22.9144 31.9784C22.8609 31.9718 22.8066 31.9769 22.7552 31.9933C22.7039 32.0097 22.6567 32.037 22.6169 32.0733C22.594 32.1206 22.582 32.1726 22.582 32.2252C22.582 32.2778 22.594 32.3297 22.6169 32.3771C23.1266 33.3239 23.9737 34.0445 24.99 34.3957C26.1512 34.7423 27.1839 35.4249 27.9579 36.3575C28.9639 37.4882 30.2301 38.357 31.6472 38.8887C32.02 39.041 32.4221 39.108 32.8242 39.0849C32.8518 39.0835 32.8788 39.0763 32.9033 39.0637C32.9279 39.0512 32.9496 39.0335 32.9669 39.012C32.9842 38.9905 32.9968 38.9656 33.0039 38.9389C33.0109 38.9122 33.0122 38.8843 33.0077 38.8571" fill="#0FADE8"/>
<path d="M30.4637 58.9362C29.5395 58.9357 28.6393 59.2306 27.8945 59.7778C26.8422 60.5792 25.5988 61.0919 24.2875 61.265C22.7952 61.4879 21.3877 62.0989 20.2058 63.0368C19.9788 63.231 19.7672 63.4426 19.573 63.6697C19.5141 63.7545 19.4892 63.8584 19.5034 63.9607C19.5034 64.0873 19.6553 64.1189 19.7629 64.1126C20.4945 64.0908 21.221 63.9825 21.9271 63.7899C22.8076 63.5346 23.6456 63.1508 24.414 62.6508C24.7558 62.4357 25.0911 62.2205 25.4202 62.018C26.1946 61.4559 27.1062 61.1127 28.0591 61.0245C29.1609 60.8865 30.1796 60.3671 30.9383 59.5564C30.995 59.5117 31.0363 59.4506 31.0567 59.3815C31.0771 59.3123 31.0756 59.2386 31.0522 59.1703C30.9826 58.9932 30.8244 59.0185 30.6852 58.9932H30.4637" fill="#0FADE8"/>
<path d="M21.0792 45.451C22.0031 45.2612 22.8953 45.7737 23.8129 46.0838C24.6257 46.4114 25.4611 46.68 26.3125 46.8875C27.2818 47.0896 28.2765 47.1408 29.2614 47.0394C29.4466 47.0469 29.6276 46.9835 29.7677 46.8622C29.8436 46.7799 29.9006 46.6597 29.812 46.5711C29.6824 46.4462 29.5379 46.3378 29.3817 46.2484C27.9274 45.4563 26.2979 45.0407 24.6419 45.0397C24.2052 45.0397 23.7623 45.0397 23.3256 45.0397C22.662 45.0955 21.9976 44.9405 21.4272 44.5967C20.3188 44.0043 19.0368 43.8228 17.8075 44.0841C17.6999 44.0841 17.5797 44.1474 17.5987 44.2866C17.6134 44.3899 17.6651 44.4844 17.7442 44.5524C18.4525 45.0809 19.3039 45.3831 20.1869 45.4194C20.44 45.4194 20.6995 45.4194 21.0728 45.4194" fill="#0FADE8"/>
<path d="M23.1045 69.8712C24.0035 69.6503 24.8591 69.2803 25.6358 68.7765C26.4483 68.2785 27.182 67.6621 27.8127 66.9476C28.4997 66.131 29.4103 65.5328 30.4325 65.2264C31.4213 64.9168 32.2743 64.2781 32.8498 63.4165C32.9306 63.2964 33.0005 63.1694 33.0587 63.0369C33.0824 62.9883 33.089 62.9331 33.0775 62.8803C33.0661 62.8275 33.0371 62.7801 32.9954 62.7458C32.9683 62.7235 32.9369 62.707 32.9031 62.6972C32.8694 62.6874 32.8341 62.6845 32.7992 62.6888C31.7379 62.8426 30.7581 63.3459 30.0149 64.119C29.1838 65.0549 28.1241 65.7592 26.9394 66.1629C25.5866 66.6395 24.3718 67.4414 23.4019 68.498C23.1605 68.77 22.9345 69.0552 22.7248 69.3523C22.6823 69.4098 22.6524 69.4755 22.6372 69.5453C22.6219 69.6152 22.6216 69.6874 22.6362 69.7573C22.6869 69.8902 22.8704 69.8902 23.1045 69.8712Z" fill="#0FADE8"/>
<path d="M26.9833 26.7956C26.8188 26.7956 26.6923 27.0044 26.7682 27.2006C27.1337 28.2527 27.8661 29.1378 28.8312 29.6939C29.798 30.2268 30.6043 31.0091 31.1662 31.9594C31.5607 32.576 31.9985 33.1639 32.4762 33.7186C33.2365 34.619 34.2115 35.3133 35.3112 35.7373C35.4314 35.7816 35.5896 35.9018 35.7035 35.7373C35.7379 35.673 35.7558 35.6013 35.7558 35.5284C35.7558 35.4556 35.7379 35.3839 35.7035 35.3196C35.2876 34.3381 34.6711 33.4544 33.8937 32.7251C33.3164 32.1641 32.6798 31.6676 31.9952 31.2443C31.0023 30.6799 30.1869 29.8492 29.6412 28.8459C29.0908 27.9242 28.2358 27.2236 27.2238 26.8652C27.1542 26.8652 27.0846 26.8273 27.015 26.8083" fill="#0FADE8"/>
<path d="M42.8164 71.2444C42.8294 71.1712 42.8294 71.0962 42.8164 71.023C42.8164 70.928 42.7531 70.8015 42.6835 70.7635C42.6333 70.7463 42.5799 70.7407 42.5272 70.7473C42.4746 70.7539 42.4241 70.7724 42.3797 70.8015C42.0006 71.0905 41.6878 71.4573 41.4622 71.8773C41.2067 72.2804 41.0405 72.7335 40.9749 73.2062C40.7697 74.6259 40.2056 75.9698 39.3359 77.1106C38.5527 78.179 38.0324 79.4169 37.8171 80.724C37.7685 81.1229 37.7453 81.5245 37.7475 81.9263C37.7372 81.9798 37.7453 82.0353 37.7706 82.0836C37.7959 82.1319 37.8369 82.1701 37.8868 82.1921C37.9549 82.2195 38.0298 82.2251 38.1012 82.2081C38.1726 82.1911 38.237 82.1524 38.2854 82.0972C38.4287 81.9374 38.5639 81.7706 38.6904 81.5973C39.6953 80.3239 40.3498 78.8099 40.5889 77.2055C40.7263 76.0375 41.1865 74.9309 41.9178 74.0098C42.5325 73.222 42.8505 72.2431 42.8164 71.2444Z" fill="#0FADE8"/>
<path d="M32.0203 22.6128C31.9669 22.6375 31.9237 22.6801 31.8983 22.7333C31.8729 22.7864 31.8668 22.8467 31.8811 22.9039C32.0049 24.012 32.5374 25.0341 33.3745 25.7705C34.2437 26.5082 34.8992 27.4653 35.273 28.5422C35.7799 30.0464 36.6646 31.3951 37.8422 32.4594C38.0637 32.6492 38.2978 32.8264 38.532 33.0036C38.5893 33.0498 38.6608 33.075 38.7345 33.075C38.8081 33.075 38.8796 33.0498 38.937 33.0036C38.9923 32.9538 39.0314 32.8887 39.0495 32.8165C39.0675 32.7444 39.0636 32.6685 39.0382 32.5986C38.8732 31.9209 38.62 31.2677 38.2852 30.6558C37.7294 29.5744 36.971 28.6098 36.0513 27.8145C35.2489 27.1613 34.6658 26.2779 34.3807 25.2833C34.0267 24.19 33.2866 23.2632 32.2987 22.6761C32.2085 22.6331 32.1126 22.6033 32.014 22.5875" fill="#0FADE8"/>
<path d="M39.0385 69.036C39.0385 68.7828 38.855 68.7132 38.7031 68.7955C37.9206 69.2129 37.2781 69.8511 36.8553 70.6307C36.8188 70.6941 36.7911 70.7622 36.773 70.8331C36.3399 72.2457 35.5016 73.4999 34.362 74.4402C33.2397 75.5115 32.421 76.8608 31.989 78.351C31.9269 78.5562 31.8949 78.7694 31.894 78.9838C31.894 79.0344 32.0649 79.1546 32.1345 79.1356C32.3105 79.0866 32.4758 79.0051 32.6218 78.8952C33.1839 78.4829 33.6846 77.9928 34.1089 77.4397C34.8217 76.5486 35.378 75.5429 35.7542 74.4655C36.0478 73.47 36.637 72.5872 37.4438 71.9342C38.1713 71.3048 38.6973 70.475 38.9562 69.5485C39.0053 69.3711 39.0329 69.1884 39.0385 69.0043" fill="#0FADE8"/>
<path d="M47.031 28.1309C47.0133 26.8454 46.7401 25.5762 46.2273 24.3973C46.0754 24.0239 45.8792 23.6695 45.7464 23.2899C45.4584 22.6116 45.3495 21.8708 45.43 21.1383C45.5139 20.1475 45.3142 19.1532 44.8541 18.2717C44.7653 18.0302 44.6011 17.8239 44.3858 17.6831C44.2909 17.6325 44.158 17.6198 44.1137 17.7464C44.0231 17.9481 43.9592 18.1609 43.9239 18.3792C43.7795 19.4056 43.9775 20.4509 44.4871 21.3534C44.86 21.9843 45.0424 22.7095 45.0123 23.4417C44.9454 24.6505 45.0347 25.8629 45.2781 27.0488C45.4828 27.9806 45.849 28.8694 46.3602 29.675C46.4425 29.7952 46.5564 29.9344 46.7082 29.9028C46.7785 29.8804 46.84 29.8367 46.8843 29.7777C46.9285 29.7187 46.9532 29.6474 46.955 29.5737C46.993 29.0991 47.012 28.6245 47.0373 28.1499" fill="#0FADE8"/>
<path d="M37.7344 20.1511C37.7195 21.1119 38.032 22.0492 38.6203 22.8089C39.3477 23.6967 39.8104 24.7713 39.9556 25.9097C40.1667 27.4811 40.7743 28.9728 41.7211 30.2445C41.901 30.4762 42.0932 30.698 42.297 30.9089C42.3919 31.0165 42.5058 31.1431 42.664 31.0925C42.8222 31.0418 42.8286 30.795 42.8286 30.6305C42.8172 29.7842 42.6566 28.9466 42.3539 28.1562C41.962 27.0872 41.4094 26.0843 40.715 25.182C40.1127 24.4361 39.7606 23.5195 39.7088 22.5622C39.5745 21.4198 39.0195 20.3685 38.1521 19.6132C38.0824 19.5436 37.9559 19.4677 37.861 19.5563C37.7957 19.6354 37.7559 19.7325 37.7471 19.8347C37.7375 19.9442 37.7375 20.0543 37.7471 20.1638" fill="#0FADE8"/>
<path d="M27.0721 74.9148C27.2986 74.926 27.5221 74.859 27.7049 74.7249C28.8404 74.1198 29.8347 73.2808 30.6222 72.2633C30.907 71.8836 31.1791 71.4912 31.4322 71.0862C31.9853 70.1307 32.7939 69.3483 33.7673 68.8271C34.6654 68.3126 35.355 67.4999 35.7163 66.53C35.7535 66.4655 35.7731 66.3924 35.7731 66.318C35.7731 66.2436 35.7535 66.1704 35.7163 66.106C35.5771 65.9035 35.3746 66.0111 35.2291 66.106C34.9327 66.2458 34.6526 66.4177 34.3937 66.6186C33.6908 67.1496 33.0994 67.8141 32.6535 68.574C32.2499 69.2785 31.6583 69.8569 30.9449 70.2446C30.1338 70.7411 29.3729 71.3155 28.6731 71.9595C27.8815 72.676 27.2812 73.5786 26.9266 74.5857C26.8759 74.7376 26.9709 74.9337 27.0848 74.9337" fill="#0FADE8"/>
<path d="M51.6756 81.7238C51.7215 80.7654 51.6234 79.8055 51.3845 78.8762C51.0712 77.929 51.0712 76.9061 51.3845 75.9589C51.6947 74.8558 51.6119 73.6791 51.1503 72.6303C51.111 72.5297 51.053 72.4374 50.9795 72.3582C50.8972 72.2696 50.7706 72.2506 50.7137 72.3582C50.1793 73.2915 50.0166 74.392 50.2581 75.44C50.6031 76.7208 50.6031 78.07 50.2581 79.3508C49.8574 80.9625 49.9121 82.6537 50.4163 84.2361C50.4479 84.3437 50.4732 84.4513 50.5049 84.5525C50.5226 84.6249 50.5606 84.6907 50.6144 84.7422C50.6682 84.7938 50.7356 84.8289 50.8086 84.8436C50.8819 84.8472 50.9543 84.8252 51.0131 84.7813C51.072 84.7374 51.1138 84.6744 51.1313 84.6031C51.38 83.9968 51.5378 83.3571 51.5996 82.7047C51.5996 82.2997 51.6376 81.8947 51.6439 81.7238" fill="#0FADE8"/>
<path d="M51.6759 26.2198C51.7074 25.3485 51.6158 24.4772 51.4038 23.6316C51.0732 22.5766 51.0888 21.4435 51.4481 20.3979C51.7405 19.2901 51.612 18.1132 51.0873 17.0946C51.0873 17.025 50.9165 16.9744 50.8216 16.9554C50.7267 16.9364 50.6887 17.0313 50.6634 17.0883C50.1763 18.0428 50.0397 19.1379 50.2773 20.1828C50.6034 21.4274 50.6034 22.735 50.2773 23.9796C49.8949 25.5553 49.9386 27.2042 50.4039 28.7574C50.4799 29.0295 50.5178 29.4535 50.8216 29.4661C51.1253 29.4788 51.2266 29.0105 51.3278 28.7257C51.6029 27.9115 51.7231 27.053 51.6822 26.1945" fill="#0FADE8"/>
<path d="M63.0916 51.1779C63.1286 51.9615 63.0497 52.7462 62.8575 53.5067C62.512 55.1214 61.8565 56.6537 60.9274 58.0187C59.6514 59.8672 57.9032 61.3401 55.8649 62.2838C54.2391 62.9453 52.5207 63.3509 50.7707 63.4862C50.5563 63.5068 50.34 63.4786 50.1379 63.4039C49.8209 63.3149 49.4926 63.2723 49.1634 63.2773C48.9085 63.2691 48.6547 63.2416 48.404 63.1951C47.2276 62.9387 46.0895 62.5302 45.0185 61.9801C43.1468 61.0233 41.565 59.5835 40.4369 57.8098C39.1133 55.6851 38.4117 53.2319 38.4119 50.7287C38.4119 50.2034 38.5954 49.7225 38.6207 49.2099C38.7745 47.6008 39.3057 46.0506 40.1711 44.6853C41.1838 42.9733 42.6087 41.5418 44.316 40.5214C46.1403 39.4243 48.198 38.7738 50.3214 38.6229C51.3456 38.5807 52.3706 38.6852 53.3653 38.933C56.2019 39.5084 58.7311 41.0993 60.4781 43.407C62.285 45.594 63.2262 48.3682 63.1232 51.2033L63.0916 51.1779ZM50.891 36.1866H50.2265C47.1606 36.205 44.1865 37.2349 41.7658 39.1165C40.0819 40.367 38.7036 41.9833 37.7348 43.8436C37.0147 45.1677 36.4843 46.5865 36.1591 48.0582C35.8651 49.7292 35.8033 51.4328 35.9756 53.1207C36.1331 54.4696 36.5025 55.7852 37.0703 57.0188C37.7205 58.6195 38.6722 60.0804 39.8737 61.3219C40.8422 62.3756 41.9722 63.2685 43.2213 63.9671C44.4993 64.6908 45.8705 65.2358 47.2966 65.5871C48.9078 65.9561 50.5668 66.0713 52.2135 65.9288C54.7925 65.6742 57.2599 64.7492 59.3707 63.2457C61.159 62.013 62.6488 60.3956 63.7307 58.5122C64.669 56.854 65.2852 55.0333 65.5469 53.146C65.6647 52.3498 65.726 51.5462 65.7304 50.7413C65.7009 49.3878 65.488 48.0446 65.0976 46.7483C64.6477 45.162 63.9308 43.664 62.9777 42.3186C62.1076 41.0944 61.0555 40.0103 59.8579 39.1039C58.6675 38.1838 57.3391 37.4576 55.9218 36.9523C54.6598 36.4479 53.3132 36.188 51.9541 36.1866C51.5871 36.1866 51.22 36.1866 50.853 36.1866H50.891Z" fill="#0FADE8"/>
<path d="M63.0977 51.1779C63.1954 48.3426 62.2523 45.5695 60.4462 43.3816C58.6992 41.0739 56.1701 39.4831 53.3334 38.9077C52.3388 38.6598 51.3138 38.5554 50.2896 38.5976C48.1662 38.7484 46.1085 39.3989 44.2842 40.496C42.5768 41.5165 41.1519 42.9479 40.1392 44.6599C39.2738 46.0252 38.7426 47.5754 38.5889 49.1845C38.5889 49.6971 38.361 50.1781 38.38 50.7033C38.3799 53.2066 39.0814 55.6598 40.405 57.7845C41.54 59.5703 43.1331 61.0191 45.0182 61.98C46.0933 62.5312 47.2356 62.9397 48.4164 63.195C48.6671 63.2415 48.921 63.269 49.1758 63.2773C49.5051 63.2722 49.8333 63.3148 50.1503 63.4039C50.3524 63.4786 50.5687 63.5067 50.7832 63.4861C52.5331 63.3509 54.2516 62.9453 55.8773 62.2838C57.9156 61.34 59.6638 59.8672 60.9398 58.0186C61.8713 56.6526 62.5269 55.1177 62.8699 53.5003C63.0643 52.7423 63.1453 51.9597 63.1104 51.1779" fill="#036EC2"/>
<path d="M50.8592 109.264H51.9793C53.3385 109.265 54.685 109.525 55.9471 110.03C57.3649 110.533 58.6935 111.26 59.8832 112.181C61.0807 113.088 62.1328 114.172 63.0029 115.396C63.9554 116.742 64.6722 118.24 65.1228 119.826C65.5133 121.122 65.7261 122.465 65.7557 123.819C65.7514 124.623 65.6901 125.427 65.5722 126.223C65.3105 128.11 64.6942 129.931 63.756 131.59C62.6784 133.476 61.1878 135.094 59.3959 136.323C57.2874 137.812 54.8271 138.726 52.2578 138.974C50.6131 139.117 48.9561 139.002 47.3471 138.633C45.9203 138.284 44.5488 137.738 43.2718 137.013C42.0208 136.314 40.8887 135.421 39.9179 134.368C38.7164 133.126 37.7647 131.665 37.1145 130.064C36.5468 128.831 36.1773 127.515 36.0198 126.166C35.8475 124.478 35.9093 122.775 36.2033 121.104C36.5103 119.632 37.0237 118.211 37.7284 116.883C38.6953 115.02 40.0738 113.401 41.7594 112.149C44.1801 110.268 47.1542 109.238 50.2201 109.22H50.8845L50.8592 109.264ZM69.6981 123.996C69.7015 121.511 69.2135 119.051 68.2624 116.756C67.3113 114.461 65.9158 112.376 64.1562 110.622C62.3965 108.869 60.3074 107.48 58.0091 106.537C55.7108 105.593 53.2487 105.114 50.7643 105.125C48.2656 105.105 45.7879 105.582 43.4754 106.529C41.163 107.476 39.0621 108.874 37.2952 110.641C35.5283 112.407 34.1307 114.508 33.1838 116.821C32.2369 119.133 31.7597 121.611 31.7799 124.11C31.7898 126.604 32.2921 129.071 33.2578 131.371C34.2235 133.67 35.6337 135.756 37.4074 137.509C39.1812 139.263 41.2837 140.648 43.5943 141.587C45.9048 142.526 48.378 142.999 50.8719 142.98C55.8836 142.952 60.6795 140.937 64.2085 137.379C67.7375 133.82 69.7116 129.007 69.6981 123.996Z" fill="#036EC2"/>
<path d="M14.2324 155.32H10.0431C9.82165 155.32 9.60649 155.32 9.41032 155.32C9.31717 155.325 9.22892 155.363 9.16239 155.428C9.09587 155.494 9.05572 155.581 9.04961 155.674C9.03685 155.856 9.03685 156.037 9.04961 156.219C9.04961 159.009 9.04961 161.794 9.04961 164.584C9.04961 165.66 9.04961 165.679 10.157 165.717C13.0173 165.818 15.884 165.894 18.7443 165.717C18.9288 165.713 19.1127 165.696 19.2949 165.667C19.3862 165.649 19.47 165.604 19.5346 165.537C19.5992 165.47 19.6415 165.385 19.6556 165.293C19.6936 165.042 19.7126 164.788 19.7125 164.534C19.7125 161.857 19.7125 159.174 19.7125 156.497C19.7125 155.08 19.4151 155.269 18.4469 155.231H16.4662H14.264L14.2324 155.32Z" fill="#0FADE8"/>
<path d="M14.2767 146.29C13.4667 146.29 12.663 146.29 11.8593 146.29C11.3404 146.29 11.2265 146.41 11.1949 146.954C11.0223 148.637 11.0223 150.334 11.1949 152.017C11.1932 152.08 11.2042 152.143 11.2274 152.201C11.2506 152.26 11.2853 152.313 11.3297 152.358C11.374 152.403 11.427 152.439 11.4854 152.463C11.5438 152.487 11.6064 152.499 11.6695 152.498C13.4162 152.706 15.1815 152.706 16.9282 152.498C17.2889 152.453 17.3585 152.371 17.4028 152.023C17.4055 151.987 17.4055 151.951 17.4028 151.915C17.4028 150.302 17.4028 148.694 17.4028 147.087C17.4028 146.454 17.2256 146.328 16.5928 146.315C15.8271 146.315 15.055 146.315 14.2893 146.315L14.2767 146.29Z" fill="#036EC2"/>
<path d="M25.4457 157.415H23.5473C23.2878 157.415 23.0347 157.415 22.7753 157.459C22.3703 157.509 22.2627 157.623 22.2057 157.99C22.1826 158.137 22.172 158.285 22.1741 158.433C22.1741 159.864 22.1741 161.294 22.1741 162.724C22.1763 162.908 22.1911 163.092 22.2184 163.274C22.2275 163.367 22.2675 163.453 22.3318 163.519C22.3961 163.586 22.481 163.629 22.5728 163.641C22.6795 163.66 22.7873 163.673 22.8955 163.679C24.5096 163.784 26.1288 163.784 27.7428 163.679C28.3757 163.635 28.5908 163.464 28.5971 162.8C28.5971 161.262 28.5971 159.718 28.5971 158.174C28.5971 157.63 28.4263 157.497 27.8314 157.484C27.0214 157.484 26.2114 157.484 25.4078 157.484V157.421" fill="#036EC2"/>
<path d="M6.41683 165.673C6.31036 165.719 6.21038 165.778 6.11943 165.85C5.36005 166.588 4.60277 167.335 3.84761 168.09C3.80493 168.126 3.77063 168.172 3.74711 168.222C3.7236 168.273 3.71143 168.328 3.71143 168.384C3.71143 168.44 3.7236 168.496 3.74711 168.547C3.77063 168.597 3.80493 168.642 3.84761 168.679C4.588 169.444 5.3347 170.197 6.08142 170.957C6.11056 170.992 6.14661 171.021 6.18733 171.042C6.22805 171.063 6.27259 171.075 6.31823 171.078C6.36386 171.081 6.40964 171.074 6.45271 171.059C6.49579 171.044 6.53525 171.02 6.5687 170.988C7.42664 170.296 8.2074 169.513 8.89745 168.653C9.11261 168.388 9.10627 168.236 8.85315 167.983C8.13596 167.249 7.41033 166.523 6.67627 165.806C6.59283 165.744 6.4983 165.699 6.39783 165.673" fill="#0FADE8"/>
<path d="M23.4329 128.944C21.6469 128.834 19.8644 129.21 18.2755 130.033C17.9907 130.191 17.5034 130.318 17.5477 130.615C17.6047 131.077 18.1426 130.887 18.4653 130.944C19.5586 131.103 20.6736 131.019 21.7306 130.697C22.3312 130.535 22.9175 130.323 23.4835 130.064C24.4511 129.603 25.5215 129.401 26.5906 129.476C27.2146 129.527 27.8422 129.445 28.4321 129.235C29.0013 129.087 29.5073 128.758 29.8749 128.299C29.394 127.767 28.7422 127.869 28.141 127.875C27.5489 127.863 26.9641 128.007 26.4451 128.293C25.5412 128.837 24.4796 129.06 23.4329 128.925" fill="#0FADE8"/>
<path d="M22.174 150.036C22.0781 150.077 21.9869 150.128 21.9019 150.188C21.0713 150.852 20.3102 151.598 19.6301 152.415C19.5875 152.451 19.5533 152.496 19.5298 152.546C19.5063 152.596 19.4941 152.651 19.4941 152.707C19.4941 152.762 19.5063 152.817 19.5298 152.867C19.5533 152.917 19.5875 152.962 19.6301 152.998L21.8006 155.181C21.8799 155.259 21.9867 155.303 22.098 155.303C22.2093 155.303 22.3161 155.259 22.3954 155.181C23.2698 154.518 24.0659 153.758 24.7685 152.915C24.8231 152.866 24.8577 152.798 24.8658 152.724C24.874 152.651 24.8551 152.577 24.8128 152.517C24.0797 151.65 23.2776 150.843 22.4144 150.106C22.3455 150.069 22.2704 150.045 22.1929 150.036" fill="#0FADE8"/>
<path d="M26.4707 123.154C25.4035 123.133 24.3385 123.261 23.3067 123.534C22.4306 123.819 21.4869 123.819 20.6109 123.534C19.4385 123.185 18.1788 123.282 17.0735 123.806C16.9786 123.85 16.852 123.882 16.8773 124.015C16.9007 124.121 16.9613 124.215 17.0481 124.281C17.8671 124.7 18.792 124.867 19.706 124.761C19.9617 124.734 20.214 124.681 20.459 124.603C21.4154 124.318 22.4329 124.307 23.3953 124.572C24.1766 124.779 24.9792 124.896 25.7873 124.92C26.7417 124.97 27.6974 124.85 28.6096 124.565C28.7523 124.527 28.8919 124.479 29.0273 124.42C29.2108 124.325 29.4829 124.268 29.4513 123.989C29.4196 123.711 29.2235 123.711 29.0526 123.648C28.7807 123.54 28.4988 123.459 28.211 123.407C27.6414 123.287 27.0641 123.207 26.4834 123.167" fill="#0FADE8"/>
<path d="M22.2374 171.159C23.0981 170.387 23.8638 169.558 24.6548 168.748C24.6897 168.718 24.7176 168.681 24.7368 168.639C24.756 168.597 24.7659 168.551 24.7659 168.505C24.7659 168.458 24.756 168.413 24.7368 168.371C24.7176 168.329 24.6897 168.291 24.6548 168.261C23.8574 167.457 23.0538 166.654 22.2501 165.863C22.1961 165.812 22.1248 165.784 22.0508 165.784C21.9767 165.784 21.9054 165.812 21.8514 165.863L21.5983 166.078C20.9655 166.711 20.3327 167.343 19.7442 167.976C19.4657 168.261 19.4468 168.362 19.6429 168.609C20.3536 169.602 21.2366 170.459 22.2501 171.14" fill="#0FADE8"/>
<path d="M20.1173 110.84C20.0002 110.838 19.8834 110.851 19.7693 110.878C19.6743 110.909 19.5478 110.966 19.5161 111.048C19.5077 111.098 19.5101 111.148 19.5233 111.196C19.5364 111.244 19.5599 111.289 19.5921 111.327C20.2827 112.103 21.2065 112.633 22.2246 112.839C22.3304 112.866 22.4384 112.883 22.5473 112.89C23.5796 112.985 24.56 113.386 25.3633 114.042C26.6833 115.045 28.2353 115.698 29.8753 115.94C30.201 116.007 30.5368 116.007 30.8625 115.94C30.9071 115.93 30.9485 115.909 30.9829 115.879C31.0173 115.849 31.0436 115.811 31.0594 115.768C31.0751 115.725 31.0798 115.679 31.0731 115.634C31.0663 115.589 31.0483 115.546 31.0207 115.51C30.7932 115.222 30.5194 114.974 30.2107 114.776C28.9164 113.856 27.4219 113.257 25.8506 113.029C24.7902 112.909 23.7865 112.488 22.9587 111.814C22.1536 111.165 21.1513 110.81 20.1173 110.808" fill="#0FADE8"/>
<path d="M9.16337 152.839C9.13834 152.74 9.09999 152.644 9.04943 152.555C8.26896 151.774 7.48641 151 6.70172 150.232C6.53086 150.055 6.341 149.966 6.13217 150.175C5.38545 150.935 4.63242 151.688 3.89203 152.447C3.84847 152.482 3.81333 152.526 3.78917 152.577C3.76502 152.627 3.75244 152.682 3.75244 152.738C3.75244 152.794 3.76502 152.849 3.78917 152.9C3.81333 152.95 3.84847 152.994 3.89203 153.029C4.61976 153.757 5.34118 154.485 6.07524 155.2C6.32837 155.447 6.48024 155.447 6.70805 155.2C7.52438 154.415 8.32171 153.611 9.10007 152.846" fill="#0FADE8"/>
<path d="M44.183 157.377C44.5184 157.326 44.6386 157.086 44.7652 156.87C45.3329 155.884 45.7026 154.796 45.8536 153.668C46.0011 152.691 46.054 151.701 46.0118 150.713C45.9667 150.051 46.1187 149.391 46.4485 148.815C46.9894 147.767 47.1738 146.572 46.9737 145.41C46.9746 145.336 46.9518 145.263 46.9085 145.203C46.8653 145.143 46.8038 145.098 46.7332 145.075C46.5814 145.03 46.4675 145.144 46.3725 145.265C45.9018 145.966 45.6206 146.777 45.5562 147.619C45.5436 147.728 45.5436 147.838 45.5562 147.948C45.6347 149.264 45.3524 150.577 44.7399 151.745C44.1581 153.092 43.8711 154.549 43.8982 156.016C43.8983 156.479 43.9976 156.936 44.1893 157.358" fill="#0FADE8"/>
<path d="M33.033 111.922C32.9368 111.648 32.7811 111.4 32.5774 111.194C31.6188 110.084 30.4109 109.216 29.0526 108.663L28.1351 108.296C27.2123 107.927 26.3965 107.333 25.762 106.568C25.0437 105.719 24.0215 105.185 22.9144 105.081C22.8609 105.074 22.8066 105.079 22.7552 105.096C22.7039 105.112 22.6567 105.14 22.6169 105.176C22.594 105.223 22.582 105.275 22.582 105.328C22.582 105.38 22.594 105.432 22.6169 105.48C23.1266 106.427 23.9737 107.147 24.99 107.498C26.1512 107.845 27.1839 108.528 27.9579 109.46C28.9639 110.591 30.2301 111.46 31.6472 111.991C32.02 112.144 32.4221 112.211 32.8242 112.187C32.8518 112.186 32.8788 112.179 32.9033 112.166C32.9279 112.154 32.9496 112.136 32.9669 112.115C32.9842 112.093 32.9968 112.068 33.0039 112.041C33.0109 112.015 33.0122 111.987 33.0077 111.96" fill="#0FADE8"/>
<path d="M30.4634 132.039C29.5549 132.039 28.6695 132.325 27.9321 132.855C26.8798 133.657 25.6364 134.169 24.3251 134.342C22.8328 134.565 21.4253 135.176 20.2434 136.114C20.0163 136.308 19.8047 136.52 19.6106 136.747C19.5517 136.832 19.5268 136.936 19.541 137.038C19.541 137.165 19.6929 137.196 19.8005 137.19C20.5321 137.168 21.2585 137.06 21.9647 136.867C22.8452 136.612 23.6832 136.228 24.4516 135.728C24.7934 135.513 25.1287 135.298 25.4578 135.064C26.2322 134.502 27.1438 134.158 28.0966 134.07C29.1985 133.932 30.2172 133.413 30.9759 132.602C31.0326 132.557 31.0739 132.496 31.0943 132.427C31.1147 132.358 31.1132 132.284 31.0898 132.216C31.0202 132.039 30.862 132.064 30.7228 132.039H30.4634Z" fill="#0FADE8"/>
<path d="M21.0792 118.554C22.0031 118.364 22.8953 118.876 23.8129 119.186C24.6257 119.514 25.4611 119.782 26.3125 119.99C27.2818 120.192 28.2765 120.243 29.2614 120.142C29.4466 120.149 29.6276 120.086 29.7677 119.965C29.8436 119.882 29.9006 119.762 29.812 119.674C29.6824 119.549 29.5379 119.44 29.3817 119.351C27.9274 118.559 26.2979 118.143 24.6419 118.142C24.2052 118.142 23.7623 118.142 23.3256 118.142C22.662 118.198 21.9976 118.043 21.4272 117.699C20.3188 117.107 19.0368 116.925 17.8075 117.187C17.6999 117.187 17.5797 117.25 17.5987 117.389C17.6134 117.492 17.6651 117.587 17.7442 117.655C18.4525 118.183 19.3039 118.486 20.1869 118.522C20.44 118.522 20.6995 118.522 21.0728 118.522" fill="#0FADE8"/>
<path d="M23.1045 142.98C24.0035 142.759 24.8591 142.389 25.6358 141.885C26.4483 141.387 27.182 140.771 27.8127 140.056C28.4997 139.24 29.4103 138.642 30.4325 138.335C31.4213 138.026 32.2743 137.387 32.8498 136.525C32.9306 136.405 33.0005 136.278 33.0587 136.146C33.0824 136.097 33.089 136.042 33.0775 135.989C33.0661 135.936 33.0371 135.889 32.9954 135.855C32.9683 135.832 32.9369 135.816 32.9031 135.806C32.8694 135.796 32.8341 135.793 32.7992 135.798C31.7379 135.951 30.7581 136.455 30.0149 137.228C29.1838 138.164 28.1241 138.868 26.9394 139.272C25.5866 139.748 24.3718 140.55 23.4019 141.607C23.1605 141.879 22.9345 142.164 22.7248 142.461C22.6823 142.519 22.6524 142.584 22.6372 142.654C22.6219 142.724 22.6216 142.796 22.6362 142.866C22.6869 142.999 22.8704 142.999 23.1045 142.98Z" fill="#0FADE8"/>
<path d="M26.9833 99.8982C26.8188 99.8666 26.6923 100.107 26.7682 100.303C27.1337 101.355 27.8661 102.24 28.8312 102.797C29.798 103.329 30.6043 104.112 31.1662 105.062C31.5607 105.679 31.9985 106.267 32.4762 106.821C33.2365 107.722 34.2115 108.416 35.3112 108.84C35.4314 108.884 35.5896 109.004 35.7035 108.84C35.7379 108.776 35.7558 108.704 35.7558 108.631C35.7558 108.558 35.7379 108.486 35.7035 108.422C35.2876 107.441 34.6711 106.557 33.8937 105.828C33.3164 105.267 32.6798 104.77 31.9952 104.347C31.0023 103.783 30.1869 102.952 29.6412 101.949C29.0908 101.027 28.2358 100.326 27.2238 99.9678L27.015 99.9109" fill="#0FADE8"/>
<path d="M42.8164 144.347C42.8294 144.274 42.8294 144.199 42.8164 144.126C42.8164 144.031 42.7531 143.904 42.6835 143.866C42.6333 143.849 42.5799 143.843 42.5272 143.85C42.4746 143.856 42.4241 143.875 42.3797 143.904C42.0006 144.193 41.6878 144.56 41.4622 144.98C41.2067 145.383 41.0405 145.836 40.9749 146.309C40.7697 147.729 40.2056 149.072 39.3359 150.213C38.5527 151.282 38.0324 152.52 37.8171 153.827C37.7685 154.225 37.7453 154.627 37.7475 155.029C37.7372 155.082 37.7453 155.138 37.7706 155.186C37.7959 155.234 37.8369 155.273 37.8868 155.295C37.9549 155.322 38.0298 155.328 38.1012 155.311C38.1726 155.294 38.237 155.255 38.2854 155.2C38.4373 155.041 38.581 154.874 38.7158 154.7C39.7206 153.426 40.3751 151.913 40.6142 150.308C40.7516 149.14 41.2118 148.033 41.9431 147.112C42.5578 146.325 42.8759 145.346 42.8417 144.347" fill="#0FADE8"/>
<path d="M32.0203 95.7153C31.9669 95.74 31.9237 95.7826 31.8983 95.8358C31.8729 95.8889 31.8668 95.9492 31.8811 96.0064C32.0049 97.1145 32.5374 98.1366 33.3745 98.873C34.2437 99.6107 34.8992 100.568 35.273 101.645C35.7799 103.149 36.6646 104.498 37.8422 105.562C38.0637 105.752 38.2978 105.929 38.532 106.106C38.5893 106.152 38.6608 106.178 38.7345 106.178C38.8081 106.178 38.8796 106.152 38.937 106.106C38.9923 106.056 39.0314 105.991 39.0495 105.919C39.0675 105.847 39.0636 105.771 39.0382 105.701C38.8732 105.023 38.62 104.37 38.2852 103.758C37.7294 102.677 36.971 101.712 36.0513 100.917C35.2489 100.264 34.6658 99.3804 34.3807 98.3858C34.0267 97.2925 33.2866 96.3657 32.2987 95.7786C32.2085 95.7357 32.1126 95.7058 32.014 95.69" fill="#0FADE8"/>
<path d="M39.0385 142.139C39.0385 141.885 38.855 141.816 38.7031 141.898C37.9206 142.315 37.2781 142.954 36.8553 143.733C36.8188 143.797 36.7911 143.865 36.773 143.936C36.3399 145.348 35.5016 146.602 34.362 147.543C33.2397 148.614 32.421 149.963 31.989 151.454C31.9269 151.659 31.8949 151.872 31.894 152.086C31.894 152.137 32.0649 152.257 32.1345 152.238C32.3105 152.189 32.4758 152.108 32.6218 151.998C33.1839 151.585 33.6846 151.095 34.1089 150.542C34.8217 149.651 35.378 148.645 35.7542 147.568C36.0478 146.573 36.637 145.69 37.4438 145.037C38.1713 144.407 38.6973 143.578 38.9562 142.651C39.0053 142.474 39.0329 142.291 39.0385 142.107" fill="#0FADE8"/>
<path d="M47.0309 101.214C47.0133 99.9289 46.7401 98.6598 46.2273 97.4809C46.0754 97.1075 45.8792 96.7531 45.7463 96.3734C45.4584 95.6952 45.3494 94.9543 45.4299 94.2219C45.5139 93.231 45.3141 92.2368 44.8541 91.3552C44.7648 91.1106 44.5982 90.9017 44.3794 90.7604C44.2845 90.7098 44.1516 90.6971 44.1073 90.8237C44.016 91.0251 43.9521 91.238 43.9175 91.4565C43.7732 92.4808 43.9712 93.5241 44.4807 94.4244C44.8536 95.0552 45.0361 95.7805 45.0059 96.5127C44.939 97.7214 45.0284 98.9338 45.2717 100.12C45.4764 101.052 45.8427 101.94 46.3538 102.746C46.4361 102.872 46.55 103.005 46.7019 102.974C46.7721 102.951 46.8337 102.908 46.8779 102.849C46.9221 102.79 46.9469 102.718 46.9487 102.645C46.9866 102.17 47.0056 101.695 47.0309 101.221" fill="#0FADE8"/>
<path d="M37.7344 93.2537C37.7195 94.2145 38.032 95.1518 38.6203 95.9115C39.3455 96.7957 39.8081 97.8656 39.9556 98.9996C40.1667 100.571 40.7743 102.063 41.7211 103.334C41.9019 103.555 42.0941 103.766 42.297 103.967C42.3919 104.075 42.5058 104.201 42.664 104.151C42.8222 104.1 42.8286 103.853 42.8286 103.689C42.8172 102.842 42.6566 102.005 42.3539 101.214C41.962 100.145 41.4094 99.1425 40.715 98.2402C40.1127 97.4944 39.7606 96.5777 39.7088 95.6204C39.5745 94.4781 39.0195 93.4267 38.1521 92.6715C38.0824 92.6019 37.9559 92.5259 37.861 92.6145C37.7957 92.6937 37.7559 92.7908 37.7471 92.893C37.7375 93.0025 37.7375 93.1126 37.7471 93.222" fill="#0FADE8"/>
<path d="M27.0721 148.043C27.2986 148.054 27.5221 147.987 27.7049 147.853C28.8404 147.248 29.8347 146.409 30.6222 145.391C30.907 145.011 31.1791 144.619 31.4322 144.214C31.9853 143.259 32.7939 142.476 33.7673 141.955C34.6654 141.441 35.355 140.628 35.7163 139.658C35.7535 139.593 35.7731 139.52 35.7731 139.446C35.7731 139.371 35.7535 139.298 35.7163 139.234C35.5771 139.031 35.3746 139.139 35.2291 139.234C34.9327 139.374 34.6526 139.546 34.3937 139.746C33.6908 140.278 33.0994 140.942 32.6535 141.702C32.2499 142.406 31.6583 142.985 30.9449 143.372C30.1338 143.869 29.3729 144.443 28.6731 145.087C27.8815 145.804 27.2812 146.707 26.9266 147.714C26.8759 147.865 26.9709 148.062 27.0848 148.062" fill="#0FADE8"/>
<path d="M51.6756 154.826C51.7215 153.868 51.6234 152.908 51.3845 151.979C51.0712 151.032 51.0712 150.009 51.3845 149.061C51.6947 147.958 51.6119 146.782 51.1503 145.733C51.111 145.632 51.053 145.54 50.9795 145.461C50.8972 145.372 50.7706 145.353 50.7137 145.461C50.1793 146.394 50.0166 147.495 50.2581 148.543C50.6031 149.823 50.6031 151.173 50.2581 152.453C49.8574 154.065 49.9121 155.756 50.4163 157.339C50.4479 157.446 50.4732 157.554 50.5049 157.655C50.5226 157.727 50.5606 157.793 50.6144 157.845C50.6682 157.896 50.7356 157.931 50.8086 157.946C50.8819 157.95 50.9543 157.928 51.0131 157.884C51.072 157.84 51.1138 157.777 51.1313 157.706C51.38 157.099 51.5378 156.46 51.5996 155.807C51.5996 155.402 51.6376 154.997 51.6439 154.826" fill="#0FADE8"/>
<path d="M51.6759 99.3161C51.7074 98.4448 51.6158 97.5735 51.4038 96.7279C51.0732 95.6728 51.0888 94.5397 51.4481 93.4942C51.7405 92.3864 51.612 91.2095 51.0873 90.1909C51.0873 90.1213 50.9165 90.0706 50.8216 90.0517C50.7267 90.0327 50.6887 90.1276 50.6634 90.1846C50.1763 91.139 50.0397 92.2342 50.2773 93.279C50.6034 94.5236 50.6034 95.8313 50.2773 97.0759C49.8949 98.6515 49.9386 100.3 50.4039 101.854C50.4799 102.126 50.5178 102.55 50.8216 102.562C51.1253 102.575 51.2266 102.107 51.3278 101.822C51.6029 101.008 51.7231 100.149 51.6822 99.2907" fill="#0FADE8"/>
<path d="M63.0916 124.281C63.1286 125.064 63.0497 125.849 62.8575 126.609C62.512 128.224 61.8565 129.756 60.9274 131.121C59.6514 132.97 57.9032 134.443 55.8649 135.386C54.2391 136.048 52.5207 136.453 50.7707 136.589C50.5563 136.609 50.34 136.581 50.1379 136.506C49.8209 136.417 49.4926 136.375 49.1634 136.38C48.9085 136.372 48.6547 136.344 48.404 136.298C47.2232 136.042 46.0808 135.634 45.0058 135.083C43.1342 134.126 41.5523 132.686 40.4242 130.912C39.1006 128.788 38.3991 126.334 38.3992 123.831C38.3992 123.306 38.5827 122.825 38.6081 122.312C38.7618 120.703 39.293 119.153 40.1585 117.788C41.1711 116.076 42.596 114.644 44.3034 113.624C46.1277 112.527 48.1854 111.876 50.3088 111.725C51.333 111.683 52.358 111.788 53.3526 112.036C56.1893 112.611 58.7184 114.202 60.4654 116.51C62.2723 118.697 63.2136 121.471 63.1106 124.306L63.0916 124.281ZM50.8783 109.289H50.2139C47.1479 109.308 44.1738 110.337 41.7531 112.219C40.0692 113.47 38.6909 115.086 37.7221 116.946C37.0075 118.267 36.4814 119.681 36.1591 121.148C35.8651 122.819 35.8033 124.523 35.9756 126.211C36.1331 127.559 36.5025 128.875 37.0703 130.109C37.7205 131.709 38.6722 133.17 39.8737 134.412C40.8422 135.466 41.9722 136.358 43.2213 137.057C44.4993 137.781 45.8705 138.326 47.2966 138.677C48.9078 139.046 50.5668 139.161 52.2135 139.019C54.7829 138.77 57.2431 137.856 59.3517 136.367C61.14 135.135 62.6298 133.517 63.7118 131.634C64.65 129.976 65.2663 128.155 65.5279 126.268C65.6457 125.471 65.707 124.668 65.7115 123.863C65.6819 122.509 65.4691 121.166 65.0786 119.87C64.6287 118.284 63.9118 116.786 62.9587 115.44C62.0886 114.216 61.0365 113.132 59.839 112.225C58.6485 111.305 57.3201 110.579 55.9029 110.074C54.6408 109.569 53.2943 109.31 51.9351 109.308H50.834L50.8783 109.289Z" fill="#0FADE8"/>
<path d="M63.0977 124.28C63.1954 121.445 62.2523 118.672 60.4462 116.484C58.6972 114.179 56.169 112.588 53.3334 112.01C52.3388 111.762 51.3138 111.658 50.2896 111.7C48.1662 111.851 46.1085 112.502 44.2842 113.599C42.5768 114.619 41.1519 116.051 40.1392 117.763C39.2738 119.128 38.7426 120.678 38.5889 122.287C38.5889 122.8 38.361 123.281 38.38 123.806C38.3799 126.309 39.0814 128.762 40.405 130.887C41.5348 132.659 43.1162 134.099 44.9866 135.057C46.0604 135.611 47.2032 136.02 48.3848 136.272C48.6355 136.319 48.8893 136.346 49.1442 136.355C49.4734 136.349 49.8017 136.392 50.1187 136.481C50.3208 136.556 50.5371 136.584 50.7515 136.563C52.5015 136.428 54.2199 136.023 55.8457 135.361C57.884 134.417 59.6321 132.944 60.9082 131.096C61.8385 129.732 62.494 128.199 62.8383 126.584C63.0324 125.824 63.1134 125.039 63.0787 124.255" fill="#036EC2"/>
</svg>
