<svg width="438" height="427" viewBox="0 0 438 427" fill="none" xmlns="http://www.w3.org/2000/svg">
<path d="M215.662 83.2642H178.045C175.997 83.2642 173.95 83.2642 172.195 83.2642C168.626 83.6152 167.807 84.5513 167.398 88.4709V89.4654C166.345 117.254 165.584 145.043 166.93 172.831C166.93 173.826 166.93 174.879 166.93 175.873C166.897 176.9 167.262 177.899 167.949 178.662C168.636 179.425 169.591 179.893 170.615 179.968C172.959 180.318 175.325 180.494 177.694 180.495H253.045C254.74 180.583 256.439 180.583 258.135 180.495C262.347 180.085 263.458 179.149 263.985 174.996C264.473 171.291 264.727 167.559 264.745 163.822C264.745 140.128 264.745 116.376 264.453 92.6246C264.453 90.6355 264.453 88.5879 264.043 86.7743C263.944 85.9261 263.538 85.1432 262.903 84.5725C262.268 84.0017 261.446 83.6821 260.592 83.6737C258.896 83.5862 257.198 83.5862 255.502 83.6737H215.779" fill="white"/>
<path d="M213.964 0.0148803H191.441C190.239 -0.0823767 189.048 0.299966 188.127 1.07823C187.206 1.8565 186.631 2.96757 186.526 4.16867C185.984 6.80835 185.671 9.48989 185.59 12.1835C185.59 23.8839 185.59 35.2334 185.59 46.7583C185.59 47.4604 185.59 48.1622 185.59 48.8058C186.175 56.2941 187.287 57.9908 194.658 58.1078C209.225 58.4003 223.909 58.1078 238.418 58.1078C241.811 58.1078 242.805 56.9962 243.098 54.0126C244.619 38.1412 244.736 22.1666 243.449 6.27467C243.098 2.004 241.928 0.424453 237.189 0.0734397C229.409 0.0734397 221.628 0.0734397 213.788 0.0734397L213.964 0.0148803Z" fill="white"/>
<path d="M214.842 205.417C207.354 205.417 199.924 205.417 192.494 205.417C188.341 205.417 187.287 206.645 186.644 210.799C186.41 212.131 186.293 213.482 186.293 214.835C186.293 228.057 186.293 241.278 186.293 254.441C186.372 256.414 186.647 258.373 187.112 260.292C187.231 260.966 187.561 261.585 188.056 262.058C188.55 262.532 189.183 262.835 189.862 262.924C192.177 263.389 194.523 263.682 196.882 263.802C209.46 263.802 221.979 263.802 234.557 263.802H236.546C242.104 263.334 242.865 262.632 243.508 257.308C244.804 243.815 245.136 230.247 244.503 216.707C244.396 214.747 244.181 212.794 243.859 210.857C243.099 206.235 242.631 205.592 238.009 205.475C230.17 205.475 222.389 205.475 214.608 205.475L214.842 205.417Z" fill="white"/>
<path d="M317.457 160.545C324.945 160.545 332.375 160.545 339.863 160.545C345.421 160.545 346.357 159.784 346.532 154.051C346.942 143.52 346.942 132.99 347 122.518C347 117.428 347 112.339 346.591 107.249C346.591 106.742 346.491 106.24 346.297 105.771C346.103 105.303 345.818 104.877 345.46 104.519C345.101 104.16 344.676 103.876 344.207 103.682C343.739 103.488 343.236 103.388 342.729 103.388C326.53 101.34 310.138 101.34 293.939 103.388C291.247 103.739 289.551 104.85 289.2 107.659C288.734 110.328 288.441 113.025 288.322 115.732C288.322 125.56 288.03 135.389 288.322 144.983C289.024 163.47 289.375 160.545 304.176 160.72H317.398L317.457 160.545Z" fill="white"/>
<path d="M140.895 131.294V107.893C140.977 107.303 140.937 106.702 140.779 106.128C140.621 105.553 140.347 105.017 139.975 104.552C139.603 104.086 139.14 103.702 138.614 103.421C138.088 103.141 137.511 102.97 136.917 102.92C134.283 102.317 131.601 101.945 128.902 101.809C117.728 101.809 106.554 101.809 95.3805 101.809C84.2066 101.809 84.3821 102.336 83.6801 112.515C82.7733 126.385 82.7733 140.299 83.6801 154.169C84.0896 159.668 84.9673 160.721 90.5835 160.779C105.151 160.779 119.834 160.779 134.343 160.779C139.433 160.779 140.193 159.726 140.544 154.929C140.544 147.148 140.544 139.309 140.544 131.528" fill="white"/>
<path d="M167.515 58.3418C167.202 57.4852 166.769 56.6775 166.228 55.9432C159.091 48.7669 151.934 41.6102 144.758 34.4729C144.489 34.1427 144.15 33.8766 143.765 33.6938C143.381 33.511 142.96 33.416 142.535 33.416C142.109 33.416 141.688 33.511 141.304 33.6938C140.919 33.8766 140.58 34.1427 140.312 34.4729C133.174 41.6102 125.978 48.806 118.9 56.0017C118.279 56.5819 117.903 57.3773 117.848 58.2254C117.794 59.0735 118.065 59.9102 118.607 60.5649C118.95 61.14 119.363 61.6707 119.836 62.1446C126.213 68.6383 132.589 75.1905 139.025 81.6258C139.342 82.0248 139.737 82.3558 140.185 82.5991C140.633 82.8425 141.126 82.9931 141.633 83.0423C142.141 83.0914 142.653 83.0381 143.14 82.8852C143.626 82.7322 144.077 82.4829 144.465 82.1523C152.919 75.9608 160.444 68.5931 166.813 60.2725C167.223 59.8045 167.223 59.0438 167.515 58.1663" fill="white"/>
<path d="M287.854 34.0044C286.742 34.7064 285.572 35.3501 284.519 36.1691C277.398 42.4706 270.64 49.17 264.277 56.2354C263.693 56.8632 263.369 57.6887 263.369 58.5461C263.369 59.4035 263.693 60.2293 264.277 60.8571C265.514 62.4712 266.863 63.996 268.314 65.4203C272.117 69.3399 275.919 73.2011 280.014 77.1207C289.024 85.7206 287.21 86.6566 297.565 77.1207C302.655 72.148 307.569 66.9412 312.542 61.8515C313.887 60.506 314.414 58.8094 313.01 57.4053C305.872 50.151 298.657 42.9554 291.364 35.8181C290.489 35.2006 289.521 34.7265 288.497 34.414" fill="white"/>
<path d="M167.573 204.54C167.375 203.839 167.079 203.17 166.696 202.551C159.95 194.488 152.532 187.012 144.523 180.203C144.215 179.904 143.846 179.675 143.441 179.532C143.036 179.389 142.605 179.335 142.177 179.374C141.749 179.413 141.335 179.544 140.963 179.757C140.59 179.971 140.268 180.263 140.019 180.612L119.075 201.439C118.681 201.768 118.365 202.18 118.148 202.645C117.931 203.11 117.818 203.617 117.818 204.13C117.818 204.643 117.931 205.15 118.148 205.615C118.365 206.08 118.681 206.492 119.075 206.821C126.017 213.841 132.998 220.803 140.019 227.706C140.329 228.118 140.732 228.453 141.194 228.683C141.655 228.913 142.165 229.032 142.681 229.032C143.197 229.032 143.706 228.913 144.167 228.683C144.629 228.453 145.032 228.118 145.342 227.706L166.286 206.88C166.848 206.086 167.301 205.22 167.632 204.306" fill="white"/>
<path d="M288.378 228.7C289.263 228.357 290.091 227.884 290.835 227.296C297.855 220.451 304.759 213.489 311.72 206.586C312.131 206.288 312.466 205.896 312.696 205.444C312.927 204.991 313.047 204.491 313.047 203.983C313.047 203.475 312.927 202.974 312.696 202.522C312.466 202.069 312.131 201.678 311.72 201.379L290.777 180.611C290.465 180.21 290.066 179.886 289.609 179.662C289.153 179.439 288.652 179.323 288.144 179.323C287.636 179.323 287.135 179.439 286.678 179.662C286.222 179.886 285.823 180.21 285.511 180.611L264.451 201.262C263.853 201.884 263.52 202.712 263.52 203.573C263.52 204.435 263.853 205.263 264.451 205.884C270.767 214.277 278.23 221.74 286.623 228.056C287.264 228.409 287.954 228.665 288.67 228.817" fill="white"/>
<g clip-path="url(#clip0_107_4314)">
<path d="M325.412 267.765C325.412 267.765 297.52 224.124 289.752 231.995C281.985 239.866 256.528 313.068 254.839 325.833C253.042 339.416 283.421 424.86 283.421 424.86L312.268 414.891C309.893 400.199 307.587 385.337 305.345 370.309C303.425 357.419 301.591 344.632 299.842 331.95L325.416 267.765H325.412Z" fill="#29ABE2"/>
<path d="M256.673 422.031L280.001 415.809C280.454 415.682 280.922 415.612 281.393 415.609L312.268 414.894L311.999 421.414C311.901 424.107 309.731 426.291 307.128 426.332L257.182 426.924C254.291 426.908 253.833 422.73 256.673 422.031Z" fill="black"/>
<path d="M308.378 206.695C305.885 215.291 297.121 220 288.803 217.218L288.708 217.186L227.705 196.339L226.646 195.978C222.24 194.472 219.008 190.769 217.73 186.486L203.789 138.658L226.124 129.919L243.222 167.816L297.83 186.088C306.148 188.873 310.873 198.095 308.381 206.691L308.378 206.695Z" fill="#036EC2"/>
<path d="M226.121 129.92L203.786 138.658L201.297 130.119C199.453 123.792 202.856 117.225 208.893 115.446C214.39 113.829 220.178 116.738 222.566 122.042L226.121 129.92Z" fill="#2ED8A7"/>
<path d="M349.095 224.513C347.919 217.899 343.013 215.617 342.808 210.844C342.602 206.071 345.528 199.798 344.117 192.234C343.023 186.347 339.398 180.473 328.547 176.713C321.968 174.463 314.969 173.726 308.065 174.561L302.441 175.219C279.151 184.79 279.603 192.908 281.017 202.295C282.886 214.487 291.138 216.053 291.451 219.215C291.764 222.377 288.383 226.045 289.015 231.593L349.089 224.517L349.095 224.513Z" fill="#036EC2"/>
<path d="M289.019 231.593C290.325 241.173 302.792 252.415 316.278 250.735L328.3 249.589C343.102 247.715 350.231 233.394 349.095 224.513L289.019 231.593Z" fill="#29ABE2"/>
<path d="M289.126 232.255C288.765 232.299 288.436 232.049 288.386 231.688C287.646 227.112 288.724 224.542 289.512 222.665C290.034 221.428 290.407 220.532 290.182 219.462C289.828 217.788 288.626 216.569 287.108 215.031C284.407 212.297 280.71 208.553 280.02 199.659C279.982 199.305 280.239 198.988 280.593 198.953H280.609C280.972 198.937 281.279 199.219 281.301 199.58C281.95 207.964 285.302 211.357 287.994 214.082C289.607 215.715 291.001 217.126 291.438 219.203C291.751 220.696 291.261 221.867 290.691 223.222C289.926 225.042 288.974 227.311 289.651 231.495C289.711 231.824 289.512 232.147 289.189 232.239C289.167 232.245 289.145 232.248 289.123 232.255H289.126Z" fill="black"/>
<path d="M409.048 151.992L427.898 167.953L432.623 161.059C436.251 155.768 435.002 148.317 429.834 144.425C425.311 140.921 418.862 141.446 414.963 145.634L409.048 151.992Z" fill="#2ED8A7"/>
<path d="M308.764 192.579C308.394 201.596 315.127 209.379 323.806 209.961L323.904 209.967L387.665 213.844L388.772 213.911C393.342 214.155 397.71 211.999 400.294 208.22L427.901 167.95L409.051 151.989L381.927 181.135L325.143 177.308C316.468 176.723 309.134 183.559 308.767 192.576L308.764 192.579Z" fill="#036EC2"/>
<path d="M309.362 191.648C304.605 197.89 297.767 200.975 292.77 197.541C289.215 195.098 288.551 190.335 289.556 185.325C289.964 183.293 295.698 180.986 297.156 179.258C301.939 173.58 311.284 173.716 312.714 180.09C312.714 180.09 314.267 185.214 309.365 191.648H309.362Z" fill="white"/>
<path d="M298.662 195.586C295.057 196.314 293.187 195.599 291.976 192.965L278.082 162.101L293.858 153.657L310.409 182.663C308.875 189.478 302.261 194.861 298.665 195.589L298.662 195.586Z" fill="#2ED8A7"/>
<path d="M289.48 187.553L292.267 175.738L284.395 176.856C286.09 180.422 287.785 183.986 289.48 187.553Z" fill="black"/>
<path d="M434.445 309.147L413.441 296.905C413.024 296.671 412.641 296.383 412.297 296.051L389.262 274.276L393.595 269.639C395.344 267.759 398.289 267.655 400.167 269.408C400.205 269.443 400.24 269.478 400.278 269.513L437.184 305.156C439.287 307.254 436.976 310.682 434.452 309.15L434.445 309.147Z" fill="black"/>
<path d="M349.095 224.513C349.095 224.513 360.37 269.709 364.128 296.883L389.262 274.269L413.441 296.899C413.441 296.899 384.86 326.504 371.257 339.822C361.534 349.342 342.226 346.854 334.373 333.217C316.886 302.855 303.893 229.837 303.893 229.837L349.095 224.51V224.513Z" fill="#29ABE2"/>
<path d="M366.81 310.217C366.81 310.217 366.778 310.223 366.766 310.226C366.408 310.283 366.07 310.043 366.007 309.685L363.514 296.744C363.438 296.392 363.663 296.044 364.014 295.968H364.017C364.375 295.908 364.713 296.152 364.776 296.509L367.268 309.451C367.341 309.786 367.139 310.122 366.81 310.217Z" fill="black"/>
<path d="M316.835 286.192L316.816 286.198C316.462 286.271 316.114 286.043 316.038 285.688L308.77 254.435C308.678 254.086 308.887 253.732 309.235 253.64H309.245C309.599 253.564 309.947 253.792 310.023 254.146L317.291 285.4C317.376 285.742 317.177 286.093 316.838 286.192H316.835Z" fill="black"/>
<path d="M346.128 217.772L328.041 210.22L342.823 211.119C342.953 213.531 345.031 216.256 346.128 217.772Z" fill="black"/>
<path d="M279.666 176.818L291.068 177.957C296.973 178.552 302.242 174.245 302.837 168.336V168.313L304.554 151.068C305.497 141.605 298.596 133.17 289.142 132.227C279.685 131.284 271.257 138.19 270.314 147.65L268.736 163.455C268.091 170.159 272.974 176.128 279.666 176.818Z" fill="#2ED8A7"/>
<path d="M271.389 152.644C271.336 153.609 270.586 154.391 269.625 154.48L270.004 150.694C270.858 150.951 271.427 151.751 271.389 152.644Z" fill="black"/>
<path d="M271.437 159.471C272.259 159.236 273.113 159.122 273.967 159.138L276.345 159.214C277.759 159.281 279.132 159.727 280.311 160.512L284.638 163.389C286.033 164.31 287.912 163.927 288.835 162.528C288.939 162.373 289.028 162.205 289.098 162.034L293.519 152.134L297.669 152.327L296.729 172.498C296.571 175.859 293.801 178.473 290.518 178.321L280.473 177.849C273.543 177.527 268.227 171.406 268.695 164.237L268.796 162.784C268.916 161.243 269.96 159.933 271.434 159.471H271.437Z" fill="black"/>
<path d="M271.975 161.553C271.975 161.553 274.375 167.275 276.915 162.167L271.975 161.553Z" fill="white"/>
<path d="M282.528 153.841C282.579 152.765 281.75 151.853 280.676 151.803C279.603 151.752 278.693 152.583 278.642 153.659C278.592 154.735 279.421 155.647 280.494 155.697C281.567 155.748 282.478 154.917 282.528 153.841Z" fill="black"/>
<path d="M274.846 152.704L272.136 155.369C271.611 155.891 271.604 156.743 272.126 157.268C272.132 157.274 272.139 157.281 272.145 157.287L273.638 158.401" fill="#2ED8A7"/>
<path d="M273.61 158.974C273.502 158.967 273.398 158.926 273.312 158.86L271.753 157.711C271.377 157.353 271.168 156.856 271.181 156.337C271.181 155.828 271.386 155.34 271.747 154.983L274.457 152.318C274.672 152.106 275.017 152.106 275.229 152.318C275.441 152.533 275.441 152.878 275.229 153.09L272.519 155.755C272.376 155.907 272.294 156.106 272.291 156.315C272.291 156.518 272.364 156.714 272.5 156.863L273.961 157.942C274.198 158.1 274.264 158.42 274.106 158.657C274.09 158.679 274.075 158.701 274.059 158.72C273.97 158.882 273.796 158.98 273.61 158.97V158.974Z" fill="black"/>
<path d="M271.247 139.886C278.43 144.361 288.193 144.649 293.424 142.674L293.551 152.169L297.52 155.651L303.418 162.455L304.494 150.258C305.329 140.832 298.374 132.515 288.955 131.679C288.781 131.664 288.607 131.651 288.433 131.641L274.093 130.834C273.312 130.787 272.531 130.936 271.823 131.265C269.359 132.401 268.28 135.319 269.416 137.785C269.811 138.649 270.45 139.377 271.253 139.883L271.247 139.886Z" fill="black"/>
<path d="M300.967 157.325L297.482 157.163L297.792 150.548C297.858 149.013 299.158 147.823 300.692 147.893H300.705L301.407 147.925C302.941 147.994 304.127 149.292 304.06 150.827V150.84L303.88 154.666C303.814 156.201 302.517 157.391 300.983 157.325H300.967Z" fill="#2ED8A7"/>
<path d="M130.353 269.44C130.321 269.196 138.975 329.235 139.436 336.961C139.927 345.126 111.952 416.094 111.952 416.094L138.662 425.063C138.662 425.063 181.318 356.738 182.763 343.43C184.123 330.925 175.217 245.105 169.789 235.565C164.362 226.026 130.353 269.44 130.353 269.44Z" fill="#036EC2"/>
<path d="M12.4073 294.582L54.9716 270.99C57.1665 269.797 59.9118 270.614 61.1042 272.81C61.1263 272.848 61.1453 272.889 61.1643 272.927L64.1341 278.482L37.6745 292.762C37.2792 292.984 36.8522 293.151 36.4126 293.259L14.0329 299.098C11.3288 299.858 9.96247 295.993 12.4041 294.585L12.4073 294.582Z" fill="black"/>
<path d="M163.135 426.731L114.22 427C114.093 427 113.967 426.994 113.84 426.984C110.737 426.74 108.875 423.386 110.083 420.518L111.949 416.09L143.839 416.606C152.233 419.214 158.653 421.303 161.863 422.395C162.793 422.711 165.007 423.487 165.143 424.778C165.181 425.332 164.966 425.873 164.558 426.253C164.166 426.595 163.653 426.769 163.135 426.731Z" fill="black"/>
<path d="M154.08 259.296C154.08 259.296 124.992 325.143 101.73 349.035C91.28 359.767 72.7241 356.862 65.8547 345.234C56.2431 328.966 36.4126 293.256 36.4126 293.256L64.1341 278.479L82.3547 306.653C92.0928 282.033 112.765 242.56 112.765 242.56L154.08 259.296Z" fill="#036EC2"/>
<path d="M133.465 173.301L123.901 178.758C118.942 181.571 112.784 179.625 110.121 174.482L102.325 159.35C98.0708 151.055 101.003 140.664 108.897 136.154C116.816 131.698 126.735 134.768 130.989 143.063L138.143 156.897C141.138 162.781 139.079 170.168 133.465 173.301Z" fill="#0FADE8"/>
<path d="M161.667 215.057C160.892 220.19 161.569 222.789 162.907 224.476L162.578 224.745L141.53 216.535C133.835 213.525 129.771 204.612 132.459 196.428C134.306 190.801 138.867 186.958 144.079 185.949C156.034 186.287 163.622 202.118 161.667 215.06V215.057Z" fill="#94D5F1"/>
<path d="M217.313 138.449C210.507 135.442 202.954 132.917 194.838 131.701L180.593 165.667L131.656 190.335L131.564 190.382C123.936 194.291 120.65 203.821 124.227 211.67C127.804 219.519 136.884 222.712 144.513 218.804L198.355 191.218L199.418 190.674C202.815 188.889 205.291 185.736 206.218 182.008L217.31 138.452L217.313 138.449Z" fill="#2ED8A7"/>
<path d="M217.18 138.965L219.542 129.689C220.934 124.248 218.372 118.507 213.296 116.304C207.688 113.87 201.135 116.677 198.662 122.574L194.835 131.701L217.18 138.965Z" fill="#0FADE8"/>
<path d="M217.18 138.965L194.835 131.701L191.302 140.123L214.919 147.846L217.18 138.962V138.965Z" fill="#94D5F1"/>
<path d="M163.457 225.086C163.261 224.893 163.078 224.69 162.91 224.475C161.572 222.791 160.895 220.19 161.67 215.056C163.622 202.115 157.277 187.86 144.082 185.945C130.884 184.03 129.553 187.854 125.096 188.708C110.975 191.376 101.433 210.341 108.805 223.038C112.082 228.678 114.052 228.59 115.149 232.983C115.592 234.755 113.366 236.141 112.768 242.563L143.231 244.323L169.789 235.568C167.73 230.213 165.858 227.453 163.457 225.089V225.086Z" fill="#2ED8A7"/>
<path d="M135.733 206.901C133.554 198.406 125.214 193.374 117.104 195.656L62.9801 210.901L22.1775 203.27L16.0322 226.89L60.0324 242.209C62.1515 242.952 64.4476 243.032 66.611 242.43L67.5756 242.164L124.9 226.438L124.995 226.412C133.101 224.131 137.909 215.392 135.73 206.897L135.733 206.901Z" fill="#2ED8A7"/>
<path d="M134.822 194.68L118.825 194.646L106.632 167.617L121.839 158.948L138.235 187.015C139.62 189.404 138.908 192.462 136.612 193.997C136.078 194.358 135.464 194.592 134.825 194.68H134.822Z" fill="#0FADE8"/>
<path d="M112.768 242.56C111.538 253.156 119.236 271.374 141.04 270.956C156.101 270.668 173.879 260.363 169.789 235.565L112.768 242.56Z" fill="#036EC2"/>
<path d="M131.963 176.286C130.565 181.131 116.269 185.16 114.188 184.018C112.891 185.834 113.458 187.157 115.444 188.085L118.825 194.649C131.631 199.722 142.523 194.848 138.643 187.645C136.916 184.439 134.673 180.964 133.892 179.451C133.892 179.451 134.512 175.444 131.966 176.289L131.963 176.286Z" fill="#2ED8A7"/>
<path d="M131.033 174.691L124.79 178.258L129.246 179.454C131.542 177.739 132.114 179.223 132.554 180.344L134.724 180.926C134.724 180.926 133.99 179.622 133.889 179.448C134.161 178.141 134.072 175.587 131.963 176.286L131.033 174.691Z" fill="white"/>
<path d="M127.136 184.683C126.811 184.676 126.542 184.423 126.52 184.097C126.478 183.746 126.725 183.429 127.076 183.382C127.595 183.325 130.03 181.942 130.381 181.429C130.565 181.151 130.941 181.075 131.219 181.258C131.229 181.265 131.238 181.271 131.248 181.28C131.529 181.499 131.593 181.894 131.39 182.189C130.815 183.031 128.079 184.585 127.203 184.68C127.181 184.68 127.162 184.683 127.14 184.683H127.136Z" fill="black"/>
<path d="M16.0289 226.906V226.89L15.6494 226.757L16.0289 226.906Z" fill="#2ED8A7"/>
<path d="M12.9894 201.548C7.66653 200.548 2.312 203.764 0.556669 209.296C0.139186 210.625 -0.0474164 212.018 0.00951316 213.411C0.18979 218.085 3.07106 222.377 7.559 223.94L15.6493 226.757L16.032 226.89L22.1772 203.267L12.9894 201.548Z" fill="#0FADE8"/>
<path d="M22.1775 203.267L16.0322 226.89L24.4704 229.827L30.9414 204.907L22.1775 203.267Z" fill="#94D5F1"/>
<path d="M77.1077 318.588C77.0129 318.588 76.9211 318.566 76.8389 318.525C76.5258 318.36 76.3993 317.977 76.5479 317.654L81.8392 306.121C81.9721 305.811 82.3295 305.669 82.6394 305.802C82.6489 305.805 82.6584 305.811 82.6679 305.814C82.981 305.979 83.1106 306.362 82.9588 306.685L77.6676 318.218C77.5695 318.439 77.3513 318.585 77.1077 318.585V318.588Z" fill="black"/>
<path d="M161.351 220.07C161.003 220.07 160.725 219.788 160.725 219.44C160.725 219.402 160.728 219.364 160.734 219.326C160.75 219.221 160.772 219.063 160.807 218.861C162.455 208.524 161.12 200.295 156.945 195.063C156.727 194.785 156.758 194.383 157.024 194.146C157.274 193.924 157.654 193.949 157.875 194.196C157.884 194.206 157.891 194.215 157.9 194.225C162.315 199.757 163.745 208.35 162.034 219.073C162.002 219.263 161.98 219.411 161.968 219.509C161.93 219.823 161.67 220.063 161.354 220.07H161.351Z" fill="black"/>
<path d="M134.214 299.842C134.113 299.842 134.012 299.816 133.923 299.766C133.617 299.589 133.503 299.199 133.664 298.886L147.612 271.373C147.757 271.069 148.121 270.943 148.425 271.088C148.434 271.091 148.444 271.098 148.453 271.104C148.76 271.281 148.874 271.671 148.709 271.984L134.761 299.497C134.657 299.706 134.445 299.842 134.211 299.842H134.214Z" fill="black"/>
<path d="M114.064 230.865C113.777 230.859 113.53 230.66 113.463 230.378C113.372 230.036 113.568 229.685 113.906 229.584L120.867 227.675C121.2 227.59 121.535 227.789 121.623 228.121C121.623 228.128 121.626 228.134 121.626 228.14C121.718 228.482 121.522 228.833 121.184 228.935L114.223 230.843C114.172 230.859 114.118 230.865 114.064 230.865Z" fill="black"/>
<path d="M129.456 139.331C134.852 135.182 135.861 127.435 131.709 122.028C127.557 116.621 119.817 115.602 114.42 119.751C109.024 123.901 108.016 131.648 112.168 137.054C116.319 142.461 124.06 143.481 129.456 139.331Z" fill="black"/>
<path d="M113.897 146.219C118.092 142.993 118.877 136.971 115.65 132.768C112.423 128.566 106.406 127.774 102.21 131.001C98.0152 134.227 97.2303 140.248 100.457 144.451C103.684 148.653 109.701 149.445 113.897 146.219Z" fill="black"/>
<path d="M108.523 156.378C112.242 153.518 112.939 148.181 110.079 144.457C107.219 140.733 101.886 140.032 98.1671 142.891C94.4483 145.751 93.7519 151.088 96.6117 154.813C99.4716 158.537 104.805 159.238 108.523 156.378Z" fill="black"/>
<path d="M106.92 145.029L101.18 156.992L109.311 173.558C109.767 170.143 110.222 166.728 110.677 163.313L117.281 159.752L111.244 146.833L106.92 145.032V145.029Z" fill="black"/>
<path d="M109.694 162.405L108.056 159.344L108.04 159.316C107.347 158.028 107.831 156.42 109.118 155.727L109.147 155.711C110.434 155.018 112.041 155.502 112.733 156.79L114.372 159.851L114.387 159.879C115.074 161.18 114.577 162.794 113.274 163.481C111.987 164.161 110.393 163.68 109.694 162.405Z" fill="#0FADE8"/>
<path d="M132.016 148.643C132.424 149.574 133.452 150.068 134.433 149.802L132.665 146.209C131.915 146.776 131.65 147.779 132.016 148.643Z" fill="black"/>
<path d="M134.724 157.353C134.724 157.353 134.468 163.882 130.078 159.784L134.724 157.353Z" fill="white"/>
<path d="M124.172 154.717C125.212 154.271 125.694 153.064 125.247 152.022C124.8 150.979 123.595 150.495 122.555 150.942C121.514 151.388 121.033 152.595 121.48 153.637C121.926 154.68 123.132 155.164 124.172 154.717Z" fill="black"/>
<path d="M132.159 155.413C132.263 155.366 132.348 155.29 132.409 155.192L133.522 153.483C133.762 152.992 133.784 152.422 133.582 151.916C133.395 151.416 133.013 151.008 132.522 150.792L128.866 149.166C128.575 149.036 128.237 149.166 128.104 149.454C127.974 149.745 128.104 150.083 128.392 150.216L132.048 151.843C132.244 151.941 132.399 152.109 132.478 152.312C132.554 152.511 132.554 152.732 132.475 152.929L131.431 154.53C131.254 154.774 131.308 155.113 131.551 155.29C131.574 155.306 131.596 155.321 131.621 155.334C131.77 155.461 131.975 155.492 132.156 155.413H132.159Z" fill="black"/>
<path d="M219.543 129.692L213.739 172.802C212.815 169.659 211.892 166.516 210.968 163.376C213.827 152.15 216.687 140.921 219.543 129.695V129.692Z" fill="black"/>
</g>
<defs>
<clipPath id="clip0_107_4314">
<rect width="438" height="312" fill="white" transform="translate(0 115)"/>
</clipPath>
</defs>
</svg>
