<svg width="310" height="625" viewBox="0 0 310 625" fill="none" xmlns="http://www.w3.org/2000/svg">
<path d="M250.429 76.8832C229.964 74.436 215.151 56.2275 216.996 35.7739L246.228 12.1826L279.661 53.292L250.429 76.8832Z" fill="#036EC2"/>
<path d="M227.288 0.479492L241.313 50.1991L287.225 74.1777L273.199 24.4581L227.288 0.479492Z" fill="#2ED8A7"/>
<path d="M300.057 103.352C299.742 103.352 299.466 103.122 299.41 102.802C299.382 102.634 296.598 85.9579 285.835 73.542C285.598 73.2726 285.627 72.8572 285.902 72.6214C286.178 72.3857 286.588 72.4138 286.824 72.6888C297.836 85.3909 300.67 102.421 300.698 102.595C300.754 102.948 300.512 103.285 300.158 103.341C300.124 103.347 300.091 103.347 300.051 103.347L300.057 103.352Z" fill="#036EC2"/>
<path d="M309.449 109.735C311.383 116.684 306.271 124.16 306.271 124.16C306.271 124.16 298.027 120.371 296.093 113.428C294.158 106.479 299.27 99.0029 299.27 99.0029C299.27 99.0029 307.514 102.792 309.449 109.735Z" fill="#036EC2"/>
<path d="M300.591 102.555L299.759 102.785C298.814 103.043 297.83 102.487 297.566 101.55L296.469 97.6097C296.205 96.6723 296.767 95.6844 297.706 95.4262L298.539 95.1961C299.483 94.9379 300.468 95.4936 300.732 96.4309L301.829 100.371C302.087 101.309 301.53 102.291 300.591 102.555Z" fill="#036EC2"/>
<path d="M186.777 497.865L245.538 512.163C258.183 432.713 246.051 350.753 237.249 328.222L177.045 368.679L187.019 496.786L186.777 497.865Z" fill="#2ED8A7"/>
<path d="M110.293 622.703L85.4093 554.901C84.1133 551.351 85.8995 547.42 89.4383 546.033L98.0035 542.691L113.257 585.71L117.117 621.113C117.568 625.219 111.725 626.578 110.299 622.697L110.293 622.703Z" fill="black"/>
<path d="M202.769 473.474L201.411 475.074L98.0596 542.674L113.623 586.097C113.623 586.097 130.776 578.313 132.957 577.51C137.358 575.938 141.663 574.219 145.963 572.501C154.567 569.064 163.065 565.391 171.5 561.6C175.693 559.646 179.891 557.781 184.078 555.743L190.338 552.755L196.542 549.649C204.781 545.566 221.173 536.233 229.338 531.863C230.763 531.111 242.264 526.669 245.29 513.162C246.953 505.738 242.591 500.082 236.545 496.044L202.769 473.474Z" fill="#2ED8A7"/>
<path d="M223.923 404.498L232.747 422.621C227.242 455.862 219.99 491.557 206.674 522.036C199.698 538.002 176.538 542.686 162.017 532.936C154.567 528.443 146.881 522.575 139.071 516.004L175.259 492.563L223.923 404.498Z" fill="black"/>
<path d="M30.361 453.526L81.6563 402.42C84.3441 399.753 88.6887 399.691 91.4499 402.286L98.1217 408.575L65.3486 440.525L34.6943 458.99C31.1386 461.13 27.4252 456.446 30.361 453.52V453.526Z" fill="black"/>
<path d="M207.265 474.194L205.203 473.638L98.2285 408.554L64.644 440.745C64.644 440.745 74.2686 447.989 75.8689 449.663C77.5369 451.348 79.2105 452.982 80.8897 454.616C84.2312 457.935 87.6742 461.103 91.1116 464.27C97.9862 470.605 105.036 476.738 112.164 482.775C115.77 485.746 119.303 488.756 122.989 491.682L128.443 496.085L133.983 500.392C147.568 515.415 153.034 516.583 160.591 522.126C161.904 523.098 167.516 525.344 169.111 525.906C169.111 525.906 193.629 536.846 199.861 509.176L207.277 474.194H207.265Z" fill="#2ED8A7"/>
<path d="M140.311 498.842L177.868 518.52C188.411 527.433 195.161 523.17 202.47 508.406C236.325 437.279 245.617 356.846 237.773 330.047L164.665 359.273C159.284 419.195 154.573 482.718 140.829 497.769L140.316 498.836L140.311 498.842Z" fill="#2ED8A7"/>
<path d="M177.643 528.921C173.743 528.921 169.782 527.966 166.091 525.967C153.35 519.054 139.86 508.417 124.865 493.445C124.572 493.153 124.572 492.675 124.865 492.383C125.164 492.091 125.637 492.091 125.936 492.383C140.829 507.254 154.201 517.807 166.818 524.647C177.541 530.465 190.75 526.838 196.88 516.386C217.6 481.101 233.215 429.052 238.652 377.148C238.698 376.738 239.053 376.429 239.481 376.48C239.898 376.525 240.196 376.89 240.157 377.306C234.697 429.411 219.009 481.685 198.188 517.144C193.747 524.703 185.841 528.921 177.643 528.921Z" fill="black"/>
<path d="M155.508 456.441H155.486C155.069 456.43 154.742 456.087 154.748 455.672L155.074 443.299C155.086 442.884 155.469 442.564 155.852 442.569C156.269 442.581 156.596 442.923 156.59 443.339L156.263 455.711C156.252 456.121 155.914 456.441 155.508 456.441Z" fill="black"/>
<path d="M203.851 124.192L211.12 109.461C215.222 101.138 225.343 97.7011 233.716 101.778C241.217 105.429 244.908 113.982 242.394 121.895L236.675 139.973L203.851 124.197V124.192Z" fill="#94D5F1"/>
<path d="M236.703 140.018C224.847 185.867 215.526 234.046 208.798 284.607C207.581 297.395 196.159 306.785 183.283 305.578C170.407 304.37 160.957 293.02 162.174 280.233C162.174 280.193 162.18 280.154 162.186 280.109C166.553 229.509 181.3 177.437 203.828 124.265L236.703 140.018Z" fill="#036EC2"/>
<path d="M211.644 265.643H186.709L207.869 292.661L211.644 265.643Z" fill="black"/>
<path d="M258.961 508.394C265.983 477.815 275.787 334.259 203.474 264.828C186.946 246.418 173.366 251.018 159.425 262.649C148.707 271.629 147.552 271.78 143.033 275.577C128.737 287.522 131.104 310.25 146.758 320.443C149.434 322.145 151.812 324.268 153.801 326.727C157.177 330.861 152.838 426.569 149.44 439.71C149.44 439.71 228.572 505.367 258.961 508.4V508.394Z" fill="#036EC2"/>
<path d="M169.871 239.342L159.559 252.006C154.206 258.554 144.525 259.554 137.932 254.241L118.751 238.752C108.202 230.25 106.579 214.867 115.133 204.382C123.693 193.903 139.178 192.297 149.737 200.788L167.33 214.991C174.802 220.989 175.963 231.867 169.922 239.291C169.905 239.308 169.894 239.325 169.877 239.342H169.871Z" fill="#94D5F1"/>
<path d="M167.319 272.898C167.319 272.898 195.466 289.628 201.844 296.766C201.844 296.766 197.86 273.218 180.11 258.1C162.36 242.981 167.319 272.898 167.319 272.898Z" fill="white"/>
<path d="M201.839 296.76C201.839 296.76 200.166 286.892 194.176 275.835L185.605 273.043C185.503 273.01 185.402 272.998 185.3 272.987C185.317 272.92 185.334 272.852 185.34 272.779L185.593 270.14C185.684 269.18 184.979 268.326 184.01 268.236L181.356 267.983C180.392 267.893 179.53 268.595 179.44 269.556L179.186 272.195C179.096 273.156 179.801 274.009 180.77 274.099L183.424 274.352C183.497 274.358 183.565 274.352 183.632 274.352C183.627 274.453 183.616 274.554 183.632 274.661L184.81 283.877C191.865 288.527 198.999 293.592 201.833 296.765L201.839 296.76Z" fill="black"/>
<path d="M154.308 207.253C155.288 207.775 156.489 207.674 157.368 206.989L153.136 203.541C152.46 204.889 152.978 206.529 154.308 207.253Z" fill="black"/>
<path d="M176.899 270.107L155.379 276.375L129.385 237.737L150.46 222.287L180.545 258.628C183.069 261.734 182.579 266.283 179.446 268.793C178.691 269.394 177.823 269.843 176.893 270.113L176.899 270.107Z" fill="#94D5F1"/>
<path d="M158.061 215.234C158.117 215.155 158.145 215.059 158.145 214.964L158.517 212.268C158.517 211.527 158.213 210.814 157.672 210.308C157.142 209.792 156.432 209.505 155.694 209.511L150.268 209.578C149.811 209.578 149.445 209.949 149.445 210.404C149.445 210.859 149.817 211.224 150.273 211.224L155.705 211.151C156.291 211.139 156.776 211.594 156.804 212.173L156.46 214.7C156.381 215.138 156.675 215.554 157.114 215.632C157.131 215.632 157.142 215.632 157.159 215.638C157.514 215.722 157.892 215.559 158.072 215.239L158.061 215.234Z" fill="black"/>
<path d="M163.763 222.428C164.371 221.147 164.456 219.676 164.005 218.334C163.853 217.907 163.374 217.677 162.946 217.834C162.518 217.991 162.287 218.457 162.439 218.89C162.749 219.811 162.687 220.816 162.264 221.692C161.712 222.596 160.619 223.214 158.934 223.517C158.477 223.585 158.162 224.011 158.229 224.466C158.303 224.921 158.725 225.236 159.187 225.163C161.396 224.826 162.901 223.922 163.712 222.529L163.763 222.433V222.428Z" fill="black"/>
<path d="M167.229 242.6L160.675 250.647L173.957 250.715L167.229 242.6Z" fill="black"/>
<path d="M145.647 219.985C147.191 219.985 148.442 218.74 148.442 217.205C148.442 215.669 147.191 214.425 145.647 214.425C144.103 214.425 142.852 215.669 142.852 217.205C142.852 218.74 144.103 219.985 145.647 219.985Z" fill="black"/>
<path d="M130.652 207.921C140.782 207.921 148.994 199.764 148.994 189.703C148.994 179.641 140.782 171.484 130.652 171.484C120.522 171.484 112.31 179.641 112.31 189.703C112.31 199.764 120.522 207.921 130.652 207.921Z" fill="black"/>
<path d="M117.365 224.528C125.241 224.528 131.627 218.187 131.627 210.365C131.627 202.542 125.241 196.201 117.365 196.201C109.488 196.201 103.103 202.542 103.103 210.365C103.103 218.187 109.488 224.528 117.365 224.528Z" fill="black"/>
<path d="M117.719 240.618C124.7 240.618 130.359 234.999 130.359 228.066C130.359 221.134 124.7 215.515 117.719 215.515C110.739 215.515 105.08 221.134 105.08 228.066C105.08 234.999 110.739 240.618 117.719 240.618Z" fill="black"/>
<path d="M126.719 219.49L142.801 233.205L136.028 242.016L145.247 261.279L119.292 239.292L119.765 219.698L126.725 219.49H126.719Z" fill="black"/>
<path d="M139.685 240.623C141.009 238.904 140.677 236.45 138.952 235.136L138.919 235.108L134.828 231.991C133.098 230.677 130.63 231.003 129.305 232.721L129.277 232.76C127.953 234.473 128.28 236.933 130.01 238.247C130.021 238.259 130.038 238.27 130.049 238.275L134.14 241.392C135.887 242.701 138.372 242.353 139.691 240.623H139.685Z" fill="#94D5F1"/>
<path d="M38.819 188.765L23.7004 182.155C15.1634 178.42 5.1951 182.262 1.43657 190.736C-1.93315 198.329 0.794178 207.23 7.84918 211.673L23.9483 221.838L38.819 188.765Z" fill="#94D5F1"/>
<path d="M23.9595 221.894C62.7676 249.368 101.147 280.25 139.093 314.615C148.318 323.617 163.144 323.488 172.21 314.323C181.271 305.157 181.142 290.432 171.917 281.43C171.889 281.402 171.861 281.374 171.827 281.346C135.667 245.442 90.61 215.06 38.8865 188.811L23.9595 221.894Z" fill="#036EC2"/>
<path d="M163.082 272.927C163.082 272.927 186.625 335.023 184.258 370.062L209.723 375.599C209.723 375.599 187.38 293.813 167.314 272.894L163.082 272.927Z" fill="#2ED8A7"/>
<path d="M175.107 252.058C175.107 252.058 213.07 249.059 272.728 286.961L270.671 312.773C270.671 312.773 191.838 264.189 180.111 258.101L175.107 252.058Z" fill="#2ED8A7"/>
<path d="M235.08 471.901C235.08 471.901 235.034 471.901 235.012 471.901C234.651 471.867 234.386 471.547 234.42 471.188C238.838 426.63 224.801 350.73 224.66 349.972C224.593 349.618 224.83 349.275 225.185 349.214C225.54 349.146 225.883 349.382 225.951 349.736C226.092 350.5 240.162 426.58 235.728 471.317C235.694 471.654 235.406 471.907 235.074 471.907L235.08 471.901Z" fill="black"/>
</svg>
