<svg width="96" height="96" viewBox="0 0 96 96" fill="none" xmlns="http://www.w3.org/2000/svg">
<g clip-path="url(#clip0_107_428)">
<path d="M29.3866 95.4973C13.1556 95.4973 0 82.226 0 65.8544V38.5821C0.00106656 38.2697 0.0627246 37.9606 0.181464 37.6724C0.300203 37.3841 0.473696 37.1225 0.69203 36.9024C0.910364 36.6822 1.16926 36.5079 1.45395 36.3894C1.73864 36.2708 2.04355 36.2104 2.35125 36.2114H56.4246C56.7323 36.2104 57.0372 36.2708 57.3219 36.3894C57.6066 36.5079 57.8655 36.6822 58.0839 36.9024C58.3022 37.1225 58.4757 37.3841 58.5944 37.6724C58.7132 37.9606 58.7748 38.2697 58.7759 38.5821V65.8544C58.7759 82.226 45.6176 95.4973 29.3866 95.4973Z" fill="#29ABE2"/>
<path d="M29.3891 64.183C33.6413 64.183 37.0883 60.7055 37.0883 56.4157C37.0883 52.126 33.6413 48.6484 29.3891 48.6484C25.137 48.6484 21.6899 52.126 21.6899 56.4157C21.6899 60.7055 25.137 64.183 29.3891 64.183Z" fill="black"/>
<path d="M29.3866 76.4439C28.3176 76.4396 27.2931 76.0082 26.5349 75.243C25.7767 74.4779 25.3456 73.4404 25.335 72.3551V61.9308C25.3393 60.8427 25.768 59.8006 26.5274 59.0327C27.2868 58.2649 28.3149 57.8337 29.3866 57.8337V57.8337C30.457 57.833 31.4841 58.2623 32.2438 59.0279C33.0034 59.7934 33.4338 60.8331 33.441 61.9198V72.3441C33.4331 73.4318 33.0029 74.4725 32.2438 75.2401C31.4847 76.0077 30.458 76.4403 29.3866 76.4439V76.4439Z" fill="black"/>
<path d="M54.4665 28.2073V25.7953C54.4665 16.6403 61.8484 9.19519 70.9225 9.19519C79.9967 9.19519 87.3813 16.6293 87.3813 25.7953V28.2073H95.9999V25.7953C95.9999 11.8467 84.7507 0.5 70.9225 0.5C57.0943 0.5 45.8452 11.8522 45.8452 25.7953V28.2073H54.4665Z" fill="#2ED8A7"/>
<path d="M54.4665 28.166H45.8452V36.2114H54.4665V28.166Z" fill="black"/>
<path d="M95.9999 36.2114L91.6906 32.1887L95.9999 28.166H87.3813V36.2114H95.9999Z" fill="black"/>
</g>
<defs>
<clipPath id="clip0_107_428">
<rect width="96" height="95" fill="white" transform="translate(0 0.5)"/>
</clipPath>
</defs>
</svg>
