<svg width="72" height="72" viewBox="0 0 72 72" fill="none" xmlns="http://www.w3.org/2000/svg">
<circle cx="36" cy="36" r="36" fill="white"/>
<path d="M31.3819 50C31.1086 50 30.8626 49.9043 30.6439 49.713C30.4526 49.5217 30.3569 49.2757 30.3569 48.975V28.598L24.4529 33.149C24.2069 33.3403 23.9472 33.4087 23.6739 33.354C23.4279 33.2993 23.2092 33.149 23.0179 32.903L20.9679 30.238C20.8039 29.992 20.7356 29.7323 20.7629 29.459C20.8176 29.1857 20.9679 28.967 21.2139 28.803L30.5619 21.587C30.7259 21.4777 30.8762 21.4093 31.0129 21.382C31.1769 21.3273 31.3546 21.3 31.5459 21.3H35.8919C36.1652 21.3 36.3976 21.3957 36.5889 21.587C36.7802 21.7783 36.8759 22.0243 36.8759 22.325V48.975C36.8759 49.2757 36.7802 49.5217 36.5889 49.713C36.3976 49.9043 36.1652 50 35.8919 50H31.3819ZM43.006 50C42.7054 50 42.4594 49.9043 42.268 49.713C42.0767 49.5217 41.981 49.2757 41.981 48.975V44.383C41.981 44.0823 42.0767 43.8363 42.268 43.645C42.4594 43.4537 42.7054 43.358 43.006 43.358H47.598C47.8987 43.358 48.1447 43.4537 48.336 43.645C48.5274 43.8363 48.623 44.0823 48.623 44.383V48.975C48.623 49.2757 48.5274 49.5217 48.336 49.713C48.1447 49.9043 47.8987 50 47.598 50H43.006Z" fill="black"/>
</svg>
