<svg width="421" height="380" viewBox="0 0 421 380" fill="none" xmlns="http://www.w3.org/2000/svg">
<g clip-path="url(#clip0_316_535)">
<path d="M21.1864 179.595C8.86263 167.632 2.09884 151.399 0.902895 130.895C0.300965 120.643 0 113.464 0 109.365C0 104.923 0.293045 95.8698 0.902895 82.1948C1.80579 61.349 8.2607 44.7733 20.2835 32.4676C32.2983 20.1528 48.9781 14 70.315 14C91.6518 14 108.324 20.1528 120.346 32.4585C132.361 44.7642 138.975 61.349 140.178 82.1858C140.78 95.8608 141.081 104.923 141.081 109.356C141.081 113.455 140.78 120.634 140.178 130.886C138.975 151.39 132.14 167.632 119.673 179.586C107.199 191.559 90.7489 197.531 70.315 197.531C49.881 197.531 33.5022 191.559 21.1864 179.586V179.595ZM27.269 372.622C25.3127 370.748 24.3386 368.262 24.3386 365.19C24.3386 363.136 24.9405 361.262 26.1444 359.55L248.811 26.3057C251.211 22.8915 253.468 20.4141 255.575 18.8736C257.674 17.3332 260.683 16.5674 264.588 16.5674H298.391C301.393 16.5674 303.872 17.5133 305.828 19.3871C307.776 21.2699 308.759 23.7473 308.759 26.8192C308.759 28.8731 308.149 30.7559 306.953 32.4585L84.2861 365.703C81.8783 369.127 79.6211 371.595 77.5223 373.135C75.4155 374.676 72.4059 375.442 68.5092 375.442H34.706C31.6964 375.442 29.2174 374.505 27.269 372.622ZM84.9672 144.994C88.1194 140.381 89.846 134.661 90.147 127.823C90.7489 117.571 91.0499 110.392 91.0499 106.293C91.0499 101.852 90.7489 94.8428 90.147 85.2758C89.846 78.0959 88.1194 72.2043 84.9672 67.5919C81.815 62.9796 76.9283 60.6734 70.315 60.6734C58.2922 60.6734 51.6789 68.8802 50.4829 85.2848C50.182 90.0773 50.0315 97.077 50.0315 106.302C50.0315 115.527 50.182 122.706 50.4829 127.832C51.0849 135.012 52.9619 140.823 56.1142 145.264C59.2664 149.714 64.0026 151.93 70.315 151.93C76.6273 151.93 81.8071 149.624 84.9672 145.012V144.994ZM214.327 359.55C201.853 347.245 195.017 330.84 193.822 310.337C193.212 300.085 192.919 292.905 192.919 288.806C192.919 284.707 193.212 275.825 193.822 262.15C195.017 240.962 201.631 224.215 213.654 211.909C225.668 199.603 242.348 193.451 263.685 193.451C285.022 193.451 301.694 199.603 313.717 211.909C325.731 224.215 332.194 240.962 333.097 262.15C333.699 275.825 334 284.707 334 288.806C334 292.905 333.699 300.085 333.097 310.337C331.893 330.84 325.129 347.254 312.814 359.55C300.49 371.856 284.111 378.009 263.685 378.009C243.259 378.009 226.793 371.856 214.327 359.55ZM277.878 324.949C281.03 320.336 282.907 314.436 283.509 307.265C284.111 297.013 284.412 289.833 284.412 285.734C284.412 281.293 284.111 274.284 283.509 264.717C282.907 257.538 281.03 251.736 277.878 247.286C274.726 242.845 269.989 240.619 263.677 240.619C257.365 240.619 252.185 242.926 249.025 247.538C245.873 252.15 244.138 257.88 243.845 264.708C243.544 269.501 243.394 276.501 243.394 285.725C243.394 294.95 243.544 302.13 243.845 307.256C244.138 314.436 245.873 320.327 249.025 324.94C252.177 329.552 257.064 331.858 263.677 331.858C270.29 331.858 274.718 329.552 277.878 324.94V324.949Z" fill="white"/>
</g>
<path d="M307.728 162.491C301.31 142.731 310.018 140.384 296.661 120.233C283.238 100.02 300.85 63.8246 300.195 43.4777C299.932 36.6935 295.81 25.7405 294.5 15.7655C292.993 3.30923 308.321 -3.86051 316.962 5.20366C319.846 8.33309 322.333 11.7922 324.231 15.5084C325.016 16.9446 326.063 18.3137 327.373 19.3587C331.433 22.7508 335.622 26.0758 341.323 30.8985C361.104 47.3951 351.869 72.112 359.726 86.4571C367.583 100.802 401.773 101.389 415.196 133.276C444.273 202.201 335.824 249.282 307.728 162.491Z" fill="#036EC2"/>
<path d="M215.256 44.7853L202.225 38.0682C195.807 34.7432 187.815 37.2859 184.477 43.6788C181.532 49.3509 183.1 56.3307 188.213 60.1754L196.008 66.0431L215.262 44.7853H215.256Z" fill="#2ED8A7"/>
<path d="M196.003 66.1096L236.935 104.652C239.164 105.434 241.455 105.758 243.88 105.825L298.695 96.9568C308.585 95.1965 315.266 85.8082 313.496 75.8947C311.794 66.2437 302.626 59.7222 292.865 61.1584L243.42 69.4402L215.195 44.8574L196.009 66.1152L196.003 66.1096Z" fill="#94D5F1"/>
<path d="M340.08 123.948L271.578 117.36C273.673 99.1029 286.184 101.316 282.711 88.5355C279.895 78.0351 284.414 64.9921 293.912 61.4715C296.141 60.6891 298.499 60.365 300.856 60.6891C311.726 61.9297 312.516 61.5386 317.097 62.0583C318.536 62.1868 319.981 62.5165 321.353 62.9692C333.142 66.8809 339.296 80.8349 334.189 92.7714C333.209 95.0514 332.554 97.4655 332.358 99.8797C331.966 104.183 341.525 111.358 340.086 123.943L340.08 123.948Z" fill="#94D5F1"/>
<path d="M322.267 67.4114C322.267 74.3912 315.518 79.9962 307.202 79.9962C298.885 79.9962 292.137 74.3241 292.137 67.4114C292.137 65.327 292.725 63.237 293.907 61.5438C296.136 60.7614 298.493 60.4373 300.851 60.7614C311.721 62.002 312.511 61.6108 317.092 62.1305C318.531 62.2591 319.976 62.5888 321.348 63.0414C321.936 64.4105 322.267 65.9082 322.267 67.4114Z" fill="white"/>
<path d="M322.267 67.4114C322.267 74.3912 315.518 79.9962 307.202 79.9962C298.885 79.9962 292.137 74.3241 292.137 67.4114C292.137 65.327 292.725 63.237 293.907 61.5438C296.136 60.7614 298.493 60.4373 300.851 60.7614C311.721 62.002 312.511 61.6108 317.092 62.1305C318.531 62.2591 319.976 62.5888 321.348 63.0414C321.936 64.4105 322.267 65.9082 322.267 67.4114Z" fill="white"/>
<path d="M270.923 116.192L326.589 123.496L327.637 115.538L271.97 108.234L270.923 116.192Z" fill="white"/>
<path d="M272.754 120.818C261.161 147.553 252.582 175.008 241.975 202.005C229.335 234.025 213.75 357.794 213.946 366.92L248.919 366.657L285.399 237.021L284.811 238.977L322.406 136.924C322.669 136.013 277.413 122.512 272.765 120.818H272.754Z" fill="#29ABE2"/>
<path d="M293.055 135.622L292.988 137.254L292.921 138.886L292.854 142.144L292.786 148.665C292.719 150.817 292.854 153.035 292.854 155.187L292.982 161.708C293.246 170.381 293.766 179.054 294.422 187.66C295.01 196.266 295.928 204.939 296.908 213.551C297.827 222.157 299.07 230.701 300.246 239.374L300.772 242.895C301.036 244.459 301.495 245.957 302.15 247.393C304.833 252.808 311.906 267.153 315.708 274.457L319.242 281.241L322.843 288.026C325.201 292.524 327.754 297.023 330.112 301.588C335.091 310.524 341.117 322.846 346.42 331.653C351.724 340.455 357.161 349.323 362.991 357.935L395.999 345.026L350.223 228.17L351.992 235.932L337.062 132.247L293.055 135.639V135.622Z" fill="#29ABE2"/>
<path d="M340.08 123.949C338.966 133.6 327.245 146.906 310.349 145.145L296.729 143.318C281.339 141.686 270.531 126.687 271.645 116.254L340.08 123.949Z" fill="#29ABE2"/>
<path d="M323.644 201.748L336.939 185.38C341.324 182.379 343.62 177.227 343.032 172.013L340.215 130.799L319.914 111.626L330.129 145.34L302.032 185.643C299.283 189.621 298.891 194.707 300.918 199.077C304.06 205.794 312.18 208.728 318.928 205.531C320.76 204.615 322.4 203.38 323.644 201.748Z" fill="black"/>
<path d="M296.135 50.0043L308.903 50.7866C315.517 51.1778 321.151 46.1596 321.543 39.638L322.658 20.4647C323.246 9.96434 315.193 0.900171 304.647 0.251932C294.102 -0.334836 285.002 7.68433 284.413 18.1847L283.366 35.7263C282.974 43.1586 288.67 49.6187 296.135 50.0099V50.0043Z" fill="#2ED8A7"/>
<path d="M285.853 23.6558C285.853 24.7622 285.069 25.6117 284.021 25.8072L284.285 21.6328C285.136 21.7613 285.858 22.6108 285.858 23.6558H285.853Z" fill="black"/>
<path d="M300.195 71.6534L285.069 62.7178C285.069 62.7178 295.418 60.1751 305.762 60.6334L300.195 71.6534Z" fill="black"/>
<path d="M304.844 72.3072L321.544 67.2889L322.003 30.9652L301.702 29.7246L297.575 66.2439C297.25 69.3734 299.473 72.1116 302.615 72.5028C303.399 72.6313 304.122 72.5028 304.844 72.3072Z" fill="#2ED8A7"/>
<path d="M281.272 29.4005C284.492 29.4005 287.102 26.801 287.102 23.5943C287.102 20.3876 284.492 17.7881 281.272 17.7881C278.052 17.7881 275.442 20.3876 275.442 23.5943C275.442 26.801 278.052 29.4005 281.272 29.4005Z" stroke="black" stroke-miterlimit="10" stroke-linecap="round"/>
<path d="M289.717 23.5938L286.833 26.6561C286.245 27.2429 286.307 28.1538 286.9 28.7405L286.968 28.8076L288.67 29.9141" stroke="black" stroke-miterlimit="10" stroke-linecap="round"/>
<path d="M287.69 35.2627C287.69 35.2627 289.46 38.7833 293.189 35.9165" stroke="black" stroke-miterlimit="10" stroke-linecap="round"/>
<path d="M299.411 50.2002L307.727 50.7199L298.493 58.3479L299.411 50.2002Z" fill="black"/>
<path d="M296.068 26.6565C297.262 26.6565 298.23 25.6932 298.23 24.505C298.23 23.3168 297.262 22.3535 296.068 22.3535C294.874 22.3535 293.906 23.3168 293.906 24.505C293.906 25.6932 294.874 26.6565 296.068 26.6565Z" fill="black"/>
<path d="M296.661 30.3112C299.881 30.3112 302.491 27.7142 302.491 24.5106C302.491 21.307 299.881 18.71 296.661 18.71C293.442 18.71 290.832 21.307 290.832 24.5106C290.832 27.7142 293.442 30.3112 296.661 30.3112Z" stroke="black" stroke-miterlimit="10" stroke-linecap="round"/>
<path d="M186.633 378.924L243.218 379.12C246.164 379.12 248.589 376.773 248.656 373.839L248.852 366.73L213.879 366.993C213.352 366.993 212.764 367.06 212.305 367.189L185.978 373.582C182.769 374.303 183.357 378.863 186.633 378.93V378.924Z" fill="black"/>
<path d="M343.093 378.4L357.827 378.333L393.848 353.487C396.531 352.185 397.645 348.989 396.335 346.312L393.322 339.857L361.428 355.963L352.849 369.397L342.303 373.046C339.162 373.829 339.817 378.461 343.087 378.394L343.093 378.4Z" fill="black"/>
<path d="M324.691 64.5451C303.931 52.6756 306.68 51.6362 304.715 32.3957C303.079 16.486 283.232 15.3124 289.191 6.7009C293.38 0.637628 303.012 -2.16768 312.045 1.93969C321.017 6.04707 327.502 21.3086 327.698 32.2616C327.894 43.2146 324.685 64.5395 324.685 64.5395L324.691 64.5451Z" fill="#036EC2"/>
<path d="M296.202 210.287C295.878 210.287 295.614 210.025 295.48 209.7L287.36 165.162C287.292 164.771 287.556 164.38 287.948 164.38C288.34 164.313 288.732 164.575 288.732 164.966L296.852 209.505C296.919 209.896 296.656 210.287 296.264 210.287H296.197H296.202Z" fill="black"/>
<path d="M275.247 130.08C274.983 130.08 274.72 129.951 274.591 129.622L271.578 122.709C271.45 122.318 271.578 121.927 271.971 121.798C272.363 121.67 272.755 121.798 272.889 122.189L275.902 129.102C276.031 129.493 275.902 129.884 275.51 130.013C275.443 130.08 275.314 130.08 275.247 130.08Z" fill="black"/>
<path d="M274.787 108.955C274.72 108.955 274.524 108.888 274.462 108.888C274.138 108.693 274.003 108.302 274.199 107.977C275.246 106.022 276.557 104.261 277.867 102.63C281.143 98.3265 284.285 94.3477 281.603 86.7197C281.474 86.3285 281.67 85.9374 282.062 85.8088C282.454 85.6803 282.846 85.8759 282.98 86.2671C285.864 94.5489 282.392 99.1145 278.987 103.485C277.744 105.116 276.434 106.81 275.454 108.704C275.319 108.832 275.062 108.967 274.798 108.967L274.787 108.955Z" fill="black"/>
<path d="M321.611 62.7178C325.408 64.7407 329.009 67.1549 332.352 69.8931L321.611 67.2219V62.7234V62.7178Z" fill="black"/>
<path d="M350.166 243.745C349.774 243.745 349.444 243.421 349.444 243.03V228.031C349.444 227.64 349.769 227.315 350.166 227.315C350.564 227.315 350.889 227.64 350.889 228.031V243.03C350.889 243.488 350.564 243.745 350.166 243.745Z" fill="black"/>
<path d="M318.99 173.187L312.113 184.207C308.248 190.337 310.147 198.49 316.369 202.268C321.868 205.66 328.941 204.548 333.265 199.792L340.075 192.03" fill="#2ED8A7"/>
<path d="M376.493 133.146L375.709 131.973L340.999 76.0902C336.939 69.5687 329.406 66.1766 322.272 67.4843C322.076 70.5467 320.569 78.8285 308.125 80.0691C306.49 85.0873 307.207 90.6309 309.957 95.1965L338.77 141.624L318.99 173.248L340.013 192.091L374.852 152.443C379.568 147.033 380.223 139.204 376.488 133.141L376.493 133.146Z" fill="#94D5F1"/>
<path d="M324.361 120.886C324.097 120.886 323.901 120.757 323.773 120.494L311.329 98.717C311.133 98.3929 311.262 97.9346 311.592 97.8061C311.917 97.6105 312.376 97.739 312.51 98.0687L324.954 119.846C325.15 120.17 325.021 120.629 324.691 120.757C324.624 120.824 324.495 120.886 324.361 120.886Z" fill="black"/>
<path d="M247.738 74.8496C247.542 74.8496 247.346 74.7826 247.211 74.587L242.888 69.8929C242.625 69.6302 242.625 69.1105 242.955 68.9149C243.218 68.6523 243.739 68.6523 243.935 68.982L248.259 73.6761C248.522 73.9388 248.522 74.4585 248.191 74.6541C248.124 74.7826 247.928 74.8496 247.732 74.8496H247.738Z" fill="black"/>
<path d="M287.096 22.8115H290.96" stroke="black" stroke-miterlimit="10" stroke-linecap="round"/>
<defs>
<clipPath id="clip0_316_535">
<rect width="334" height="364" fill="white" transform="translate(0 14)"/>
</clipPath>
</defs>
</svg>
