<svg width="95" height="81" viewBox="0 0 95 81" fill="none" xmlns="http://www.w3.org/2000/svg">
<path d="M59.3597 16.8604C58.6645 16.3185 58.1169 15.6104 57.7673 14.8013C57.4178 13.9921 57.2776 13.1079 57.3597 12.2303C57.3597 12.2303 57.2597 10.5803 60.2597 6.07031C61.7809 7.9031 62.5778 10.2298 62.4997 12.6104C62.4997 12.6104 62.3997 15.7804 60.0697 16.8604C60.0697 16.8604 59.3597 12.6703 59.9097 11.4703C59.3135 13.2007 59.1286 15.0461 59.3697 16.8604" fill="black"/>
<path d="M51.0297 21.6999C50.1788 21.9322 49.2832 21.9469 48.4252 21.7424C47.5672 21.538 46.7744 21.1211 46.1197 20.53C46.1197 20.53 44.7397 19.62 42.9297 14.53C45.3132 14.3711 47.6672 15.1296 49.5097 16.65C49.5097 16.65 51.9897 18.65 51.4497 21.14C51.4497 21.14 47.6797 19.2 47.0397 18.04C48.0752 19.5528 49.4435 20.8082 51.0397 21.7099" fill="black"/>
<path d="M48.4999 14.17C47.618 14.1172 46.7636 13.8429 46.0155 13.3728C45.2675 12.9027 44.65 12.2517 44.2199 11.48C44.2199 11.48 43.2199 10.18 43.1299 4.77002C45.4387 5.38309 47.4248 6.85748 48.6799 8.89001C48.6799 8.89001 50.3899 11.57 49.0699 13.77C49.0699 13.77 46.1199 10.72 45.8999 9.41003C46.3866 11.1765 47.2766 12.8059 48.4999 14.17Z" fill="black"/>
<path d="M43.1398 20.1803C42.2899 20.4512 41.3851 20.5016 40.5105 20.3267C39.6358 20.1517 38.82 19.7573 38.1398 19.1803C38.1398 19.1803 36.7298 18.3203 34.7598 13.2803C37.136 13.0438 39.5124 13.7273 41.3998 15.1902C41.3998 15.1902 43.9498 17.0902 43.4898 19.6202C43.4898 19.6202 39.6498 17.8002 38.9798 16.6202C40.0616 18.0985 41.4675 19.3095 43.0898 20.1603" fill="black"/>
<path d="M55.4701 10.51C54.6378 10.2196 53.8925 9.72348 53.3034 9.06787C52.7142 8.41226 52.3003 7.61841 52.1001 6.76001C52.1001 6.76001 51.4801 5.22 52.9001 0C54.9476 1.22668 56.4471 3.19141 57.0901 5.48999C57.0901 5.48999 58.0101 8.49004 56.0901 10.29C56.0901 10.29 54.0901 6.53997 54.2301 5.21997C54.2179 7.051 54.625 8.86056 55.4201 10.51" fill="black"/>
<path d="M46.97 26.23C46.2184 26.6762 45.3666 26.9265 44.493 26.958C43.6194 26.9894 42.7519 26.8011 41.97 26.41C41.97 26.41 40.39 25.9099 37.29 21.4699C39.547 20.683 42.0197 20.7904 44.2 21.77C44.2 21.77 47.12 23.0099 47.27 25.5799C47.27 25.5799 43.11 24.71 42.19 23.76C43.5849 24.9438 45.2345 25.7891 47.01 26.23" fill="black"/>
<path d="M63.5097 18.87C63.2388 18.0202 63.1884 17.1154 63.3634 16.2407C63.5383 15.3661 63.9328 14.5503 64.5097 13.87C64.5097 13.87 65.3597 12.45 70.3997 10.46C70.5985 12.8326 69.9267 15.1965 68.5097 17.11C68.5097 17.11 66.6197 19.66 64.0897 19.22C64.0897 19.22 65.8997 15.37 67.0897 14.7C65.6147 15.7838 64.41 17.1938 63.5697 18.8199" fill="black"/>
<path d="M68 20.8999C68.0137 20.0181 68.249 19.1538 68.6841 18.3867C69.1192 17.6196 69.7402 16.9742 70.49 16.5099C70.49 16.5099 71.75 15.4399 77.15 15.1299C76.5075 17.4026 75.1506 19.4081 73.28 20.8499C73.28 20.8499 70.68 22.6798 68.42 21.4698C68.42 21.4698 71.34 18.3799 72.64 18.0999C70.8981 18.6629 69.3101 19.6213 68 20.8999Z" fill="black"/>
<path d="M74.0399 29.3298C74.7197 28.752 75.5355 28.357 76.4104 28.1821C77.2852 28.0071 78.1902 28.0579 79.0399 28.3298C79.0399 28.3298 80.6799 28.5898 84.4299 32.4898C82.318 33.5878 79.8745 33.8657 77.5699 33.2698C77.5699 33.2698 74.4899 32.4898 73.9399 29.9898C73.9399 29.9898 78.1799 30.1898 79.2399 30.9898C77.676 30.0381 75.9137 29.4599 74.0899 29.2999" fill="black"/>
<path d="M79.9897 26.5403C80.4686 25.7995 81.1264 25.1912 81.9024 24.7718C82.6784 24.3523 83.5476 24.1351 84.4297 24.1403C84.4297 24.1403 86.0697 23.8903 90.8097 26.4903C89.1236 28.1697 86.8764 29.167 84.4997 29.2903C84.4997 29.2903 81.3297 29.4703 80.0497 27.2403C80.0497 27.2403 84.1597 26.1703 85.4097 26.6203C83.6337 26.1741 81.7782 26.1468 79.9897 26.5403Z" fill="black"/>
<path d="M71.9897 25.0699C72.228 24.2198 72.6776 23.444 73.2966 22.8145C73.9155 22.185 74.6838 21.7224 75.5297 21.4699C75.5297 21.4699 77.0197 20.7599 82.3197 21.8499C81.1965 23.9508 79.3379 25.5637 77.0997 26.3799C77.0997 26.3799 74.0997 27.4799 72.2497 25.7199C72.2497 25.7199 75.8697 23.49 77.1897 23.55C75.3626 23.6501 73.5832 24.1702 71.9897 25.0699Z" fill="black"/>
<path d="M76.1997 19.1999C76.3587 18.3309 76.7343 17.5161 77.292 16.8309C77.8496 16.1456 78.5711 15.6122 79.3897 15.28C79.3897 15.28 80.7997 14.43 86.1897 15.02C85.2674 17.2157 83.5696 18.9954 81.4197 20.02C81.4197 20.02 78.5497 21.3899 76.5197 19.8199C76.5197 19.8199 79.9097 17.2599 81.2397 17.1999C79.4419 17.475 77.7313 18.1593 76.2397 19.1999" fill="black"/>
<path d="M71.1198 14.5498C70.9249 13.6889 70.9511 12.7927 71.1959 11.9447C71.4407 11.0967 71.8961 10.3243 72.5198 9.69971C72.5198 9.69971 73.5198 8.3598 78.6698 6.7998C78.6839 9.17907 77.8185 11.4796 76.2398 13.2598C76.2398 13.2598 74.1498 15.6498 71.6598 14.9998C71.6598 14.9998 73.7798 11.3197 74.9698 10.7397C73.4128 11.6997 72.096 13.003 71.1198 14.5498Z" fill="black"/>
<path d="M63.8097 11.5603C63.3683 10.8063 63.1224 9.95395 63.0945 9.08069C63.0665 8.20743 63.2574 7.34099 63.6497 6.5603C63.6497 6.5603 64.1597 4.99039 68.6497 1.90039C69.3946 4.16574 69.2771 6.62625 68.3197 8.8103C68.3197 8.8103 67.0697 11.7204 64.4997 11.8704C64.4997 11.8704 65.3797 7.71041 66.3397 6.79041C65.1496 8.18392 64.2975 9.8334 63.8497 11.6104" fill="black"/>
<path d="M55.5101 19.3599C54.634 19.2428 53.8016 18.9065 53.0901 18.3821C52.3786 17.8576 51.8111 17.1621 51.4401 16.3599C51.4401 16.3599 50.5201 14.9898 50.8401 9.58984C53.082 10.3932 54.9458 12.0004 56.0701 14.0999C56.0701 14.0999 57.5901 16.8899 56.1201 18.9999C56.1201 18.9999 53.3901 15.7399 53.2601 14.4199C53.6206 16.2145 54.3906 17.9016 55.5101 19.3499" fill="black"/>
<path d="M39.2697 27.2199C38.6297 27.8269 37.8473 28.2632 36.9946 28.4886C36.1418 28.714 35.2461 28.7213 34.3897 28.51C34.3897 28.51 32.7397 28.3499 28.7397 24.7099C30.7665 23.4476 33.1992 23.0076 35.5397 23.4799C35.5397 23.4799 38.6597 24.06 39.3797 26.53C39.3797 26.53 35.1297 26.5999 34.0197 25.8699C35.6421 26.7192 37.439 27.1813 39.2697 27.2199Z" fill="black"/>
<path d="M45.0099 29.4204C44.3296 28.8434 43.5138 28.449 42.6392 28.274C41.7645 28.0991 40.8597 28.1495 40.0099 28.4204C40.0099 28.4204 38.3799 28.6803 34.6299 32.5803C36.7514 33.6465 39.1831 33.923 41.4899 33.3603C41.4899 33.3603 44.5699 32.5903 45.1199 30.0803C45.1199 30.0803 40.8799 30.2803 39.8199 31.0803C41.3838 30.1286 43.1461 29.5504 44.9699 29.3904" fill="black"/>
<path d="M54.6796 36.1802C55.6971 39.1035 56.1814 42.1857 56.1096 45.2802H57.5797C57.5797 45.2802 57.8496 38.9802 54.6396 36.1802" fill="black"/>
<path d="M49.6697 34.9802C50.5392 34.7816 51.4429 34.7866 52.3102 34.9948C53.1775 35.2029 53.985 35.6087 54.6697 36.1803C54.4777 35.6863 54.2607 35.2023 54.0197 34.7302C52.5646 34.5135 51.0805 34.5986 49.6597 34.9802" fill="black"/>
<path d="M55.7801 27.36C56.0205 27.8011 56.0861 28.3167 55.9638 28.804C55.8415 29.2913 55.5403 29.7146 55.1201 29.99C54.3001 30.31 53.2801 29.65 52.8401 28.51C52.5997 28.0689 52.5341 27.5533 52.6563 27.066C52.7786 26.5787 53.0798 26.1554 53.5001 25.88C54.3201 25.56 55.3401 26.22 55.7801 27.36Z" fill="black"/>
<path d="M66.9001 39.2699C65.8757 38.9881 64.7944 38.9881 63.7701 39.2699C63.6901 39.6499 63.6201 40.0199 63.5601 40.3899C63.9537 39.906 64.4761 39.5431 65.0671 39.3432C65.658 39.1433 66.2934 39.1144 66.9001 39.2599" fill="black"/>
<path d="M62.2598 45.2804H63.2598C63.2273 43.6468 63.3411 42.0137 63.5998 40.4004C62.1698 42.1704 62.2998 45.2804 62.2998 45.2804" fill="black"/>
<path d="M63.5797 27.36C63.1397 28.49 63.4297 29.67 64.2497 29.99C65.0697 30.31 66.0797 29.65 66.5297 28.51C66.9797 27.37 66.6797 26.2 65.8597 25.88C65.0397 25.56 64.0297 26.22 63.5797 27.36Z" fill="black"/>
<path d="M63.58 38.73C63.4 39.18 63 39.4299 62.69 39.3099C62.5304 39.2052 62.4155 39.0449 62.3674 38.8601C62.3194 38.6753 62.3417 38.4792 62.43 38.3099C62.6 37.8699 63 37.61 63.32 37.73C63.4762 37.8377 63.5885 37.998 63.6362 38.1816C63.6839 38.3653 63.664 38.5599 63.58 38.73ZM57.44 33.28C57.6055 33.5741 57.6521 33.9202 57.5703 34.2476C57.4885 34.5749 57.2844 34.8585 57 35.04C56.45 35.26 55.77 34.81 55.47 34.04C55.303 33.7454 55.2565 33.3975 55.3404 33.0693C55.4243 32.7412 55.6321 32.4583 55.92 32.28C56.46 32.06 57.14 32.51 57.44 33.28ZM66.23 30.28C65.4445 30.7244 64.5317 30.89 63.64 30.75C63.64 30.75 62.84 30.22 62.64 28.26C62.3812 24.9449 62.8523 21.6134 64.02 18.5C64.02 18.5 61.26 22.24 59.72 31.21C58.18 22.21 55.42 18.5 55.42 18.5C56.5818 21.6149 57.0527 24.9451 56.8 28.26C56.59 30.26 55.8 30.75 55.8 30.75C54.9052 30.8924 53.9885 30.7267 53.2 30.28C49.28 28.42 44.29 29.91 44.29 29.91C49.51 29.05 52.45 31.53 54.09 34.74C54.6447 34.8286 55.1836 34.997 55.69 35.24C56.2184 35.5368 56.8306 35.6494 57.43 35.5599C57.5491 35.4599 57.6476 35.3376 57.72 35.2C57.8042 35.0619 57.8714 34.9142 57.92 34.76C57.9244 34.7402 57.9244 34.7197 57.92 34.7C57.92 34.7 57.92 34.7 57.92 34.63C57.9923 34.3884 58.0425 34.1407 58.07 33.89C58.07 33.89 58.07 33.89 58.07 33.76C58.1756 32.1937 58.0304 30.6205 57.64 29.1C57.51 28.55 57.34 27.97 57.13 27.35C57.3332 27.639 57.5137 27.9432 57.67 28.26L57.78 28.49L57.9 28.74C57.9 28.83 57.99 28.92 58.03 29.02L58.16 29.3199L58.3 29.65C58.3 29.77 58.39 29.89 58.44 30.01C58.4357 30.0298 58.4357 30.0502 58.44 30.0699C58.44 30.1999 58.53 30.32 58.58 30.46C58.5813 30.4833 58.5813 30.5067 58.58 30.53C58.63 30.66 58.68 30.7999 58.72 30.9399V31.01C58.72 31.15 58.81 31.3 58.86 31.46V31.53C58.91 31.68 58.96 31.85 59 32.01C59.0044 32.0331 59.0044 32.0568 59 32.08L59.15 32.61C59.15 32.67 59.15 32.74 59.15 32.8C59.15 32.86 59.26 33.23 59.31 33.46L59.36 33.66C59.36 33.9 59.46 34.15 59.52 34.4C59.5153 34.4365 59.5153 34.4735 59.52 34.51C59.58 34.8 59.63 35.1 59.69 35.41C59.69 35.41 59.69 35.41 59.69 35.48C59.75 35.81 59.8 36.15 59.86 36.48C59.86 36.58 59.86 36.68 59.86 36.78C59.86 37.04 59.93 37.2999 59.96 37.5699C59.99 37.8399 59.96 37.85 60.01 38C60.06 38.15 60.07 38.47 60.09 38.72C60.11 38.97 60.09 39.05 60.09 39.22L60.15 39.9399V40.49C60.15 40.73 60.15 40.98 60.15 41.22C60.2891 39.0373 60.8566 36.9034 61.82 34.9399C61.8674 34.8465 61.9209 34.7565 61.98 34.67C61.98 34.67 61.98 34.67 61.98 34.61C61.5237 35.8253 61.3394 37.1258 61.44 38.42C61.52 39.19 61.83 39.42 61.83 39.42C62.1741 39.4718 62.5256 39.4085 62.83 39.24C62.9423 39.1831 63.0595 39.1362 63.18 39.1C64.18 34.27 66.94 28.47 74.52 29.72C74.52 29.72 69.52 28.23 65.6 30.09" fill="black"/>
<path d="M16.2598 38.8698H15.4898C15.4412 38.8665 15.3938 38.8529 15.3509 38.8297C15.308 38.8066 15.2706 38.7745 15.2412 38.7356C15.2118 38.6967 15.1911 38.652 15.1805 38.6044C15.1699 38.5568 15.1697 38.5074 15.1798 38.4597L15.3798 37.0098C15.3907 36.9048 15.4374 36.8067 15.5121 36.7321C15.5867 36.6574 15.6848 36.6106 15.7898 36.5997H16.5798L16.8998 34.2097C16.9182 34.1044 16.9699 34.0078 17.0473 33.934C17.1247 33.8602 17.2237 33.8132 17.3298 33.7998H19.2098C19.258 33.8019 19.305 33.8151 19.3471 33.8385C19.3892 33.8619 19.4253 33.8949 19.4525 33.9347C19.4797 33.9745 19.4972 34.02 19.5037 34.0677C19.5101 34.1155 19.5054 34.1641 19.4898 34.2097L19.1798 36.6198H20.7398C20.7889 36.6208 20.8371 36.6332 20.8807 36.6559C20.9242 36.6786 20.962 36.7111 20.991 36.7507C21.02 36.7904 21.0395 36.8361 21.048 36.8845C21.0564 36.9329 21.0536 36.9826 21.0398 37.0298L20.8398 38.4797C20.8263 38.5871 20.7762 38.6867 20.6978 38.7614C20.6195 38.8361 20.5177 38.8814 20.4098 38.8898H18.8598L18.3598 42.3097C18.2698 42.9097 18.5798 42.9998 18.8298 42.9998C19.1324 42.9628 19.4266 42.8749 19.6998 42.7397C19.7419 42.7177 19.7889 42.7067 19.8364 42.7078C19.8839 42.7089 19.9304 42.7221 19.9714 42.7461C20.0124 42.7701 20.0466 42.8041 20.0708 42.845C20.095 42.8859 20.1085 42.9322 20.1098 42.9797L20.3198 44.3998C20.3198 44.6198 20.2398 44.7898 19.9998 44.9198C19.2418 45.2546 18.4277 45.4445 17.5998 45.4797C16.1098 45.4797 15.4898 44.4797 15.7198 42.6897L16.2598 38.8698Z" fill="black"/>
<path d="M23.5796 30.5302C23.5965 30.4241 23.6477 30.3266 23.7254 30.2526C23.8031 30.1785 23.9029 30.1319 24.0096 30.1201H25.9396C25.988 30.125 26.0348 30.1396 26.0774 30.1631C26.1199 30.1866 26.1573 30.2185 26.1872 30.2568C26.2171 30.2951 26.2389 30.339 26.2514 30.386C26.2638 30.433 26.2666 30.4821 26.2596 30.5302L25.3296 37.1001C25.911 36.67 26.6072 36.4229 27.3296 36.3901C29.7896 36.3901 30.6596 38.5101 30.3296 40.6901L29.7496 44.8401C29.7328 44.9461 29.6815 45.0436 29.6039 45.1177C29.5262 45.1917 29.4263 45.2383 29.3196 45.2501H27.4696C27.2496 45.2501 27.1496 45.0501 27.1696 44.8401L27.7496 40.6401C27.9196 39.4601 27.4896 38.7201 26.5396 38.7201C26.1925 38.7616 25.8617 38.8909 25.5783 39.0956C25.2948 39.3003 25.0682 39.5737 24.9196 39.8901L24.2296 44.8901C24.2259 44.9489 24.2104 45.0062 24.184 45.0588C24.1577 45.1115 24.1211 45.1583 24.0763 45.1965C24.0315 45.2348 23.9796 45.2637 23.9235 45.2815C23.8673 45.2993 23.8082 45.3056 23.7496 45.3002H21.8496C21.8025 45.2942 21.757 45.2786 21.7161 45.2544C21.6751 45.2302 21.6396 45.198 21.6115 45.1597C21.5834 45.1213 21.5634 45.0776 21.5528 45.0312C21.5422 44.9849 21.5411 44.9369 21.5496 44.8901L23.5796 30.5302Z" fill="black"/>
<path d="M36.6301 38.9403C36.6301 38.6303 36.4001 38.4004 35.9001 38.4004C35.4659 38.4497 35.0547 38.6216 34.7146 38.8961C34.3746 39.1706 34.1198 39.5362 33.9801 39.9503C34.9801 39.9503 36.6301 39.6303 36.6301 38.9503V38.9403ZM36.3101 36.4004C38.0201 36.4004 39.0801 37.4003 39.0801 38.6903C39.0801 40.8903 35.8601 41.6303 33.6501 41.6903C33.6099 41.8929 33.6178 42.1023 33.6732 42.3013C33.7286 42.5003 33.8299 42.6835 33.969 42.8362C34.1081 42.9889 34.2811 43.1069 34.4741 43.1805C34.667 43.2542 34.8746 43.2815 35.0801 43.2604C35.6271 43.2332 36.1562 43.0568 36.6101 42.7504C36.8101 42.6204 37.0001 42.5704 37.1101 42.7504L37.8201 43.7504C37.8791 43.8353 37.9056 43.9386 37.8945 44.0415C37.8835 44.1444 37.8358 44.2398 37.7601 44.3103C36.9135 45.0768 35.8121 45.501 34.6701 45.5004C34.1887 45.4842 33.7156 45.3708 33.2791 45.167C32.8427 44.9632 32.4521 44.6732 32.1307 44.3145C31.8093 43.9557 31.5638 43.5356 31.409 43.0795C31.2543 42.6233 31.1934 42.1407 31.2301 41.6604C31.2182 40.9829 31.3404 40.3097 31.5896 39.6796C31.8388 39.0494 32.2102 38.4748 32.6823 37.9888C33.1544 37.5027 33.718 37.1147 34.3406 36.8473C34.9632 36.5798 35.6325 36.4382 36.3101 36.4304" fill="black"/>
<path d="M20.4599 72.5302C20.6581 72.5315 20.8546 72.4933 21.0379 72.4177C21.2211 72.3422 21.3875 72.2308 21.5271 72.0902C21.6668 71.9496 21.7771 71.7825 21.8514 71.5988C21.9257 71.415 21.9626 71.2183 21.9599 71.0201C21.9548 70.8288 21.9118 70.6404 21.8335 70.4658C21.7551 70.2912 21.643 70.1338 21.5036 70.0027C21.3641 69.8716 21.2001 69.7695 21.021 69.7021C20.8419 69.6348 20.6512 69.6034 20.4599 69.6101H18.6499V72.5302H20.4599ZM15.6699 67.1702C15.6699 67.0747 15.7079 66.983 15.7754 66.9155C15.8429 66.848 15.9344 66.8101 16.0299 66.8101H20.6299C21.7571 66.8101 22.8381 67.2579 23.6351 68.0549C24.4322 68.852 24.8799 69.9329 24.8799 71.0601C24.8799 72.1872 24.4322 73.2683 23.6351 74.0653C22.8381 74.8623 21.7571 75.3101 20.6299 75.3101H18.6299V79.7902C18.6274 79.8875 18.5876 79.9801 18.5187 80.049C18.4499 80.1178 18.3573 80.1576 18.2599 80.1602H16.0299C15.9335 80.1575 15.842 80.1173 15.7747 80.0482C15.7075 79.9791 15.6699 79.8866 15.6699 79.7902V67.1702Z" fill="black"/>
<path d="M32.7199 72.5097C33.1108 72.4868 33.4783 72.3159 33.7477 72.0317C34.0171 71.7475 34.168 71.3713 34.1699 70.9797C34.1673 70.5959 34.0137 70.2287 33.7423 69.9573C33.4709 69.686 33.1037 69.5324 32.7199 69.5297H29.8899V72.5297L32.7199 72.5097ZM26.8999 67.1697C26.8999 67.0743 26.9378 66.9826 27.0053 66.9151C27.0729 66.8476 27.1644 66.8096 27.2599 66.8096H32.9599C33.9769 66.7259 34.9883 67.0273 35.7936 67.654C36.599 68.2807 37.1395 69.1871 37.3081 70.1936C37.4767 71.2 37.261 72.2331 36.7039 73.0881C36.1467 73.943 35.2887 74.5574 34.2999 74.8096L36.9099 79.6497C36.9436 79.7061 36.9617 79.7704 36.9624 79.836C36.9631 79.9017 36.9462 79.9663 36.9137 80.0233C36.8811 80.0803 36.8339 80.1276 36.777 80.1603C36.7201 80.1931 36.6556 80.2101 36.5899 80.2097H34.0499C33.9881 80.2108 33.9271 80.1945 33.8741 80.1627C33.821 80.1308 33.778 80.0848 33.7499 80.0297L31.2099 75.0297H29.8899V79.8897C29.8875 79.9854 29.8491 80.0766 29.7824 80.1452C29.7156 80.2138 29.6255 80.2547 29.5299 80.2597H27.2599C27.1635 80.2571 27.072 80.217 27.0047 80.1479C26.9375 80.0788 26.8999 79.9861 26.8999 79.8897V67.1697Z" fill="black"/>
<path d="M45.58 77.3002C46.3373 77.3042 47.0786 77.0829 47.7098 76.6647C48.3411 76.2465 48.8338 75.65 49.1254 74.9512C49.417 74.2524 49.4943 73.4828 49.3476 72.7399C49.2008 71.997 48.8366 71.3145 48.3011 70.7791C47.7657 70.2436 47.0832 69.8793 46.3403 69.7326C45.5975 69.5858 44.8278 69.6633 44.1289 69.9549C43.4301 70.2465 42.8337 70.7391 42.4155 71.3704C41.9973 72.0016 41.7761 72.7429 41.78 73.5002C41.7879 74.5055 42.1908 75.4676 42.9017 76.1785C43.6127 76.8894 44.5746 77.2924 45.58 77.3002ZM45.58 66.6201C46.9392 66.6162 48.269 67.0155 49.4012 67.7675C50.5334 68.5195 51.417 69.5905 51.9404 70.8449C52.4637 72.0993 52.6032 73.4808 52.3412 74.8145C52.0792 76.1482 51.4274 77.3741 50.4685 78.3373C49.5095 79.3005 48.2863 79.9575 46.9538 80.2254C45.6213 80.4932 44.2392 80.3598 42.9826 79.8419C41.7259 79.3241 40.6511 78.4452 39.8941 77.3163C39.1371 76.1874 38.732 74.8593 38.73 73.5002C38.7261 72.5981 38.9004 71.7041 39.2428 70.8695C39.5853 70.035 40.0893 69.2764 40.7257 68.6371C41.3622 67.9979 42.1187 67.4906 42.9517 67.1444C43.7848 66.7983 44.678 66.6201 45.58 66.6201Z" fill="black"/>
<path d="M52.84 78.48L54.14 77.2C54.2092 77.1316 54.3027 77.0933 54.4 77.0933C54.4973 77.0933 54.5907 77.1316 54.66 77.2C54.7824 77.3418 54.9372 77.4522 55.1112 77.5219C55.2852 77.5915 55.4735 77.6183 55.66 77.6C56.19 77.6 56.78 77.1 56.78 76.15V67.15C56.7826 67.0536 56.8227 66.962 56.8918 66.8948C56.9609 66.8275 57.0536 66.79 57.15 66.79H59.47C59.5655 66.79 59.657 66.8279 59.7245 66.8954C59.7921 66.9629 59.83 67.0545 59.83 67.15V76.15C59.8549 76.6988 59.7665 77.2468 59.5703 77.7599C59.3741 78.273 59.0744 78.7402 58.6897 79.1323C58.3051 79.5245 57.8437 79.8333 57.3345 80.0393C56.8253 80.2454 56.2791 80.3443 55.73 80.33C55.1734 80.3324 54.6236 80.2075 54.1227 79.9648C53.6218 79.7222 53.1831 79.3683 52.84 78.9301C52.7889 78.8624 52.7612 78.7798 52.7612 78.6949C52.7612 78.6101 52.7889 78.5276 52.84 78.46" fill="black"/>
<path d="M62.7998 67.1702C62.7998 67.0747 62.8377 66.983 62.9052 66.9155C62.9728 66.848 63.0643 66.8101 63.1598 66.8101H71.0498C71.1453 66.8101 71.2368 66.848 71.3044 66.9155C71.3719 66.983 71.4098 67.0747 71.4098 67.1702V69.2501C71.4098 69.3456 71.3719 69.4371 71.3044 69.5046C71.2368 69.5722 71.1453 69.6101 71.0498 69.6101H65.7698V71.9801H70.1198C70.2145 71.9826 70.3046 72.0214 70.3716 72.0884C70.4385 72.1554 70.4773 72.2454 70.4798 72.3401V74.4202C70.4798 74.5156 70.4419 74.6072 70.3744 74.6747C70.3068 74.7422 70.2153 74.7802 70.1198 74.7802H65.7698V77.3501H71.0498C71.1453 77.3501 71.2368 77.3881 71.3044 77.4556C71.3719 77.5231 71.4098 77.6146 71.4098 77.7101V79.7902C71.4098 79.8866 71.3722 79.9791 71.305 80.0482C71.2378 80.1173 71.1462 80.1575 71.0498 80.1602H63.1598C63.0634 80.1575 62.9719 80.1173 62.9046 80.0482C62.8374 79.9791 62.7998 79.8866 62.7998 79.7902V67.1702Z" fill="black"/>
<path d="M79.8801 66.62C80.7273 66.5961 81.5708 66.7403 82.3621 67.0441C83.1533 67.3479 83.8766 67.8053 84.4901 68.39C84.5282 68.4229 84.5587 68.4635 84.5797 68.5093C84.6006 68.555 84.6115 68.6047 84.6115 68.655C84.6115 68.7053 84.6006 68.755 84.5797 68.8008C84.5587 68.8465 84.5282 68.8872 84.4901 68.92L83.0001 70.47C82.9694 70.5011 82.9328 70.5258 82.8925 70.5427C82.8521 70.5596 82.8088 70.5684 82.7651 70.5684C82.7214 70.5684 82.6781 70.5596 82.6377 70.5427C82.5974 70.5258 82.5608 70.5011 82.5301 70.47C81.8212 69.8325 80.9034 69.4768 79.9501 69.47C78.9157 69.47 77.9238 69.8809 77.1924 70.6123C76.461 71.3437 76.0501 72.3356 76.0501 73.37C76.0501 74.4043 76.461 75.3963 77.1924 76.1277C77.9238 76.8591 78.9157 77.27 79.9501 77.27C80.8838 77.2669 81.7879 76.9419 82.5101 76.35C82.5786 76.2922 82.6654 76.2605 82.7551 76.2605C82.8448 76.2605 82.9315 76.2922 83.0001 76.35L84.4901 77.93C84.5521 78.0025 84.5861 78.0946 84.5861 78.1899C84.5861 78.2853 84.5521 78.3775 84.4901 78.4499C83.2486 79.6492 81.5861 80.3135 79.8601 80.3C78.9365 80.3353 78.0153 80.1837 77.1517 79.8546C76.288 79.5255 75.4996 79.0256 74.8338 78.3846C74.1679 77.7437 73.6382 76.975 73.2763 76.1245C72.9145 75.274 72.728 74.3592 72.728 73.4349C72.728 72.5107 72.9145 71.596 73.2763 70.7455C73.6382 69.895 74.1679 69.1263 74.8338 68.4853C75.4996 67.8444 76.288 67.3444 77.1517 67.0153C78.0153 66.6861 78.9365 66.5347 79.8601 66.5699" fill="black"/>
<path d="M88.5099 69.6204H85.7799C85.6844 69.6204 85.5929 69.5824 85.5254 69.5149C85.4579 69.4474 85.4199 69.3559 85.4199 69.2604V67.1804C85.4199 67.0849 85.4579 66.9933 85.5254 66.9258C85.5929 66.8583 85.6844 66.8203 85.7799 66.8203H94.2499C94.3454 66.8203 94.437 66.8583 94.5045 66.9258C94.572 66.9933 94.6099 67.0849 94.6099 67.1804V69.2604C94.6099 69.3559 94.572 69.4474 94.5045 69.5149C94.437 69.5824 94.3454 69.6204 94.2499 69.6204H91.5199V79.8004C91.5175 79.8961 91.4791 79.9873 91.4124 80.0559C91.3457 80.1245 91.2555 80.1654 91.1599 80.1704H88.8699C88.7744 80.1654 88.6842 80.1245 88.6175 80.0559C88.5507 79.9873 88.5123 79.8961 88.5099 79.8004V69.6204Z" fill="black"/>
<path d="M5.06987 59.9601C5.25109 59.9588 5.43028 59.9218 5.59721 59.8512C5.76414 59.7806 5.91554 59.6779 6.04276 59.5488C6.16997 59.4198 6.27052 59.2669 6.33865 59.099C6.40679 58.9311 6.44118 58.7513 6.43987 58.5701C6.39498 58.1919 6.20977 57.8443 5.92088 57.5962C5.63199 57.348 5.26048 57.2174 4.87986 57.2301H3.32986V59.9601H5.06987ZM4.81987 54.7501C5.17707 54.7422 5.51683 54.5941 5.76571 54.3378C6.01458 54.0814 6.15258 53.7374 6.14986 53.3801C6.14991 53.2069 6.11532 53.0353 6.04812 52.8756C5.98092 52.7159 5.88247 52.5712 5.75856 52.4501C5.63465 52.329 5.48777 52.2338 5.32657 52.1703C5.16537 52.1067 4.99309 52.0761 4.81987 52.0801H3.32986V54.7501H4.81987ZM0.359863 49.7001C0.359863 49.6046 0.397792 49.5131 0.465305 49.4456C0.532818 49.378 0.624386 49.3401 0.719864 49.3401H5.15987C6.00951 49.1515 6.8991 49.2939 7.64742 49.7383C8.39573 50.1827 8.94646 50.8957 9.1874 51.7321C9.42835 52.5684 9.34139 53.4651 8.94424 54.2395C8.54709 55.0139 7.86963 55.6078 7.04987 55.9001C8.04987 56.3201 9.59986 57.2501 9.59986 59.0101C9.5732 59.5257 9.44417 60.0308 9.2203 60.496C8.99644 60.9612 8.68221 61.3772 8.29595 61.7197C7.90968 62.0622 7.4591 62.3244 6.97047 62.491C6.48183 62.6576 5.96492 62.7253 5.44986 62.6901H0.719864C0.623477 62.6875 0.531916 62.6474 0.464676 62.5782C0.397436 62.5091 0.359828 62.4165 0.359863 62.3201V49.7001Z" fill="black"/>
<path d="M12.02 49.6998C12.0225 49.6051 12.0613 49.5151 12.1283 49.4481C12.1952 49.3811 12.2853 49.3424 12.38 49.3398H14.65C14.7464 49.3398 14.8391 49.3775 14.9082 49.4447C14.9773 49.5119 15.0174 49.6034 15.02 49.6998V54.5099H20.47V49.6998C20.47 49.6044 20.5079 49.5128 20.5755 49.4453C20.643 49.3778 20.7345 49.3398 20.83 49.3398H23.1C23.1947 49.3424 23.2848 49.3811 23.3518 49.4481C23.4188 49.5151 23.4575 49.6051 23.46 49.6998V62.3198C23.4576 62.4155 23.4192 62.5068 23.3525 62.5754C23.2858 62.644 23.1956 62.6848 23.1 62.6898H20.83C20.7336 62.6872 20.6421 62.6471 20.5748 62.578C20.5076 62.5089 20.47 62.4162 20.47 62.3198V57.3198H15.02V62.3198C15.0175 62.4172 14.9777 62.5099 14.9089 62.5787C14.84 62.6476 14.7474 62.6873 14.65 62.6898H12.38C12.2844 62.6848 12.1943 62.644 12.1275 62.5754C12.0608 62.5068 12.0224 62.4155 12.02 62.3198V49.6998Z" fill="black"/>
<path d="M32.8597 58.1104L31.4098 54.9603L29.9798 58.1104H32.8597ZM25.0197 62.1903L31.0198 49.3604C31.0497 49.3002 31.0952 49.2491 31.1514 49.2122C31.2076 49.1753 31.2726 49.154 31.3398 49.1504H31.5397C31.6069 49.154 31.6719 49.1753 31.7281 49.2122C31.7843 49.2491 31.8298 49.3002 31.8597 49.3604L37.8597 62.1903C37.8889 62.2444 37.9029 62.3054 37.9002 62.3668C37.8974 62.4282 37.8781 62.4878 37.8443 62.5391C37.8104 62.5904 37.7633 62.6314 37.7079 62.6581C37.6525 62.6847 37.591 62.6959 37.5297 62.6903H35.3597C35.0097 62.6903 34.8597 62.5703 34.6897 62.2103L33.9997 60.7003H28.8197L28.1298 62.2303C28.0788 62.3705 27.9843 62.4907 27.8602 62.5735C27.7361 62.6562 27.5888 62.6972 27.4397 62.6903H25.3497C25.2885 62.6959 25.227 62.6847 25.1716 62.6581C25.1162 62.6314 25.0691 62.5904 25.0352 62.5391C25.0014 62.4878 24.9821 62.4282 24.9793 62.3668C24.9766 62.3054 24.9906 62.2444 25.0197 62.1903Z" fill="black"/>
<path d="M40.6698 49.4503C40.6839 49.3673 40.7266 49.2918 40.7905 49.2369C40.8545 49.1821 40.9356 49.1516 41.0199 49.1504H41.3198C41.3861 49.153 41.4508 49.1716 41.5082 49.2047C41.5657 49.2378 41.6143 49.2843 41.6499 49.3403L46.0698 57.5803L50.4899 49.3403C50.5254 49.2843 50.574 49.2378 50.6315 49.2047C50.6889 49.1716 50.7536 49.153 50.8198 49.1504H51.1199C51.2023 49.1538 51.2811 49.1855 51.343 49.2401C51.4049 49.2947 51.4462 49.3689 51.4598 49.4503L53.6199 62.2704C53.6306 62.3227 53.6292 62.3767 53.6159 62.4283C53.6025 62.48 53.5775 62.5281 53.5428 62.5686C53.508 62.6091 53.4644 62.6411 53.4154 62.6622C53.3664 62.6833 53.3132 62.6929 53.2599 62.6903H51.0499C50.9628 62.686 50.8796 62.6534 50.8128 62.5974C50.746 62.5415 50.6993 62.4653 50.6799 62.3804L49.8299 56.4904L46.5799 62.6704C46.5464 62.7277 46.5 62.7766 46.4445 62.813C46.389 62.8494 46.3258 62.8725 46.2599 62.8804H45.9198C45.8522 62.874 45.787 62.8516 45.7296 62.8151C45.6722 62.7786 45.6243 62.729 45.5899 62.6704L42.3699 56.4904L41.5298 62.3804C41.514 62.4653 41.4697 62.5422 41.4043 62.5985C41.3388 62.6549 41.2561 62.6872 41.1698 62.6903H38.8799C38.8265 62.6929 38.7733 62.6833 38.7243 62.6622C38.6753 62.6411 38.6317 62.6091 38.597 62.5686C38.5622 62.5281 38.5372 62.48 38.5238 62.4283C38.5105 62.3767 38.5091 62.3227 38.5199 62.2704L40.6698 49.4503Z" fill="black"/>
<path d="M60.7998 59.9601C60.9819 59.9601 61.1622 59.9241 61.3303 59.8541C61.4983 59.7841 61.6509 59.6816 61.7792 59.5524C61.9075 59.4232 62.0089 59.2699 62.0777 59.1013C62.1464 58.9327 62.1812 58.7521 62.1798 58.5701C62.1348 58.1901 61.9482 57.8412 61.6572 57.5928C61.3661 57.3444 60.9921 57.2149 60.6098 57.2301H59.0698V59.9601H60.7998ZM60.5598 54.7501C60.9171 54.7422 61.2568 54.5941 61.5057 54.3378C61.7546 54.0814 61.8926 53.7374 61.8898 53.3801C61.8899 53.2069 61.8553 53.0353 61.7881 52.8756C61.7209 52.7159 61.6224 52.5712 61.4985 52.4501C61.3746 52.329 61.2278 52.2338 61.0666 52.1703C60.9053 52.1067 60.7331 52.0761 60.5598 52.0801H59.0698V54.7501H60.5598ZM56.0898 49.7001C56.0924 49.6037 56.1326 49.5122 56.2017 49.4449C56.2708 49.3777 56.3634 49.34 56.4598 49.3401H60.8998C61.7495 49.1515 62.6391 49.2939 63.3874 49.7383C64.1357 50.1827 64.6864 50.8957 64.9274 51.7321C65.1683 52.5684 65.0814 53.4651 64.6842 54.2395C64.2871 55.0139 63.6096 55.6078 62.7898 55.9001C63.7898 56.3201 65.3398 57.2501 65.3398 59.0101C65.3132 59.5257 65.1841 60.0308 64.9603 60.496C64.7364 60.9612 64.4222 61.3772 64.0359 61.7197C63.6497 62.0622 63.1991 62.3244 62.7104 62.491C62.2218 62.6576 61.7049 62.7253 61.1898 62.6901H56.4598C56.3625 62.6875 56.2699 62.6478 56.201 62.579C56.1322 62.5101 56.0924 62.4174 56.0898 62.3201V49.7001Z" fill="black"/>
<path d="M73.88 58.1104L72.43 54.9603L71 58.1104H73.88ZM66.05 62.1903L72.05 49.3604C72.0808 49.2987 72.1278 49.2466 72.1859 49.2096C72.244 49.1726 72.3111 49.1522 72.38 49.1504H72.58C72.6474 49.1529 72.7128 49.1738 72.7693 49.2108C72.8257 49.2478 72.8709 49.2995 72.9 49.3604L78.9 62.1903C78.9286 62.2436 78.9424 62.3037 78.9401 62.3641C78.9377 62.4246 78.9193 62.4833 78.8867 62.5343C78.8541 62.5853 78.8085 62.6265 78.7545 62.6539C78.7006 62.6814 78.6404 62.6939 78.58 62.6903H76.38C76.04 62.6903 75.88 62.5703 75.71 62.2103L75.03 60.7003H69.84L69.15 62.2303C69.0995 62.3689 69.0066 62.488 68.8845 62.5706C68.7624 62.6532 68.6173 62.695 68.47 62.6903H66.37C66.3085 62.6975 66.2462 62.6874 66.1902 62.6609C66.1343 62.6344 66.0869 62.5927 66.0535 62.5405C66.0201 62.4884 66.0021 62.4279 66.0015 62.366C66.0009 62.304 66.0177 62.2431 66.05 62.1903Z" fill="black"/>
<path d="M82.8398 56.2602L78.6298 49.8902C78.5926 49.8368 78.571 49.7741 78.5674 49.7091C78.5639 49.6442 78.5785 49.5795 78.6096 49.5224C78.6408 49.4653 78.6873 49.4178 78.7438 49.3857C78.8004 49.3535 78.8648 49.3377 78.9298 49.3401H81.4098C81.4712 49.342 81.5313 49.3584 81.5852 49.388C81.6391 49.4175 81.6852 49.4594 81.7198 49.5102L84.3698 53.4202L87.0198 49.5102C87.0493 49.4569 87.0929 49.4129 87.1459 49.3829C87.1988 49.3529 87.259 49.3381 87.3198 49.3401H89.7998C89.8657 49.3357 89.9315 49.3501 89.9895 49.3815C90.0476 49.4129 90.0956 49.46 90.1281 49.5175C90.1605 49.575 90.176 49.6405 90.1727 49.7065C90.1695 49.7724 90.1477 49.8361 90.1098 49.8902L85.8298 56.2402V62.3201C85.8274 62.4158 85.789 62.5071 85.7223 62.5757C85.6556 62.6443 85.5654 62.6851 85.4698 62.6901H83.1998C83.1035 62.6875 83.0119 62.6474 82.9446 62.5783C82.8774 62.5092 82.8398 62.4165 82.8398 62.3201V56.2602Z" fill="black"/>
<path d="M94.2799 49.3398H91.9899C91.7911 49.3398 91.6299 49.501 91.6299 49.6998V62.3298C91.6299 62.5287 91.7911 62.6898 91.9899 62.6898H94.2799C94.4787 62.6898 94.6399 62.5287 94.6399 62.3298V49.6998C94.6399 49.501 94.4787 49.3398 94.2799 49.3398Z" fill="black"/>
</svg>
