<svg width="96" height="199" viewBox="0 0 96 199" fill="none" xmlns="http://www.w3.org/2000/svg">
<path d="M38.9076 7.43797C38.3366 7.43797 37.8738 6.97566 37.8738 6.40538C37.8738 5.83511 38.3366 5.3728 38.9076 5.3728C39.4785 5.3728 39.9414 5.83511 39.9414 6.40538C39.9414 6.97566 39.4785 7.43797 38.9076 7.43797Z" fill="#2ED8A7"/>
<path d="M30.5603 45.947C31.8015 48.9767 33.1477 51.9354 34.4599 54.8942C35.772 57.8529 37.1495 60.7804 38.5298 63.7392C39.9101 66.6639 41.3245 69.5886 42.7389 72.5161L44.8775 76.8876L47.0502 81.259L47.2916 81.7413C47.3598 81.886 47.4393 82.025 47.5331 82.1555L49.9472 85.9766L52.3954 89.7608C54.0143 92.2742 55.6729 94.7847 57.3287 97.2981L59.8139 101.048L61.055 102.906L62.3302 104.764C64.0201 107.244 65.71 109.72 67.4709 112.2L68.161 113.164C68.4252 113.536 68.7376 113.873 69.0926 114.163C70.8166 115.504 72.5775 116.846 74.3014 118.154C77.7295 120.738 82.6117 120.063 85.2019 116.642C87.528 113.573 87.2497 109.266 84.5459 106.523C83.0264 104.94 81.4757 103.426 79.8909 101.879L81.5126 103.84C80.2004 101.156 78.823 98.4697 77.4086 95.7861L76.3748 93.789L75.3409 91.792L73.2364 87.8006C71.822 85.1511 70.4076 82.5015 68.9591 79.886L66.7864 75.9628L64.5796 72.0396L65.0624 72.8991L63.1311 68.4255L61.1658 63.9548C59.8536 60.996 58.5102 58.0685 57.1299 55.0757C55.7496 52.151 54.3693 49.1894 52.9549 46.2988C51.5405 43.3741 50.1261 40.4834 48.5725 37.5927C46.0704 32.7192 40.0805 30.793 35.1954 33.2894C30.5688 35.6552 28.5495 41.1756 30.566 45.9555L30.5603 45.947Z" fill="#036EC2"/>
<path d="M91.9667 198.378L62.1593 198.239C60.6086 198.239 59.2283 196.758 59.1232 195.209L58.8818 191.456L77.7176 191.731L92.174 195.311C93.8639 195.725 93.6906 198.375 91.9667 198.375V198.378Z" fill="black"/>
<path d="M19.8982 70.5899L40.8045 122.937L42.6677 130.097L43.9798 135.155L58.9872 192.25L77.5816 191.768C78.4109 183.99 74.7528 153.049 72.475 135.155C72.2336 133.399 72.0263 131.748 71.853 130.267C71.231 125.595 69.8905 121.045 67.8853 116.775C67.5758 116.157 67.2974 115.536 66.9538 114.917C58.6747 99.1192 47.1863 65.6681 46.5303 61.915L19.8982 70.587V70.5899Z" fill="#2ED8A7"/>
<path d="M42.6676 116.812V130.131L43.9798 135.189H72.4409C72.1995 133.433 71.9922 131.782 71.8189 130.301C71.2111 125.626 69.8734 121.073 67.8512 116.809H42.6676V116.812Z" fill="black"/>
<path d="M32.8013 198.171L2.99394 198.032C1.42334 198.04 0.142426 196.778 0.131065 195.209L0.0969849 192.214L18.9328 191.697L33.2159 195.243C34.8718 195.725 34.5253 198.171 32.8013 198.171Z" fill="black"/>
<path d="M18.6908 67.1121L15.862 129.578L0.0963211 192.25L18.7589 191.768C19.7927 186.432 40.1509 145.994 43.9085 135.155C44.4736 133.515 44.8571 131.819 45.0473 130.097L45.4961 69.3531L18.6908 67.1149V67.1121Z" fill="#2ED8A7"/>
<path d="M43.8745 125.104L17.2424 99.1903L17.8644 82.7739L34.6639 100.875L43.8745 125.104Z" fill="black"/>
<path d="M43.8747 135.569C44.0309 135.569 44.1701 135.475 44.2212 135.328C46.3598 130.508 45.1187 120.392 45.0505 119.978C45.0193 119.78 44.8318 119.643 44.633 119.675C44.4371 119.706 44.3007 119.887 44.3263 120.083C44.3604 120.185 45.6015 130.409 43.568 135.056C43.4856 135.234 43.568 135.444 43.7469 135.526C43.7554 135.529 43.7668 135.535 43.7753 135.538C43.8065 135.555 43.8435 135.566 43.8775 135.572L43.8747 135.569Z" fill="black"/>
<path d="M53.0514 62.5706C52.4663 52.9001 45.8402 53.6915 48.0158 47.0478C50.1885 40.4069 46.7036 31.4229 39.2539 31.8711C33.5282 32.2144 28.2824 31.0797 23.6615 34.6256C14.6242 41.6126 18.4186 44.5713 16.831 64.1195L53.0542 62.5706H53.0514Z" fill="#036EC2"/>
<path d="M16.8285 64.0854C17.1381 69.1802 22.9348 76.5445 31.8699 76.0963L39.047 75.5119C47.1897 75.0977 53.3301 67.4924 52.9836 61.9521L16.8285 64.0854Z" fill="#2ED8A7"/>
<path d="M38.9071 31.5278C41.0855 31.6697 43.173 32.4498 44.9111 33.766L38.0806 37L38.9099 31.5278H38.9071Z" fill="black"/>
<path d="M35.1811 37.5161L26.5215 34.4183L29.799 21.477L41.5288 21.4089L39.1828 34.5205C39.2851 36.1459 38.0468 37.5473 36.4165 37.6494C36.3967 37.6494 36.3739 37.6494 36.3541 37.6523C35.9564 37.692 35.556 37.6437 35.1811 37.5132V37.5161Z" fill="#94D5F1"/>
<path d="M40.2192 28.8443L35.0786 26.9153L39.2167 34.5235L40.2192 28.8443Z" fill="black"/>
<path d="M18.3477 52.2815L23.6616 53.5552L16.8311 64.1222C17.1037 60.1507 17.6121 56.1962 18.3477 52.2843V52.2815Z" fill="black"/>
<path d="M34.8031 29.2214L41.4604 30.1859C45.36 30.7618 48.9868 28.0753 49.5634 24.1861V24.1635L50.1541 20.1693L50.4637 17.897L50.8784 14.9383C51.5998 9.42362 47.7031 4.37135 42.1761 3.65081C36.76 2.94729 31.767 6.66629 30.9036 12.0448L29.4551 22.0614C28.9581 25.5081 31.3495 28.7079 34.8031 29.2186V29.2214Z" fill="#94D5F1"/>
<path d="M49.1885 19.3778C49.3022 19.8034 49.6799 20.1097 50.1201 20.1353L50.4297 17.863C50.2451 17.8233 50.0548 17.8346 49.8787 17.8971C49.2936 18.1325 48.9897 18.7793 49.1885 19.3778Z" fill="black"/>
<path d="M52.3271 23.3382C54.4232 23.3382 56.1216 21.6418 56.1216 19.5511C56.1216 17.4604 54.4203 15.7668 52.3243 15.7668C50.2283 15.7668 48.5299 17.4632 48.5299 19.5539C48.5242 21.6389 50.2141 23.3353 52.3044 23.341C52.3129 23.341 52.3186 23.341 52.3271 23.341V23.3382ZM52.3271 16.5243C54.0028 16.5243 55.3633 17.8802 55.3633 19.5539C55.3633 21.2276 54.0028 22.5836 52.3271 22.5836C50.6515 22.5836 49.291 21.2276 49.291 19.5539C49.3052 17.8887 50.6571 16.5413 52.3271 16.5271V16.5243Z" fill="black"/>
<path d="M47.0839 22.0984C47.1321 22.1041 47.1804 22.0927 47.223 22.0643L48.2938 21.6161C48.8334 21.3013 49.0123 20.6119 48.6971 20.0729C48.6885 20.0588 48.68 20.0446 48.6715 20.0332L47.4985 18.1411C47.3878 17.9624 47.1549 17.9085 46.9759 18.0163C46.8055 18.1212 46.7459 18.3425 46.8424 18.5184L48.0495 20.4105C48.166 20.5921 48.112 20.8332 47.9302 20.9495C47.9245 20.9523 47.9189 20.958 47.9103 20.9608L46.9447 21.375C46.7544 21.4488 46.6607 21.6615 46.7345 21.8488V21.8573C46.78 22.0076 46.9248 22.1097 47.081 22.0956L47.0839 22.0984Z" fill="black"/>
<path d="M46.8765 25.8146C47.4985 25.8146 48.0835 25.4713 48.6005 24.782C48.7254 24.6203 48.697 24.3905 48.5351 24.2657C48.3732 24.1409 48.1432 24.1693 48.0182 24.3309V24.3366C47.6348 24.8189 47.2542 25.06 46.8765 25.06C46.0841 25.026 45.3911 24.0274 45.3911 24.0274C45.2803 23.8544 45.0503 23.8033 44.877 23.9139C44.7038 24.0246 44.6526 24.2544 44.7634 24.4274L44.7719 24.4387C44.806 24.4728 45.6694 25.7465 46.8765 25.7805C46.8538 25.8032 46.8538 25.8146 46.8765 25.8146Z" fill="black"/>
<path d="M43.8069 19.2758C43.1779 19.2758 42.668 18.7677 42.668 18.1411C42.668 17.5144 43.1779 17.0063 43.8069 17.0063C44.4359 17.0063 44.9458 17.5144 44.9458 18.1411C44.9458 18.7677 44.4359 19.2758 43.8069 19.2758Z" fill="black"/>
<path d="M50.981 11.5315C50.2909 15.3186 46.877 15.3527 43.3552 11.8067C42.4975 10.9387 41.0945 10.9216 40.2169 11.7727C39.9244 12.0535 39.7199 12.4109 39.629 12.8052L39.078 14.9725C38.8451 15.8349 38.1777 16.5129 37.3199 16.7625L35.1813 17.3469L33.4233 21.8545C32.7104 23.6615 30.816 24.714 28.9017 24.3679C28.9017 24.3679 30.4525 14.9725 31.1795 10.9812C31.9038 6.98988 35.8345 2.82551 42.2192 3.27371C49.8109 3.82121 50.9839 11.5315 50.9839 11.5315H50.981Z" fill="black"/>
<path d="M43.8063 22.0983C46.016 22.0983 47.8081 20.3111 47.8081 18.1041C47.8081 15.9 46.016 14.1128 43.8063 14.1128C41.5967 14.1128 39.8046 15.9 39.8046 18.1041C39.7818 20.2856 41.5371 22.0728 43.724 22.0954C43.7524 22.0954 43.7808 22.0954 43.8063 22.0954V22.0983ZM43.8063 14.9043C45.5985 14.9043 47.0498 16.3538 47.0498 18.1382C47.0498 19.9225 45.5985 21.3721 43.8063 21.3721C42.0142 21.3721 40.5629 19.9225 40.5629 18.1382C40.5629 16.3538 42.0085 14.9043 43.7978 14.9043C43.7978 14.9043 43.8035 14.9043 43.8063 14.9043Z" fill="black"/>
<path d="M49.155 18.7596C49.3367 18.7539 49.4929 18.6262 49.5355 18.4504C49.5753 18.266 49.4617 18.0844 49.2771 18.0447C49.26 18.0419 49.243 18.039 49.226 18.0362L47.4651 17.761C47.2634 17.7355 47.0816 17.8773 47.0561 18.0759C47.0305 18.2716 47.1669 18.4532 47.3628 18.4844L49.1237 18.7596H49.1578H49.155Z" fill="black"/>
<path d="M40.2881 17.6247C40.4926 17.6191 40.6545 17.4489 40.6488 17.2446C40.6459 17.0886 40.5409 16.9496 40.3903 16.9014L36.3545 15.4915C36.1557 15.4206 35.937 15.5227 35.866 15.7213C35.795 15.9199 35.8972 16.1383 36.096 16.2092C36.1017 16.2092 36.1074 16.2149 36.1159 16.2149L40.1518 17.6247C40.2199 17.5907 40.254 17.6247 40.2909 17.6247H40.2881Z" fill="black"/>
<path d="M35.7688 13.3554C34.8372 13.2079 33.9568 13.8377 33.8034 14.7681L33.4228 17.2106C33.2723 18.141 33.9056 19.0176 34.8372 19.1736C35.7688 19.3211 36.6492 18.6914 36.8026 17.7609L37.1832 15.3184C37.3365 14.388 36.7032 13.5086 35.7716 13.3582L35.7688 13.3554Z" fill="#94D5F1"/>
<path d="M93.5518 105.763H42.6336C41.2817 105.769 40.1883 106.858 40.1854 108.205V120.25C40.1911 121.598 41.2845 122.69 42.6336 122.693H93.5518C94.9037 122.687 95.9972 121.598 96 120.25V108.205C95.9943 106.858 94.9009 105.766 93.5518 105.763Z" fill="#036EC2"/>
<path d="M40.1852 108.413H75.2695V119.975H40.1852V108.413Z" fill="white"/>
<path d="M90.6208 84.5981H38.5979C37.5527 84.6067 36.7092 85.4492 36.7006 86.4903V92.9269C36.7092 93.968 37.5527 94.8105 38.5979 94.819H90.6208C91.666 94.8105 92.5095 93.968 92.5181 92.9269V86.4903C92.5095 85.4492 91.666 84.6067 90.6208 84.5981Z" fill="#94D5F1"/>
<path d="M36.9076 87.0405H61.1597V92.1354H36.9076V87.0405Z" fill="white"/>
<path d="M40.3222 105.763H91.2432C92.5923 105.758 93.6886 104.668 93.6914 103.321V97.0572C93.6857 95.7097 92.5923 94.6176 91.2432 94.6147H40.3222C38.9703 94.6204 37.8768 95.7097 37.874 97.0572V103.321C37.8797 104.668 38.9731 105.758 40.3222 105.763Z" fill="#2ED8A7"/>
<path d="M63.299 97.2983H93.6914V103.08H63.299V97.2983Z" fill="white"/>
<path d="M86.6192 73.4465H35.701C34.3491 73.4522 33.2556 74.5415 33.2528 75.889V82.1526C33.2584 83.5 34.3519 84.5922 35.701 84.595H86.6192C87.9711 84.5893 89.0645 83.5 89.0674 82.1526V75.889C89.073 74.5472 87.9881 73.4522 86.6419 73.4465C86.6334 73.4465 86.6248 73.4465 86.6163 73.4465H86.6192Z" fill="#2ED8A7"/>
<path d="M33.2838 76.1301H63.6763V81.9115H33.2838V76.1301Z" fill="white"/>
<path d="M83.8243 49.4932H32.9061C31.5542 49.4988 30.4607 50.5882 30.4579 51.9356V58.1992C30.4636 59.5467 31.557 60.6388 32.9061 60.6417H83.8243C85.1762 60.636 86.2696 59.5467 86.2725 58.1992V51.9356C86.2668 50.5882 85.1733 49.496 83.8243 49.4932Z" fill="#2ED8A7"/>
<path d="M30.4211 52.1765H60.8135V57.9578H30.4211V52.1765Z" fill="white"/>
<path d="M86.6189 60.6443H35.7007C34.3488 60.65 33.2554 61.7393 33.2525 63.0867V71.4495C33.2582 72.797 34.3517 73.8863 35.7007 73.892H86.6189C87.9708 73.8863 89.0643 72.797 89.0671 71.4495V63.0867C89.087 61.7563 88.0191 60.6613 86.6871 60.6443C86.6643 60.6443 86.6416 60.6443 86.6189 60.6443Z" fill="#94D5F1"/>
<path d="M33.2838 63.3279H63.6763V71.2084H33.2838V63.3279Z" fill="white"/>
<path d="M37.7005 119.839L38.1492 120.528C38.3253 120.784 38.5213 121.025 38.7343 121.252L43.8068 126.001C46.9025 128.965 51.8217 128.866 54.7953 125.776C57.5503 122.911 57.6923 118.432 55.1219 115.402L51.4667 111.065L50.4329 109.173L37.7033 119.842L37.7005 119.839Z" fill="#94D5F1"/>
<path d="M34.0451 49.4932L41.563 92.6177L29.836 79.8834L34.0451 49.4932Z" fill="black"/>
<path d="M50.4297 109.136L34.664 79.8834L33.5961 46.2252C33.3689 40.7247 28.7139 36.4497 23.1983 36.6766C17.7509 36.9007 13.4907 41.4424 13.6214 46.8776L14.7574 82.8762L14.7915 83.2903C14.837 84.8505 15.3283 86.3682 16.2059 87.6618L37.7314 119.839L50.4297 109.136Z" fill="#036EC2"/>
<path d="M34.664 80.2607C34.7492 80.255 34.8315 80.2323 34.9054 80.1926C35.0559 80.0763 35.0843 79.8578 34.965 79.7075C34.9565 79.6962 34.948 79.6876 34.9395 79.6763L32.4913 76.5785C32.3606 76.4225 32.1306 76.4027 31.9743 76.5332C31.8181 76.6637 31.7983 76.8934 31.9289 77.0495L31.9403 77.0608L34.3885 80.1585C34.4708 80.2124 34.5674 80.2465 34.664 80.2607Z" fill="black"/>
<path d="M50.9813 0.0141602H31.4893C31.211 0.0141602 30.9838 0.241101 30.9838 0.519104V11.1882C30.9838 11.4662 31.211 11.6931 31.4893 11.6931H50.9813C51.2596 11.6931 51.4868 11.4662 51.4868 11.1882V0.519104C51.4868 0.241101 51.2596 0.0141602 50.9813 0.0141602Z" fill="#036EC2"/>
<path d="M24.4252 6.39974L25.1977 0.754579H25.1835C24.9762 0.754579 24.8057 0.584374 24.8029 0.37729C24.8029 0.167369 24.9733 0 25.1835 0H57.3709C57.5811 0 57.7486 0.170206 57.7515 0.37729C57.7515 0.584374 57.5811 0.754579 57.3709 0.754579H25.9361L25.1494 6.50186C25.1068 6.67774 24.9506 6.8054 24.7688 6.81107H24.7347C24.5359 6.78554 24.3968 6.60683 24.4223 6.40825V6.3969L24.4252 6.39974Z" fill="#036EC2"/>
</svg>
