<svg width="252" height="251" viewBox="0 0 252 251" fill="none" xmlns="http://www.w3.org/2000/svg">
<path d="M8.3377 151.455C13.6659 151.389 18.9196 150.193 23.7513 147.946C27.6822 146.094 32.0247 145.289 36.3583 145.607C39.9119 145.856 43.4416 144.864 46.3456 142.8C46.9537 142.379 47.936 142.075 47.6788 141.046C47.4215 140.017 46.6262 140.321 45.9947 140.181C42.5509 139.243 38.8791 139.653 35.7267 141.327C31.7418 143.375 27.2523 144.236 22.7924 143.806C17.6256 143.549 12.4695 144.494 7.72955 146.566C6.25601 147.198 4.82928 148.016 3.40252 148.788C2.95812 149.045 2.39675 149.396 2.46692 149.981C2.53709 150.566 3.37912 150.823 4.01063 150.917L8.3377 151.501" fill="#0FADE8"/>
<path d="M169.935 191.312C169.702 191.491 169.529 191.737 169.441 192.017C169.353 192.298 169.354 192.599 169.444 192.879C169.95 196.669 171.781 200.157 174.613 202.726C177.918 205.55 180.405 209.209 181.817 213.321C183.631 218.595 186.725 223.336 190.822 227.121C192.036 228.567 193.671 229.598 195.5 230.068C196.482 227.986 195.313 226.185 194.634 224.384C192.787 219.415 189.761 214.968 185.816 211.427C182.336 208.397 179.735 204.487 178.285 200.106C177.601 198.137 176.507 196.335 175.076 194.819C173.644 193.303 171.908 192.108 169.982 191.312" fill="#0FADE8"/>
<path d="M42.3922 111.482C43.1875 111.482 44.4037 111.482 45.62 111.225C46.8362 110.967 47.7016 111.225 47.9589 109.938C48.2162 108.652 47.1871 108.629 46.462 108.254C45.7369 107.88 44.3101 107.132 43.1874 106.64C38.8133 104.78 34.1172 103.795 29.3643 103.74C28.4287 103.74 27.4697 103.74 26.5342 103.74C22.6136 104.077 18.6799 103.264 15.2137 101.401C11.5057 99.6071 7.26483 99.2488 3.3084 100.395C2.93417 100.395 2.4664 100.653 2.55996 101.167C2.60867 101.552 2.79074 101.908 3.07453 102.173C5.47267 104.239 8.56581 105.317 11.7286 105.19C17.6965 105.041 23.6116 106.341 28.9666 108.979C33.2309 110.783 37.8344 111.645 42.4624 111.505" fill="#0FADE8"/>
<path d="M95.9315 200.503C95.9315 200.176 95.9315 199.638 95.7911 199.1C95.6508 198.562 95.2298 198.585 94.8555 198.702C94.468 198.805 94.1137 199.007 93.8264 199.287C90.9674 202.03 89.1138 205.654 88.5638 209.578C88.1242 213.634 86.5517 217.484 84.0262 220.688C81.0127 224.732 78.8558 229.348 77.6877 234.254C77.2683 236.238 77.0566 238.26 77.0562 240.288C77.0562 240.78 77.0562 241.411 77.7578 241.575C78.0254 241.617 78.2994 241.582 78.5479 241.475C78.7964 241.367 79.0091 241.191 79.1612 240.967C81.8549 238.097 83.9747 234.739 85.4062 231.073C86.5435 228.184 87.3288 225.168 87.7452 222.091C88.2152 218.173 89.7524 214.46 92.1891 211.356C94.5437 208.253 95.8245 204.468 95.8379 200.573" fill="#0FADE8"/>
<path d="M200.553 155.244H199.454C199.322 155.268 199.199 155.325 199.097 155.411C198.994 155.496 198.915 155.606 198.868 155.731C198.821 155.856 198.807 155.991 198.828 156.123C198.848 156.255 198.903 156.379 198.986 156.484C201.361 159.506 204.767 161.546 208.552 162.214C213.55 162.918 218.272 164.936 222.235 168.062C227.355 171.692 233.375 173.845 239.637 174.283C240.268 174.283 241.134 174.587 241.461 173.886C241.788 173.184 241.18 172.342 240.596 171.804C238.508 169.847 236.144 168.208 233.579 166.939C230.425 165.342 227.038 164.252 223.545 163.711C218.939 163.13 214.567 161.348 210.868 158.542C207.857 156.341 204.211 155.183 200.483 155.244" fill="#0FADE8"/>
<path d="M230.281 194.866C230.017 194.284 229.712 193.721 229.368 193.182C226.614 189.475 223.066 186.43 218.983 184.271C217.187 183.328 215.336 182.492 213.44 181.768C209.479 180.322 205.942 177.91 203.149 174.751C200.425 171.694 196.703 169.704 192.647 169.138C192.455 169.109 192.258 169.124 192.072 169.18C191.886 169.237 191.715 169.334 191.571 169.465C191.479 169.638 191.431 169.831 191.431 170.027C191.431 170.223 191.479 170.415 191.571 170.588C193.416 173.941 196.417 176.509 200.015 177.815C204.666 179.352 208.803 182.145 211.967 185.885C216.238 190.658 221.899 193.971 228.152 195.357C228.674 195.474 229.209 195.521 229.743 195.498C229.906 195.498 230.047 195.17 230.327 194.843" fill="#0FADE8"/>
<path d="M182.472 69.8026C182.945 69.6982 183.407 69.5494 183.852 69.3582C187.666 67.5849 191.067 65.0357 193.84 61.8735C195.423 60.0218 196.885 58.0685 198.214 56.0262C200.462 52.3385 203.608 49.2807 207.359 47.1382C209.989 45.6801 212.093 43.4293 213.37 40.7061C213.955 39.4431 215.311 38.3671 214.539 36.6831C213.205 36.7227 211.912 37.1538 210.82 37.9227C208.235 39.1715 206.084 41.1678 204.646 43.6532C202.373 47.6829 199.051 51.0213 195.033 53.3131C189.65 56.5301 185.275 61.1886 182.402 66.762C182.046 67.5053 181.786 68.2914 181.63 69.1009C181.63 69.4986 181.864 69.826 182.472 69.9897" fill="#0FADE8"/>
<path d="M230.538 55.5352C226.617 55.5463 222.834 56.9847 219.896 59.5816C219.393 60.0381 218.924 60.5306 218.493 61.0551C215.722 64.2718 212.146 66.6936 208.131 68.0719C204.924 69.2002 201.893 70.775 199.126 72.7498C196.565 74.5477 194.307 76.7427 192.437 79.2521C192.127 79.5487 191.896 79.918 191.765 80.3265C191.635 80.735 191.608 81.1697 191.688 81.5911C193.264 81.93 194.908 81.7409 196.366 81.0531C201.515 79.2486 206.136 76.1947 209.815 72.1651C212.917 68.531 216.965 65.827 221.51 64.353C223.562 63.6755 225.437 62.5464 226.995 61.0487C228.554 59.551 229.756 57.7229 230.515 55.6989" fill="#0FADE8"/>
<path d="M214.867 214.139C214.799 213.756 214.697 213.381 214.563 213.016C212.877 209.287 210.496 205.913 207.546 203.076C205.255 200.754 202.677 198.734 199.874 197.065C196.768 195.354 194.224 192.778 192.553 189.65C190.517 185.904 187.194 183.021 183.198 181.534C182.73 181.347 182.239 180.949 181.748 181.534C181.567 181.739 181.452 181.994 181.419 182.265C181.385 182.536 181.435 182.811 181.56 183.054C182.842 186.662 185.318 189.724 188.577 191.732C192.518 193.903 195.762 197.147 197.933 201.088C200.866 206.016 204.992 210.126 209.932 213.04C211.162 213.891 212.57 214.451 214.048 214.677C214.235 214.677 214.469 214.443 214.727 214.279" fill="#0FADE8"/>
<path d="M49.9013 155.549C46.5414 155.348 43.221 156.36 40.5455 158.403C36.7264 161.258 32.2427 163.093 27.5175 163.735C21.7161 164.6 16.2588 167.025 11.7296 170.752C10.7707 171.571 8.99309 172.343 9.88189 173.91C10.5134 175.009 12.2208 174.424 13.2967 174.237C19.3767 173.442 25.1552 171.117 30.0904 167.478C33.5543 164.82 37.6635 163.133 41.9956 162.589C45.5227 162.086 48.7558 160.345 51.1175 157.678C51.4683 157.28 51.9361 156.882 51.7724 156.298C51.6087 155.713 50.6965 155.666 50.0884 155.572C49.4802 155.479 49.5504 155.572 49.8311 155.572" fill="#0FADE8"/>
<path d="M22.3017 55.4883C21.6702 55.4883 21.2726 55.6286 21.1556 56.0496C21.1035 56.1716 21.0767 56.3029 21.0767 56.4356C21.0767 56.5682 21.1035 56.6995 21.1556 56.8215C23.0349 60.3276 26.1412 63.0175 29.8799 64.3762C34.3071 65.7166 38.2434 68.3272 41.2004 71.8842C44.4759 75.5298 48.5175 78.4053 53.0355 80.3045C53.6482 80.6057 54.2813 80.8636 54.93 81.0764C56.5439 81.4974 58.1344 82.3862 59.8886 81.4974C59.7015 79.7431 58.3215 78.714 57.3158 77.5211C53.7417 73.6554 49.3566 70.6282 44.4749 68.6566C43.6095 68.2823 42.6973 67.9783 41.8085 67.6274C38.3707 66.3353 35.3308 64.1662 32.9907 61.3356C30.5276 58.3895 27.1243 56.3823 23.3543 55.652C22.98 55.652 22.559 55.5351 22.3719 55.4883" fill="#0FADE8"/>
<path d="M228.105 143.784C223.858 144.119 219.602 143.252 215.825 141.281C212.135 139.484 207.907 139.125 203.967 140.275C203.839 140.313 203.722 140.382 203.628 140.477C203.534 140.571 203.465 140.688 203.428 140.816C203.39 140.944 203.386 141.08 203.415 141.21C203.444 141.34 203.505 141.461 203.593 141.562C203.95 141.955 204.35 142.308 204.785 142.614C208.055 144.858 212.028 145.839 215.966 145.374C219.343 144.998 222.759 145.59 225.813 147.082C227.918 148.017 230.046 148.929 232.221 149.655C237.245 151.333 242.61 151.719 247.822 150.777C248.012 150.739 248.192 150.663 248.353 150.555C248.513 150.446 248.651 150.307 248.758 150.146C249.109 149.514 248.547 149.14 248.126 148.859C244.83 146.708 241.129 145.251 237.25 144.579C234.242 143.963 231.174 143.696 228.105 143.784" fill="#0FADE8"/>
<path d="M37.4583 36.5667C36.78 36.5667 36.5695 36.9175 36.5695 37.3619C36.5094 37.6236 36.5094 37.8954 36.5695 38.1571C37.906 41.9068 40.5346 45.0578 43.9839 47.0451C47.6867 49.0721 50.749 52.094 52.8252 55.7694C55.4361 60.4005 59.1271 64.3323 63.5843 67.2302C65.2605 68.5831 67.2592 69.4777 69.3849 69.8265C69.9462 67.3004 68.2388 65.5461 67.0459 63.6984C64.1912 59.5476 60.513 56.0286 56.24 53.3603C54.9068 52.4481 53.5035 51.5827 52.2404 50.5769C50.1154 48.8792 48.3636 46.7612 47.0947 44.3553C45.2461 40.991 42.274 38.3832 38.6979 36.9876C38.2067 36.7771 37.6688 36.6836 37.3413 36.5667" fill="#0FADE8"/>
<path d="M174.239 238.558C173.776 233.088 171.985 227.813 169.023 223.191C168.598 222.497 168.137 221.826 167.643 221.18C164.928 217.822 163.21 213.77 162.684 209.485C162.163 205.557 160.275 201.938 157.351 199.264C157.059 198.991 156.675 198.841 156.275 198.843C155.574 198.843 155.574 199.521 155.527 200.059C155.157 203.867 156.272 207.671 158.638 210.678C161.494 214.314 163.291 218.669 163.83 223.261C164.684 229.179 167.107 234.759 170.847 239.423C171.456 240.138 172.121 240.802 172.835 241.411C172.947 241.477 173.073 241.516 173.203 241.525C173.333 241.533 173.463 241.512 173.583 241.462C173.703 241.412 173.81 241.335 173.895 241.237C173.981 241.139 174.042 241.023 174.075 240.897C174.075 240.242 174.075 239.564 174.075 238.558" fill="#0FADE8"/>
<path d="M95.9308 50.3426C95.3977 44.8629 93.682 39.5641 90.9021 34.812C89.9325 33.1929 88.8704 31.6309 87.7211 30.134C85.9227 27.7418 84.8144 24.9023 84.5167 21.9243C84.1475 17.3976 82.0138 13.1974 78.5758 10.2296C78.2717 9.97228 77.8975 9.59816 77.5233 9.90222C77.2672 10.1857 77.1182 10.5497 77.1022 10.9314C76.6472 14.6193 77.6734 18.3371 79.9558 21.2695C82.9256 25.1784 84.7843 29.8169 85.3354 34.695C86.2931 40.3413 88.6671 45.6525 92.2352 50.1321C92.8402 50.8579 93.5138 51.5237 94.2467 52.1202C94.4033 52.2341 94.5821 52.3138 94.7715 52.3541C94.9609 52.3944 95.1566 52.3944 95.346 52.3541C95.8138 52.3541 95.8606 51.8161 95.884 51.4185C95.9074 51.0208 95.884 50.8571 95.884 50.366" fill="#0FADE8"/>
<path d="M174.286 11.6798C174.286 11.3991 174.286 11.1183 174.286 10.8611C174.286 10.6038 174.286 9.66825 173.584 9.59808C173.188 9.58192 172.799 9.70608 172.485 9.94884C169.412 12.6805 167.441 16.4396 166.942 20.5209C166.567 24.4484 165.082 28.1881 162.661 31.3034C159.215 35.7023 156.909 40.8847 155.949 46.3897C155.775 47.3154 155.681 48.2545 155.668 49.1964C155.668 50.2022 154.943 51.5354 156.276 52.0499C157.609 52.5645 158.077 51.0442 158.615 50.2489C162.51 45.6818 165.025 40.1005 165.866 34.157C166.33 29.6797 168.03 25.4199 170.778 21.8541C173.083 18.9732 174.293 15.3684 174.192 11.6798" fill="#0FADE8"/>
<path d="M203.102 109.775C203.827 110.944 205.09 110.968 206.26 111.085C210.86 111.57 215.511 111.059 219.896 109.588C223.358 108.465 226.913 107.249 230.211 105.892C231.986 105.222 233.909 105.044 235.777 105.378C240.263 105.912 244.783 104.707 248.408 102.01C248.735 101.776 249.039 101.425 248.782 100.98C248.665 100.74 248.466 100.549 248.221 100.443C244.381 99.494 240.345 99.7305 236.643 101.121C236.002 101.354 235.389 101.66 234.818 102.033C232.478 103.442 229.751 104.073 227.03 103.834C223.641 103.615 220.24 103.749 216.879 104.232C212.157 104.985 207.623 106.637 203.523 109.097C203.317 109.294 203.144 109.523 203.009 109.775" fill="#0FADE8"/>
<path d="M111.578 41.4545C111.559 36.2914 110.401 31.1961 108.187 26.532C106.229 22.8004 105.354 18.5957 105.661 14.3929C105.93 10.5718 104.9 6.77193 102.737 3.6104C102.363 3.00227 101.848 2.44091 101.123 2.72158C100.892 2.8493 100.693 3.02681 100.539 3.24122C100.385 3.45564 100.281 3.70152 100.234 3.96115C99.457 7.42619 99.8095 11.0491 101.24 14.2994C103.514 18.7945 104.525 23.8229 104.164 28.8476C103.894 34.5472 105.196 40.2113 107.929 45.2202C108.382 46.0392 108.898 46.8212 109.473 47.5592C109.561 47.6574 109.672 47.7329 109.795 47.7792C109.919 47.8255 110.051 47.8413 110.182 47.8253C110.313 47.8092 110.438 47.7617 110.547 47.6868C110.656 47.612 110.745 47.512 110.806 47.3954C111.469 45.465 111.732 43.4197 111.578 41.3844" fill="#0FADE8"/>
<path d="M11.7293 76.8895H11.0042C10.7317 76.8625 10.4583 76.932 10.2318 77.0859C10.0053 77.2397 9.83995 77.4682 9.7646 77.7315C9.74182 77.9291 9.76133 78.1293 9.82181 78.3189C9.8823 78.5084 9.98237 78.6829 10.1154 78.8308C12.548 81.5811 15.8504 83.4139 19.4712 84.0232C24.1865 84.5868 28.6669 86.3951 32.4524 89.2625C37.1909 92.696 42.7163 94.8836 48.5209 95.6245C49.784 95.7882 51.5382 96.4431 52.0995 94.876C52.6609 93.3089 50.9067 92.8879 49.9945 92.1628C45.0447 88.3493 39.1664 85.9269 32.9669 85.146C28.9277 84.6548 25.109 83.0334 21.9505 80.4681C19.0022 78.2041 15.3995 76.9567 11.6825 76.9129" fill="#0FADE8"/>
<path d="M169.912 59.6977C170.186 59.7481 170.469 59.7343 170.736 59.6571C171.004 59.58 171.251 59.4418 171.456 59.2533C175.402 56.3528 178.647 52.6043 180.952 48.2836C181.778 46.7283 182.497 45.1185 183.104 43.4654C184.551 39.0731 187.191 35.1697 190.729 32.1917C190.935 32.0167 191.13 31.8292 191.314 31.6303C192.719 30.2623 193.828 28.62 194.573 26.8054C195.317 24.9908 195.681 23.0426 195.641 21.0817C195.641 21.0817 195.407 20.8711 195.36 20.9179C193.533 21.639 191.879 22.7394 190.508 24.1465C189.137 25.5536 188.081 27.2355 187.408 29.081C185.607 34.0574 182.611 38.515 178.683 42.062C174.408 46.0684 171.304 51.162 169.702 56.7974C169.514 57.5625 169.428 58.3488 169.444 59.1364C169.444 59.3235 169.772 59.5106 169.912 59.6509" fill="#0FADE8"/>
<path d="M82.0383 190.866C79.9354 191.685 78.0432 192.966 76.5009 194.613C74.9587 196.261 73.8057 198.233 73.1269 200.386C71.7271 204.497 69.3139 208.189 66.11 211.121C63.3103 213.685 60.8852 216.63 58.9061 219.869C57.2926 222.69 56.125 225.743 55.4445 228.921C55.4092 229.111 55.4182 229.308 55.4709 229.494C55.5237 229.681 55.6187 229.853 55.7485 229.997C55.9275 230.082 56.1233 230.126 56.3216 230.126C56.5198 230.126 56.7156 230.082 56.8946 229.997C59.1965 228.559 61.2436 226.749 62.9525 224.641C65.7255 221.313 67.9016 217.53 69.3846 213.46C70.0972 211.416 71.0305 209.455 72.1679 207.613C73.3202 205.942 74.7066 204.446 76.2845 203.169C79.1762 200.484 81.1692 196.971 81.9915 193.112C82.0527 192.396 82.0527 191.676 81.9915 190.96" fill="#0FADE8"/>
<path d="M201.184 95.8347C206.502 95.414 211.646 93.7474 216.2 90.9697C217.497 90.2541 218.733 89.4327 219.895 88.5138C222.836 86.0785 226.452 84.6012 230.257 84.2803C234.191 83.8394 237.856 82.0648 240.642 79.2516C240.939 78.9701 241.213 78.665 241.461 78.3394C241.526 78.2271 241.565 78.1012 241.574 77.9715C241.582 77.8418 241.561 77.7118 241.511 77.5918C241.461 77.4717 241.384 77.3648 241.286 77.2794C241.188 77.194 241.072 77.1325 240.946 77.0997C240.283 76.9726 239.608 76.9254 238.934 76.9594C235.117 77.1152 231.455 78.5111 228.503 80.9356C225.89 83.1156 222.709 84.5033 219.334 84.9352C215.992 85.4644 212.71 86.3183 209.534 87.4847C205.717 88.8396 202.255 91.0382 199.406 93.9168C199.115 94.1999 198.947 94.5864 198.938 94.9927C198.938 95.6008 199.617 95.6944 200.155 95.7646H201.254" fill="#0FADE8"/>
<path d="M34.2763 122.429C31.1246 122.414 27.9828 122.783 24.9205 123.529C20.8841 124.733 16.5839 124.733 12.5475 123.529C8.99763 122.475 5.19058 122.698 1.78836 124.16C1.28661 124.366 0.8083 124.625 0.361606 124.932C0.250596 125.004 0.159364 125.103 0.0962189 125.219C0.033074 125.336 0 125.466 0 125.599C0 125.731 0.033074 125.861 0.0962189 125.978C0.159364 126.094 0.250596 126.193 0.361606 126.265C3.41623 127.783 6.83981 128.399 10.232 128.043C10.7712 128.011 11.3048 127.917 11.8224 127.762C16.5254 126.324 21.5508 126.324 26.2538 127.762C31.8301 129.13 37.6721 128.968 43.1643 127.294C44.1808 126.966 45.1734 126.567 46.1348 126.101C46.26 126.047 46.3665 125.957 46.4413 125.843C46.5162 125.728 46.5561 125.595 46.5561 125.458C46.5561 125.322 46.5162 125.188 46.4413 125.074C46.3665 124.96 46.26 124.87 46.1348 124.815C44.6261 124.14 43.0607 123.6 41.4569 123.201C39.0965 122.646 36.6776 122.379 34.253 122.406" fill="#0FADE8"/>
<path d="M144.184 226.207C143.506 232.534 144.549 238.926 147.201 244.709C147.783 245.931 148.464 247.105 149.236 248.217C149.357 248.372 149.514 248.496 149.693 248.578C149.872 248.659 150.069 248.696 150.265 248.685C150.546 248.685 150.803 248.147 150.967 247.796C151.332 246.777 151.491 245.696 151.435 244.615C151.675 238.914 150.636 233.232 148.394 227.985C147.833 226.582 147.318 225.202 146.734 223.822C145.649 221.336 145.199 218.619 145.424 215.916C145.787 211.81 144.784 207.699 142.57 204.221C142.196 203.637 141.798 202.958 141.05 203.169C140.699 203.169 140.348 203.987 140.278 204.479C139.422 208.211 139.842 212.123 141.471 215.589C143.423 218.757 144.369 222.443 144.184 226.161" fill="#0FADE8"/>
<path d="M37.4571 214.28C38.2861 214.387 39.1246 214.169 39.7961 213.671C43.8678 211.459 47.461 208.462 50.3681 204.854C51.6322 203.262 52.8036 201.598 53.8766 199.872C55.7891 196.569 58.5832 193.864 61.9459 192.06C65.5353 190.053 68.2955 186.837 69.7346 182.984C69.9451 182.493 70.1556 181.885 69.5709 181.534C69.3935 181.458 69.2025 181.419 69.0095 181.419C68.8166 181.419 68.6256 181.458 68.4482 181.534C64.8282 182.787 61.7321 185.216 59.6538 188.434C59.3376 188.872 59.056 189.333 58.8117 189.814C57.3357 192.763 55.0151 195.206 52.1457 196.831C49.6751 198.28 47.3282 199.931 45.1289 201.766C41.5975 204.769 38.7841 208.526 36.8958 212.759C36.5215 213.578 36.8958 214.35 37.4338 214.373" fill="#0FADE8"/>
<path d="M56.1689 21.2698C55.9116 21.5271 55.631 21.644 55.5374 21.8545C55.455 22.1132 55.455 22.3911 55.5374 22.6498C56.1456 26.4305 58.0172 29.8932 60.8468 32.4733C64.1959 35.2534 66.6862 38.9279 68.0274 43.0688C69.657 47.6739 72.1942 51.9051 75.4886 55.5119C76.8853 57.1722 78.5836 58.5531 80.494 59.5817C80.6438 59.6528 80.8092 59.6847 80.9747 59.6747C81.1402 59.6646 81.3005 59.6128 81.4406 59.5241C81.5807 59.4353 81.6961 59.3126 81.7759 59.1672C81.8558 59.0219 81.8975 58.8587 81.8973 58.6929C81.8099 58.022 81.6771 57.3577 81.4997 56.7048C79.6099 50.4444 75.9946 44.843 71.068 40.5427C67.968 37.9099 65.6872 34.444 64.4956 30.5553C63.2799 26.7747 60.682 23.5921 57.2214 21.6439C56.8824 21.4882 56.5302 21.3631 56.1689 21.2698" fill="#0FADE8"/>
<path d="M59.0459 169.092C54.6386 169.763 50.6158 171.986 47.702 175.36C45.524 177.972 42.6906 179.958 39.4923 181.114C36.972 182.099 34.505 183.216 32.1013 184.459C28.1204 186.538 24.6528 189.479 21.9502 193.066C21.6756 193.356 21.4611 193.698 21.3187 194.072C21.2428 194.249 21.2036 194.44 21.2036 194.633C21.2036 194.826 21.2428 195.017 21.3187 195.194C21.4584 195.333 21.6284 195.436 21.8152 195.497C22.0019 195.558 22.2003 195.575 22.3946 195.545C23.8475 195.228 25.2774 194.814 26.6749 194.306C31.2284 192.524 35.3622 189.816 38.814 186.353C39.8588 185.308 40.8879 184.233 41.9014 183.125C44.0362 180.844 46.7795 179.221 49.8071 178.448C54.0003 177.178 57.5591 174.371 59.771 170.589C59.8575 170.414 59.9026 170.222 59.9026 170.027C59.9026 169.833 59.8575 169.64 59.771 169.466C59.6072 169.209 59.0927 169.185 58.9524 169.139" fill="#0FADE8"/>
<path d="M125.893 46.46C126.932 45.0864 127.623 43.4812 127.905 41.7821C129.064 36.1909 128.944 30.4098 127.554 24.8715C126.559 20.9195 126.607 16.777 127.694 12.8494C128.794 8.75217 128.362 4.39428 126.478 0.59318C126.36 0.347462 126.162 0.149393 125.917 0.0318551C125.496 -0.108482 125.168 0.242435 125.004 0.546498C123.332 3.67527 122.701 7.25578 123.203 10.7677C123.346 11.8441 123.573 12.9076 123.882 13.9486C124.719 17.0983 124.719 20.412 123.882 23.5617C122.606 28.2833 122.233 33.2032 122.782 38.0632C123.033 40.3511 123.543 42.6031 124.303 44.7759C124.404 45.178 124.599 45.5506 124.871 45.8634C125.144 46.1763 125.486 46.4208 125.87 46.577" fill="#0FADE8"/>
<path d="M101.217 248.685C102.036 248.545 102.34 247.914 102.691 247.352C105.457 242.797 107.063 237.633 107.369 232.313C107.369 230.418 107.486 228.524 107.369 226.629C107.204 223.08 108.013 219.554 109.708 216.431C111.634 212.648 112.132 208.297 111.111 204.175C111.111 203.684 111.111 202.982 110.316 202.982C109.928 203.064 109.585 203.29 109.357 203.614C106.7 207.115 105.478 211.499 105.942 215.87C106.29 218.575 105.927 221.324 104.89 223.846C103.837 226.629 102.784 229.412 101.709 232.196C100.18 236.569 99.6837 241.236 100.258 245.832C100.247 246.358 100.341 246.881 100.534 247.371C100.726 247.861 101.014 248.308 101.381 248.685" fill="#0FADE8"/>
<path d="M204.786 125.142C204.792 125.451 204.894 125.751 205.078 125.998C205.263 126.246 205.521 126.429 205.816 126.522C209.125 128.17 212.909 128.601 216.505 127.738C221.227 126.44 226.213 126.44 230.936 127.738C236.325 129.06 241.964 128.972 247.308 127.481C248.221 127.224 249.109 126.896 249.998 126.592C250.513 126.405 251.004 126.148 251.121 125.54C251.238 124.932 250.56 124.698 250.139 124.511C245.603 122.653 240.659 122.016 235.801 122.663C233.378 122.886 230.977 123.301 228.62 123.903C225.215 124.919 221.578 124.854 218.212 123.715C216.015 123.019 213.693 122.803 211.406 123.084C209.03 123.216 206.721 123.913 204.669 125.119" fill="#0FADE8"/>
<path d="M151.411 7.56294C151.533 6.07225 151.333 4.57275 150.826 3.16571C150.757 3.05266 150.666 2.95499 150.558 2.87891C150.45 2.80283 150.327 2.74995 150.198 2.72359C150.068 2.69723 149.934 2.69795 149.805 2.72573C149.676 2.75351 149.553 2.80779 149.446 2.88505C149.053 3.2454 148.707 3.65397 148.417 4.10121C146.49 7.24349 145.568 10.8993 145.774 14.5798C146.086 18.619 145.276 22.6658 143.435 26.2745C140.793 31.8096 139.617 37.9305 140.02 44.0505C140.003 45.1314 140.202 46.2048 140.605 47.208C140.668 47.3245 140.756 47.4256 140.862 47.5038C140.969 47.582 141.092 47.6353 141.222 47.6599C141.352 47.6846 141.486 47.6799 141.614 47.6462C141.742 47.6126 141.86 47.5508 141.962 47.4654C142.405 46.9632 142.805 46.4232 143.154 45.8515C145.587 41.5521 146.996 36.7499 147.271 31.8178C147.411 29.245 147.552 26.6722 147.458 24.0993C147.256 21.1132 147.966 18.1362 149.493 15.5621C150.97 13.0987 151.656 10.2413 151.458 7.37579" fill="#0FADE8"/>
<path d="M125.659 204.549C125.36 204.711 125.096 204.931 124.884 205.196C124.671 205.461 124.513 205.766 124.42 206.093C122.854 209.743 122.574 213.817 123.624 217.647C124.654 221.303 124.654 225.172 123.624 228.828C122.074 234.618 121.994 240.704 123.391 246.533C123.513 248.144 124.201 249.66 125.332 250.814C127.414 250.112 127.273 248.101 127.671 246.533C128.924 240.82 128.819 234.892 127.367 229.225C126.403 225.269 126.46 221.132 127.531 217.203C128.659 213.102 128.147 208.724 126.104 204.994C126.104 204.807 125.706 204.713 125.519 204.549" fill="#0FADE8"/>
<rect x="55" y="54" width="142" height="142" rx="70" fill="#0FADE8"/>
<g clip-path="url(#clip0_107_2581)">
<path d="M112.816 158.998C101.319 158.998 92 149.499 92 137.78V118.259C92.0008 118.035 92.0444 117.814 92.1285 117.607C92.2126 117.401 92.3355 117.214 92.4902 117.056C92.6448 116.899 92.8282 116.774 93.0299 116.689C93.2315 116.604 93.4475 116.561 93.6655 116.562H131.967C132.185 116.561 132.401 116.604 132.603 116.689C132.805 116.774 132.988 116.899 133.143 117.056C133.297 117.214 133.42 117.401 133.504 117.607C133.588 117.814 133.632 118.035 133.633 118.259V137.78C133.633 149.499 124.312 158.998 112.816 158.998Z" fill="white"/>
<path d="M112.817 136.584C115.829 136.584 118.271 134.094 118.271 131.024C118.271 127.953 115.829 125.464 112.817 125.464C109.805 125.464 107.364 127.953 107.364 131.024C107.364 134.094 109.805 136.584 112.817 136.584Z" fill="black"/>
<path d="M112.816 145.36C112.058 145.357 111.333 145.048 110.796 144.5C110.259 143.952 109.953 143.21 109.946 142.433V134.971C109.949 134.193 110.253 133.447 110.79 132.897C111.328 132.347 112.057 132.039 112.816 132.039C113.574 132.038 114.301 132.346 114.84 132.894C115.378 133.442 115.682 134.186 115.688 134.964V142.425C115.682 143.204 115.377 143.949 114.84 144.498C114.302 145.048 113.575 145.357 112.816 145.36Z" fill="black"/>
<path d="M130.58 110.833V109.106C130.58 102.553 135.809 97.2239 142.237 97.2239C148.664 97.2239 153.895 102.545 153.895 109.106V110.833H160V109.106C160 99.1219 152.032 91 142.237 91C132.442 91 124.474 99.1258 124.474 109.106V110.833H130.58Z" fill="white"/>
<path d="M130.58 110.803H124.474V116.562H130.58V110.803Z" fill="black"/>
<path d="M160 116.562L156.947 113.682L160 110.803H153.895V116.562H160Z" fill="black"/>
</g>
<defs>
<clipPath id="clip0_107_2581">
<rect width="68" height="68" fill="white" transform="translate(92 91)"/>
</clipPath>
</defs>
</svg>
