<svg width="312" height="646" viewBox="0 0 312 646" fill="none" xmlns="http://www.w3.org/2000/svg">
<path d="M126.262 24.8201C124.404 24.8201 122.898 23.3161 122.898 21.4608C122.898 19.6056 124.404 18.1016 126.262 18.1016C128.119 18.1016 129.625 19.6056 129.625 21.4608C129.625 23.3161 128.119 24.8201 126.262 24.8201Z" fill="#2ED8A7"/>
<path d="M99.1064 150.101C103.144 159.957 107.524 169.583 111.793 179.208C116.061 188.834 120.543 198.358 125.033 207.984C129.524 217.498 134.125 227.013 138.727 236.537L145.684 250.759L152.753 264.98L153.538 266.549C153.76 267.02 154.018 267.472 154.323 267.897L162.177 280.328L170.142 292.639C175.409 300.816 180.805 308.983 186.191 317.16L194.276 329.36L198.314 335.405L202.463 341.45C207.96 349.516 213.458 357.573 219.187 365.639L221.432 368.777C222.291 369.986 223.308 371.084 224.463 372.025C230.071 376.39 235.8 380.755 241.408 385.01C252.561 393.417 268.444 391.221 276.871 380.091C284.438 370.105 283.532 356.096 274.736 347.172C269.793 342.022 264.748 337.094 259.592 332.064L264.868 338.442C260.599 329.711 256.118 320.972 251.517 312.241L248.153 305.744L244.79 299.247L237.943 286.262C233.342 277.642 228.741 269.023 224.028 260.514L216.96 247.75L209.781 234.987L211.351 237.783L205.068 223.23L198.674 208.685C194.406 199.059 190.035 189.535 185.545 179.799C181.054 170.284 176.564 160.649 171.962 151.245C167.361 141.73 162.759 132.326 157.705 122.922C149.565 107.067 130.078 100.801 114.186 108.922C99.1341 116.619 92.5647 134.578 99.1249 150.128L99.1064 150.101Z" fill="#036EC2"/>
<path d="M298.88 646L201.908 645.548C196.863 645.548 192.373 640.731 192.031 635.692L191.245 623.482L252.524 624.377L299.554 636.024C305.052 637.371 304.488 645.991 298.88 645.991V646Z" fill="black"/>
<path d="M64.4201 230.271L132.434 400.57L138.495 423.863L142.764 440.318L191.587 626.065L252.08 624.497C254.778 599.191 242.877 498.533 235.467 440.318C234.682 434.605 234.007 429.234 233.443 424.417C231.42 409.217 227.059 394.414 220.535 380.525C219.528 378.513 218.623 376.492 217.505 374.48C190.571 323.085 153.196 214.259 151.062 202.049L64.4201 230.262V230.271Z" fill="#2ED8A7"/>
<path d="M138.495 380.645V423.974L142.764 440.429H235.355C234.57 434.716 233.896 429.345 233.332 424.528C231.355 409.319 227.003 394.506 220.424 380.635H138.495V380.645Z" fill="black"/>
<path d="M106.396 645.326L9.4249 644.874C4.31531 644.902 0.148148 640.795 0.111183 635.691L0.000312805 625.946L61.2786 624.266L107.745 635.802C113.132 637.371 112.005 645.326 106.396 645.326Z" fill="black"/>
<path d="M60.4927 218.957L51.2899 422.174L-0.000198364 626.066L60.7144 624.497C64.0777 607.137 130.308 475.581 142.533 440.318C144.371 434.984 145.619 429.465 146.238 423.863L147.698 226.247L60.4927 218.966V218.957Z" fill="#2ED8A7"/>
<path d="M142.422 407.62L55.7804 323.316L57.8039 269.909L112.457 328.798L142.422 407.62Z" fill="black"/>
<path d="M142.422 441.666C142.93 441.666 143.383 441.361 143.549 440.881C150.506 425.202 146.469 392.292 146.247 390.944C146.145 390.298 145.535 389.855 144.889 389.957C144.251 390.058 143.808 390.649 143.891 391.286C144.002 391.618 148.039 424.879 141.424 439.995C141.156 440.577 141.424 441.26 142.006 441.527C142.034 441.537 142.071 441.555 142.098 441.564C142.2 441.62 142.32 441.656 142.431 441.675L142.422 441.666Z" fill="black"/>
<path d="M172.276 204.181C170.373 172.721 148.817 175.295 155.894 153.682C162.963 132.077 151.625 102.849 127.39 104.308C108.762 105.424 91.6962 101.733 76.6631 113.269C47.2621 135.999 59.6065 145.625 54.4414 209.22L172.286 204.181H172.276Z" fill="#036EC2"/>
<path d="M54.4322 209.109C55.4393 225.684 74.2977 249.642 103.366 248.184L126.715 246.283C153.206 244.936 173.182 220.193 172.055 202.169L54.4322 209.109Z" fill="#2ED8A7"/>
<path d="M126.262 103.191C133.348 103.652 140.14 106.19 145.794 110.472L123.573 120.993L126.271 103.191H126.262Z" fill="black"/>
<path d="M114.139 122.673L85.967 112.595L96.6297 70.4932L134.79 70.2717L127.158 112.927C127.491 118.215 123.462 122.774 118.158 123.106C118.094 123.106 118.02 123.106 117.955 123.116C116.662 123.245 115.359 123.088 114.139 122.663V122.673Z" fill="#94D5F1"/>
<path d="M130.53 94.4606L113.806 88.1851L127.269 112.937L130.53 94.4606Z" fill="black"/>
<path d="M59.375 170.709L76.6626 174.852L54.4409 209.23C55.3279 196.309 56.9819 183.444 59.375 170.718V170.709Z" fill="black"/>
<path d="M112.91 95.6879L134.568 98.8257C147.255 100.699 159.054 91.9594 160.93 79.3068V79.233L162.851 66.2388L163.859 58.8466L165.208 49.221C167.554 31.2802 154.877 14.8438 136.897 12.4997C119.277 10.211 103.033 22.3099 100.224 39.8076L95.5118 72.3944C93.8949 83.6074 101.675 94.0175 112.91 95.6786V95.6879Z" fill="#94D5F1"/>
<path d="M159.71 63.6639C160.08 65.0483 161.309 66.045 162.741 66.128L163.748 58.7358C163.147 58.6066 162.528 58.6435 161.956 58.8465C160.052 59.6125 159.063 61.7167 159.71 63.6639Z" fill="black"/>
<path d="M169.92 76.5476C176.739 76.5476 182.265 71.0288 182.265 64.2272C182.265 57.4256 176.73 51.916 169.911 51.916C163.092 51.916 157.567 57.4348 157.567 64.2364C157.548 71.0196 163.046 76.5384 169.846 76.5568C169.874 76.5568 169.893 76.5568 169.92 76.5568V76.5476ZM169.92 54.3801C175.372 54.3801 179.798 58.7915 179.798 64.2364C179.798 69.6814 175.372 74.0928 169.92 74.0928C164.469 74.0928 160.043 69.6814 160.043 64.2364C160.089 58.8191 164.487 54.4355 169.92 54.3893V54.3801Z" fill="black"/>
<path d="M152.863 72.5145C153.02 72.5329 153.177 72.496 153.315 72.4037L156.799 70.9456C158.554 69.9212 159.137 67.6786 158.111 65.9251C158.083 65.879 158.055 65.8328 158.028 65.7959L154.212 59.6403C153.851 59.0589 153.094 58.8836 152.512 59.2343C151.957 59.5757 151.763 60.2956 152.077 60.8678L156.004 67.0234C156.383 67.614 156.208 68.3984 155.616 68.7768C155.598 68.786 155.579 68.8045 155.551 68.8137L152.41 70.1611C151.791 70.4011 151.486 71.0932 151.726 71.7023V71.73C151.874 72.2192 152.345 72.5514 152.853 72.5052L152.863 72.5145Z" fill="black"/>
<path d="M152.189 84.6042C154.212 84.6042 156.116 83.4875 157.797 81.2449C158.204 80.7189 158.111 79.9714 157.585 79.5653C157.058 79.1592 156.31 79.2515 155.903 79.7776V79.796C154.656 81.3649 153.418 82.1494 152.189 82.1494C149.611 82.0386 147.356 78.7901 147.356 78.7901C146.996 78.2271 146.248 78.061 145.684 78.4209C145.12 78.7809 144.954 79.5284 145.314 80.0914L145.342 80.1283C145.453 80.239 148.262 84.3827 152.189 84.4935C152.115 84.5673 152.115 84.6042 152.189 84.6042Z" fill="black"/>
<path d="M142.201 63.3318C140.154 63.3318 138.495 61.679 138.495 59.6402C138.495 57.6015 140.154 55.9487 142.201 55.9487C144.247 55.9487 145.906 57.6015 145.906 59.6402C145.906 61.679 144.247 63.3318 142.201 63.3318Z" fill="black"/>
<path d="M165.54 38.1372C163.295 50.4576 152.189 50.5683 140.731 39.0324C137.941 36.2083 133.376 36.153 130.521 38.9216C129.57 39.8353 128.904 40.9981 128.609 42.2809L126.816 49.3317C126.058 52.1372 123.887 54.3429 121.097 55.155L114.139 57.0561L108.42 71.7207C106.101 77.5994 99.9376 81.0233 93.71 79.8974C93.71 79.8974 98.7549 49.3317 101.12 36.3468C103.476 23.3619 116.264 9.81404 137.035 11.2722C161.733 13.0533 165.549 38.1372 165.549 38.1372H165.54Z" fill="black"/>
<path d="M142.2 72.5144C149.388 72.5144 155.219 66.7003 155.219 59.5203C155.219 52.3495 149.388 46.5354 142.2 46.5354C135.011 46.5354 129.181 52.3495 129.181 59.5203C129.107 66.6172 134.817 72.4314 141.932 72.5052C142.024 72.5052 142.117 72.5052 142.2 72.5052V72.5144ZM142.2 49.1102C148.03 49.1102 152.752 53.8261 152.752 59.631C152.752 65.4359 148.03 70.1518 142.2 70.1518C136.37 70.1518 131.648 65.4359 131.648 59.631C131.648 53.8261 136.351 49.1102 142.172 49.1102C142.172 49.1102 142.191 49.1102 142.2 49.1102Z" fill="black"/>
<path d="M159.6 61.6522C160.191 61.6338 160.699 61.2185 160.838 60.6463C160.967 60.0464 160.598 59.4558 159.997 59.3266C159.942 59.3174 159.886 59.3081 159.831 59.2989L154.102 58.4037C153.446 58.3207 152.855 58.7821 152.772 59.4281C152.689 60.0649 153.132 60.6555 153.77 60.757L159.498 61.6522H159.609H159.6Z" fill="black"/>
<path d="M130.753 57.9608C131.418 57.9423 131.945 57.3886 131.926 56.7241C131.917 56.2165 131.575 55.7643 131.085 55.6074L117.956 51.0207C117.309 50.79 116.597 51.1223 116.366 51.7683C116.135 52.4143 116.468 53.1249 117.115 53.3556C117.133 53.3556 117.152 53.3741 117.18 53.3741L130.309 57.9608C130.531 57.85 130.642 57.9608 130.762 57.9608H130.753Z" fill="black"/>
<path d="M116.052 44.0714C113.021 43.5915 110.157 45.6403 109.658 48.6673L108.42 56.6133C107.93 59.6403 109.99 62.492 113.021 62.9996C116.052 63.4795 118.916 61.4307 119.415 58.4037L120.653 50.4577C121.152 47.4307 119.092 44.5698 116.061 44.0806L116.052 44.0714Z" fill="#94D5F1"/>
<path d="M304.035 344.698H138.384C133.986 344.717 130.429 348.261 130.42 352.644V391.83C130.438 396.214 133.996 399.767 138.384 399.776H304.035C308.433 399.757 311.991 396.214 312 391.83V352.644C311.982 348.261 308.424 344.708 304.035 344.698Z" fill="#036EC2"/>
<path d="M130.42 353.318H244.559V390.935H130.42V353.318Z" fill="white"/>
<path d="M294.5 275.843H125.255C121.854 275.871 119.11 278.612 119.082 281.999V302.939C119.11 306.326 121.854 309.067 125.255 309.094H294.5C297.9 309.067 300.644 306.326 300.672 302.939V281.999C300.644 278.612 297.9 275.871 294.5 275.843Z" fill="#94D5F1"/>
<path d="M119.757 283.789H198.656V300.364H119.757V283.789Z" fill="white"/>
<path d="M130.863 344.699H296.524C300.912 344.681 304.479 341.137 304.488 336.753V316.376C304.47 311.992 300.912 308.439 296.524 308.43H130.863C126.465 308.448 122.908 311.992 122.899 316.376V336.753C122.917 341.137 126.475 344.681 130.863 344.699Z" fill="#2ED8A7"/>
<path d="M205.613 317.16H304.488V335.968H205.613V317.16Z" fill="white"/>
<path d="M281.482 239.564H115.831C111.433 239.583 107.875 243.127 107.866 247.51V267.888C107.884 272.271 111.442 275.824 115.831 275.834H281.482C285.88 275.815 289.437 272.271 289.446 267.888V247.51C289.465 243.145 285.935 239.583 281.555 239.564C281.528 239.564 281.5 239.564 281.472 239.564H281.482Z" fill="#2ED8A7"/>
<path d="M107.967 248.295H206.842V267.103H107.967V248.295Z" fill="white"/>
<path d="M272.389 161.637H106.738C102.34 161.655 98.783 165.199 98.7738 169.583V189.96C98.7922 194.344 102.35 197.897 106.738 197.906H272.389C276.787 197.887 280.345 194.344 280.354 189.96V169.583C280.336 165.199 276.778 161.646 272.389 161.637Z" fill="#2ED8A7"/>
<path d="M98.6529 170.367H197.528V189.175H98.6529V170.367Z" fill="white"/>
<path d="M281.481 197.915H115.83C111.432 197.933 107.875 201.477 107.866 205.861V233.067C107.884 237.451 111.441 240.995 115.83 241.013H281.481C285.879 240.995 289.437 237.451 289.446 233.067V205.861C289.511 201.533 286.036 197.97 281.703 197.915C281.629 197.915 281.555 197.915 281.481 197.915Z" fill="#94D5F1"/>
<path d="M107.967 206.646H206.842V232.283H107.967V206.646Z" fill="white"/>
<path d="M122.335 390.492L123.795 392.734C124.368 393.565 125.006 394.349 125.699 395.088L142.201 410.537C152.272 420.181 168.276 419.858 177.95 409.808C186.912 400.486 187.374 385.914 179.012 376.058L167.121 361.947L163.757 355.792L122.345 390.501L122.335 390.492Z" fill="#94D5F1"/>
<path d="M110.443 161.637L134.901 301.933L96.7498 260.505L110.443 161.637Z" fill="black"/>
<path d="M163.748 355.672L112.458 260.505L108.984 151.005C108.245 133.111 93.1006 119.203 75.157 119.941C57.4351 120.67 43.5754 135.446 44.0004 153.128L47.6964 270.241L47.8072 271.588C47.9551 276.664 49.5536 281.602 52.4086 285.81L122.437 390.492L163.748 355.672Z" fill="#036EC2"/>
<path d="M112.457 261.732C112.735 261.714 113.003 261.64 113.243 261.511C113.733 261.132 113.825 260.422 113.437 259.932C113.409 259.896 113.381 259.868 113.354 259.831L105.389 249.753C104.964 249.246 104.216 249.181 103.707 249.605C103.199 250.03 103.135 250.777 103.56 251.285L103.596 251.322L111.561 261.4C111.829 261.575 112.143 261.686 112.457 261.732Z" fill="black"/>
<path d="M165.54 0.668457H102.128C101.222 0.668457 100.483 1.40676 100.483 2.31118V37.0206C100.483 37.925 101.222 38.6633 102.128 38.6633H165.54C166.446 38.6633 167.185 37.925 167.185 37.0206V2.31118C167.185 1.40676 166.446 0.668457 165.54 0.668457Z" fill="#036EC2"/>
<path d="M79.1482 21.4424L81.6615 3.07717H81.6153C80.9408 3.07717 80.3864 2.52344 80.3771 1.84974C80.3771 1.16681 80.9315 0.622314 81.6153 0.622314H186.33C187.013 0.622314 187.559 1.17604 187.568 1.84974C187.568 2.52344 187.013 3.07717 186.33 3.07717H84.0638L81.5044 21.7747C81.3658 22.3469 80.8576 22.7622 80.2663 22.7806H80.1554C79.5086 22.6975 79.0558 22.1161 79.139 21.4701V21.4332L79.1482 21.4424Z" fill="#036EC2"/>
</svg>
