<svg width="72" height="72" viewBox="0 0 72 72" fill="none" xmlns="http://www.w3.org/2000/svg">
<circle cx="36" cy="36" r="36" fill="#EAF9FF"/>
<path d="M19.1298 50C18.8291 50 18.5831 49.9043 18.3918 49.713C18.2005 49.5217 18.1048 49.2757 18.1048 48.975V46.515C18.1048 46.2963 18.1595 46.0093 18.2688 45.654C18.4055 45.2713 18.6925 44.9023 19.1298 44.547L24.5418 39.176C26.5371 37.6453 28.1498 36.347 29.3798 35.281C30.6371 34.215 31.5665 33.2447 32.1678 32.37C32.7691 31.4953 33.0698 30.648 33.0698 29.828C33.0698 28.762 32.7691 27.8873 32.1678 27.204C31.5938 26.4933 30.6508 26.138 29.3388 26.138C28.4641 26.138 27.7261 26.3293 27.1248 26.712C26.5508 27.0673 26.0998 27.5457 25.7718 28.147C25.4438 28.7483 25.2251 29.4043 25.1158 30.115C25.0338 30.4703 24.8561 30.7163 24.5828 30.853C24.3368 30.9897 24.0771 31.058 23.8038 31.058H19.4578C19.1845 31.058 18.9658 30.976 18.8018 30.812C18.6378 30.6207 18.5558 30.4157 18.5558 30.197C18.5831 28.9397 18.8428 27.7507 19.3348 26.63C19.8541 25.5093 20.5785 24.5117 21.5078 23.637C22.4371 22.7623 23.5578 22.079 24.8698 21.587C26.1818 21.0677 27.6715 20.808 29.3388 20.808C31.6348 20.808 33.5618 21.1907 35.1198 21.956C36.6778 22.694 37.8531 23.719 38.6458 25.031C39.4385 26.343 39.8348 27.86 39.8348 29.582C39.8348 30.894 39.5615 32.1103 39.0148 33.231C38.4955 34.3517 37.7301 35.4313 36.7188 36.47C35.7075 37.4813 34.5048 38.5337 33.1108 39.627L28.2728 44.465H39.4248C39.7255 44.465 39.9715 44.5607 40.1628 44.752C40.3541 44.9433 40.4498 45.1893 40.4498 45.49V48.975C40.4498 49.2757 40.3541 49.5217 40.1628 49.713C39.9715 49.9043 39.7255 50 39.4248 50H19.1298ZM45.6891 50C45.3885 50 45.1425 49.9043 44.9511 49.713C44.7598 49.5217 44.6641 49.2757 44.6641 48.975V44.383C44.6641 44.0823 44.7598 43.8363 44.9511 43.645C45.1425 43.4537 45.3885 43.358 45.6891 43.358H50.2811C50.5818 43.358 50.8278 43.4537 51.0191 43.645C51.2105 43.8363 51.3061 44.0823 51.3061 44.383V48.975C51.3061 49.2757 51.2105 49.5217 51.0191 49.713C50.8278 49.9043 50.5818 50 50.2811 50H45.6891Z" fill="black"/>
</svg>
