<svg width="142" height="277" viewBox="0 0 142 277" fill="none" xmlns="http://www.w3.org/2000/svg">
<path d="M60.9901 57.1937C61.9884 57.1108 62.9918 57.1108 63.9901 57.1937C67.789 57.7381 71.3991 59.1965 74.5101 61.4437C77.7263 63.7423 80.2817 66.8461 81.9201 70.4437C83.3545 73.3677 84.084 76.587 84.0501 79.8437C84.0501 80.3637 84.0501 80.8837 84.0501 81.4037C84.1169 84.1336 83.5808 86.8447 82.4801 89.3437C80.2431 94.9482 75.9509 99.4872 70.4801 102.034C67.9118 103.242 65.1341 103.941 62.3001 104.094C59.5224 104.286 56.7329 103.967 54.0701 103.154C52.0163 102.547 50.0523 101.669 48.2301 100.544C46.0102 99.1767 44.0304 97.4537 42.3701 95.4437C40.6311 93.2735 39.2565 90.835 38.3001 88.2237C37.374 85.5397 36.9338 82.7122 37.0001 79.8737C37.0171 77.1322 37.5497 74.4183 38.5701 71.8737C40.0847 67.7669 42.7684 64.1933 46.2901 61.5937C48.71 59.7903 51.4527 58.4665 54.3701 57.6937C56.5344 57.1443 58.7723 56.9418 61.0001 57.0937L60.9901 57.1937ZM60.5901 110.314C64.5364 110.338 68.4482 109.578 72.0988 108.079C75.7494 106.58 79.066 104.371 81.8566 101.58C84.6471 98.7897 86.856 95.473 88.3551 91.8224C89.8543 88.1719 90.614 84.26 90.5901 80.3137C90.6063 76.3667 89.8371 72.4559 88.3274 68.809C86.8178 65.1621 84.5977 61.8519 81.7965 59.0712C78.9953 56.2905 75.669 54.0948 72.0111 52.6119C68.3532 51.129 64.4369 50.3886 60.4901 50.4337C56.5558 50.4176 52.6575 51.1841 49.0222 52.6886C45.3869 54.1931 42.0871 56.4057 39.3148 59.1974C36.5426 61.9892 34.3533 65.3044 32.8743 68.9502C31.3954 72.5961 30.6563 76.4996 30.7001 80.4337C30.6882 84.3609 31.453 88.2518 32.9504 91.8823C34.4478 95.5129 36.6483 98.8116 39.4252 101.589C42.2022 104.366 45.5009 106.566 49.1315 108.063C52.762 109.561 56.6529 110.326 60.5801 110.314" fill="#036EC2"/>
<path d="M3.14026 129.944H-3.29974C-3.64974 129.944 -3.99974 129.944 -4.29974 129.944C-4.91974 130.004 -5.05974 130.164 -5.12974 130.834V131.004C-5.30974 135.754 -5.43975 140.504 -5.20975 145.254C-5.20975 145.424 -5.20975 145.604 -5.20975 145.774C-5.21538 145.949 -5.15295 146.12 -5.03554 146.25C-4.91812 146.381 -4.75479 146.461 -4.57974 146.474C-4.17918 146.534 -3.77474 146.564 -3.36973 146.564H9.51025C9.80006 146.579 10.0905 146.579 10.3803 146.564C11.1003 146.494 11.2903 146.334 11.3803 145.624C11.467 144.991 11.5138 144.353 11.5203 143.714C11.5203 139.664 11.5203 135.604 11.4603 131.544C11.4557 131.209 11.4323 130.875 11.3903 130.544C11.3732 130.399 11.3039 130.265 11.1953 130.167C11.0867 130.07 10.9463 130.015 10.8003 130.014C10.5105 129.999 10.2201 129.999 9.93025 130.014H3.14026" fill="#0FADE8"/>
<path d="M118.58 14.3636C116.26 14.3636 113.94 14.3636 111.58 14.3636C110.58 14.3636 110.34 14.6036 110.26 15.5536C110.26 15.8936 110.26 16.2436 110.26 16.5536C110.26 20.5536 110.26 24.5536 110.26 28.5536C110.26 28.9536 110.26 29.3637 110.26 29.7637C110.32 30.4737 110.52 30.6737 111.26 30.7637C112 30.8537 112.41 30.8737 112.99 30.8837C117.05 30.8837 121.11 30.8837 125.17 30.8837C126.86 30.8837 126.97 30.7436 126.98 29.1036C126.98 24.5836 126.98 20.1036 126.98 15.5436C126.98 14.6036 126.79 14.4236 125.88 14.3536C125.47 14.3536 125.07 14.3536 124.66 14.3536L118.58 14.3636Z" fill="#0FADE8"/>
<path d="M127.03 138.124V131.684C127.03 131.334 127.03 130.984 127.03 130.684C127.028 130.507 126.961 130.337 126.841 130.208C126.72 130.079 126.556 129.999 126.38 129.984C126.091 129.969 125.8 129.969 125.51 129.984H112.11C111.76 129.984 111.41 129.984 111.11 130.034C110.964 130.036 110.824 130.096 110.721 130.201C110.618 130.306 110.56 130.447 110.56 130.594C110.48 131.694 110.37 132.794 110.36 133.894C110.36 137.134 110.27 140.384 110.36 143.634C110.47 147.104 110.23 146.634 113.36 146.634C117.07 146.634 120.78 146.634 124.5 146.634H125.71C126.89 146.574 127.02 146.464 127.02 145.314C127.02 142.934 127.02 140.554 127.02 138.184L127.03 138.124Z" fill="#0FADE8"/>
<path d="M3.0202 14.3237H-3.4198C-3.8298 14.3237 -4.2398 14.3237 -4.6398 14.3237C-4.787 14.3308 -4.92646 14.3918 -5.03159 14.4951C-5.13671 14.5983 -5.20015 14.7367 -5.20981 14.8837C-5.265 15.2848 -5.29506 15.6889 -5.2998 16.0938C-5.2998 20.4438 -5.2998 24.7938 -5.2998 29.0938C-5.2998 30.7738 -5.20981 30.8537 -3.51981 30.8637H9.71021C9.9502 30.8637 10.1802 30.8637 10.4102 30.8637C11.0702 30.8137 11.2402 30.6737 11.3202 30.0537C11.3987 29.4199 11.4421 28.7823 11.4502 28.1437C11.4502 26.5237 11.4502 24.9038 11.4502 23.2838C11.4502 20.7338 11.3902 18.1837 11.3602 15.6237C11.3602 15.3937 11.3602 15.1637 11.3602 14.9337C11.3661 14.8468 11.3533 14.7597 11.3228 14.6782C11.2922 14.5966 11.2445 14.5226 11.1829 14.461C11.1214 14.3994 11.0473 14.3517 10.9658 14.3212C10.8842 14.2906 10.7971 14.2778 10.7102 14.2838H9.4902H3.0502" fill="#0FADE8"/>
<path d="M113.67 5.42369C113.67 6.70369 113.67 7.9737 113.67 9.2437C113.67 9.7937 113.86 9.9837 114.38 10.0537C114.898 10.1219 115.419 10.1553 115.94 10.1537C117.94 10.1537 119.88 10.1537 121.85 10.1037C122.2 10.1037 122.54 10.1037 122.85 10.0437C123.026 10.0358 123.194 9.96647 123.323 9.84764C123.453 9.72881 123.537 9.56815 123.56 9.39372C123.612 9.10996 123.639 8.8222 123.64 8.53374C123.64 6.27374 123.64 4.01705 123.64 1.76372C123.655 1.53062 123.655 1.2968 123.64 1.0637C123.64 0.798488 123.535 0.544148 123.348 0.356612C123.16 0.169076 122.906 0.0637043 122.64 0.0637043C122.307 0.0451715 121.973 0.0451715 121.64 0.0637043H115.73C115.397 0.0451715 115.063 0.0451715 114.73 0.0637043C114.465 0.0637043 114.211 0.169076 114.023 0.356612C113.836 0.544148 113.73 0.798488 113.73 1.0637C113.73 1.5837 113.73 2.0637 113.73 2.6237V5.40373L113.67 5.42369Z" fill="#036EC2"/>
<path d="M118.41 35.1538C117.14 35.1538 115.86 35.1538 114.58 35.1538C113.99 35.1538 113.77 35.3837 113.69 35.9837C113.67 36.2734 113.67 36.5641 113.69 36.8537V43.6337C113.693 43.9217 113.717 44.2091 113.76 44.4937C113.778 44.6381 113.842 44.7728 113.943 44.8774C114.044 44.982 114.177 45.051 114.32 45.0737C114.491 45.1118 114.665 45.1352 114.84 45.1438L121.84 45.2437C122.128 45.242 122.415 45.2253 122.7 45.1937C123.42 45.1237 123.61 44.9537 123.7 44.2537C123.745 43.9694 123.765 43.6816 123.76 43.3938V36.7838C123.76 36.6738 123.76 36.5537 123.76 36.4337C123.68 35.4337 123.47 35.1938 122.5 35.1538C121.53 35.1138 120.5 35.1538 119.5 35.1538H118.5H118.41Z" fill="#036EC2"/>
<path d="M118.56 150.774C117.28 150.774 116.01 150.774 114.73 150.774C113.92 150.774 113.73 150.984 113.65 151.774C113.635 152.06 113.635 152.347 113.65 152.634C113.65 154.834 113.65 157.044 113.65 159.244C113.652 159.531 113.669 159.818 113.7 160.104C113.707 160.25 113.769 160.388 113.872 160.492C113.976 160.595 114.114 160.656 114.26 160.664C114.43 160.674 114.6 160.674 114.77 160.664C117.38 160.664 119.99 160.664 122.6 160.664C123.42 160.664 123.6 160.444 123.68 159.664C123.76 158.884 123.68 157.924 123.68 157.054C123.68 155.324 123.68 153.584 123.68 151.844C123.68 150.924 123.46 150.724 122.54 150.694C121.2 150.694 119.87 150.694 118.54 150.694L118.56 150.774Z" fill="#036EC2"/>
<path d="M131.24 138.374C131.24 139.654 131.24 140.924 131.24 142.204C131.24 142.784 131.49 143.024 132.06 143.124C132.348 143.17 132.639 143.197 132.93 143.204C135.13 143.284 137.33 143.204 139.53 143.114C139.822 143.097 140.113 143.06 140.4 143.004C140.545 142.992 140.681 142.93 140.783 142.827C140.886 142.724 140.949 142.588 140.96 142.444C140.96 142.334 140.96 142.214 141.01 142.104C141.32 139.514 141.34 136.898 141.07 134.304C140.98 133.374 140.8 133.304 139.86 133.154C139.744 133.143 139.627 133.143 139.51 133.154H132.51C132.397 133.144 132.283 133.144 132.17 133.154C131.51 133.244 131.35 133.364 131.28 134.004C131.21 134.644 131.18 135.384 131.16 136.074C131.14 136.764 131.16 137.584 131.16 138.334L131.24 138.374Z" fill="#036EC2"/>
<path d="M2.80022 115.714H-1.02979C-1.23519 115.697 -1.43883 115.762 -1.59622 115.895C-1.75361 116.029 -1.85196 116.218 -1.86978 116.424C-1.96246 116.875 -2.01599 117.333 -2.02979 117.794C-2.02979 119.794 -2.02979 121.734 -2.02979 123.704C-2.02979 123.824 -2.02979 123.944 -2.02979 124.054C-1.93979 125.334 -1.74979 125.624 -0.489792 125.644C2.00021 125.694 4.51022 125.644 6.99022 125.644C7.57022 125.644 7.74021 125.454 7.79021 124.944C8.04847 122.231 8.07189 119.501 7.86021 116.784C7.79021 116.054 7.59021 115.784 6.79021 115.724C5.45021 115.724 4.12021 115.724 2.79021 115.724L2.80022 115.714Z" fill="#036EC2"/>
<path d="M2.90001 150.824C1.63001 150.824 0.350017 150.824 -0.919983 150.824C-1.62998 150.824 -1.80998 151.034 -1.91998 151.744C-1.9599 151.972 -1.97997 152.202 -1.97998 152.434C-1.97998 154.694 -1.97998 156.954 -1.97998 159.204C-1.96644 159.541 -1.91955 159.876 -1.83998 160.204C-1.8197 160.319 -1.76319 160.425 -1.67867 160.506C-1.59414 160.587 -1.486 160.638 -1.36998 160.654C-0.970946 160.734 -0.566495 160.784 -0.159988 160.804C1.98001 160.804 4.12002 160.804 6.27002 160.804H6.61002C7.61002 160.724 7.69002 160.604 7.80002 159.694C8.0215 157.387 8.07831 155.068 7.97002 152.754C7.95168 152.419 7.91495 152.085 7.86002 151.754C7.73002 150.964 7.66002 150.854 6.86002 150.834C5.52002 150.834 4.19002 150.834 2.86002 150.834L2.90001 150.824Z" fill="#036EC2"/>
<path d="M-1.95996 5.24368C-1.95996 6.39368 -1.95996 7.5537 -1.95996 8.7037C-1.95996 9.8537 -1.68995 10.0537 -0.619949 10.0637C1.86005 10.0637 4.38004 10.0637 6.84004 10.0637C7.59004 10.0637 7.70004 9.92371 7.84004 9.15371C8.03824 7.60547 8.10182 6.0429 8.03004 4.48367C8.03004 3.39367 8.03005 2.2937 7.88005 1.2037C7.81005 0.363702 7.75004 0.343702 6.95004 0.203702C4.93388 -0.00792675 2.90382 -0.0547633 0.880051 0.063687C0.250051 0.063687 -0.389959 0.153721 -1.01996 0.223721C-1.64996 0.293721 -1.91995 0.453721 -1.94995 1.22372C-1.94995 2.55372 -1.94995 3.88372 -1.94995 5.22372" fill="#036EC2"/>
<path d="M106.14 22.6837C106.14 21.5237 106.14 20.3638 106.14 19.2038C106.14 17.8638 106.06 17.8138 104.79 17.7638C102.7 17.6738 100.61 17.6238 98.5201 17.7638L96.9501 17.8338C96.7447 17.8335 96.547 17.9123 96.3981 18.0537C96.2491 18.1952 96.1603 18.3886 96.1501 18.5938C96.1068 18.8213 96.0834 19.0522 96.0801 19.2838C96.0801 21.7171 96.1134 24.1538 96.1801 26.5938C96.1801 27.4238 96.3901 27.5938 97.1801 27.7138C97.5864 27.7389 97.9938 27.7389 98.4001 27.7138H103.97C104.38 27.7138 104.78 27.7138 105.19 27.7138C105.88 27.6338 106.12 27.4038 106.13 26.7138C106.13 25.3838 106.13 24.0538 106.13 22.7138L106.14 22.6837Z" fill="#036EC2"/>
<path d="M-1.94971 40.2537C-1.94971 41.5237 -1.94971 42.8037 -1.94971 44.0737C-1.94971 44.8237 -1.7597 44.9537 -1.0097 45.0737C1.64701 45.3995 4.33358 45.3995 6.9903 45.0737C7.68029 44.9837 7.72029 44.9337 7.83029 44.2037C8.03868 42.3581 8.10221 40.4991 8.02029 38.6437C8.05327 37.7158 7.9862 36.7871 7.82028 35.8737C7.80206 35.7015 7.72404 35.5411 7.59979 35.4205C7.47554 35.2999 7.31294 35.2268 7.14029 35.2137C6.80882 35.1657 6.475 35.1357 6.14029 35.1237C3.99029 35.1237 1.84029 35.1237 -0.309708 35.1237C-1.68971 35.1237 -1.88971 35.3537 -1.93971 36.7537C-1.93971 37.9137 -1.93971 39.0736 -1.93971 40.2336" fill="#036EC2"/>
<path d="M113.66 120.864C113.66 122.134 113.66 123.414 113.66 124.684C113.649 124.785 113.659 124.887 113.688 124.984C113.718 125.081 113.767 125.171 113.832 125.249C113.898 125.326 113.978 125.39 114.069 125.435C114.16 125.481 114.259 125.508 114.36 125.514C114.815 125.602 115.277 125.655 115.74 125.674C117.83 125.674 119.92 125.674 122 125.674C122.29 125.674 122.58 125.674 122.87 125.624C123.016 125.619 123.156 125.566 123.267 125.471C123.378 125.376 123.453 125.247 123.48 125.104V124.934C123.77 122.221 123.77 119.486 123.48 116.774C123.41 116.104 123.29 115.974 122.67 115.854C122.341 115.781 122.007 115.741 121.67 115.734H115.41C115.18 115.718 114.95 115.718 114.72 115.734C113.96 115.844 113.72 116.094 113.64 116.844C113.64 117.844 113.64 118.934 113.64 119.974V120.844L113.66 120.864Z" fill="#036EC2"/>
<path d="M20.49 143.154C21.77 143.154 23.05 143.154 24.32 143.154C25.27 143.154 25.43 143.024 25.46 142.044C25.53 140.244 25.54 138.444 25.54 136.654C25.54 135.784 25.54 134.914 25.47 134.044C25.4714 133.957 25.4552 133.87 25.4225 133.789C25.3898 133.709 25.3413 133.635 25.2797 133.574C25.2182 133.512 25.1449 133.464 25.0642 133.431C24.9835 133.398 24.8971 133.382 24.81 133.384C22.0444 133.034 19.2457 133.034 16.48 133.384C16.01 133.444 15.72 133.634 15.66 134.114C15.5804 134.57 15.5303 135.031 15.51 135.494C15.51 137.174 15.46 138.854 15.51 140.494C15.63 143.654 15.69 143.154 18.22 143.184H20.48L20.49 143.154Z" fill="#036EC2"/>
<path d="M101.32 143.174C102.59 143.174 103.87 143.174 105.14 143.174C105.72 143.174 105.88 143.014 105.95 142.484C106.02 142.027 106.06 141.566 106.07 141.104C106.07 139.104 106.07 137.164 106.07 135.194C106.07 134.794 106.01 134.394 105.97 133.984C105.965 133.809 105.895 133.643 105.772 133.519C105.65 133.395 105.485 133.321 105.31 133.314C104.979 133.267 104.645 133.244 104.31 133.244H97.8803C97.5939 133.229 97.3068 133.229 97.0203 133.244C96.4903 133.314 96.3203 133.484 96.2703 134.024C96.0603 136.793 96.0603 139.574 96.2703 142.344C96.2703 142.904 96.4803 143.074 96.9903 143.144C97.3223 143.182 97.6562 143.202 97.9903 143.204H101.29L101.32 143.174Z" fill="#036EC2"/>
<path d="M141.21 22.6736C141.21 21.4636 141.21 20.2537 141.21 19.0337C141.21 18.1037 140.99 17.8436 140.14 17.7936C137.43 17.6636 134.71 17.6336 131.99 17.7936C131.816 17.7979 131.648 17.8666 131.521 17.9866C131.394 18.1066 131.315 18.2693 131.3 18.4436C131.24 18.7264 131.21 19.0146 131.21 19.3036V26.4136C131.27 27.3336 131.43 27.5136 132.32 27.6436C132.437 27.6534 132.554 27.6534 132.67 27.6436C135.21 27.6436 137.75 27.6437 140.3 27.5937C141.07 27.5937 141.19 27.4236 141.21 26.6436C141.21 25.3136 141.21 23.9836 141.21 22.6436V22.6736Z" fill="#036EC2"/>
<path d="M25.5802 22.5837C25.5802 21.3137 25.5802 20.0437 25.5802 18.7737C25.5802 17.9037 25.3602 17.6737 24.5802 17.6737C21.9202 17.6737 19.2502 17.6737 16.5802 17.6737C16.4779 17.6613 16.374 17.672 16.2763 17.705C16.1786 17.738 16.0896 17.7925 16.0157 17.8644C15.9419 17.9364 15.8851 18.0239 15.8495 18.1207C15.8139 18.2175 15.8005 18.3211 15.8102 18.4237C15.7202 19.8137 15.6402 21.1937 15.6302 22.5837C15.6202 23.9737 15.7002 25.2437 15.7802 26.5837C15.7802 27.3337 16.0202 27.4837 16.7202 27.5837H16.8902C19.4402 27.5837 21.9802 27.5837 24.5302 27.5837C25.4002 27.5837 25.5302 27.4237 25.5302 26.5837C25.5302 25.2537 25.5302 23.9237 25.5302 22.5837" fill="#036EC2"/>
<path d="M11.0303 10.3637L15.0303 14.2638C15.0762 14.3202 15.1342 14.3657 15.1999 14.3969C15.2656 14.4282 15.3375 14.4444 15.4103 14.4444C15.4831 14.4444 15.5549 14.4282 15.6207 14.3969C15.6864 14.3657 15.7443 14.3202 15.7903 14.2638C17.0103 13.1138 18.2303 11.9538 19.4303 10.7838C19.8103 10.4138 19.8003 10.1837 19.4303 9.73373C19.0798 9.27224 18.6989 8.8346 18.2903 8.42373C14.8703 5.19373 16.0203 5.29376 12.8303 8.32376C12.2903 8.83376 11.7803 9.39374 11.2603 9.93374C11.1863 10.0652 11.1228 10.2024 11.0703 10.3438" fill="#0FADE8"/>
<path d="M106.28 30.8037C106.126 30.8491 105.981 30.9201 105.85 31.0137C104.64 32.1837 103.45 33.3637 102.26 34.5437C102.205 34.5907 102.159 34.6483 102.126 34.7131C102.093 34.7779 102.073 34.8487 102.068 34.9212C102.062 34.9938 102.071 35.0667 102.094 35.1358C102.116 35.2049 102.153 35.2688 102.2 35.3237C103.236 36.7191 104.45 37.9731 105.81 39.0537C105.876 39.1122 105.952 39.1572 106.035 39.1859C106.118 39.2146 106.205 39.2265 106.293 39.2209C106.381 39.2154 106.466 39.1924 106.545 39.1534C106.623 39.1144 106.693 39.0601 106.75 38.9937C108.05 37.9241 109.233 36.7209 110.28 35.4037C110.47 35.1637 110.58 34.8837 110.28 34.6337C109.054 33.4004 107.817 32.1771 106.57 30.9637C106.5 30.8837 106.37 30.8637 106.23 30.8037" fill="#0FADE8"/>
<path d="M15.4304 121.524C15.2404 121.644 15.0404 121.754 14.8604 121.894C13.6433 122.971 12.4881 124.116 11.4004 125.324C11.3006 125.431 11.2451 125.572 11.2451 125.719C11.2451 125.865 11.3006 126.006 11.4004 126.114C11.6123 126.392 11.8464 126.653 12.1004 126.894C12.7504 127.564 13.3904 128.224 14.1004 128.894C15.6404 130.364 15.3204 130.524 17.1004 128.894C17.9704 128.044 18.8104 127.154 19.6604 126.284C19.8904 126.054 19.9904 125.764 19.7504 125.524C18.5171 124.284 17.2837 123.054 16.0504 121.834C15.8961 121.73 15.7277 121.649 15.5504 121.594" fill="#0FADE8"/>
<path d="M106.3 154.814C106.453 154.761 106.598 154.687 106.73 154.594C107.92 153.424 109.11 152.234 110.29 151.054C110.343 151.004 110.384 150.944 110.413 150.878C110.441 150.812 110.456 150.741 110.456 150.669C110.456 150.597 110.441 150.525 110.413 150.459C110.384 150.393 110.343 150.333 110.29 150.284C109.139 148.913 107.871 147.645 106.5 146.494C106.445 146.447 106.38 146.411 106.311 146.389C106.241 146.367 106.168 146.359 106.096 146.366C106.023 146.372 105.952 146.393 105.888 146.427C105.824 146.461 105.766 146.507 105.72 146.564C104.53 147.724 103.34 148.914 102.16 150.094C102.108 150.144 102.066 150.205 102.037 150.272C102.008 150.339 101.994 150.411 101.994 150.484C101.994 150.557 102.008 150.629 102.037 150.696C102.066 150.763 102.108 150.823 102.16 150.874C103.249 152.294 104.516 153.568 105.93 154.664C106.036 154.729 106.151 154.779 106.27 154.814" fill="#0FADE8"/>
<path d="M130.93 130.164C132.576 128.953 134.058 127.534 135.34 125.944C135.34 125.844 135.29 125.704 135.22 125.634C134.02 124.387 132.817 123.144 131.61 121.904C131.34 121.624 131.04 121.514 130.72 121.834C129.5 123.054 128.284 124.284 127.07 125.524C127.017 125.572 126.974 125.632 126.944 125.698C126.915 125.764 126.9 125.836 126.9 125.909C126.9 125.981 126.915 126.053 126.944 126.119C126.974 126.185 127.017 126.245 127.07 126.294L130.92 130.194" fill="#0FADE8"/>
<path d="M106.2 14.4638C106.361 14.4301 106.514 14.3656 106.65 14.2738C107.85 13.1038 109.04 11.9138 110.22 10.7238C110.52 10.4138 110.4 10.0837 110.22 9.79372C109.488 8.82041 108.653 7.92865 107.73 7.13375C106.09 5.66375 106.31 5.55375 104.73 7.13375C103.88 8.01375 103.01 8.86377 102.15 9.72377C101.93 9.94377 101.81 10.2238 102.06 10.4738C103.32 11.7538 104.6 13.0138 105.88 14.2738C105.98 14.3482 106.091 14.4057 106.21 14.4437" fill="#0FADE8"/>
<path d="M15.5203 154.804C15.6726 154.747 15.8145 154.666 15.9403 154.564C17.1403 153.394 18.3203 152.204 19.5103 151.024C19.5805 150.973 19.6377 150.906 19.6771 150.828C19.7165 150.751 19.7371 150.665 19.7371 150.579C19.7371 150.492 19.7165 150.406 19.6771 150.329C19.6377 150.252 19.5805 150.185 19.5103 150.134L15.9303 146.584C15.877 146.515 15.8088 146.46 15.7308 146.422C15.6528 146.383 15.5671 146.364 15.4803 146.364C15.3935 146.364 15.3078 146.383 15.2298 146.422C15.1518 146.46 15.0836 146.515 15.0303 146.584L11.4403 150.114C11.3383 150.22 11.2812 150.361 11.2812 150.509C11.2812 150.656 11.3383 150.797 11.4403 150.904C12.5226 152.336 13.798 153.611 15.2303 154.694C15.34 154.754 15.4579 154.798 15.5803 154.824" fill="#0FADE8"/>
<path d="M106.3 129.944C106.468 129.897 106.627 129.823 106.77 129.724L110.33 126.194C110.413 126.11 110.459 125.996 110.459 125.879C110.459 125.761 110.413 125.648 110.33 125.564C109.208 124.097 107.897 122.785 106.43 121.664C106.344 121.586 106.232 121.542 106.115 121.542C105.999 121.542 105.887 121.586 105.8 121.664C105.351 122.025 104.927 122.416 104.53 122.834C103.67 123.834 102.53 124.544 101.93 125.764C102.734 126.738 103.614 127.647 104.56 128.484C104.95 128.904 105.39 129.284 105.82 129.674C105.959 129.773 106.11 129.854 106.27 129.914" fill="#0FADE8"/>
<path d="M131.01 146.324C129.572 147.464 128.234 148.726 127.01 150.094C126.958 150.144 126.916 150.205 126.887 150.272C126.859 150.339 126.844 150.411 126.844 150.484C126.844 150.557 126.859 150.629 126.887 150.696C126.916 150.763 126.958 150.823 127.01 150.874C128.08 152.234 129.298 153.471 130.64 154.564C130.689 154.617 130.748 154.66 130.815 154.69C130.881 154.719 130.953 154.734 131.025 154.734C131.098 154.734 131.169 154.719 131.236 154.69C131.302 154.66 131.362 154.617 131.41 154.564C132.64 153.344 133.86 152.124 135.08 150.884C135.122 150.844 135.155 150.797 135.177 150.745C135.2 150.692 135.212 150.636 135.212 150.579C135.212 150.522 135.2 150.465 135.177 150.413C135.155 150.36 135.122 150.313 135.08 150.274C134.931 150.097 134.77 149.93 134.6 149.774L130.99 146.354" fill="#0FADE8"/>
<path d="M10.6903 91.5437C12.9684 91.5156 15.2145 91.0043 17.2803 90.0437C18.9609 89.2519 20.8175 88.9074 22.6703 89.0437C24.1896 89.1499 25.6987 88.7258 26.9403 87.8437C27.2003 87.6637 27.6203 87.5337 27.5103 87.0937C27.4003 86.6537 27.0603 86.7837 26.7903 86.7237C25.3179 86.3228 23.7481 86.498 22.4003 87.2137C20.6965 88.0894 18.7771 88.4573 16.8703 88.2737C14.6613 88.1637 12.4568 88.5676 10.4303 89.4537C9.80029 89.7237 9.1903 90.0737 8.5803 90.4037C8.3903 90.5137 8.15029 90.6637 8.18029 90.9137C8.21029 91.1637 8.5703 91.2737 8.8403 91.3137L10.6903 91.5637" fill="#0FADE8"/>
<path d="M126.72 34.9437C126.978 35.4841 127.358 35.9567 127.83 36.3237C128.71 37.2337 129.62 38.1237 130.53 39.0137C130.98 39.4537 131.14 39.4737 131.53 39.0937C132.69 37.9737 133.837 36.837 134.97 35.6837C135.39 35.2637 135.38 35.0537 134.97 34.6837C133.81 33.4837 132.63 32.2936 131.46 31.1036C131.407 31.0351 131.339 30.9797 131.261 30.9415C131.183 30.9034 131.097 30.8835 131.01 30.8835C130.924 30.8835 130.838 30.9034 130.76 30.9415C130.682 30.9797 130.614 31.0351 130.56 31.1036C129.203 32.3355 127.912 33.6373 126.69 35.0037" fill="#0FADE8"/>
<path d="M11.1401 34.9437L15.1401 38.9437C15.1889 38.9974 15.2483 39.0402 15.3146 39.0696C15.3809 39.0989 15.4526 39.1141 15.5251 39.1141C15.5976 39.1141 15.6694 39.0989 15.7357 39.0696C15.802 39.0402 15.8614 38.9974 15.9101 38.9437C17.2134 37.887 18.4062 36.701 19.4701 35.4037C19.5337 35.343 19.5842 35.2701 19.6188 35.1893C19.6533 35.1085 19.6711 35.0215 19.6711 34.9337C19.6711 34.8458 19.6533 34.7589 19.6188 34.6781C19.5842 34.5973 19.5337 34.5244 19.4701 34.4637C18.3001 33.2637 17.1101 32.0837 15.9201 30.8937C15.8338 30.8157 15.7215 30.7725 15.6051 30.7725C15.4888 30.7725 15.3765 30.8157 15.2901 30.8937C14.9446 31.1163 14.6108 31.3566 14.2901 31.6136C13.1529 32.6377 12.0995 33.7513 11.1401 34.9437Z" fill="#0FADE8"/>
<path d="M79.78 108.584C79.6802 108.66 79.6065 108.766 79.5689 108.885C79.5314 109.005 79.5317 109.134 79.57 109.254C79.7863 110.874 80.5692 112.365 81.78 113.464C83.193 114.671 84.2566 116.236 84.86 117.994C85.6358 120.248 86.9586 122.276 88.71 123.894C89.2289 124.512 89.9282 124.953 90.71 125.154C91.13 124.264 90.63 123.494 90.34 122.724C89.5503 120.599 88.2566 118.698 86.57 117.184C85.0821 115.888 83.9699 114.217 83.35 112.344C83.0574 111.502 82.5897 110.731 81.9779 110.083C81.366 109.435 80.6237 108.924 79.8 108.584" fill="#0FADE8"/>
<path d="M131.14 5.94373C130.989 5.9833 130.847 6.05117 130.72 6.14374L127.16 9.70374C127.09 9.75432 127.032 9.81922 126.989 9.89417C126.945 9.96911 126.919 10.0524 126.91 10.1384C126.902 10.2245 126.912 10.3114 126.939 10.3933C126.967 10.4753 127.012 10.5504 127.07 10.6137C128.109 11.9323 129.29 13.1329 130.59 14.1937C130.641 14.2464 130.701 14.2882 130.768 14.3168C130.835 14.3454 130.908 14.3602 130.98 14.3602C131.053 14.3602 131.125 14.3454 131.192 14.3168C131.259 14.2882 131.32 14.2464 131.37 14.1937C132.63 12.9937 133.87 11.7837 135.11 10.5737C135.208 10.5068 135.275 10.4043 135.297 10.2883C135.32 10.1723 135.296 10.0521 135.23 9.95374C134.044 8.5358 132.743 7.21801 131.34 6.01373C131.276 5.98424 131.209 5.9608 131.14 5.94373Z" fill="#0FADE8"/>
<path d="M25.25 74.4537C25.59 74.4537 26.11 74.4537 26.63 74.3437C27.15 74.2337 27.52 74.3437 27.63 73.7937C27.74 73.2437 27.3 73.2337 26.99 73.0737C26.68 72.9137 26.07 72.5937 25.59 72.3837C23.7199 71.5884 21.7121 71.1671 19.68 71.1437C19.28 71.1437 18.87 71.1437 18.47 71.1437C16.7938 71.2876 15.112 70.9401 13.63 70.1437C12.0447 69.3766 10.2316 69.2234 8.54001 69.7137C8.38001 69.7137 8.18002 69.8237 8.22002 70.0437C8.24085 70.2083 8.31869 70.3605 8.44002 70.4737C9.46533 71.357 10.7878 71.8181 12.14 71.7637C14.6915 71.6997 17.2205 72.2556 19.51 73.3837C21.3332 74.1548 23.3014 74.5232 25.28 74.4637" fill="#0FADE8"/>
<path d="M48.1403 112.514C48.1403 112.374 48.1403 112.144 48.0803 111.914C48.0203 111.684 47.8403 111.694 47.6803 111.744C47.5146 111.788 47.3631 111.874 47.2403 111.994C46.018 113.166 45.2255 114.716 44.9903 116.394C44.8024 118.128 44.1301 119.774 43.0503 121.144C41.7619 122.873 40.8397 124.846 40.3403 126.944C40.161 127.792 40.0705 128.657 40.0703 129.524C40.0703 129.734 40.0703 130.004 40.3703 130.074C40.4847 130.092 40.6019 130.077 40.7081 130.031C40.8143 129.985 40.9053 129.909 40.9703 129.814C42.122 128.587 43.0283 127.151 43.6403 125.584C44.1265 124.348 44.4623 123.059 44.6403 121.744C44.8413 120.068 45.4985 118.481 46.5403 117.154C47.547 115.827 48.0946 114.209 48.1003 112.544" fill="#0FADE8"/>
<path d="M92.8705 93.1637H92.4005C92.3443 93.1738 92.2917 93.1983 92.2478 93.2348C92.204 93.2713 92.1703 93.3186 92.1502 93.372C92.13 93.4254 92.1241 93.4831 92.1329 93.5395C92.1417 93.5958 92.165 93.649 92.2005 93.6937C93.216 94.9856 94.6722 95.8579 96.2905 96.1437C98.4274 96.4445 100.446 97.3073 102.14 98.6437C104.33 100.196 106.903 101.116 109.58 101.304C109.85 101.304 110.22 101.434 110.36 101.134C110.5 100.834 110.24 100.474 109.99 100.244C109.098 99.4071 108.087 98.7062 106.99 98.1637C105.642 97.4808 104.194 97.015 102.7 96.7837C100.731 96.5354 98.8619 95.7732 97.2805 94.5737C95.9935 93.6327 94.4345 93.1376 92.8405 93.1637" fill="#0FADE8"/>
<path d="M105.58 110.104C105.468 109.855 105.337 109.614 105.19 109.384C104.013 107.799 102.496 106.497 100.75 105.574C99.982 105.171 99.1906 104.813 98.3802 104.504C96.6867 103.885 95.1743 102.854 93.9802 101.504C92.8156 100.196 91.2242 99.3458 89.4902 99.1037C89.408 99.0914 89.324 99.0976 89.2444 99.1218C89.1649 99.146 89.0917 99.1876 89.0302 99.2437C88.9908 99.3175 88.9702 99.4 88.9702 99.4837C88.9702 99.5674 88.9908 99.6498 89.0302 99.7237C89.8192 101.157 91.1021 102.255 92.6402 102.814C94.629 103.471 96.3975 104.665 97.7502 106.264C99.5765 108.304 101.997 109.721 104.67 110.314C104.893 110.363 105.122 110.384 105.35 110.374C105.42 110.374 105.48 110.234 105.6 110.094" fill="#0FADE8"/>
<path d="M85.1403 56.6336C85.3425 56.589 85.54 56.5254 85.7303 56.4436C87.3606 55.6855 88.8149 54.5956 90.0003 53.2436C90.6774 52.4519 91.3021 51.6168 91.8703 50.7436C92.8317 49.167 94.1769 47.8597 95.7803 46.9436C96.905 46.3202 97.8043 45.3579 98.3503 44.1936C98.6003 43.6536 99.1803 43.1936 98.8503 42.4736C98.2798 42.4905 97.7268 42.6749 97.2603 43.0036C96.1548 43.5375 95.2351 44.391 94.6203 45.4536C93.6488 47.1765 92.2284 48.6038 90.5103 49.5836C88.2092 50.9591 86.3387 52.9508 85.1103 55.3336C84.9579 55.6515 84.8469 55.9875 84.7803 56.3336C84.7803 56.5036 84.8803 56.6436 85.1403 56.7136" fill="#0FADE8"/>
<path d="M105.69 50.5337C104.014 50.5385 102.397 51.1534 101.14 52.2637C100.925 52.4589 100.725 52.6695 100.54 52.8937C99.356 54.269 97.827 55.3044 96.1104 55.8937C94.7394 56.3761 93.4433 57.0494 92.2604 57.8937C91.1653 58.6624 90.1998 59.6008 89.4004 60.6737C89.2679 60.8005 89.1693 60.9584 89.1134 61.1331C89.0575 61.3077 89.0461 61.4936 89.0804 61.6737C89.7542 61.8186 90.457 61.7378 91.0804 61.4437C93.2819 60.6722 95.2576 59.3665 96.8304 57.6437C98.1566 56.09 99.8872 54.9339 101.83 54.3037C102.708 54.014 103.509 53.5313 104.176 52.891C104.842 52.2506 105.356 51.469 105.68 50.6037" fill="#0FADE8"/>
<path d="M98.9904 118.344C98.9611 118.18 98.9176 118.02 98.8604 117.864C98.1397 116.269 97.1215 114.827 95.8604 113.614C94.8808 112.621 93.7786 111.757 92.5804 111.044C91.2521 110.312 90.1648 109.211 89.4504 107.874C88.5797 106.272 87.1589 105.04 85.4504 104.404C85.2504 104.324 85.0404 104.154 84.8304 104.404C84.7531 104.491 84.7042 104.6 84.6899 104.716C84.6756 104.832 84.6967 104.95 84.7504 105.054C85.2983 106.596 86.3567 107.905 87.7504 108.764C89.4352 109.692 90.8222 111.079 91.7504 112.764C93.0042 114.871 94.7685 116.628 96.8804 117.874C97.4063 118.238 98.0082 118.477 98.6404 118.574C98.7204 118.574 98.8204 118.474 98.9304 118.404" fill="#0FADE8"/>
<path d="M28.4604 93.2937C27.0239 93.2075 25.6043 93.6405 24.4604 94.5137C22.8276 95.7346 20.9106 96.5192 18.8904 96.7937C16.41 97.1633 14.0768 98.2003 12.1404 99.7937C11.7304 100.144 10.9704 100.474 11.3504 101.144C11.6204 101.614 12.3504 101.364 12.8104 101.284C15.4099 100.944 17.8804 99.9495 19.9904 98.3937C21.4714 97.2574 23.2283 96.536 25.0804 96.3037C26.5884 96.0885 27.9707 95.3442 28.9804 94.2037C29.1304 94.0337 29.3304 93.8637 29.2604 93.6137C29.1904 93.3637 28.8004 93.3437 28.5404 93.3037C28.2804 93.2637 28.3104 93.3037 28.4304 93.3037" fill="#0FADE8"/>
<path d="M16.6605 50.5137C16.3905 50.5137 16.2205 50.5737 16.1705 50.7537C16.1482 50.8058 16.1367 50.862 16.1367 50.9187C16.1367 50.9754 16.1482 51.0315 16.1705 51.0837C16.974 52.5827 18.302 53.7327 19.9005 54.3137C21.7933 54.8867 23.4762 56.0029 24.7405 57.5237C26.1409 59.0823 27.8689 60.3117 29.8005 61.1237C30.0625 61.2524 30.3331 61.3627 30.6105 61.4537C31.3005 61.6337 31.9805 62.0137 32.7305 61.6337C32.6505 60.8837 32.0605 60.4437 31.6305 59.9337C30.1024 58.2809 28.2276 56.9866 26.1405 56.1437C25.7705 55.9837 25.3805 55.8537 25.0005 55.7037C23.5307 55.1512 22.231 54.2239 21.2305 53.0137C20.1774 51.7541 18.7224 50.8959 17.1105 50.5837C16.9505 50.5837 16.7705 50.5337 16.6905 50.5137" fill="#0FADE8"/>
<path d="M104.65 88.2637C102.834 88.407 101.015 88.0362 99.4 87.1937C97.8222 86.4252 96.0147 86.2719 94.33 86.7637C94.2753 86.7798 94.2255 86.8094 94.1852 86.8498C94.1449 86.8903 94.1154 86.9401 94.0995 86.9949C94.0835 87.0497 94.0816 87.1076 94.094 87.1634C94.1063 87.2191 94.1324 87.2708 94.17 87.3137C94.323 87.482 94.494 87.6329 94.68 87.7637C96.0779 88.7229 97.7763 89.1422 99.46 88.9437C100.904 88.7828 102.364 89.036 103.67 89.6737C104.57 90.0737 105.48 90.4637 106.41 90.7737C108.558 91.4914 110.852 91.6565 113.08 91.2537C113.161 91.2372 113.238 91.2049 113.307 91.1585C113.376 91.1122 113.434 91.0528 113.48 90.9837C113.63 90.7137 113.39 90.5537 113.21 90.4337C111.801 89.5137 110.218 88.891 108.56 88.6037C107.274 88.3403 105.962 88.2263 104.65 88.2637Z" fill="#0FADE8"/>
<path d="M23.1405 42.4237C22.8505 42.4237 22.7605 42.5737 22.7605 42.7637C22.7348 42.8756 22.7348 42.9918 22.7605 43.1037C23.3319 44.7069 24.4557 46.054 25.9305 46.9037C27.5135 47.7703 28.8228 49.0623 29.7105 50.6337C30.8268 52.6137 32.4048 54.2947 34.3105 55.5337C35.0271 56.1121 35.8817 56.4946 36.7905 56.6437C37.0305 55.5637 36.3005 54.8137 35.7905 54.0237C34.57 52.249 32.9974 50.7445 31.1705 49.6037C30.6005 49.2137 30.0005 48.8437 29.4605 48.4137C28.5519 47.6879 27.803 46.7823 27.2605 45.7537C26.4701 44.3153 25.1994 43.2004 23.6705 42.6037C23.4605 42.5137 23.2305 42.4737 23.0905 42.4237" fill="#0FADE8"/>
<path d="M81.62 128.784C81.4221 126.445 80.6566 124.19 79.39 122.214C79.2084 121.917 79.0114 121.63 78.8 121.354C77.6393 119.918 76.9047 118.186 76.68 116.354C76.457 114.674 75.6498 113.127 74.4 111.984C74.2752 111.867 74.1107 111.803 73.94 111.804C73.64 111.804 73.64 112.094 73.62 112.324C73.4621 113.952 73.9385 115.578 74.95 116.864C76.1711 118.419 76.9393 120.28 77.17 122.244C77.5349 124.774 78.5708 127.16 80.17 129.154C80.4304 129.459 80.7146 129.743 81.02 130.004C81.068 130.032 81.1219 130.048 81.1773 130.052C81.2328 130.056 81.2884 130.047 81.3397 130.025C81.391 130.004 81.4367 129.971 81.4732 129.929C81.5097 129.887 81.536 129.838 81.55 129.784C81.55 129.504 81.55 129.214 81.55 128.784" fill="#0FADE8"/>
<path d="M48.1401 48.3137C47.9122 45.9709 47.1787 43.7054 45.9901 41.6737C45.5756 40.9814 45.1215 40.3136 44.6301 39.6737C43.8612 38.6509 43.3874 37.4369 43.2601 36.1636C43.1022 34.2283 42.19 32.4325 40.7201 31.1636C40.5901 31.0536 40.4301 30.8937 40.2701 31.0237C40.1606 31.1449 40.0969 31.3005 40.0901 31.4637C39.8956 33.0404 40.3343 34.63 41.3101 35.8837C42.5798 37.5549 43.3745 39.5381 43.6101 41.6237C44.0196 44.0377 45.0346 46.3085 46.5601 48.2237C46.8188 48.534 47.1068 48.8187 47.4201 49.0737C47.487 49.1224 47.5635 49.1565 47.6445 49.1737C47.7254 49.1909 47.8091 49.1909 47.8901 49.1737C48.0901 49.1737 48.1101 48.9437 48.1201 48.7737C48.1301 48.6037 48.1201 48.5337 48.1201 48.3237" fill="#0FADE8"/>
<path d="M81.6403 31.7837C81.6403 31.6637 81.6403 31.5436 81.6403 31.4336C81.6403 31.3236 81.6403 30.9237 81.3403 30.8937C81.1709 30.8868 81.0045 30.9398 80.8703 31.0436C79.5564 32.2115 78.7137 33.8187 78.5003 35.5636C78.34 37.2428 77.7053 38.8417 76.6703 40.1736C75.1969 42.0544 74.211 44.27 73.8003 46.6236C73.7259 47.0194 73.6857 47.4209 73.6803 47.8237C73.6803 48.2537 73.3703 48.8237 73.9403 49.0437C74.5103 49.2637 74.7103 48.6136 74.9403 48.2736C76.6057 46.321 77.6809 43.9347 78.0403 41.3937C78.2387 39.4794 78.9658 37.6582 80.1403 36.1337C81.1261 34.9019 81.6434 33.3607 81.6003 31.7837" fill="#0FADE8"/>
<path d="M93.9604 73.7237C94.2704 74.2237 94.8104 74.2337 95.3104 74.2837C97.2772 74.4912 99.2655 74.2729 101.14 73.6437C102.62 73.1637 104.14 72.6437 105.55 72.0637C106.309 71.7771 107.132 71.7011 107.93 71.8437C109.848 72.0721 111.781 71.5567 113.33 70.4037C113.47 70.3037 113.6 70.1537 113.49 69.9637C113.44 69.8609 113.355 69.7793 113.25 69.7337C111.609 69.3282 109.883 69.4293 108.3 70.0237C108.026 70.1232 107.765 70.2541 107.52 70.4137C106.52 71.0162 105.354 71.2858 104.19 71.1837C102.742 71.0902 101.287 71.1472 99.8504 71.3537C97.8317 71.6759 95.8934 72.3819 94.1404 73.4337C94.0523 73.5182 93.978 73.616 93.9204 73.7237" fill="#0FADE8"/>
<path d="M54.83 44.5137C54.822 42.3062 54.3269 40.1277 53.38 38.1337C52.543 36.5382 52.169 34.7405 52.3 32.9437C52.4152 31.31 51.9747 29.6854 51.05 28.3337C50.89 28.0737 50.67 27.8337 50.36 27.9537C50.2613 28.0083 50.176 28.0842 50.1102 28.1758C50.0445 28.2675 50 28.3726 49.98 28.4836C49.6477 29.9651 49.7984 31.5141 50.41 32.9037C51.3823 34.8255 51.8144 36.9754 51.66 39.1237C51.5445 41.5605 52.1015 43.9821 53.27 46.1237C53.4634 46.4738 53.6841 46.8082 53.93 47.1237C53.9676 47.1656 54.0149 47.1979 54.0677 47.2177C54.1205 47.2375 54.1773 47.2443 54.2332 47.2374C54.2892 47.2305 54.3427 47.2102 54.3891 47.1782C54.4356 47.1463 54.4736 47.1035 54.5 47.0536C54.7835 46.2283 54.8958 45.3539 54.83 44.4837" fill="#0FADE8"/>
<path d="M12.1403 59.6637H11.8303C11.7138 59.6521 11.5969 59.6819 11.5001 59.7476C11.4032 59.8134 11.3325 59.9111 11.3003 60.0237C11.2906 60.1082 11.2989 60.1938 11.3248 60.2748C11.3507 60.3558 11.3934 60.4304 11.4503 60.4937C12.4904 61.6696 13.9023 62.4532 15.4503 62.7137C17.4663 62.9546 19.3819 63.7278 21.0003 64.9537C23.0263 66.4217 25.3886 67.357 27.8703 67.6737C28.4103 67.7437 29.1603 68.0237 29.4003 67.3537C29.6403 66.6837 28.8903 66.5037 28.5003 66.1937C26.3841 64.5633 23.8708 63.5276 21.2203 63.1937C19.4934 62.9837 17.8607 62.2905 16.5103 61.1937C15.2498 60.2257 13.7095 59.6924 12.1203 59.6737" fill="#0FADE8"/>
<path d="M79.7702 52.3136C79.8874 52.3352 80.0081 52.3293 80.1226 52.2963C80.2371 52.2633 80.3424 52.2042 80.4302 52.1236C82.1172 50.8836 83.5046 49.2809 84.4902 47.4336C84.8434 46.7687 85.1507 46.0804 85.4102 45.3736C86.0289 43.4957 87.1576 41.8269 88.6702 40.5536C88.7584 40.4788 88.8419 40.3987 88.9202 40.3136C89.5211 39.7287 89.9954 39.0266 90.3136 38.2508C90.6319 37.4749 90.7873 36.642 90.7702 35.8036C90.7702 35.8036 90.6702 35.7136 90.6502 35.7336C89.869 36.0419 89.162 36.5124 88.5759 37.114C87.9898 37.7156 87.538 38.4346 87.2502 39.2237C86.4803 41.3513 85.1994 43.2571 83.5202 44.7736C81.6926 46.4865 80.3652 48.6643 79.6802 51.0736C79.6 51.4007 79.563 51.7369 79.5702 52.0736C79.5702 52.1536 79.7102 52.2336 79.7702 52.2936" fill="#0FADE8"/>
<path d="M42.2003 108.394C41.3013 108.744 40.4922 109.291 39.8329 109.996C39.1735 110.7 38.6805 111.543 38.3903 112.464C37.7918 114.221 36.7601 115.8 35.3903 117.054C34.1933 118.15 33.1565 119.409 32.3103 120.794C31.6205 122 31.1213 123.305 30.8303 124.664C30.8152 124.745 30.8191 124.829 30.8416 124.909C30.8642 124.989 30.9048 125.062 30.9603 125.124C31.0369 125.16 31.1206 125.179 31.2053 125.179C31.2901 125.179 31.3738 125.16 31.4503 125.124C32.4345 124.509 33.3097 123.735 34.0403 122.834C35.2259 121.411 36.1563 119.794 36.7903 118.054C37.095 117.18 37.494 116.341 37.9803 115.554C38.473 114.839 39.0657 114.199 39.7403 113.654C40.9767 112.505 41.8287 111.004 42.1803 109.354C42.2065 109.048 42.2065 108.74 42.1803 108.434" fill="#0FADE8"/>
<path d="M93.1402 67.7637C95.4138 67.5838 97.6131 66.8712 99.5602 65.6836C100.115 65.3777 100.643 65.0265 101.14 64.6337C102.398 63.5924 103.943 62.9609 105.57 62.8237C107.252 62.6351 108.819 61.8764 110.01 60.6737C110.137 60.5533 110.254 60.4229 110.36 60.2836C110.388 60.2357 110.405 60.1818 110.409 60.1264C110.412 60.0709 110.403 60.0153 110.382 59.964C110.361 59.9127 110.328 59.867 110.286 59.8305C110.244 59.794 110.194 59.7677 110.14 59.7537C109.857 59.6993 109.568 59.6791 109.28 59.6937C107.648 59.7602 106.082 60.3571 104.82 61.3937C103.703 62.3257 102.343 62.919 100.9 63.1037C99.4714 63.3299 98.0681 63.695 96.7102 64.1937C95.0784 64.7729 93.5983 65.7129 92.3802 66.9437C92.2556 67.0647 92.1837 67.23 92.1802 67.4036C92.1802 67.6636 92.4702 67.7037 92.7002 67.7337H93.1702" fill="#0FADE8"/>
<path d="M21.7801 79.1337C20.4326 79.1271 19.0893 79.2849 17.7801 79.6037C16.0544 80.1187 14.2158 80.1187 12.4901 79.6037C10.9724 79.1531 9.34468 79.2486 7.89009 79.8737C7.67557 79.9616 7.47107 80.0723 7.28009 80.2037C7.23263 80.2346 7.19362 80.2768 7.16663 80.3266C7.13963 80.3764 7.12549 80.4321 7.12549 80.4887C7.12549 80.5454 7.13963 80.6011 7.16663 80.6508C7.19362 80.7006 7.23263 80.7428 7.28009 80.7737C8.58607 81.4226 10.0498 81.6862 11.5001 81.5337C11.7306 81.52 11.9588 81.4798 12.1801 81.4137C14.1908 80.7989 16.3394 80.7989 18.3501 81.4137C20.7342 81.9984 23.2319 81.9293 25.5801 81.2137C26.0147 81.0732 26.439 80.9028 26.8501 80.7037C26.9036 80.6804 26.9492 80.6419 26.9812 80.5931C27.0131 80.5442 27.0302 80.4871 27.0302 80.4287C27.0302 80.3703 27.0131 80.3132 26.9812 80.2644C26.9492 80.2155 26.9036 80.1771 26.8501 80.1537C26.205 79.8653 25.5358 79.6344 24.8501 79.4637C23.8409 79.2264 22.8067 79.1122 21.7701 79.1237" fill="#0FADE8"/>
<path d="M68.7703 123.504C68.4804 126.208 68.9261 128.941 70.0603 131.414C70.309 131.937 70.6 132.438 70.9303 132.914C70.982 132.98 71.049 133.033 71.1256 133.068C71.2023 133.103 71.2862 133.119 71.3703 133.114C71.4903 133.114 71.6003 132.884 71.6703 132.734C71.8265 132.298 71.8944 131.836 71.8703 131.374C71.9728 128.936 71.5286 126.507 70.5703 124.264C70.3303 123.664 70.1103 123.074 69.8603 122.484C69.3965 121.421 69.2041 120.259 69.3003 119.104C69.4555 117.348 69.0266 115.591 68.0803 114.104C67.9203 113.854 67.7503 113.564 67.4303 113.654C67.2803 113.654 67.1303 114.004 67.1003 114.214C66.7343 115.81 66.9139 117.482 67.6103 118.964C68.445 120.318 68.8495 121.894 68.7703 123.484" fill="#0FADE8"/>
<path d="M23.1401 118.404C23.4945 118.45 23.853 118.357 24.1401 118.144C25.8809 117.198 27.4172 115.917 28.6601 114.374C29.2005 113.693 29.7014 112.982 30.1601 112.244C30.9778 110.832 32.1724 109.675 33.6101 108.904C35.1447 108.046 36.3248 106.671 36.9401 105.024C37.0301 104.814 37.1201 104.554 36.8701 104.404C36.7942 104.371 36.7126 104.354 36.6301 104.354C36.5476 104.354 36.4659 104.371 36.3901 104.404C34.8424 104.939 33.5187 105.978 32.6301 107.354C32.4949 107.541 32.3745 107.738 32.2701 107.944C31.639 109.204 30.6469 110.249 29.4201 110.944C28.3638 111.563 27.3604 112.269 26.4201 113.054C24.9102 114.338 23.7074 115.944 22.9001 117.754C22.7401 118.104 22.9001 118.434 23.1301 118.444" fill="#0FADE8"/>
<path d="M31.1402 35.8837C31.0302 35.9937 30.9102 36.0437 30.8702 36.1337C30.8349 36.2443 30.8349 36.3631 30.8702 36.4737C31.1302 38.0901 31.9304 39.5706 33.1402 40.6736C34.5721 41.8623 35.6368 43.4333 36.2102 45.2037C36.9069 47.1726 37.9917 48.9816 39.4002 50.5237C39.9973 51.2335 40.7234 51.8239 41.5402 52.2637C41.6042 52.2941 41.6749 52.3077 41.7457 52.3034C41.8165 52.2991 41.885 52.2769 41.9449 52.239C42.0048 52.2011 42.0541 52.1486 42.0883 52.0865C42.1224 52.0243 42.1403 51.9546 42.1402 51.8837C42.1028 51.5968 42.046 51.3128 41.9702 51.0337C41.1622 48.3571 39.6165 45.9622 37.5102 44.1237C36.1848 42.998 35.2096 41.5162 34.7002 39.8536C34.1804 38.2372 33.0697 36.8766 31.5902 36.0436C31.4452 35.9771 31.2946 35.9236 31.1402 35.8837Z" fill="#0FADE8"/>
<path d="M32.3701 99.0837C30.4858 99.3708 28.7659 100.321 27.5201 101.764C26.5889 102.88 25.3775 103.729 24.0101 104.224C22.9326 104.645 21.8778 105.122 20.8501 105.654C19.1481 106.543 17.6656 107.8 16.5101 109.334C16.3927 109.458 16.301 109.604 16.2401 109.764C16.2077 109.84 16.1909 109.921 16.1909 110.004C16.1909 110.086 16.2077 110.168 16.2401 110.244C16.2999 110.303 16.3725 110.347 16.4524 110.373C16.5322 110.399 16.6171 110.406 16.7001 110.394C17.3213 110.258 17.9327 110.081 18.5301 109.864C20.477 109.102 22.2443 107.944 23.7201 106.464C24.1668 106.017 24.6068 105.557 25.0401 105.084C25.9528 104.108 27.1257 103.414 28.4201 103.084C30.2129 102.541 31.7344 101.341 32.6801 99.7237C32.7171 99.6491 32.7364 99.567 32.7364 99.4837C32.7364 99.4005 32.7171 99.3183 32.6801 99.2437C32.6101 99.1337 32.3901 99.1237 32.3301 99.1037" fill="#0FADE8"/>
<path d="M60.9502 46.6537C61.3945 46.0664 61.6896 45.3801 61.8102 44.6537C62.306 42.2632 62.2547 39.7915 61.6602 37.4237C61.2347 35.734 61.2554 33.9629 61.7202 32.2837C62.1905 30.532 62.0056 28.6688 61.2002 27.0436C61.15 26.9386 61.0653 26.8539 60.9602 26.8037C60.7802 26.7437 60.6402 26.8937 60.5702 27.0237C59.8553 28.3614 59.5855 29.8922 59.8002 31.3937C59.8612 31.8539 59.9582 32.3086 60.0902 32.7537C60.4481 34.1003 60.4481 35.517 60.0902 36.8637C59.5449 38.8824 59.3855 40.9858 59.6202 43.0637C59.7276 44.0419 59.9456 45.0047 60.2702 45.9337C60.3136 46.1056 60.3969 46.2649 60.5133 46.3986C60.6297 46.5324 60.7759 46.6369 60.9402 46.7037" fill="#0FADE8"/>
<path d="M50.4003 133.114C50.7503 133.054 50.8803 132.784 51.0303 132.544C52.2128 130.596 52.8995 128.388 53.0303 126.114C53.0303 125.304 53.0803 124.494 53.0303 123.684C52.9599 122.166 53.3057 120.659 54.0303 119.324C54.8537 117.706 55.0667 115.846 54.6303 114.084C54.6303 113.874 54.6303 113.574 54.2903 113.574C54.1244 113.609 53.9779 113.705 53.8803 113.844C52.7442 115.341 52.222 117.215 52.4203 119.084C52.5691 120.24 52.4141 121.415 51.9703 122.494C51.5203 123.684 51.0703 124.874 50.6103 126.064C49.9568 127.933 49.7446 129.929 49.9903 131.894C49.9856 132.119 50.0256 132.342 50.108 132.552C50.1904 132.761 50.3135 132.952 50.4703 133.114" fill="#0FADE8"/>
<path d="M94.6804 80.2938C94.6826 80.4258 94.7263 80.5538 94.8053 80.6597C94.8842 80.7656 94.9944 80.844 95.1204 80.8838C96.5354 81.5884 98.1532 81.7725 99.6904 81.4038C101.71 80.8487 103.841 80.8487 105.86 81.4038C108.164 81.9689 110.575 81.9311 112.86 81.2938C113.25 81.1838 113.63 81.0438 114.01 80.9138C114.23 80.8338 114.44 80.7238 114.49 80.4638C114.54 80.2038 114.25 80.1038 114.07 80.0238C112.131 79.2297 110.018 78.9573 107.94 79.2338C106.905 79.3291 105.878 79.5063 104.87 79.7638C103.415 80.1983 101.86 80.1703 100.42 79.6838C99.481 79.3858 98.4885 79.2937 97.5104 79.4138C96.4947 79.47 95.5073 79.7683 94.6304 80.2838" fill="#0FADE8"/>
<path d="M71.8601 30.0237C71.9122 29.3863 71.8269 28.7452 71.6101 28.1437C71.5807 28.0953 71.5417 28.0536 71.4955 28.021C71.4492 27.9885 71.3967 27.9659 71.3413 27.9546C71.2859 27.9434 71.2288 27.9437 71.1735 27.9556C71.1182 27.9674 71.066 27.9906 71.0201 28.0237C70.8521 28.1777 70.7042 28.3524 70.5801 28.5436C69.7561 29.8871 69.3619 31.4501 69.4501 33.0237C69.5833 34.7506 69.2372 36.4808 68.4501 38.0237C67.3206 40.3902 66.8179 43.0071 66.9901 45.6236C66.9829 46.0858 67.0679 46.5447 67.2401 46.9737C67.2669 47.0235 67.3045 47.0667 67.3501 47.1001C67.3958 47.1335 67.4483 47.1563 67.5039 47.1669C67.5595 47.1774 67.6167 47.1754 67.6714 47.161C67.7261 47.1466 67.7769 47.1202 67.8201 47.0837C68.0099 46.869 68.1805 46.6381 68.3301 46.3937C69.3701 44.5555 69.9723 42.5023 70.0901 40.3937C70.1501 39.2937 70.2101 38.1937 70.1701 37.0937C70.0839 35.817 70.3873 34.5442 71.0401 33.4437C71.6717 32.3904 71.9649 31.1688 71.8801 29.9437" fill="#0FADE8"/>
<path d="M60.8503 114.244C60.7224 114.313 60.6097 114.407 60.5186 114.52C60.4276 114.633 60.3602 114.764 60.3203 114.904C59.651 116.464 59.5311 118.206 59.9803 119.844C60.4203 121.407 60.4203 123.061 59.9803 124.624C59.3176 127.099 59.2832 129.701 59.8803 132.194C59.9326 132.882 60.2266 133.531 60.7103 134.024C61.6003 133.724 61.5403 132.864 61.7103 132.194C62.2459 129.751 62.2014 127.216 61.5803 124.794C61.1684 123.102 61.1925 121.333 61.6503 119.654C62.1327 117.9 61.9139 116.028 61.0403 114.434C61.0403 114.354 60.8703 114.314 60.7903 114.244" fill="#0FADE8"/>
<path d="M60.6204 99.9937C58.7805 100.119 56.9331 99.9058 55.1704 99.3637C51.0969 98.1197 47.5269 95.6077 44.9804 92.1937C42.8728 89.3382 41.577 85.9657 41.2304 82.4337C40.8278 78.8416 41.4921 75.2105 43.1404 71.9937C44.5644 69.2004 46.6185 66.7766 49.1404 64.9137C52.5327 62.349 56.6778 60.9778 60.9304 61.0137C62.0862 61.0447 63.2357 61.1955 64.3604 61.4637C65.3349 61.5935 66.2912 61.8351 67.2104 62.1837C70.0041 63.3284 72.5481 65.0063 74.7004 67.1237C77.0687 69.5287 78.7382 72.5326 79.5304 75.8137C79.8804 77.2837 79.9004 78.8137 80.1404 80.2637C80.2565 80.9564 80.2016 81.667 79.9804 82.3337C79.8965 82.6093 79.8527 82.8956 79.8504 83.1837C79.7255 85.5536 79.0401 87.8602 77.8504 89.9137C76.3964 92.7049 74.2516 95.0769 71.6204 96.8037C68.3941 99.0263 64.5353 100.145 60.6204 99.9937ZM60.9904 57.1937C58.7626 57.0418 56.5248 57.2443 54.3604 57.7937C51.443 58.5665 48.7003 59.8902 46.2804 61.6937C42.7634 64.2852 40.0801 67.8478 38.5604 71.9437C37.54 74.4883 37.0074 77.2022 36.9904 79.9437C36.9241 82.7822 37.3643 85.6097 38.2904 88.2937C39.2468 90.905 40.6214 93.3435 42.3604 95.5137C44.0207 97.5237 46.0005 99.2467 48.2204 100.614C50.0427 101.739 52.0066 102.617 54.0604 103.224C56.7232 104.037 59.5127 104.356 62.2904 104.164C65.1244 104.011 67.9021 103.312 70.4704 102.104C75.9412 99.5572 80.2334 95.0182 82.4704 89.4137C83.5712 86.9146 84.1072 84.2036 84.0404 81.4737C84.0404 80.9537 84.0404 80.4337 84.0404 79.9137C84.0743 76.657 83.3448 73.4377 81.9104 70.5137C80.272 66.916 77.7166 63.8123 74.5004 61.5137C71.3894 59.2665 67.7793 57.8081 63.9804 57.2637C62.9821 57.1808 61.9787 57.1808 60.9804 57.2637" fill="#0FADE8"/>
<path d="M60.6203 99.9937C64.5353 100.147 68.3946 99.0277 71.6203 96.8037C74.2513 95.0866 76.3993 92.7251 77.8603 89.9437C79.0678 87.8941 79.7737 85.5881 79.9203 83.2137C79.9138 82.9257 79.9544 82.6387 80.0403 82.3637C80.2615 81.6971 80.3164 80.9865 80.2003 80.2937C79.9603 78.8137 79.9403 77.2937 79.5903 75.8437C78.7981 72.5626 77.1286 69.5588 74.7603 67.1537C72.608 65.0363 70.064 63.3584 67.2703 62.2137C66.3511 61.8651 65.3948 61.6235 64.4203 61.4937C63.2956 61.2255 62.1461 61.0747 60.9903 61.0437C56.738 61.0093 52.5933 62.3803 49.2003 64.9437C46.6784 66.8066 44.6243 69.2304 43.2003 72.0237C41.5377 75.2362 40.8594 78.8677 41.2503 82.4637C41.5969 85.9958 42.8927 89.3683 45.0003 92.2237C47.5384 95.618 51.0891 98.1183 55.1403 99.3637C56.9042 99.9004 58.7505 100.114 60.5903 99.9937" fill="#036EC2"/>
<path d="M60.9904 172.714C61.9886 172.631 62.9921 172.631 63.9904 172.714C67.798 173.247 71.4187 174.699 74.5404 176.944C77.7565 179.242 80.3119 182.346 81.9504 185.944C83.3848 188.868 84.1143 192.087 84.0804 195.344C84.0804 195.864 84.0804 196.384 84.0804 196.904C84.162 199.667 83.6257 202.414 82.5104 204.944C80.2734 210.548 75.9812 215.087 70.5104 217.634C67.9421 218.842 65.1644 219.541 62.3304 219.694C59.5526 219.886 56.7632 219.567 54.1004 218.754C52.0465 218.147 50.0826 217.269 48.2604 216.144C46.0405 214.777 44.0607 213.054 42.4004 211.044C40.6614 208.874 39.2868 206.435 38.3304 203.824C37.4043 201.14 36.9641 198.312 37.0304 195.474C37.0536 192.749 37.5861 190.053 38.6004 187.524C40.115 183.417 42.7987 179.843 46.3203 177.244C48.7403 175.44 51.4829 174.116 54.4004 173.344C56.5647 172.794 58.8025 172.592 61.0304 172.744L60.9904 172.714ZM60.6204 225.964C64.5667 225.988 68.4785 225.228 72.1291 223.729C75.7796 222.23 79.0963 220.021 81.8868 217.23C84.6774 214.44 86.8862 211.123 88.3854 207.472C89.8846 203.822 90.6443 199.91 90.6204 195.964C90.6365 192.017 89.8674 188.106 88.3577 184.459C86.848 180.812 84.628 177.502 81.8268 174.721C79.0256 171.941 75.6992 169.745 72.0413 168.262C68.3835 166.779 64.4671 166.039 60.5204 166.084C56.586 166.068 52.6878 166.834 49.0525 168.339C45.4171 169.843 42.1173 172.056 39.3451 174.847C36.5729 177.639 34.3836 180.954 32.9046 184.6C31.4257 188.246 30.6866 192.15 30.7304 196.084C30.7211 200.007 31.4868 203.893 32.9836 207.519C34.4803 211.146 36.6785 214.44 39.452 217.215C42.2256 219.989 45.5198 222.189 49.1456 223.687C52.7714 225.185 56.6573 225.952 60.5804 225.944" fill="#036EC2"/>
<path d="M3.14026 245.444H-3.29974C-3.64974 245.444 -3.99974 245.444 -4.29974 245.444C-4.91974 245.504 -5.05974 245.664 -5.12974 246.334V246.504C-5.30974 251.254 -5.43975 256.004 -5.20975 260.754C-5.20975 260.924 -5.20975 261.104 -5.20975 261.274C-5.21538 261.449 -5.15295 261.62 -5.03554 261.75C-4.91812 261.881 -4.75479 261.961 -4.57974 261.974C-4.17918 262.034 -3.77474 262.064 -3.36973 262.064H9.51025C9.80006 262.079 10.0905 262.079 10.3803 262.064C11.1003 261.994 11.2903 261.834 11.3803 261.124C11.467 260.491 11.5138 259.853 11.5203 259.214C11.5203 255.214 11.5203 251.104 11.4603 247.044C11.4557 246.709 11.4323 246.375 11.3903 246.044C11.3732 245.899 11.3039 245.765 11.1953 245.667C11.0867 245.57 10.9463 245.515 10.8003 245.514C10.5105 245.499 10.2201 245.499 9.93025 245.514H3.14026" fill="#0FADE8"/>
<path d="M127.03 253.644V247.204C127.03 246.854 127.03 246.504 127.03 246.204C127.028 246.027 126.961 245.857 126.841 245.728C126.72 245.599 126.556 245.519 126.38 245.504C126.091 245.489 125.8 245.489 125.51 245.504H112.11C111.76 245.504 111.41 245.504 111.11 245.554C110.964 245.556 110.824 245.616 110.721 245.721C110.618 245.826 110.56 245.967 110.56 246.114C110.48 247.214 110.37 248.314 110.36 249.414C110.36 252.654 110.27 255.904 110.36 259.154C110.47 262.624 110.23 262.154 113.36 262.154C117.07 262.154 120.78 262.154 124.5 262.154C124.9 262.154 125.31 262.154 125.71 262.154C126.89 262.094 127.02 261.984 127.02 260.834C127.02 258.454 127.02 256.074 127.02 253.704L127.03 253.644Z" fill="#0FADE8"/>
<path d="M118.56 266.294C117.28 266.294 116.01 266.294 114.73 266.294C113.92 266.294 113.73 266.504 113.65 267.294C113.635 267.58 113.635 267.867 113.65 268.154C113.65 270.354 113.65 272.564 113.65 274.764C113.652 275.051 113.669 275.338 113.7 275.624C113.707 275.77 113.769 275.908 113.872 276.012C113.976 276.115 114.114 276.176 114.26 276.184C114.43 276.194 114.6 276.194 114.77 276.184C117.38 276.184 119.99 276.184 122.6 276.184C123.42 276.184 123.6 275.964 123.68 275.184C123.76 274.404 123.68 273.444 123.68 272.574C123.68 270.844 123.68 269.104 123.68 267.364C123.68 266.444 123.46 266.244 122.54 266.214C121.2 266.214 119.87 266.214 118.54 266.214L118.56 266.294Z" fill="#036EC2"/>
<path d="M131.24 253.944C131.24 255.224 131.24 256.494 131.24 257.774C131.24 258.354 131.49 258.594 132.06 258.694C132.348 258.74 132.639 258.767 132.93 258.774C135.13 258.854 137.33 258.774 139.53 258.684C139.822 258.667 140.113 258.63 140.4 258.574C140.545 258.562 140.681 258.5 140.783 258.397C140.886 258.294 140.949 258.158 140.96 258.014C140.96 257.904 140.96 257.784 141.01 257.674C141.32 255.084 141.34 252.468 141.07 249.874C140.98 248.944 140.8 248.874 139.86 248.724C139.744 248.714 139.627 248.714 139.51 248.724H132.51C132.397 248.714 132.283 248.714 132.17 248.724C131.51 248.814 131.35 248.934 131.28 249.574C131.21 250.214 131.18 250.954 131.16 251.644C131.14 252.334 131.16 253.154 131.16 253.904L131.24 253.944Z" fill="#036EC2"/>
<path d="M2.80022 231.234H-1.02979C-1.23519 231.217 -1.43883 231.282 -1.59622 231.415C-1.75361 231.549 -1.85196 231.738 -1.86978 231.944C-1.96246 232.395 -2.01599 232.853 -2.02979 233.314C-2.02979 235.314 -2.02979 237.254 -2.02979 239.224C-2.02979 239.344 -2.02979 239.464 -2.02979 239.574C-1.93979 240.854 -1.74979 241.144 -0.489792 241.164C2.00021 241.164 4.51022 241.164 6.99022 241.164C7.57022 241.164 7.74021 240.974 7.79021 240.464C8.04847 237.751 8.07189 235.021 7.86021 232.304C7.79021 231.574 7.59021 231.304 6.79021 231.244C5.45021 231.244 4.12021 231.244 2.79021 231.244L2.80022 231.234Z" fill="#036EC2"/>
<path d="M2.90001 266.344C1.63001 266.344 0.350017 266.344 -0.919983 266.344C-1.62998 266.344 -1.80998 266.554 -1.91998 267.264C-1.9599 267.492 -1.97997 267.722 -1.97998 267.954C-1.97998 270.214 -1.97998 272.474 -1.97998 274.724C-1.96644 275.061 -1.91955 275.396 -1.83998 275.724C-1.8197 275.839 -1.76319 275.945 -1.67867 276.026C-1.59414 276.107 -1.486 276.159 -1.36998 276.174C-0.970946 276.254 -0.566495 276.304 -0.159988 276.324C1.98001 276.324 4.12002 276.324 6.27002 276.324H6.61002C7.61002 276.244 7.69002 276.124 7.80002 275.214C8.0215 272.907 8.07831 270.588 7.97002 268.274C7.95168 267.939 7.91495 267.605 7.86002 267.274C7.73002 266.484 7.66002 266.374 6.86002 266.354C5.52002 266.354 4.19002 266.354 2.86002 266.354L2.90001 266.344Z" fill="#036EC2"/>
<path d="M113.66 236.384C113.66 237.654 113.66 238.934 113.66 240.204C113.649 240.305 113.659 240.407 113.688 240.504C113.718 240.601 113.767 240.691 113.832 240.769C113.898 240.846 113.978 240.91 114.069 240.955C114.16 241.001 114.259 241.028 114.36 241.034C114.815 241.122 115.277 241.175 115.74 241.194C117.83 241.194 119.92 241.194 122 241.194C122.29 241.194 122.58 241.194 122.87 241.144C123.016 241.139 123.156 241.086 123.267 240.991C123.378 240.897 123.453 240.767 123.48 240.624V240.454C123.77 237.741 123.77 235.006 123.48 232.294C123.41 231.624 123.29 231.494 122.67 231.374C122.341 231.301 122.007 231.261 121.67 231.254H115.41C115.18 231.239 114.95 231.239 114.72 231.254C113.96 231.364 113.72 231.614 113.64 232.364C113.64 233.364 113.64 234.454 113.64 235.494V236.364L113.66 236.384Z" fill="#036EC2"/>
<path d="M20.49 258.674C21.77 258.674 23.05 258.674 24.32 258.674C25.27 258.674 25.43 258.544 25.46 257.564C25.53 255.764 25.54 253.964 25.54 252.174C25.54 251.304 25.54 250.434 25.47 249.564C25.4714 249.477 25.4552 249.39 25.4225 249.309C25.3898 249.229 25.3413 249.156 25.2797 249.094C25.2182 249.032 25.1449 248.984 25.0642 248.951C24.9835 248.918 24.8971 248.902 24.81 248.904C22.0444 248.554 19.2457 248.554 16.48 248.904C16.01 248.964 15.72 249.154 15.66 249.634C15.5804 250.09 15.5303 250.551 15.51 251.014C15.51 252.694 15.46 254.374 15.51 256.014C15.63 259.174 15.69 258.674 18.22 258.704H20.48L20.49 258.674Z" fill="#036EC2"/>
<path d="M101.32 258.694C102.59 258.694 103.87 258.694 105.14 258.694C105.72 258.694 105.88 258.534 105.95 258.004C106.02 257.547 106.06 257.086 106.07 256.624C106.07 254.624 106.07 252.684 106.07 250.714C106.07 250.314 106.01 249.914 105.97 249.504C105.965 249.329 105.895 249.163 105.772 249.039C105.65 248.915 105.485 248.841 105.31 248.834C104.979 248.787 104.645 248.764 104.31 248.764H97.8803C97.5939 248.749 97.3068 248.749 97.0203 248.764C96.4903 248.834 96.3203 249.004 96.2703 249.544C96.0603 252.313 96.0603 255.094 96.2703 257.864C96.2703 258.424 96.4803 258.594 96.9903 258.664C97.3223 258.702 97.6562 258.722 97.9903 258.724H101.29L101.32 258.694Z" fill="#036EC2"/>
<path d="M15.4304 237.044C15.2404 237.164 15.0404 237.274 14.8604 237.414C13.6433 238.491 12.4881 239.636 11.4004 240.844C11.3006 240.951 11.2451 241.092 11.2451 241.239C11.2451 241.385 11.3006 241.526 11.4004 241.634C11.6123 241.912 11.8464 242.173 12.1004 242.414C12.7504 243.084 13.3904 243.744 14.1004 244.414C15.6404 245.884 15.3204 246.044 17.1004 244.414C17.9704 243.564 18.8104 242.674 19.6604 241.804C19.8904 241.574 19.9904 241.284 19.7504 241.044C18.5171 239.804 17.2837 238.574 16.0504 237.354C15.8961 237.25 15.7277 237.169 15.5504 237.114" fill="#0FADE8"/>
<path d="M106.3 270.334C106.453 270.281 106.598 270.207 106.73 270.114C107.92 268.944 109.11 267.754 110.29 266.574C110.343 266.524 110.384 266.465 110.413 266.398C110.441 266.332 110.456 266.261 110.456 266.189C110.456 266.117 110.441 266.045 110.413 265.979C110.384 265.913 110.343 265.853 110.29 265.804C109.139 264.433 107.871 263.165 106.5 262.014C106.445 261.967 106.38 261.931 106.311 261.909C106.241 261.887 106.168 261.879 106.096 261.886C106.023 261.892 105.952 261.913 105.888 261.947C105.824 261.981 105.766 262.028 105.72 262.084C104.53 263.244 103.34 264.434 102.16 265.614C102.108 265.664 102.066 265.725 102.037 265.792C102.008 265.859 101.994 265.931 101.994 266.004C101.994 266.077 102.008 266.149 102.037 266.216C102.066 266.283 102.108 266.343 102.16 266.394C103.249 267.814 104.516 269.088 105.93 270.184C106.036 270.249 106.151 270.299 106.27 270.334" fill="#0FADE8"/>
<path d="M130.93 245.684C132.578 244.463 134.06 243.035 135.34 241.434C135.34 241.334 135.29 241.194 135.22 241.124C134.02 239.877 132.817 238.634 131.61 237.394C131.34 237.114 131.04 237.004 130.72 237.324C129.5 238.544 128.284 239.774 127.07 241.014C127.017 241.062 126.974 241.122 126.944 241.188C126.915 241.255 126.9 241.326 126.9 241.399C126.9 241.471 126.915 241.543 126.944 241.609C126.974 241.676 127.017 241.735 127.07 241.784L130.92 245.684" fill="#0FADE8"/>
<path d="M15.5203 270.324C15.6726 270.267 15.8145 270.186 15.9403 270.084C17.1403 268.914 18.3203 267.724 19.5103 266.544C19.5805 266.493 19.6377 266.426 19.6771 266.348C19.7165 266.271 19.7371 266.186 19.7371 266.099C19.7371 266.012 19.7165 265.926 19.6771 265.849C19.6377 265.772 19.5805 265.705 19.5103 265.654L15.9303 262.104C15.877 262.035 15.8088 261.98 15.7308 261.942C15.6528 261.903 15.5671 261.884 15.4803 261.884C15.3935 261.884 15.3078 261.903 15.2298 261.942C15.1518 261.98 15.0836 262.035 15.0303 262.104L11.4403 265.634C11.3383 265.74 11.2812 265.881 11.2812 266.029C11.2812 266.176 11.3383 266.318 11.4403 266.424C12.5226 267.856 13.798 269.131 15.2303 270.214C15.34 270.274 15.4579 270.318 15.5803 270.344" fill="#0FADE8"/>
<path d="M106.3 245.464C106.468 245.417 106.627 245.343 106.77 245.244L110.33 241.714C110.413 241.63 110.459 241.516 110.459 241.399C110.459 241.281 110.413 241.168 110.33 241.084C109.208 239.617 107.897 238.305 106.43 237.184C106.344 237.106 106.232 237.062 106.115 237.062C105.999 237.062 105.887 237.106 105.8 237.184C105.351 237.545 104.927 237.936 104.53 238.354C103.67 239.354 102.53 240.064 101.93 241.284C102.734 242.258 103.614 243.167 104.56 244.004C104.95 244.424 105.39 244.804 105.82 245.194C105.959 245.293 106.11 245.374 106.27 245.434" fill="#0FADE8"/>
<path d="M131.01 261.844C129.572 262.984 128.234 264.246 127.01 265.614C126.958 265.664 126.916 265.725 126.887 265.792C126.859 265.859 126.844 265.931 126.844 266.004C126.844 266.077 126.859 266.149 126.887 266.216C126.916 266.283 126.958 266.343 127.01 266.394C128.08 267.754 129.298 268.991 130.64 270.084C130.689 270.137 130.748 270.18 130.815 270.21C130.881 270.239 130.953 270.254 131.025 270.254C131.098 270.254 131.169 270.239 131.236 270.21C131.302 270.18 131.362 270.137 131.41 270.084C132.64 268.864 133.86 267.644 135.08 266.404C135.122 266.364 135.155 266.317 135.177 266.265C135.2 266.212 135.212 266.156 135.212 266.099C135.212 266.042 135.2 265.985 135.177 265.933C135.155 265.88 135.122 265.833 135.08 265.794C134.931 265.617 134.77 265.45 134.6 265.294L130.99 261.874" fill="#0FADE8"/>
<path d="M10.6903 207.064C12.9684 207.036 15.2145 206.524 17.2803 205.564C18.9609 204.772 20.8175 204.427 22.6703 204.564C24.1896 204.67 25.6987 204.246 26.9403 203.364C27.2003 203.184 27.6203 203.054 27.5103 202.614C27.4003 202.174 27.0603 202.304 26.7903 202.244C25.3179 201.843 23.7481 202.018 22.4003 202.734C20.6965 203.609 18.7771 203.977 16.8703 203.794C14.6613 203.684 12.4568 204.088 10.4303 204.974C9.80029 205.244 9.1903 205.594 8.5803 205.924C8.3903 206.034 8.15029 206.184 8.18029 206.434C8.21029 206.684 8.5703 206.794 8.8403 206.834L10.6903 207.084" fill="#0FADE8"/>
<path d="M79.78 224.104C79.6802 224.18 79.6065 224.286 79.5689 224.405C79.5314 224.525 79.5317 224.654 79.57 224.774C79.7953 226.38 80.5775 227.856 81.78 228.944C83.193 230.151 84.2566 231.716 84.86 233.474C85.6358 235.728 86.9586 237.756 88.71 239.374C89.2289 239.992 89.9282 240.433 90.71 240.634C91.13 239.744 90.63 238.974 90.34 238.204C89.5503 236.079 88.2566 234.178 86.57 232.664C85.0821 231.368 83.9699 229.697 83.35 227.824C83.0574 226.982 82.5897 226.211 81.9779 225.563C81.366 224.915 80.6237 224.404 79.8 224.064" fill="#0FADE8"/>
<path d="M25.25 189.944C25.59 189.944 26.11 189.944 26.63 189.834C27.15 189.724 27.52 189.834 27.63 189.284C27.74 188.734 27.3 188.724 26.99 188.564C26.68 188.404 26.07 188.084 25.59 187.874C23.7199 187.078 21.7121 186.657 19.68 186.634C19.28 186.634 18.87 186.634 18.47 186.634C16.7938 186.778 15.112 186.43 13.63 185.634C12.0447 184.867 10.2316 184.713 8.54001 185.204C8.38001 185.204 8.18002 185.314 8.22002 185.534C8.24085 185.698 8.31869 185.85 8.44002 185.964C9.46533 186.847 10.7878 187.308 12.14 187.254C14.6915 187.19 17.2205 187.746 19.51 188.874C21.3332 189.645 23.3014 190.013 25.28 189.954" fill="#0FADE8"/>
<path d="M48.1403 228.034C48.1403 227.894 48.1403 227.664 48.0803 227.434C48.0203 227.204 47.8403 227.214 47.6803 227.264C47.5146 227.308 47.3631 227.394 47.2403 227.514C46.018 228.686 45.2255 230.236 44.9903 231.914C44.8024 233.648 44.1301 235.294 43.0503 236.664C41.7655 238.384 40.8436 240.347 40.3403 242.434C40.161 243.282 40.0705 244.147 40.0703 245.014C40.0703 245.224 40.0703 245.494 40.3703 245.564C40.4847 245.582 40.6019 245.567 40.7081 245.521C40.8143 245.475 40.9053 245.399 40.9703 245.304C42.122 244.077 43.0283 242.641 43.6403 241.074C44.1265 239.838 44.4623 238.549 44.6403 237.234C44.8413 235.559 45.4985 233.971 46.5403 232.644C47.547 231.317 48.0946 229.699 48.1003 228.034" fill="#0FADE8"/>
<path d="M92.8705 208.684L92.4005 208.734C92.3443 208.744 92.2917 208.768 92.2478 208.805C92.204 208.841 92.1703 208.889 92.1502 208.942C92.13 208.995 92.1241 209.053 92.1329 209.109C92.1417 209.166 92.165 209.219 92.2005 209.264C93.216 210.556 94.6722 211.428 96.2905 211.714C98.4225 212 100.441 212.845 102.14 214.164C104.33 215.716 106.903 216.636 109.58 216.824C109.85 216.824 110.22 216.954 110.36 216.654C110.5 216.354 110.24 215.994 109.99 215.764C109.098 214.927 108.087 214.226 106.99 213.684C105.642 213.001 104.194 212.535 102.7 212.304C100.731 212.055 98.8619 211.293 97.2805 210.094C95.9935 209.153 94.4345 208.658 92.8405 208.684" fill="#0FADE8"/>
<path d="M105.58 225.624C105.468 225.375 105.337 225.134 105.19 224.904C104.013 223.319 102.496 222.017 100.75 221.094C99.982 220.691 99.1906 220.333 98.3802 220.024C96.6867 219.405 95.1743 218.374 93.9802 217.024C92.8156 215.716 91.2242 214.866 89.4902 214.624C89.408 214.611 89.324 214.618 89.2444 214.642C89.1649 214.666 89.0917 214.708 89.0302 214.764C88.9908 214.838 88.9702 214.92 88.9702 215.004C88.9702 215.087 88.9908 215.17 89.0302 215.244C89.8192 216.677 91.1021 217.775 92.6402 218.334C94.629 218.991 96.3975 220.185 97.7502 221.784C99.5834 223.806 102.003 225.204 104.67 225.784C104.893 225.833 105.122 225.854 105.35 225.844C105.42 225.844 105.48 225.704 105.6 225.564" fill="#0FADE8"/>
<path d="M85.1403 172.154C85.3425 172.109 85.54 172.045 85.7303 171.964C87.3606 171.206 88.8149 170.116 90.0003 168.764C90.6774 167.972 91.3021 167.137 91.8703 166.264C92.825 164.669 94.1708 163.344 95.7803 162.414C96.905 161.79 97.8043 160.828 98.3503 159.664C98.6003 159.124 99.1803 158.664 98.8503 157.944C98.2798 157.961 97.7268 158.145 97.2603 158.474C96.152 159.013 95.232 159.874 94.6203 160.944C93.6488 162.667 92.2284 164.094 90.5103 165.074C88.2092 166.449 86.3387 168.441 85.1103 170.824C84.9579 171.142 84.8469 171.478 84.7803 171.824C84.7803 171.994 84.8803 172.134 85.1403 172.204" fill="#0FADE8"/>
<path d="M105.69 166.054C104.014 166.058 102.397 166.673 101.14 167.784C100.925 167.979 100.725 168.189 100.54 168.414C99.356 169.789 97.827 170.824 96.1104 171.414C94.7394 171.896 93.4433 172.569 92.2604 173.414C91.1653 174.182 90.1998 175.121 89.4004 176.194C89.2679 176.321 89.1693 176.478 89.1134 176.653C89.0575 176.828 89.0461 177.014 89.0804 177.194C89.7542 177.339 90.457 177.258 91.0804 176.964C93.2819 176.192 95.2576 174.887 96.8304 173.164C98.1566 171.61 99.8872 170.454 101.83 169.824C102.708 169.534 103.509 169.051 104.176 168.411C104.842 167.771 105.356 166.989 105.68 166.124" fill="#0FADE8"/>
<path d="M98.9904 233.864C98.9611 233.7 98.9176 233.54 98.8604 233.384C98.1397 231.789 97.1215 230.347 95.8604 229.134C94.8808 228.141 93.7786 227.277 92.5804 226.564C91.2521 225.832 90.1648 224.731 89.4504 223.394C88.5797 221.792 87.1589 220.56 85.4504 219.924C85.2504 219.844 85.0404 219.674 84.8304 219.924C84.7531 220.011 84.7042 220.12 84.6899 220.236C84.6756 220.352 84.6967 220.47 84.7504 220.574C85.2983 222.116 86.3567 223.425 87.7504 224.284C89.4352 225.212 90.8222 226.599 91.7504 228.284C93.0042 230.391 94.7685 232.148 96.8804 233.394C97.4063 233.758 98.0082 233.997 98.6404 234.094C98.7204 234.094 98.8204 233.994 98.9304 233.924" fill="#0FADE8"/>
<path d="M28.4604 208.814C27.0239 208.728 25.6043 209.161 24.4604 210.034C22.8276 211.255 20.9106 212.039 18.8904 212.314C16.41 212.683 14.0768 213.72 12.1404 215.314C11.7304 215.664 10.9704 215.994 11.3504 216.664C11.6204 217.134 12.3504 216.884 12.8104 216.804C15.4099 216.464 17.8804 215.47 19.9904 213.914C21.4714 212.777 23.2283 212.056 25.0804 211.824C26.5884 211.609 27.9707 210.864 28.9804 209.724C29.1304 209.554 29.3304 209.384 29.2604 209.134C29.1904 208.884 28.8004 208.864 28.5404 208.824C28.2804 208.784 28.3104 208.824 28.4304 208.824" fill="#0FADE8"/>
<path d="M16.6605 166.034C16.3905 166.034 16.2205 166.094 16.1705 166.274C16.1482 166.326 16.1367 166.382 16.1367 166.439C16.1367 166.495 16.1482 166.552 16.1705 166.604C16.974 168.103 18.302 169.253 19.9005 169.834C21.7933 170.407 23.4762 171.523 24.7405 173.044C26.1409 174.602 27.8689 175.832 29.8005 176.644C30.0625 176.772 30.3331 176.883 30.6105 176.974C31.3005 177.154 31.9805 177.534 32.7305 177.154C32.6505 176.404 32.0605 175.964 31.6305 175.454C30.0851 173.794 28.1891 172.499 26.0805 171.664C25.7105 171.504 25.3205 171.374 24.9405 171.224C23.4707 170.671 22.171 169.744 21.1705 168.534C20.1174 167.274 18.6624 166.416 17.0505 166.104C16.8905 166.104 16.7105 166.054 16.6305 166.034" fill="#0FADE8"/>
<path d="M104.65 203.784C102.834 203.927 101.015 203.556 99.4 202.714C97.8222 201.945 96.0147 201.792 94.33 202.284C94.2753 202.3 94.2255 202.329 94.1852 202.37C94.1449 202.41 94.1154 202.46 94.0995 202.515C94.0835 202.57 94.0816 202.628 94.094 202.683C94.1063 202.739 94.1324 202.791 94.17 202.834C94.323 203.002 94.494 203.153 94.68 203.284C96.0779 204.243 97.7763 204.662 99.46 204.464C100.904 204.303 102.364 204.556 103.67 205.194C104.57 205.594 105.48 205.984 106.41 206.294C108.558 207.011 110.852 207.176 113.08 206.774C113.161 206.757 113.238 206.725 113.307 206.678C113.376 206.632 113.434 206.573 113.48 206.504C113.63 206.234 113.39 206.074 113.21 205.954C111.801 205.034 110.218 204.411 108.56 204.124C107.274 203.86 105.962 203.746 104.65 203.784Z" fill="#0FADE8"/>
<path d="M23.1405 157.944C22.8505 157.944 22.7605 158.094 22.7605 158.284C22.7348 158.396 22.7348 158.512 22.7605 158.624C23.3319 160.227 24.4557 161.574 25.9305 162.424C27.5135 163.29 28.8228 164.582 29.7105 166.154C30.8268 168.134 32.4048 169.815 34.3105 171.054C35.0271 171.632 35.8817 172.015 36.7905 172.164C37.0305 171.084 36.3005 170.334 35.7905 169.544C34.57 167.769 32.9974 166.265 31.1705 165.124C30.6005 164.734 30.0005 164.364 29.4605 163.934C28.5519 163.208 27.803 162.302 27.2605 161.274C26.4701 159.835 25.1994 158.72 23.6705 158.124C23.4605 158.034 23.2305 157.994 23.0905 157.944" fill="#0FADE8"/>
<path d="M81.62 244.304C81.4221 241.965 80.6566 239.71 79.39 237.734C79.2084 237.437 79.0114 237.15 78.8 236.874C77.6393 235.438 76.9047 233.706 76.68 231.874C76.457 230.194 75.6498 228.647 74.4 227.504C74.2752 227.387 74.1107 227.323 73.94 227.324C73.64 227.324 73.64 227.614 73.62 227.844C73.4621 229.472 73.9385 231.098 74.95 232.384C76.1711 233.939 76.9393 235.8 77.17 237.764C77.5349 240.294 78.5708 242.68 80.17 244.674C80.4304 244.979 80.7146 245.263 81.02 245.524C81.068 245.552 81.1219 245.568 81.1773 245.572C81.2328 245.576 81.2884 245.567 81.3397 245.545C81.391 245.524 81.4367 245.491 81.4732 245.449C81.5097 245.407 81.536 245.358 81.55 245.304C81.55 245.024 81.55 244.734 81.55 244.304" fill="#0FADE8"/>
<path d="M48.1401 163.834C47.9122 161.491 47.1787 159.225 45.9901 157.194C45.5756 156.501 45.1215 155.834 44.6301 155.194C43.8612 154.171 43.3874 152.957 43.2601 151.684C43.1022 149.748 42.19 147.953 40.7201 146.684C40.5901 146.574 40.4301 146.414 40.2701 146.544C40.1606 146.665 40.0969 146.821 40.0901 146.984C39.8956 148.56 40.3343 150.15 41.3101 151.404C42.5798 153.075 43.3745 155.058 43.6101 157.144C44.0196 159.558 45.0346 161.828 46.5601 163.744C46.8188 164.054 47.1068 164.339 47.4201 164.594C47.487 164.642 47.5635 164.676 47.6445 164.694C47.7254 164.711 47.8091 164.711 47.8901 164.694C48.0901 164.694 48.1101 164.464 48.1201 164.294C48.1301 164.124 48.1201 164.054 48.1201 163.844" fill="#0FADE8"/>
<path d="M81.6403 147.304C81.6403 147.184 81.6403 147.064 81.6403 146.954C81.6403 146.844 81.6403 146.444 81.3403 146.414C81.1709 146.407 81.0045 146.46 80.8703 146.564C79.5564 147.732 78.7137 149.339 78.5003 151.084C78.34 152.763 77.7053 154.362 76.6703 155.694C75.1969 157.574 74.211 159.79 73.8003 162.144C73.7259 162.539 73.6857 162.941 73.6803 163.344C73.6803 163.774 73.3703 164.344 73.9403 164.564C74.5103 164.784 74.7103 164.134 74.9403 163.794C76.6367 161.861 77.7468 159.485 78.1403 156.944C78.304 155.029 78.9964 153.198 80.1403 151.654C81.1261 150.422 81.6434 148.881 81.6003 147.304" fill="#0FADE8"/>
<path d="M93.9604 189.244C94.2704 189.744 94.8104 189.754 95.3104 189.804C97.2804 190.013 99.2724 189.794 101.15 189.164C102.63 188.684 104.15 188.164 105.56 187.584C106.319 187.297 107.142 187.221 107.94 187.364C109.856 187.598 111.788 187.09 113.34 185.944C113.48 185.844 113.61 185.694 113.5 185.504C113.45 185.401 113.365 185.319 113.26 185.274C111.619 184.868 109.893 184.969 108.31 185.564C108.036 185.663 107.775 185.794 107.53 185.954C106.53 186.556 105.364 186.826 104.2 186.724C102.752 186.63 101.297 186.687 99.8604 186.894C97.8403 187.205 95.8986 187.901 94.1404 188.944C94.0523 189.028 93.978 189.126 93.9204 189.234" fill="#0FADE8"/>
<path d="M54.83 160.034C54.822 157.826 54.3269 155.648 53.38 153.654C52.543 152.058 52.169 150.261 52.3 148.464C52.4152 146.83 51.9747 145.205 51.05 143.854C50.89 143.594 50.67 143.354 50.36 143.474C50.2613 143.528 50.176 143.604 50.1102 143.696C50.0445 143.788 50 143.893 49.98 144.004C49.6477 145.485 49.7984 147.034 50.41 148.424C51.3823 150.346 51.8144 152.495 51.66 154.644C51.5445 157.081 52.1015 159.502 53.27 161.644C53.4634 161.994 53.6841 162.328 53.93 162.644C53.9676 162.686 54.0149 162.718 54.0677 162.738C54.1205 162.758 54.1773 162.764 54.2332 162.757C54.2892 162.751 54.3427 162.73 54.3891 162.698C54.4356 162.666 54.4736 162.624 54.5 162.574C54.7835 161.748 54.8958 160.874 54.83 160.004" fill="#0FADE8"/>
<path d="M12.1403 175.184H11.8303C11.7138 175.172 11.5969 175.202 11.5001 175.268C11.4032 175.333 11.3325 175.431 11.3003 175.544C11.2906 175.628 11.2989 175.714 11.3248 175.795C11.3507 175.876 11.3934 175.95 11.4503 176.014C12.4904 177.19 13.9023 177.973 15.4503 178.234C17.4663 178.475 19.3819 179.248 21.0003 180.474C23.0263 181.942 25.3886 182.877 27.8703 183.194C28.4103 183.264 29.1603 183.544 29.4003 182.874C29.6403 182.204 28.8903 182.024 28.5003 181.714C26.3841 180.083 23.8708 179.048 21.2203 178.714C19.4934 178.504 17.8607 177.81 16.5103 176.714C15.2498 175.746 13.7095 175.212 12.1203 175.194" fill="#0FADE8"/>
<path d="M79.7702 167.834C79.8874 167.855 80.0081 167.849 80.1226 167.816C80.2371 167.783 80.3424 167.724 80.4302 167.644C82.1184 166.401 83.5058 164.795 84.4902 162.944C84.8434 162.279 85.1507 161.59 85.4102 160.884C86.0289 159.006 87.1576 157.337 88.6702 156.064C88.7584 155.989 88.8419 155.909 88.9202 155.824C89.5211 155.239 89.9954 154.537 90.3136 153.761C90.6319 152.985 90.7873 152.152 90.7702 151.314C90.7702 151.314 90.6702 151.224 90.6502 151.244C89.869 151.552 89.162 152.022 88.5759 152.624C87.9898 153.226 87.538 153.945 87.2502 154.734C86.4803 156.861 85.1994 158.767 83.5202 160.284C81.6926 161.997 80.3652 164.174 79.6802 166.584C79.6 166.911 79.563 167.247 79.5702 167.584C79.5702 167.664 79.7102 167.744 79.7702 167.804" fill="#0FADE8"/>
<path d="M42.2003 223.944C41.3013 224.294 40.4922 224.841 39.8329 225.546C39.1735 226.25 38.6805 227.094 38.3903 228.014C37.7918 229.771 36.7601 231.35 35.3903 232.604C34.1933 233.7 33.1565 234.959 32.3103 236.344C31.6205 237.55 31.1213 238.855 30.8303 240.214C30.8152 240.295 30.8191 240.379 30.8416 240.459C30.8642 240.539 30.9048 240.612 30.9603 240.674C31.0369 240.71 31.1206 240.729 31.2053 240.729C31.2901 240.729 31.3738 240.71 31.4503 240.674C32.4345 240.059 33.3097 239.285 34.0403 238.384C35.2259 236.961 36.1563 235.344 36.7903 233.604C37.095 232.73 37.494 231.891 37.9803 231.104C38.473 230.389 39.0657 229.75 39.7403 229.204C40.9767 228.056 41.8287 226.554 42.1803 224.904C42.2065 224.598 42.2065 224.29 42.1803 223.984" fill="#0FADE8"/>
<path d="M93.1401 183.284C95.4137 183.104 97.613 182.391 99.5601 181.204C100.115 180.898 100.643 180.547 101.14 180.154C102.398 179.112 103.943 178.481 105.57 178.344C107.252 178.155 108.819 177.396 110.01 176.194C110.137 176.073 110.254 175.943 110.36 175.804C110.388 175.756 110.405 175.702 110.409 175.646C110.412 175.591 110.403 175.535 110.382 175.484C110.361 175.433 110.328 175.387 110.286 175.35C110.244 175.314 110.194 175.288 110.14 175.274C109.857 175.219 109.568 175.199 109.28 175.214C107.648 175.28 106.082 175.877 104.82 176.914C103.703 177.846 102.343 178.439 100.9 178.624C99.4714 178.85 98.068 179.215 96.7101 179.714C95.064 180.288 93.5697 181.228 92.3401 182.464C92.2155 182.585 92.1437 182.75 92.1401 182.924C92.1401 183.184 92.4301 183.224 92.6601 183.254H93.1301" fill="#0FADE8"/>
<path d="M21.7801 194.654C20.4326 194.647 19.0893 194.805 17.7801 195.124C16.0544 195.639 14.2158 195.639 12.4901 195.124C10.9724 194.673 9.34468 194.769 7.89009 195.394C7.67557 195.482 7.47107 195.592 7.28009 195.724C7.23263 195.755 7.19362 195.797 7.16663 195.847C7.13963 195.896 7.12549 195.952 7.12549 196.009C7.12549 196.065 7.13963 196.121 7.16663 196.171C7.19362 196.221 7.23263 196.263 7.28009 196.294C8.58607 196.943 10.0498 197.206 11.5001 197.054C11.7306 197.04 11.9588 197 12.1801 196.934C14.1908 196.319 16.3394 196.319 18.3501 196.934C20.7342 197.518 23.2319 197.449 25.5801 196.734C26.0147 196.593 26.439 196.423 26.8501 196.224C26.9036 196.2 26.9492 196.162 26.9812 196.113C27.0131 196.064 27.0302 196.007 27.0302 195.949C27.0302 195.89 27.0131 195.833 26.9812 195.784C26.9492 195.736 26.9036 195.697 26.8501 195.674C26.205 195.385 25.5358 195.154 24.8501 194.984C23.8409 194.746 22.8067 194.632 21.7701 194.644" fill="#0FADE8"/>
<path d="M68.7703 239.024C68.4816 241.732 68.9272 244.467 70.0603 246.944C70.3113 247.462 70.6022 247.96 70.9303 248.434C70.982 248.5 71.049 248.553 71.1256 248.588C71.2023 248.623 71.2862 248.639 71.3703 248.634C71.4903 248.634 71.6003 248.404 71.6703 248.254C71.8265 247.818 71.8944 247.356 71.8703 246.894C71.9728 244.456 71.5286 242.027 70.5703 239.784C70.3303 239.184 70.1103 238.594 69.8603 238.004C69.3965 236.941 69.2041 235.779 69.3003 234.624C69.4555 232.868 69.0266 231.111 68.0803 229.624C67.9203 229.374 67.7503 229.084 67.4303 229.174C67.2803 229.224 67.1303 229.524 67.1003 229.734C66.7343 231.33 66.9139 233.002 67.6103 234.484C68.445 235.838 68.8495 237.414 68.7703 239.004" fill="#0FADE8"/>
<path d="M23.14 233.944C23.4945 233.99 23.853 233.897 24.14 233.684C25.871 232.745 27.4001 231.474 28.64 229.944C29.1805 229.263 29.6813 228.552 30.14 227.814C30.9578 226.402 32.1523 225.245 33.59 224.474C35.1247 223.616 36.3048 222.241 36.92 220.594C37.01 220.384 37.1001 220.124 36.8501 219.974C36.7742 219.941 36.6926 219.925 36.6101 219.925C36.5275 219.925 36.4459 219.941 36.37 219.974C34.8223 220.509 33.4986 221.548 32.6101 222.924C32.4749 223.111 32.3545 223.308 32.2501 223.514C31.619 224.775 30.6268 225.819 29.4 226.514C28.3437 227.133 27.3403 227.839 26.4 228.624C24.8902 229.908 23.6874 231.514 22.8801 233.324C22.7201 233.674 22.8801 234.004 23.1101 234.014" fill="#0FADE8"/>
<path d="M31.1402 151.404C31.0302 151.514 30.9102 151.564 30.8702 151.654C30.8349 151.764 30.8349 151.883 30.8702 151.994C31.1302 153.61 31.9304 155.091 33.1402 156.194C34.5721 157.382 35.6368 158.953 36.2102 160.724C36.9069 162.693 37.9917 164.502 39.4002 166.044C39.9973 166.754 40.7234 167.344 41.5402 167.784C41.6042 167.814 41.6749 167.828 41.7457 167.823C41.8165 167.819 41.885 167.797 41.9449 167.759C42.0048 167.721 42.0541 167.669 42.0883 167.607C42.1224 167.544 42.1403 167.475 42.1402 167.404C42.1028 167.117 42.046 166.833 41.9702 166.554C41.1622 163.877 39.6165 161.482 37.5102 159.644C36.1848 158.518 35.2096 157.036 34.7002 155.374C34.1804 153.757 33.0697 152.397 31.5902 151.564C31.4452 151.497 31.2946 151.444 31.1402 151.404Z" fill="#0FADE8"/>
<path d="M32.3701 214.604C30.4858 214.891 28.7659 215.841 27.5201 217.284C26.5889 218.4 25.3775 219.249 24.0101 219.744C22.9326 220.165 21.8778 220.642 20.8501 221.174C19.1481 222.063 17.6656 223.32 16.5101 224.854C16.3927 224.978 16.301 225.124 16.2401 225.284C16.2077 225.36 16.1909 225.441 16.1909 225.524C16.1909 225.606 16.2077 225.688 16.2401 225.764C16.2999 225.823 16.3725 225.867 16.4524 225.893C16.5322 225.919 16.6171 225.926 16.7001 225.914C17.3213 225.778 17.9327 225.601 18.5301 225.384C20.477 224.622 22.2443 223.464 23.7201 221.984C24.1668 221.53 24.6068 221.07 25.0401 220.604C25.9528 219.628 27.1257 218.934 28.4201 218.604C30.2129 218.061 31.7344 216.861 32.6801 215.244C32.7171 215.169 32.7364 215.087 32.7364 215.004C32.7364 214.92 32.7171 214.838 32.6801 214.764C32.6101 214.654 32.3901 214.644 32.3301 214.624" fill="#0FADE8"/>
<path d="M60.9502 162.174C61.402 161.572 61.6974 160.868 61.8102 160.124C62.306 157.733 62.2547 155.262 61.6602 152.894C61.2347 151.204 61.2554 149.433 61.7202 147.754C62.1905 146.002 62.0056 144.139 61.2002 142.514C61.15 142.409 61.0653 142.324 60.9602 142.274C60.7802 142.214 60.6402 142.364 60.5702 142.494C59.8553 143.831 59.5855 145.362 59.8002 146.864C59.8612 147.324 59.9582 147.779 60.0902 148.224C60.4481 149.57 60.4481 150.987 60.0902 152.334C59.5449 154.352 59.3855 156.456 59.6202 158.534C59.7276 159.512 59.9456 160.475 60.2702 161.404C60.3136 161.576 60.3969 161.735 60.5133 161.869C60.6297 162.002 60.7759 162.107 60.9402 162.174" fill="#0FADE8"/>
<path d="M50.4003 248.634C50.7503 248.574 50.8803 248.304 51.0303 248.064C52.2128 246.116 52.8995 243.908 53.0303 241.634C53.0303 240.824 53.0803 240.014 53.0303 239.204C52.9599 237.686 53.3057 236.179 54.0303 234.844C54.8537 233.226 55.0667 231.366 54.6303 229.604C54.6303 229.394 54.6303 229.094 54.2903 229.094C54.1244 229.129 53.9779 229.225 53.8803 229.364C52.7442 230.861 52.222 232.735 52.4203 234.604C52.5691 235.76 52.4141 236.936 51.9703 238.014C51.5203 239.204 51.0703 240.394 50.6103 241.584C49.9568 243.453 49.7446 245.449 49.9903 247.414C49.9856 247.639 50.0256 247.862 50.108 248.072C50.1904 248.281 50.3135 248.472 50.4703 248.634" fill="#0FADE8"/>
<path d="M94.6804 195.814C94.6826 195.946 94.7263 196.074 94.8053 196.18C94.8842 196.285 94.9944 196.364 95.1204 196.404C96.5354 197.108 98.1532 197.292 99.6904 196.924C101.71 196.369 103.841 196.369 105.86 196.924C108.164 197.489 110.575 197.451 112.86 196.814C113.25 196.704 113.63 196.564 114.01 196.434C114.23 196.354 114.44 196.244 114.49 195.984C114.54 195.724 114.25 195.624 114.07 195.544C112.131 194.75 110.018 194.477 107.94 194.754C106.905 194.849 105.878 195.026 104.87 195.284C103.415 195.718 101.86 195.69 100.42 195.204C99.481 194.906 98.4885 194.814 97.5104 194.934C96.4947 194.99 95.5073 195.288 94.6304 195.804" fill="#0FADE8"/>
<path d="M71.8601 145.544C71.9122 144.906 71.8269 144.265 71.6101 143.664C71.5807 143.615 71.5417 143.574 71.4955 143.541C71.4492 143.509 71.3967 143.486 71.3413 143.475C71.2859 143.463 71.2288 143.464 71.1735 143.476C71.1182 143.487 71.066 143.511 71.0201 143.544C70.8521 143.698 70.7042 143.872 70.5801 144.064C69.7561 145.407 69.3619 146.97 69.4501 148.544C69.5833 150.271 69.2372 152.001 68.4501 153.544C67.3206 155.91 66.8179 158.527 66.9901 161.144C66.9829 161.606 67.0679 162.065 67.2401 162.494C67.2669 162.543 67.3045 162.587 67.3501 162.62C67.3958 162.654 67.4483 162.676 67.5039 162.687C67.5595 162.697 67.6167 162.695 67.6714 162.681C67.7261 162.667 67.7769 162.64 67.8201 162.604C68.0099 162.389 68.1805 162.158 68.3301 161.914C69.3628 160.09 69.9648 158.055 70.0901 155.964C70.1501 154.864 70.2101 153.764 70.1701 152.664C70.0839 151.387 70.3873 150.114 71.0401 149.014C71.6717 147.96 71.9649 146.739 71.8801 145.514" fill="#0FADE8"/>
<path d="M60.8503 229.764C60.7224 229.833 60.6097 229.927 60.5186 230.04C60.4276 230.153 60.3602 230.284 60.3203 230.424C59.651 231.984 59.5311 233.726 59.9803 235.364C60.4203 236.927 60.4203 238.581 59.9803 240.144C59.3176 242.619 59.2832 245.221 59.8803 247.714C59.9326 248.402 60.2266 249.051 60.7103 249.544C61.6003 249.244 61.5403 248.384 61.7103 247.714C62.2459 245.271 62.2014 242.736 61.5803 240.314C61.1684 238.622 61.1925 236.853 61.6503 235.174C62.1659 233.43 61.983 231.555 61.1403 229.944C61.1403 229.864 60.9703 229.824 60.8903 229.754" fill="#0FADE8"/>
<path d="M60.6204 215.514C58.7805 215.639 56.9331 215.426 55.1704 214.884C51.0969 213.64 47.5269 211.128 44.9804 207.714C42.8728 204.858 41.577 201.486 41.2304 197.954C40.8278 194.362 41.4921 190.731 43.1404 187.514C44.5644 184.72 46.6185 182.297 49.1404 180.434C52.5327 177.869 56.6778 176.498 60.9304 176.534C62.0862 176.565 63.2357 176.716 64.3604 176.984C65.3349 177.114 66.2912 177.355 67.2104 177.704C70.0041 178.848 72.5481 180.526 74.7004 182.644C77.0687 185.049 78.7382 188.053 79.5304 191.334C79.8804 192.804 79.9004 194.334 80.1404 195.784C80.2565 196.476 80.2016 197.187 79.9804 197.854C79.8965 198.129 79.8527 198.416 79.8504 198.704C79.7255 201.074 79.0401 203.38 77.8504 205.434C76.3964 208.225 74.2516 210.597 71.6204 212.324C68.3941 214.546 64.5353 215.665 60.6204 215.514ZM60.9904 172.714C58.7626 172.562 56.5248 172.764 54.3604 173.314C51.443 174.086 48.7003 175.41 46.2804 177.214C42.7587 179.813 40.075 183.387 38.5604 187.494C37.5462 190.023 37.0137 192.719 36.9904 195.444C36.9241 198.282 37.3643 201.11 38.2904 203.794C39.2468 206.405 40.6214 208.844 42.3604 211.014C44.0207 213.024 46.0005 214.747 48.2204 216.114C50.0427 217.239 52.0066 218.117 54.0604 218.724C56.7232 219.537 59.5127 219.856 62.2904 219.664C65.1244 219.511 67.9021 218.812 70.4704 217.604C75.9412 215.057 80.2334 210.518 82.4704 204.914C83.5892 202.409 84.1391 199.687 84.0804 196.944C84.0804 196.424 84.0804 195.904 84.0804 195.384C84.1143 192.127 83.3848 188.908 81.9504 185.984C80.312 182.386 77.7566 179.282 74.5404 176.984C71.4294 174.737 67.8193 173.278 64.0204 172.734C63.0221 172.651 62.0187 172.651 61.0204 172.734" fill="#0FADE8"/>
<path d="M60.6201 215.514C64.5351 215.667 68.3944 214.548 71.6201 212.324C74.2513 210.597 76.3961 208.225 77.8501 205.434C79.0576 203.384 79.7635 201.078 79.9101 198.704C79.9036 198.416 79.9442 198.129 80.0301 197.854C80.2513 197.187 80.3062 196.476 80.1901 195.784C79.9501 194.304 79.9301 192.784 79.5801 191.334C78.7879 188.053 77.1184 185.049 74.7501 182.644C72.5979 180.526 70.0538 178.848 67.2601 177.704C66.3409 177.355 65.3846 177.114 64.4101 176.984C63.2854 176.716 62.1359 176.565 60.9801 176.534C56.7278 176.499 52.5831 177.87 49.1901 180.434C46.6682 182.297 44.6141 184.72 43.1901 187.514C41.526 190.722 40.8443 194.35 41.2301 197.944C41.5767 201.476 42.8725 204.848 44.9801 207.704C47.5173 211.116 51.0762 213.631 55.1401 214.884C56.904 215.42 58.7503 215.634 60.5901 215.514" fill="#036EC2"/>
</svg>
