<svg width="50" height="175" viewBox="0 0 50 175" fill="none" xmlns="http://www.w3.org/2000/svg">
<path d="M-0.795282 36.1929C-0.163557 36.1405 0.47143 36.1405 1.10316 36.1929C3.50718 36.5374 5.79165 37.4603 7.76035 38.8824C9.7956 40.337 11.4127 42.3011 12.4495 44.5777C13.3572 46.428 13.8188 48.4653 13.7974 50.5261C13.7974 50.8552 13.7974 51.1843 13.7974 51.5133C13.8397 53.2409 13.5004 54.9564 12.8039 56.5379C11.3883 60.0845 8.6721 62.9568 5.21011 64.5683C3.58488 65.3326 1.82711 65.7753 0.0337067 65.8719C-1.72408 65.9935 -3.48927 65.7919 -5.17435 65.277C-6.47404 64.8928 -7.71682 64.3374 -8.86998 63.6254C-10.2748 62.7603 -11.5276 61.67 -12.5783 60.398C-13.6787 59.0247 -14.5485 57.4816 -15.1538 55.8291C-15.7398 54.1307 -16.0184 52.3414 -15.9765 50.5451C-15.9657 48.8103 -15.6287 47.0929 -14.983 45.4826C-14.0245 42.8838 -12.3262 40.6224 -10.0976 38.9773C-8.56627 37.8361 -6.83068 36.9984 -4.9845 36.5093C-3.61487 36.1617 -2.19875 36.0335 -0.788954 36.1296L-0.795282 36.1929ZM-1.04841 69.808C1.44888 69.8231 3.92434 69.3424 6.23446 68.3937C8.54457 67.445 10.6434 66.0472 12.4093 64.2813C14.1752 62.5154 15.573 60.4166 16.5217 58.1064C17.4704 55.7963 17.9511 53.3209 17.936 50.8236C17.9462 48.3259 17.4595 45.8511 16.5042 43.5432C15.5488 41.2354 14.1439 39.1407 12.3713 37.381C10.5987 35.6214 8.4937 34.2319 6.17894 33.2935C3.86419 32.3551 1.38588 31.8866 -1.11169 31.9151C-3.60139 31.9049 -6.06825 32.3899 -8.36873 33.342C-10.6692 34.2941 -12.7574 35.6942 -14.5117 37.4609C-16.266 39.2276 -17.6514 41.3255 -18.5873 43.6326C-19.5232 45.9397 -19.9909 48.4099 -19.9632 50.8995C-19.9707 53.3847 -19.4868 55.8469 -18.5392 58.1444C-17.5916 60.4418 -16.1991 62.5293 -14.4418 64.2866C-12.6845 66.0439 -10.597 67.4364 -8.29957 68.384C-6.0021 69.3315 -3.53994 69.8155 -1.05473 69.808" fill="#036EC2"/>
<path d="M35.6488 9.08949C34.1807 9.08949 32.7125 9.08949 31.2191 9.08949C30.5863 9.08949 30.4344 9.24137 30.3838 9.84254C30.3838 10.0577 30.3838 10.2792 30.3838 10.4754C30.3838 13.0066 30.3838 15.5379 30.3838 18.0691C30.3838 18.3222 30.3838 18.5817 30.3838 18.8348C30.4218 19.2841 30.5483 19.4107 31.0166 19.4676C31.4849 19.5246 31.7443 19.5373 32.1114 19.5436C34.6806 19.5436 37.2498 19.5436 39.819 19.5436C40.8885 19.5436 40.9581 19.455 40.9644 18.4172C40.9644 15.5568 40.9644 12.7218 40.9644 9.83621C40.9644 9.24137 40.8442 9.12746 40.2683 9.08316C40.0089 9.08316 39.7557 9.08316 39.4963 9.08316L35.6488 9.08949Z" fill="#0FADE8"/>
<path d="M40.9962 87.4065V83.3311C40.9962 83.1097 40.9962 82.8882 40.9962 82.6983C40.995 82.5866 40.9522 82.4792 40.8762 82.3973C40.8001 82.3154 40.6962 82.2648 40.5849 82.2554C40.4015 82.2459 40.2177 82.2459 40.0343 82.2554H31.5546C31.3331 82.2554 31.1116 82.2554 30.9218 82.287C30.8289 82.2887 30.7404 82.3267 30.6753 82.393C30.6102 82.4593 30.5737 82.5485 30.5737 82.6414C30.5231 83.3375 30.4535 84.0336 30.4472 84.7297C30.4472 86.78 30.3902 88.8366 30.4472 90.8933C30.5168 93.0891 30.3649 92.7917 32.3456 92.7917C34.6934 92.7917 37.0411 92.7917 39.3952 92.7917H40.1609C40.9076 92.7537 40.9899 92.6841 40.9899 91.9564C40.9899 90.4503 40.9899 88.9442 40.9899 87.4444L40.9962 87.4065Z" fill="#0FADE8"/>
<path d="M32.5415 3.43216C32.5415 4.24216 32.5415 5.04584 32.5415 5.84951C32.5415 6.19756 32.6617 6.31779 32.9908 6.36209C33.3181 6.40522 33.6479 6.42639 33.978 6.42539C35.2436 6.42539 36.4713 6.42536 37.7179 6.39372C37.9394 6.39372 38.1546 6.39372 38.3507 6.35575C38.462 6.35079 38.5679 6.30689 38.6501 6.23169C38.7322 6.1565 38.7853 6.05483 38.8 5.94445C38.8329 5.76488 38.8498 5.58278 38.8507 5.40024C38.8507 3.97008 38.8507 2.54202 38.8507 1.11608C38.8601 0.968575 38.8601 0.820608 38.8507 0.673103C38.8507 0.505271 38.784 0.344321 38.6653 0.225646C38.5466 0.10697 38.3857 0.04029 38.2178 0.04029C38.0071 0.0285622 37.7958 0.0285622 37.585 0.04029H33.8451C33.6343 0.0285622 33.4231 0.0285622 33.2123 0.04029C33.0445 0.04029 32.8835 0.10697 32.7648 0.225646C32.6461 0.344321 32.5795 0.505271 32.5795 0.673103C32.5795 1.00217 32.5795 1.30591 32.5795 1.66029V3.41953L32.5415 3.43216Z" fill="#036EC2"/>
<path d="M35.5412 22.2458C34.7376 22.2458 33.9276 22.2458 33.1176 22.2458C32.7442 22.2458 32.605 22.3913 32.5544 22.771C32.5418 22.9543 32.5418 23.1382 32.5544 23.3215V27.612C32.5563 27.7942 32.5711 27.9761 32.5987 28.1562C32.6099 28.2476 32.6505 28.3328 32.7145 28.399C32.7784 28.4652 32.8621 28.5088 32.953 28.5233C33.0613 28.5473 33.1714 28.5622 33.2821 28.5676L37.7118 28.6308C37.8936 28.6298 38.0753 28.6192 38.256 28.5992C38.7116 28.5549 38.8319 28.4473 38.8888 28.0044C38.9174 27.8244 38.9301 27.6423 38.9268 27.4602V23.2773C38.9268 23.2077 38.9268 23.1317 38.9268 23.0558C38.8762 22.4229 38.7433 22.2711 38.1294 22.2458C37.5156 22.2205 36.8638 22.2458 36.231 22.2458H35.5982H35.5412Z" fill="#036EC2"/>
<path d="M35.6358 95.4116C34.8258 95.4116 34.0221 95.4116 33.2121 95.4116C32.6996 95.4116 32.5793 95.5445 32.5287 96.0444C32.5191 96.2257 32.5191 96.4073 32.5287 96.5886C32.5287 97.9808 32.5287 99.3793 32.5287 100.772C32.53 100.953 32.5405 101.135 32.5603 101.316C32.5649 101.408 32.6037 101.496 32.6692 101.561C32.7347 101.627 32.8222 101.666 32.9147 101.67C33.0222 101.676 33.13 101.676 33.2374 101.67C34.8891 101.67 36.5407 101.67 38.1924 101.67C38.7113 101.67 38.8252 101.531 38.8758 101.037C38.9264 100.544 38.8758 99.9362 38.8758 99.3856C38.8758 98.2909 38.8758 97.1898 38.8758 96.0887C38.8758 95.5065 38.7366 95.3799 38.1544 95.361C37.3064 95.361 36.4648 95.361 35.6232 95.361L35.6358 95.4116Z" fill="#036EC2"/>
<path d="M43.6603 87.5647C43.6603 88.3747 43.6603 89.1784 43.6603 89.9884C43.6603 90.3554 43.8185 90.5073 44.1792 90.5705C44.3613 90.5999 44.5453 90.6169 44.7297 90.6212C46.1219 90.6718 47.5141 90.6212 48.9063 90.5642C49.0912 90.5535 49.2751 90.5302 49.4568 90.4946C49.5484 90.4874 49.6344 90.4477 49.6993 90.3827C49.7643 90.3178 49.804 90.2318 49.8112 90.1402C49.8112 90.0706 49.8112 89.9947 49.8428 89.9251C50.0389 88.2863 50.0517 86.6307 49.8808 84.9891C49.8239 84.4006 49.7099 84.3563 49.1151 84.2614C49.0414 84.2549 48.9673 84.2549 48.8936 84.2614H44.4639C44.3923 84.2553 44.3204 84.2553 44.2488 84.2614C43.8311 84.3183 43.7299 84.3943 43.6856 84.7993C43.6413 85.2043 43.6223 85.6726 43.6096 86.1092C43.597 86.5458 43.6096 87.0648 43.6096 87.5394L43.6603 87.5647Z" fill="#036EC2"/>
<path d="M27.7763 14.3546C27.7763 13.6205 27.7763 12.8864 27.7763 12.1524C27.7763 11.3044 27.7256 11.2728 26.922 11.2411C25.5994 11.1842 24.2768 11.1525 22.9542 11.2411L21.9607 11.2854C21.8307 11.2853 21.7056 11.3351 21.6114 11.4246C21.5171 11.5142 21.461 11.6365 21.4545 11.7664C21.4271 11.9104 21.4123 12.0565 21.4102 12.203C21.4102 13.7429 21.4312 15.2848 21.4734 16.8289C21.4734 17.3541 21.6063 17.4617 22.1062 17.5376C22.3633 17.5535 22.6212 17.5535 22.8783 17.5376H26.4031C26.6625 17.5376 26.9156 17.5376 27.1751 17.5376C27.6117 17.487 27.7636 17.3415 27.7699 16.9048C27.7699 16.0632 27.7699 15.2215 27.7699 14.3736L27.7763 14.3546Z" fill="#036EC2"/>
<path d="M32.5356 76.4841C32.5356 77.2878 32.5356 78.0978 32.5356 78.9014C32.5286 78.9653 32.5347 79.0299 32.5534 79.0914C32.5722 79.1528 32.6032 79.2098 32.6446 79.2589C32.686 79.308 32.737 79.3482 32.7944 79.3771C32.8518 79.4059 32.9145 79.4228 32.9786 79.4267C33.2667 79.4823 33.5586 79.5161 33.8519 79.5279C35.1744 79.5279 36.497 79.5279 37.8133 79.5279C37.9968 79.5279 38.1803 79.5279 38.3638 79.4963C38.456 79.4936 38.5445 79.4595 38.6147 79.3997C38.6849 79.3398 38.7326 79.2578 38.7498 79.1672V79.0597C38.9333 77.3433 38.9333 75.6123 38.7498 73.8959C38.7055 73.4719 38.6296 73.3897 38.2373 73.3137C38.0293 73.2679 37.8173 73.2425 37.6044 73.2378H33.643C33.4976 73.2282 33.3518 73.2282 33.2064 73.2378C32.7255 73.3074 32.5736 73.4656 32.5229 73.9402C32.5229 74.573 32.5229 75.2628 32.5229 75.9209V76.4714L32.5356 76.4841Z" fill="#036EC2"/>
<path d="M24.7261 90.6022C25.5297 90.6022 26.3397 90.6022 27.1434 90.6022C27.5104 90.6022 27.6117 90.501 27.656 90.1656C27.7001 89.8764 27.7255 89.5847 27.7319 89.2923C27.7319 88.0267 27.7319 86.799 27.7319 85.5524C27.7319 85.2992 27.694 85.0461 27.6687 84.7867C27.6656 84.6763 27.6207 84.5712 27.5432 84.4925C27.4657 84.4138 27.3613 84.3674 27.251 84.3627C27.0413 84.3332 26.8299 84.3184 26.6182 84.3184H22.5492C22.3679 84.3088 22.1863 84.3088 22.005 84.3184C21.6696 84.3627 21.562 84.4702 21.5304 84.812C21.3974 86.5644 21.3974 88.3245 21.5304 90.077C21.5304 90.4313 21.6633 90.5389 21.986 90.5832C22.1961 90.6077 22.4073 90.6204 22.6188 90.6212H24.7071L24.7261 90.6022Z" fill="#036EC2"/>
<path d="M49.9692 14.3481C49.9692 13.5824 49.9692 12.8168 49.9692 12.0447C49.9692 11.4562 49.83 11.2917 49.2921 11.26C47.5772 11.1777 45.856 11.1588 44.1347 11.26C44.024 11.2627 43.9183 11.3062 43.8377 11.3821C43.7571 11.458 43.7074 11.561 43.6981 11.6714C43.66 11.8503 43.641 12.0327 43.6411 12.2156V16.7149C43.6791 17.297 43.7803 17.411 44.3435 17.4932C44.4172 17.4994 44.4913 17.4994 44.565 17.4932C46.1724 17.4932 47.7797 17.4933 49.3934 17.4616C49.8807 17.4616 49.9566 17.354 49.9692 16.8604C49.9692 16.0188 49.9692 15.1771 49.9692 14.3292V14.3481Z" fill="#036EC2"/>
<path d="M27.8652 19.493C27.7677 19.5217 27.6757 19.5666 27.5931 19.6259C26.8274 20.3663 26.0744 21.113 25.3213 21.8597C25.2862 21.8895 25.2573 21.9259 25.2364 21.9669C25.2154 22.0079 25.2028 22.0527 25.1993 22.0986C25.1957 22.1445 25.2014 22.1907 25.2158 22.2344C25.2302 22.2781 25.2532 22.3185 25.2833 22.3533C25.9387 23.2363 26.7067 24.0298 27.5678 24.7137C27.6091 24.7507 27.6574 24.7792 27.7098 24.7973C27.7623 24.8155 27.8178 24.8231 27.8732 24.8195C27.9286 24.816 27.9827 24.8014 28.0324 24.7768C28.0821 24.7521 28.1264 24.7177 28.1626 24.6757C28.9848 23.9989 29.7336 23.2374 30.3965 22.4039C30.5167 22.2521 30.5863 22.0749 30.3965 21.9167C29.6202 21.1362 28.8376 20.3621 28.0487 19.5943C28.0044 19.5436 27.9222 19.5309 27.8336 19.493" fill="#0FADE8"/>
<path d="M27.8776 97.9682C27.9743 97.9346 28.0658 97.8877 28.1497 97.829C28.9027 97.0886 29.6558 96.3355 30.4025 95.5888C30.4356 95.5574 30.462 95.5197 30.48 95.4778C30.4981 95.4359 30.5074 95.3908 30.5074 95.3452C30.5074 95.2996 30.4981 95.2544 30.48 95.2125C30.462 95.1706 30.4356 95.1329 30.4025 95.1015C29.6741 94.234 28.8717 93.4315 28.0041 92.7032C27.9689 92.6734 27.9282 92.6509 27.8842 92.6369C27.8403 92.623 27.794 92.618 27.7481 92.6221C27.7021 92.6262 27.6575 92.6394 27.6167 92.6609C27.5759 92.6825 27.5398 92.7119 27.5105 92.7475C26.7575 93.4815 26.0044 94.2346 25.2577 94.9813C25.2244 95.0132 25.1979 95.0515 25.1798 95.0939C25.1617 95.1363 25.1523 95.182 25.1523 95.2281C25.1523 95.2742 25.1617 95.3198 25.1798 95.3623C25.1979 95.4047 25.2244 95.443 25.2577 95.4749C25.9465 96.3736 26.7484 97.1797 27.6434 97.8733C27.7105 97.9145 27.7829 97.9464 27.8586 97.9682" fill="#0FADE8"/>
<path d="M43.4641 82.3693C44.5054 81.6029 45.4434 80.7053 46.2548 79.6988C46.2548 79.6355 46.2232 79.5469 46.1789 79.5026C45.4195 78.7137 44.658 77.9269 43.8944 77.1422C43.7236 76.965 43.5337 76.8954 43.3312 77.0979C42.5592 77.87 41.7893 78.6483 41.0214 79.433C40.9875 79.4638 40.9603 79.5015 40.9417 79.5434C40.9232 79.5854 40.9136 79.6307 40.9136 79.6766C40.9136 79.7225 40.9232 79.7679 40.9417 79.8099C40.9603 79.8518 40.9875 79.8894 41.0214 79.9203L43.4578 82.3882" fill="#0FADE8"/>
<path d="M27.8147 9.15286C27.9165 9.13159 28.0132 9.09075 28.0995 9.03262C28.8588 8.29223 29.6119 7.53919 30.3586 6.78614C30.5485 6.58997 30.4725 6.38111 30.3586 6.19759C29.8952 5.58167 29.3669 5.01735 28.7829 4.51433C27.7451 3.58409 27.8843 3.51448 26.8845 4.51433C26.3466 5.0712 25.796 5.60911 25.2518 6.15333C25.1126 6.29255 25.0366 6.46974 25.1948 6.62794C25.9922 7.43794 26.8022 8.23528 27.6122 9.03262C27.6754 9.07975 27.746 9.11609 27.821 9.14019" fill="#0FADE8"/>
<path d="M27.8777 82.2301C27.9839 82.2005 28.0844 82.1534 28.1751 82.0909L30.4279 79.857C30.4801 79.8038 30.5093 79.7322 30.5093 79.6577C30.5093 79.5832 30.4801 79.5116 30.4279 79.4584C29.7181 78.5301 28.8882 77.7002 27.96 76.9904C27.9053 76.941 27.8343 76.9137 27.7606 76.9137C27.687 76.9137 27.616 76.941 27.5613 76.9904C27.2771 77.2189 27.0086 77.4662 26.7576 77.7308C26.2134 78.3636 25.492 78.8129 25.1123 79.5849C25.6212 80.2013 26.1777 80.7768 26.7766 81.3062C27.0234 81.572 27.3018 81.8124 27.5739 82.0592C27.6617 82.1223 27.7575 82.1734 27.8587 82.2111" fill="#0FADE8"/>
<path d="M43.5145 92.5956C42.6045 93.3174 41.7576 94.1155 40.9833 94.9813C40.95 95.0132 40.9235 95.0515 40.9054 95.0939C40.8873 95.1363 40.8779 95.182 40.8779 95.2281C40.8779 95.2742 40.8873 95.3198 40.9054 95.3622C40.9235 95.4047 40.95 95.443 40.9833 95.4749C41.6605 96.3356 42.4309 97.1187 43.2804 97.81C43.3112 97.8439 43.3489 97.8711 43.3908 97.8897C43.4328 97.9082 43.4782 97.9178 43.524 97.9178C43.5699 97.9178 43.6153 97.9082 43.6573 97.8897C43.6992 97.8711 43.7368 97.8439 43.7677 97.81C44.546 97.0379 45.3181 96.2659 46.0901 95.4812C46.1163 95.4564 46.1372 95.4264 46.1515 95.3933C46.1658 95.3601 46.1732 95.3243 46.1732 95.2882C46.1732 95.2521 46.1658 95.2163 46.1515 95.1831C46.1372 95.1499 46.1163 95.12 46.0901 95.0952C45.9954 94.9836 45.894 94.878 45.7863 94.7788L43.5019 92.6146" fill="#0FADE8"/>
<path d="M40.7997 22.1128C40.9624 22.4548 41.203 22.7539 41.5022 22.9861C42.059 23.562 42.6349 24.1252 43.2108 24.6884C43.4955 24.9668 43.5968 24.9795 43.8436 24.739C44.5776 24.0303 45.3033 23.3109 46.0205 22.5811C46.2862 22.3153 46.2799 22.1824 46.0205 21.9483C45.2864 21.1889 44.5397 20.4358 43.7993 19.6828C43.7656 19.6394 43.7224 19.6044 43.673 19.5802C43.6237 19.5561 43.5695 19.5435 43.5145 19.5435C43.4596 19.5435 43.4054 19.5561 43.356 19.5802C43.3067 19.6044 43.2635 19.6394 43.2297 19.6828C42.3711 20.4623 41.5536 21.2861 40.7808 22.1508" fill="#0FADE8"/>
<path d="M11.0956 68.7132C11.0324 68.7616 10.9858 68.8282 10.962 68.9041C10.9382 68.98 10.9385 69.0614 10.9627 69.1372C11.0995 70.1625 11.595 71.1063 12.3612 71.8013C13.2554 72.5655 13.9284 73.5554 14.3103 74.668C14.8012 76.0948 15.6383 77.3776 16.7466 78.4016C17.075 78.7928 17.5175 79.0716 18.0122 79.1989C18.278 78.6357 17.9616 78.1484 17.7781 77.6612C17.2784 76.3167 16.4597 75.1136 15.3924 74.1554C14.4508 73.3356 13.747 72.2778 13.3547 71.0926C13.1695 70.5598 12.8736 70.0723 12.4864 69.6622C12.0992 69.2521 11.6295 68.9286 11.1082 68.7132" fill="#0FADE8"/>
<path d="M43.5968 3.76126C43.501 3.7863 43.4108 3.82925 43.331 3.88783L41.0782 6.14064C41.0338 6.17265 40.9967 6.21372 40.9694 6.26115C40.9421 6.30858 40.9252 6.36127 40.9198 6.41572C40.9145 6.47018 40.9207 6.52516 40.9382 6.57702C40.9557 6.62887 40.984 6.6764 41.0212 6.71649C41.6785 7.55093 42.4255 8.31066 43.2487 8.98197C43.2806 9.01528 43.3189 9.04177 43.3613 9.05987C43.4038 9.07798 43.4494 9.08734 43.4955 9.08734C43.5416 9.08734 43.5873 9.07798 43.6297 9.05987C43.6721 9.04177 43.7104 9.01528 43.7423 8.98197C44.5397 8.22259 45.3244 7.45689 46.109 6.69119C46.1707 6.64886 46.2132 6.58399 46.2274 6.51058C46.2416 6.43718 46.2264 6.36112 46.185 6.29885C45.4343 5.40156 44.611 4.56765 43.7233 3.80556C43.6826 3.7869 43.6402 3.77207 43.5968 3.76126Z" fill="#0FADE8"/>
<path d="M19.3794 58.9552H19.082C19.0465 58.9616 19.0132 58.9771 18.9854 59.0002C18.9577 59.0233 18.9364 59.0532 18.9236 59.087C18.9109 59.1208 18.9071 59.1573 18.9127 59.193C18.9182 59.2287 18.933 59.2623 18.9554 59.2906C19.5981 60.1082 20.5196 60.6602 21.5437 60.841C22.8959 61.0314 24.1734 61.5773 25.2456 62.423C26.6309 63.4053 28.2597 63.9876 29.9537 64.1063C30.1246 64.1063 30.3587 64.1886 30.4473 63.9987C30.5359 63.8089 30.3714 63.5811 30.2132 63.4355C29.6483 62.9061 29.0087 62.4626 28.3148 62.1193C27.4614 61.6871 26.5452 61.3924 25.6 61.246C24.3538 61.0889 23.1709 60.6065 22.1701 59.8475C21.3557 59.252 20.3692 58.9387 19.3604 58.9552" fill="#0FADE8"/>
<path d="M27.4222 69.6751C27.3509 69.5175 27.2684 69.3652 27.1754 69.2194C26.4301 68.2165 25.4702 67.3927 24.3657 66.8084C23.8795 66.5533 23.3787 66.3272 22.8659 66.1313C21.7942 65.7401 20.8372 65.0876 20.0815 64.2329C19.3445 63.4056 18.3375 62.8673 17.2402 62.7141C17.1881 62.7063 17.135 62.7103 17.0847 62.7256C17.0343 62.7409 16.988 62.7672 16.9491 62.8027C16.9242 62.8494 16.9111 62.9016 16.9111 62.9546C16.9111 63.0076 16.9242 63.0597 16.9491 63.1065C17.4484 64.0136 18.2602 64.7085 19.2336 65.0619C20.4921 65.4776 21.6112 66.2331 22.4672 67.2451C23.6229 68.5364 25.1545 69.4327 26.8463 69.808C26.9875 69.8394 27.1321 69.8522 27.2766 69.8459C27.3209 69.8459 27.3589 69.7573 27.4348 69.6687" fill="#0FADE8"/>
<path d="M14.4876 35.8385C14.6155 35.8103 14.7405 35.77 14.8609 35.7183C15.8926 35.2385 16.8129 34.5488 17.5631 33.6933C17.9915 33.1923 18.3868 32.6638 18.7464 32.1112C19.3548 31.1135 20.206 30.2862 21.2207 29.7065C21.9324 29.3121 22.5016 28.7031 22.847 27.9663C23.0052 27.6246 23.3723 27.3335 23.1634 26.8779C22.8024 26.8886 22.4525 27.0052 22.1573 27.2133C21.4577 27.5511 20.8757 28.0912 20.4866 28.7637C19.8719 29.8539 18.9731 30.7571 17.8858 31.3772C16.4296 32.2476 15.2459 33.508 14.4686 35.0159C14.3721 35.217 14.302 35.4296 14.2598 35.6487C14.2598 35.7562 14.323 35.8448 14.4876 35.8891" fill="#0FADE8"/>
<path d="M27.4915 31.9784C26.4306 31.9814 25.4071 32.3706 24.6122 33.0732C24.4762 33.1967 24.3493 33.3299 24.2325 33.4718C23.483 34.3421 22.5155 34.9974 21.4292 35.3703C20.5616 35.6755 19.7414 36.1016 18.9928 36.6359C18.2999 37.1223 17.6889 37.7162 17.183 38.3951C17.0992 38.4754 17.0367 38.5753 17.0014 38.6858C16.966 38.7963 16.9588 38.9139 16.9805 39.0279C17.4069 39.1196 17.8517 39.0685 18.2461 38.8824C19.6393 38.3942 20.8895 37.5679 21.8848 36.4777C22.7241 35.4945 23.8192 34.7629 25.0489 34.3641C25.6042 34.1808 26.1113 33.8753 26.533 33.4701C26.9546 33.0649 27.28 32.5703 27.4852 32.0227" fill="#0FADE8"/>
<path d="M23.252 74.8895C23.2335 74.786 23.206 74.6844 23.1697 74.5857C22.7137 73.5767 22.0694 72.6639 21.2713 71.8963C20.6514 71.2681 19.9539 70.7216 19.1957 70.2699C18.3551 69.8071 17.667 69.1103 17.215 68.2639C16.664 67.2504 15.7649 66.4704 14.6837 66.068C14.5572 66.0174 14.4243 65.9098 14.2914 66.068C14.2425 66.1235 14.2115 66.1925 14.2025 66.2659C14.1934 66.3393 14.2068 66.4137 14.2408 66.4794C14.5874 67.4555 15.2573 68.2838 16.1392 68.8271C17.2053 69.4145 18.0831 70.2922 18.6704 71.3584C19.4639 72.6918 20.5803 73.8038 21.9168 74.592C22.2496 74.8224 22.6304 74.9739 23.0305 75.035C23.0812 75.035 23.1444 74.9717 23.214 74.9274" fill="#0FADE8"/>
<path d="M26.8335 55.8544C25.6845 55.9451 24.5331 55.7105 23.5112 55.1773C22.5128 54.691 21.369 54.594 20.3029 54.9052C20.2682 54.9154 20.2367 54.9341 20.2112 54.9597C20.1857 54.9853 20.1671 55.0169 20.157 55.0515C20.1469 55.0862 20.1457 55.1228 20.1535 55.1581C20.1613 55.1934 20.1779 55.2261 20.2016 55.2533C20.2984 55.3597 20.4067 55.4552 20.5244 55.538C21.409 56.145 22.4838 56.4103 23.5492 56.2847C24.4631 56.1829 25.3871 56.3431 26.2134 56.7467C26.7829 56.9998 27.3587 57.2466 27.9473 57.4428C29.3064 57.8969 30.758 58.0014 32.1681 57.7465C32.2195 57.7361 32.2683 57.7156 32.3117 57.6863C32.3551 57.657 32.3924 57.6194 32.4213 57.5757C32.5162 57.4048 32.3643 57.3036 32.2504 57.2276C31.3585 56.6454 30.3572 56.2514 29.3078 56.0696C28.4941 55.9029 27.6638 55.8307 26.8335 55.8544Z" fill="#0FADE8"/>
<path d="M12.2595 81.496C12.1343 80.016 11.6499 78.5889 10.8483 77.3384C10.7334 77.1507 10.6088 76.9691 10.475 76.7942C9.74043 75.8859 9.27561 74.7896 9.13342 73.6302C8.99229 72.5675 8.48149 71.5885 7.69061 70.8648C7.61163 70.7911 7.50751 70.7504 7.39952 70.7509C7.20967 70.7509 7.20967 70.9344 7.19702 71.0799C7.09704 72.1102 7.39853 73.1394 8.03866 73.9529C8.81136 74.9368 9.29749 76.1149 9.4435 77.3574C9.67442 78.9584 10.3299 80.4683 11.3419 81.7302C11.5067 81.9234 11.6866 82.1033 11.8798 82.2681C11.9102 82.2858 11.9443 82.2963 11.9794 82.2987C12.0145 82.3011 12.0496 82.2953 12.0821 82.2818C12.1146 82.2683 12.1435 82.2475 12.1666 82.2209C12.1897 82.1944 12.2064 82.1629 12.2152 82.1288C12.2152 81.9517 12.2152 81.7681 12.2152 81.496" fill="#0FADE8"/>
<path d="M12.2726 20.1131C12.2726 20.0372 12.2726 19.9612 12.2726 19.8916C12.2726 19.822 12.2726 19.5689 12.0827 19.5499C11.9755 19.5455 11.8702 19.5791 11.7853 19.6448C10.9538 20.3839 10.4206 21.4009 10.2855 22.5051C10.1841 23.5677 9.78245 24.5795 9.12749 25.4224C8.19508 26.6125 7.5712 28.0147 7.31132 29.504C7.26421 29.7545 7.2388 30.0086 7.23538 30.2634C7.23538 30.5355 7.03921 30.8962 7.39991 31.0355C7.76062 31.1747 7.88718 30.7633 8.03272 30.5482C9.08659 29.3125 9.76701 27.8025 9.99444 26.1944C10.12 24.9831 10.5801 23.8306 11.3234 22.8658C11.9472 22.0864 12.2745 21.1111 12.2473 20.1131" fill="#0FADE8"/>
<path d="M20.0693 46.6533C20.2654 46.9697 20.6071 46.9761 20.9236 47.0077C22.1681 47.139 23.4264 47.0009 24.6129 46.6027C25.5494 46.299 26.5113 45.9699 27.4036 45.6029C27.8839 45.4215 28.4043 45.3734 28.9097 45.4636C30.1233 45.6082 31.3463 45.2821 32.3268 44.5524C32.4154 44.4891 32.4977 44.3942 32.4281 44.274C32.3964 44.2089 32.3426 44.1573 32.2762 44.1284C31.2375 43.8718 30.1454 43.9358 29.1438 44.3119C28.9703 44.3749 28.8047 44.4577 28.6502 44.5587C28.017 44.94 27.2792 45.1106 26.5429 45.046C25.6262 44.9868 24.7058 45.0229 23.7965 45.1536C22.519 45.3575 21.2925 45.8043 20.1832 46.4698C20.1274 46.5233 20.0804 46.5852 20.0439 46.6533" fill="#0FADE8"/>
<path d="M11.0895 33.1048C11.1637 33.1184 11.24 33.1147 11.3125 33.0938C11.385 33.0729 11.4516 33.0355 11.5072 32.9845C12.5747 32.1998 13.4527 31.1856 14.0764 30.0166C14.2999 29.5958 14.4944 29.1603 14.6586 28.713C15.0501 27.5247 15.7643 26.4686 16.7216 25.6629C16.7773 25.6155 16.8302 25.5648 16.8798 25.511C17.26 25.1409 17.5601 24.6965 17.7615 24.2056C17.9629 23.7146 18.0613 23.1875 18.0505 22.657C18.0505 22.657 17.9872 22.6 17.9745 22.6127C17.4802 22.8078 17.0328 23.1055 16.6619 23.4862C16.291 23.8669 16.0051 24.3219 15.823 24.8213C15.3358 26.1676 14.5252 27.3737 13.4626 28.3333C12.306 29.4173 11.466 30.7954 11.0326 32.3201C10.9818 32.5271 10.9584 32.7398 10.963 32.9529C10.963 33.0035 11.0516 33.0541 11.0895 33.0921" fill="#0FADE8"/>
<path d="M19.5499 42.8817C20.9886 42.7679 22.3804 42.317 23.6125 41.5655C23.9635 41.3719 24.298 41.1496 24.6124 40.901C25.4081 40.2421 26.3863 39.8424 27.4157 39.7556C28.4802 39.6363 29.4718 39.1562 30.2254 38.3951C30.3058 38.3189 30.3799 38.2364 30.4469 38.1483C30.4647 38.1179 30.4752 38.0838 30.4775 38.0487C30.4799 38.0137 30.4741 37.9785 30.4606 37.946C30.4472 37.9135 30.4263 37.8846 30.3998 37.8615C30.3733 37.8384 30.3417 37.8218 30.3077 37.8129C30.1285 37.7785 29.9458 37.7657 29.7635 37.7749C28.7308 37.8171 27.7399 38.1947 26.9411 38.8507C26.2343 39.4405 25.3736 39.816 24.4605 39.9328C23.5564 40.076 22.6683 40.307 21.809 40.6226C20.7764 40.9892 19.8398 41.584 19.0689 42.3628C18.9901 42.4394 18.9446 42.544 18.9424 42.6539C18.9424 42.8184 19.1259 42.8438 19.2714 42.8627H19.5689" fill="#0FADE8"/>
<path d="M4.12812 78.1548C3.94471 79.8664 4.22674 81.5957 4.94445 83.1604C5.10186 83.4912 5.28599 83.8087 5.495 84.1096C5.5277 84.1516 5.57012 84.1851 5.61862 84.2072C5.66712 84.2292 5.72025 84.2392 5.77344 84.2361C5.84938 84.2361 5.91899 84.0906 5.96328 83.9957C6.06211 83.72 6.10513 83.4275 6.08985 83.135C6.15472 81.5927 5.87363 80.0554 5.26719 78.6357C5.11531 78.2561 4.9761 77.8827 4.81789 77.5093C4.52442 76.8367 4.40265 76.1017 4.46352 75.3704C4.56172 74.2595 4.29033 73.1472 3.69149 72.2064C3.59024 72.0482 3.48266 71.8646 3.28016 71.9216C3.18523 71.9216 3.09031 72.1431 3.07133 72.276C2.83972 73.2858 2.95336 74.3442 3.39406 75.2818C3.92229 76.1391 4.17823 77.1364 4.12812 78.1422" fill="#0FADE8"/>
<path d="M-0.820387 29.5231C-0.539238 29.1514 -0.352485 28.7171 -0.276167 28.2574C0.0375556 26.7447 0.00510454 25.1806 -0.37109 23.6822C-0.640323 22.613 -0.627236 21.4922 -0.333118 20.4296C-0.0355014 19.321 -0.152506 18.142 -0.662184 17.1136C-0.693984 17.0471 -0.747577 16.9935 -0.814057 16.9617C-0.927964 16.9237 -1.01656 17.0187 -1.06085 17.101C-1.51328 17.9475 -1.68397 18.9162 -1.54812 19.8663C-1.50951 20.1576 -1.44816 20.4453 -1.36461 20.727C-1.13811 21.5791 -1.13811 22.4757 -1.36461 23.3278C-1.70968 24.6053 -1.81058 25.9364 -1.66202 27.2513C-1.5941 27.8703 -1.45611 28.4796 -1.2507 29.0674C-1.22321 29.1762 -1.17051 29.277 -1.09686 29.3617C-1.0232 29.4463 -0.930657 29.5125 -0.826711 29.5547" fill="#0FADE8"/>
<path d="M20.5248 50.8109C20.5262 50.8945 20.5539 50.9755 20.6038 51.0425C20.6538 51.1095 20.7236 51.1591 20.8032 51.1843C21.6987 51.6302 22.7225 51.7467 23.6952 51.5133C24.973 51.1621 26.3219 51.1621 27.5997 51.5133C29.0577 51.871 30.5833 51.847 32.0293 51.4437C32.2761 51.3741 32.5166 51.2855 32.7571 51.2033C32.8963 51.1526 33.0292 51.083 33.0608 50.9185C33.0925 50.754 32.909 50.6907 32.7951 50.6401C31.5678 50.1376 30.2304 49.9652 28.9159 50.1402C28.2605 50.2005 27.6109 50.3126 26.9732 50.4755C26.0519 50.7505 25.068 50.7328 24.1572 50.4249C23.5627 50.2363 22.9346 50.1781 22.3157 50.2541C21.673 50.2897 21.0481 50.4784 20.4932 50.8046" fill="#0FADE8"/>
<path d="M6.08368 18.9994C6.11664 18.596 6.0627 18.1904 5.92547 17.8097C5.9069 17.7791 5.88221 17.7527 5.85294 17.7321C5.82367 17.7115 5.79046 17.6972 5.7554 17.6901C5.72033 17.6829 5.68417 17.6831 5.64919 17.6906C5.6142 17.6981 5.58115 17.7128 5.55211 17.7337C5.44578 17.8312 5.35222 17.9418 5.27368 18.0628C4.75224 18.9129 4.50276 19.902 4.55859 20.8978C4.64288 21.9906 4.4239 23.0855 3.92578 24.0619C3.21103 25.5594 2.8929 27.2154 3.00187 28.8712C2.99735 29.1637 3.05114 29.4541 3.16008 29.7255C3.17705 29.7571 3.20084 29.7844 3.22972 29.8055C3.2586 29.8267 3.29183 29.8411 3.32701 29.8478C3.36218 29.8545 3.39839 29.8532 3.43301 29.8441C3.46763 29.835 3.49978 29.8183 3.52711 29.7952C3.6472 29.6593 3.75519 29.5132 3.84985 29.3585C4.50797 28.1953 4.88909 26.896 4.96359 25.5616C5.00156 24.8655 5.03953 24.1694 5.01422 23.4734C4.95968 22.6655 5.15166 21.86 5.56477 21.1636C5.96445 20.4971 6.14998 19.724 6.09633 18.9487" fill="#0FADE8"/>
<path d="M-1.02883 63.2773C-2.19316 63.3568 -3.3622 63.2217 -4.47767 62.8786C-7.05542 62.0914 -9.31454 60.5018 -10.926 58.3414C-12.2598 56.5344 -13.0797 54.4002 -13.2991 52.1651C-13.5538 49.892 -13.1335 47.5942 -12.0904 45.5585C-11.1893 43.7909 -9.8894 42.2571 -8.29353 41.0782C-6.14683 39.4552 -3.52375 38.5876 -0.832664 38.6103C-0.101248 38.6299 0.626162 38.7253 1.33788 38.895C1.95455 38.9772 2.5597 39.1301 3.1414 39.3506C4.90931 40.075 6.5192 41.1368 7.88117 42.4767C9.37984 43.9987 10.4364 45.8996 10.9377 47.9759C11.1591 48.9061 11.1718 49.8743 11.3237 50.7919C11.3972 51.2303 11.3624 51.68 11.2224 52.1018C11.1693 52.2763 11.1416 52.4574 11.1402 52.6397C11.0611 54.1395 10.6274 55.5991 9.87453 56.8986C8.95444 58.6648 7.59715 60.1659 5.93211 61.2586C3.89048 62.6652 1.44854 63.3733 -1.02883 63.2773ZM-0.794697 36.1929C-2.20449 36.0968 -3.62061 36.2249 -4.99025 36.5726C-6.83643 37.0616 -8.572 37.8993 -10.1034 39.0406C-12.329 40.6805 -14.027 42.935 -14.9887 45.5269C-15.6344 47.1372 -15.9714 48.8545 -15.9822 50.5894C-16.0242 52.3856 -15.7456 54.1749 -15.1596 55.8734C-14.5543 57.5259 -13.6844 59.069 -12.584 60.4423C-11.5333 61.7143 -10.2805 62.8046 -8.87572 63.6697C-7.72256 64.3817 -6.47978 64.9371 -5.18009 65.3213C-3.49502 65.8362 -1.72982 66.0378 0.0279617 65.9161C1.82137 65.8196 3.57914 65.3769 5.20437 64.6125C8.66636 63.0011 11.3825 60.1287 12.7981 56.5821C13.4947 55.0007 13.8339 53.2851 13.7916 51.5576C13.7916 51.2285 13.7916 50.8995 13.7916 50.5704C13.8131 48.5095 13.3515 46.4723 12.4438 44.622C11.4069 42.3453 9.78985 40.3813 7.75461 38.9267C5.78591 37.5046 3.50144 36.5817 1.09741 36.2372C0.465687 36.1848 -0.1693 36.1848 -0.801026 36.2372" fill="#0FADE8"/>
<path d="M-1.02874 63.2773C1.44874 63.3743 3.89097 62.666 5.9322 61.2587C7.59713 60.1721 8.95646 58.6777 9.88096 56.9176C10.6451 55.6206 11.0918 54.1613 11.1846 52.6587C11.1805 52.4765 11.2061 52.2948 11.2605 52.1209C11.4005 51.699 11.4352 51.2493 11.3617 50.8109C11.2099 49.8744 11.1972 48.9125 10.9757 47.9949C10.4744 45.9186 9.41791 44.0177 7.91924 42.4958C6.55727 41.1559 4.94737 40.0941 3.17946 39.3697C2.59777 39.1491 1.99261 38.9962 1.37595 38.914C0.664223 38.7443 -0.0631866 38.6489 -0.794602 38.6293C-3.48554 38.6075 -6.10832 39.4751 -8.25547 41.0972C-9.85134 42.2761 -11.1512 43.8099 -12.0523 45.5776C-13.1045 47.6105 -13.5337 49.9085 -13.2863 52.1841C-13.067 54.4193 -12.247 56.5534 -10.9133 58.3604C-9.30715 60.5083 -7.06018 62.0905 -4.49656 62.8787C-3.38036 63.2183 -2.21197 63.3533 -1.04773 63.2773" fill="#036EC2"/>
<path d="M-0.795221 109.296C-0.163494 109.243 0.471491 109.243 1.10322 109.296C3.51273 109.633 5.80396 110.552 7.7794 111.972C9.81464 113.427 11.4317 115.391 12.4685 117.668C13.3763 119.518 13.8379 121.555 13.8164 123.616C13.8164 123.945 13.8164 124.274 13.8164 124.603C13.8681 126.352 13.5287 128.09 12.8229 129.691C11.4073 133.238 8.69115 136.11 5.22916 137.721C3.60393 138.486 1.84615 138.929 0.0527515 139.025C-1.70503 139.147 -3.47023 138.945 -5.1553 138.43C-6.45499 138.046 -7.69778 137.491 -8.85093 136.779C-10.2557 135.914 -11.5086 134.823 -12.5592 133.551C-13.6596 132.178 -14.5295 130.635 -15.1348 128.982C-15.7208 127.284 -15.9994 125.495 -15.9574 123.698C-15.9427 121.974 -15.6057 120.268 -14.9639 118.667C-14.0054 116.069 -12.3072 113.807 -10.0786 112.162C-8.54722 111.021 -6.81164 110.183 -4.96546 109.694C-3.59583 109.347 -2.1797 109.218 -0.769909 109.315L-0.795221 109.296ZM-1.02936 142.993C1.46793 143.008 3.94338 142.527 6.2535 141.579C8.56362 140.63 10.6625 139.232 12.4283 137.466C14.1942 135.7 15.592 133.601 16.5407 131.291C17.4894 128.981 17.9702 126.506 17.955 124.008C17.9653 121.511 17.4785 119.036 16.5232 116.728C15.5679 114.42 14.163 112.326 12.3903 110.566C10.6177 108.806 8.51274 107.417 6.19799 106.478C3.88323 105.54 1.40493 105.071 -1.09264 105.1C-3.58234 105.09 -6.0492 105.575 -8.34968 106.527C-10.6502 107.479 -12.7383 108.879 -14.4926 110.646C-16.2469 112.412 -17.6323 114.51 -18.5682 116.817C-19.5041 119.125 -19.9719 121.595 -19.9441 124.084C-19.95 126.567 -19.4654 129.026 -18.5183 131.321C-17.5712 133.616 -16.1801 135.701 -14.425 137.456C-12.6698 139.212 -10.5852 140.604 -8.29074 141.552C-5.99629 142.5 -3.53721 142.985 -1.05467 142.98" fill="#036EC2"/>
<path d="M40.9962 160.509V156.434C40.9962 156.212 40.9962 155.991 40.9962 155.801C40.995 155.689 40.9522 155.582 40.8762 155.5C40.8001 155.418 40.6962 155.367 40.5849 155.358C40.4015 155.348 40.2177 155.348 40.0343 155.358H31.5546C31.3331 155.358 31.1116 155.358 30.9218 155.39C30.8289 155.391 30.7404 155.429 30.6753 155.496C30.6102 155.562 30.5737 155.651 30.5737 155.744C30.5231 156.44 30.4535 157.136 30.4472 157.832C30.4472 159.883 30.3902 161.939 30.4472 163.996C30.5168 166.192 30.3649 165.894 32.3456 165.894C34.6934 165.894 37.0411 165.894 39.3952 165.894C39.6483 165.894 39.9077 165.894 40.1609 165.894C40.9076 165.856 40.9899 165.787 40.9899 165.059C40.9899 163.553 40.9899 162.047 40.9899 160.547L40.9962 160.509Z" fill="#0FADE8"/>
<path d="M35.6358 168.514C34.8258 168.514 34.0221 168.514 33.2121 168.514C32.6996 168.514 32.5793 168.647 32.5287 169.147C32.5191 169.328 32.5191 169.51 32.5287 169.691C32.5287 171.083 32.5287 172.482 32.5287 173.874C32.53 174.056 32.5405 174.238 32.5603 174.418C32.5649 174.511 32.6037 174.598 32.6692 174.664C32.7347 174.729 32.8222 174.768 32.9147 174.773C33.0222 174.779 33.13 174.779 33.2374 174.773C34.8891 174.773 36.5407 174.773 38.1924 174.773C38.7113 174.773 38.8252 174.633 38.8758 174.14C38.9264 173.646 38.8758 173.039 38.8758 172.488C38.8758 171.393 38.8758 170.292 38.8758 169.191C38.8758 168.609 38.7366 168.482 38.1544 168.464C37.3064 168.464 36.4648 168.464 35.6232 168.464L35.6358 168.514Z" fill="#036EC2"/>
<path d="M43.6603 160.699C43.6603 161.509 43.6603 162.313 43.6603 163.123C43.6603 163.49 43.8185 163.641 44.1792 163.705C44.3613 163.734 44.5453 163.751 44.7297 163.755C46.1219 163.806 47.5141 163.755 48.9063 163.698C49.0912 163.688 49.2751 163.664 49.4568 163.629C49.5484 163.622 49.6344 163.582 49.6993 163.517C49.7643 163.452 49.804 163.366 49.8112 163.274C49.8112 163.205 49.8112 163.129 49.8428 163.059C50.0389 161.42 50.0517 159.765 49.8808 158.123C49.8239 157.535 49.7099 157.491 49.1151 157.396C49.0414 157.389 48.9673 157.389 48.8936 157.396H44.4639C44.3923 157.389 44.3204 157.389 44.2488 157.396C43.8311 157.453 43.7299 157.528 43.6856 157.933C43.6413 158.338 43.6223 158.807 43.6096 159.243C43.597 159.68 43.6096 160.199 43.6096 160.674L43.6603 160.699Z" fill="#036EC2"/>
<path d="M32.5356 149.587C32.5356 150.39 32.5356 151.2 32.5356 152.004C32.5286 152.068 32.5347 152.133 32.5534 152.194C32.5722 152.255 32.6032 152.312 32.6446 152.362C32.686 152.411 32.737 152.451 32.7944 152.48C32.8518 152.509 32.9145 152.525 32.9786 152.529C33.2667 152.585 33.5586 152.619 33.8519 152.631C35.1744 152.631 36.497 152.631 37.8133 152.631C37.9968 152.631 38.1803 152.631 38.3638 152.599C38.456 152.596 38.5445 152.562 38.6147 152.502C38.6849 152.442 38.7326 152.36 38.7498 152.27V152.162C38.9333 150.446 38.9333 148.715 38.7498 146.999C38.7055 146.575 38.6296 146.492 38.2373 146.416C38.0293 146.371 37.8173 146.345 37.6044 146.34H33.643C33.4976 146.331 33.3518 146.331 33.2064 146.34C32.7255 146.41 32.5736 146.568 32.5229 147.043C32.5229 147.676 32.5229 148.365 32.5229 149.024V149.574L32.5356 149.587Z" fill="#036EC2"/>
<path d="M24.7261 163.705C25.5297 163.705 26.3397 163.705 27.1434 163.705C27.5104 163.705 27.6117 163.604 27.656 163.268C27.7001 162.979 27.7255 162.687 27.7319 162.395C27.7319 161.129 27.7319 159.902 27.7319 158.655C27.7319 158.402 27.694 158.149 27.6687 157.889C27.6656 157.779 27.6207 157.674 27.5432 157.595C27.4657 157.516 27.3613 157.47 27.251 157.465C27.0413 157.436 26.8299 157.421 26.6182 157.421H22.5492C22.3679 157.411 22.1863 157.411 22.005 157.421C21.6696 157.465 21.562 157.573 21.5304 157.915C21.3974 159.667 21.3974 161.427 21.5304 163.18C21.5304 163.534 21.6633 163.641 21.986 163.686C22.1961 163.71 22.4073 163.723 22.6188 163.724H24.7071L24.7261 163.705Z" fill="#036EC2"/>
<path d="M27.8776 171.071C27.9743 171.037 28.0658 170.99 28.1497 170.932C28.9027 170.191 29.6558 169.438 30.4025 168.691C30.4356 168.66 30.462 168.622 30.48 168.58C30.4981 168.538 30.5074 168.493 30.5074 168.448C30.5074 168.402 30.4981 168.357 30.48 168.315C30.462 168.273 30.4356 168.235 30.4025 168.204C29.6741 167.337 28.8717 166.534 28.0041 165.806C27.9689 165.776 27.9282 165.753 27.8842 165.739C27.8403 165.726 27.794 165.721 27.7481 165.725C27.7021 165.729 27.6575 165.742 27.6167 165.763C27.5759 165.785 27.5398 165.814 27.5105 165.85C26.7575 166.584 26.0044 167.337 25.2577 168.084C25.2244 168.116 25.1979 168.154 25.1798 168.196C25.1617 168.239 25.1523 168.285 25.1523 168.331C25.1523 168.377 25.1617 168.422 25.1798 168.465C25.1979 168.507 25.2244 168.546 25.2577 168.577C25.9465 169.476 26.7484 170.282 27.6434 170.976C27.7105 171.017 27.7829 171.049 27.8586 171.071" fill="#0FADE8"/>
<path d="M43.4641 155.472C44.5066 154.7 45.4446 153.796 46.2548 152.782C46.2548 152.719 46.2232 152.631 46.1789 152.586C45.4195 151.797 44.658 151.011 43.8944 150.226C43.7236 150.049 43.5337 149.979 43.3312 150.182C42.5592 150.954 41.7893 151.732 41.0214 152.517C40.9875 152.547 40.9603 152.585 40.9417 152.627C40.9232 152.669 40.9136 152.714 40.9136 152.76C40.9136 152.806 40.9232 152.852 40.9417 152.893C40.9603 152.935 40.9875 152.973 41.0214 153.004L43.4578 155.472" fill="#0FADE8"/>
<path d="M27.8777 155.333C27.9839 155.303 28.0844 155.256 28.1751 155.193L30.4279 152.96C30.4801 152.906 30.5093 152.835 30.5093 152.76C30.5093 152.686 30.4801 152.614 30.4279 152.561C29.7181 151.633 28.8882 150.803 27.96 150.093C27.9053 150.044 27.8343 150.016 27.7606 150.016C27.687 150.016 27.616 150.044 27.5613 150.093C27.2771 150.321 27.0086 150.569 26.7576 150.833C26.2134 151.466 25.492 151.915 25.1123 152.687C25.6212 153.304 26.1777 153.879 26.7766 154.409C27.0234 154.674 27.3018 154.915 27.5739 155.162C27.6617 155.225 27.7575 155.276 27.8587 155.314" fill="#0FADE8"/>
<path d="M43.5145 165.698C42.6045 166.42 41.7576 167.218 40.9833 168.084C40.95 168.116 40.9235 168.154 40.9054 168.197C40.8873 168.239 40.8779 168.285 40.8779 168.331C40.8779 168.377 40.8873 168.422 40.9054 168.465C40.9235 168.507 40.95 168.546 40.9833 168.577C41.6605 169.438 42.4309 170.221 43.2804 170.913C43.3112 170.947 43.3489 170.974 43.3908 170.992C43.4328 171.011 43.4782 171.02 43.524 171.02C43.5699 171.02 43.6153 171.011 43.6573 170.992C43.6992 170.974 43.7368 170.947 43.7677 170.913C44.546 170.141 45.3181 169.368 46.0901 168.584C46.1163 168.559 46.1372 168.529 46.1515 168.496C46.1658 168.463 46.1732 168.427 46.1732 168.391C46.1732 168.355 46.1658 168.319 46.1515 168.286C46.1372 168.253 46.1163 168.223 46.0901 168.198C45.9954 168.086 45.894 167.981 45.7863 167.881L43.5019 165.717" fill="#0FADE8"/>
<path d="M11.0956 141.816C11.0324 141.864 10.9858 141.931 10.962 142.007C10.9382 142.083 10.9385 142.164 10.9627 142.24C11.1052 143.256 11.6002 144.19 12.3612 144.879C13.2554 145.643 13.9284 146.633 14.3103 147.745C14.8012 149.172 15.6383 150.455 16.7466 151.479C17.075 151.87 17.5175 152.149 18.0122 152.276C18.278 151.713 17.9616 151.226 17.7781 150.738C17.2784 149.394 16.4597 148.191 15.3924 147.233C14.4508 146.413 13.747 145.355 13.3547 144.17C13.1695 143.637 12.8736 143.15 12.4864 142.739C12.0992 142.329 11.6295 142.006 11.1082 141.79" fill="#0FADE8"/>
<path d="M19.3794 132.058L19.082 132.089C19.0465 132.096 19.0132 132.111 18.9854 132.134C18.9577 132.158 18.9364 132.187 18.9236 132.221C18.9109 132.255 18.9071 132.292 18.9127 132.327C18.9182 132.363 18.933 132.397 18.9554 132.425C19.5981 133.242 20.5196 133.794 21.5437 133.975C22.8928 134.156 24.17 134.691 25.2456 135.526C26.6309 136.508 28.2597 137.09 29.9537 137.209C30.1246 137.209 30.3587 137.291 30.4473 137.101C30.5359 136.911 30.3714 136.684 30.2132 136.538C29.6483 136.009 29.0087 135.565 28.3148 135.222C27.4614 134.79 26.5452 134.495 25.6 134.349C24.3538 134.191 23.1709 133.709 22.1701 132.95C21.3557 132.355 20.3692 132.041 19.3604 132.058" fill="#0FADE8"/>
<path d="M27.4222 142.778C27.3509 142.62 27.2684 142.468 27.1754 142.322C26.4301 141.319 25.4702 140.495 24.3657 139.911C23.8795 139.656 23.3787 139.43 22.8659 139.234C21.7942 138.843 20.8372 138.19 20.0815 137.335C19.3445 136.508 18.3375 135.97 17.2402 135.817C17.1881 135.809 17.135 135.813 17.0847 135.828C17.0343 135.843 16.988 135.87 16.9491 135.905C16.9242 135.952 16.9111 136.004 16.9111 136.057C16.9111 136.11 16.9242 136.162 16.9491 136.209C17.4484 137.116 18.2602 137.811 19.2336 138.164C20.4921 138.58 21.6112 139.336 22.4672 140.348C23.6273 141.627 25.1584 142.512 26.8463 142.879C26.9875 142.91 27.1321 142.923 27.2766 142.917C27.3209 142.917 27.3589 142.828 27.4348 142.74" fill="#0FADE8"/>
<path d="M14.4876 108.941C14.6155 108.913 14.7405 108.873 14.8609 108.821C15.8926 108.341 16.8129 107.651 17.5631 106.796C17.9915 106.295 18.3868 105.766 18.7464 105.214C19.3506 104.205 20.2022 103.366 21.2207 102.778C21.9324 102.383 22.5016 101.774 22.847 101.037C23.0052 100.696 23.3723 100.404 23.1634 99.9489C22.8024 99.9596 22.4525 100.076 22.1573 100.284C21.4559 100.625 20.8737 101.17 20.4866 101.847C19.8719 102.938 18.9731 103.841 17.8858 104.461C16.4296 105.331 15.2459 106.592 14.4686 108.099C14.3721 108.301 14.302 108.513 14.2598 108.732C14.2598 108.84 14.323 108.928 14.4876 108.973" fill="#0FADE8"/>
<path d="M27.4915 105.081C26.4306 105.084 25.4071 105.473 24.6122 106.176C24.4762 106.299 24.3493 106.433 24.2325 106.574C23.483 107.445 22.5155 108.1 21.4292 108.473C20.5616 108.778 19.7414 109.204 18.9928 109.739C18.2999 110.225 17.6889 110.819 17.183 111.498C17.0992 111.578 17.0367 111.678 17.0014 111.788C16.966 111.899 16.9588 112.017 16.9805 112.131C17.4069 112.222 17.8517 112.171 18.2461 111.985C19.6393 111.497 20.8895 110.671 21.8848 109.58C22.7241 108.597 23.8192 107.866 25.0489 107.467C25.6042 107.283 26.1113 106.978 26.533 106.573C26.9546 106.168 27.28 105.673 27.4852 105.125" fill="#0FADE8"/>
<path d="M23.252 147.992C23.2335 147.889 23.206 147.787 23.1697 147.688C22.7137 146.679 22.0694 145.766 21.2713 144.999C20.6514 144.371 19.9539 143.824 19.1957 143.372C18.3551 142.91 17.667 142.213 17.215 141.366C16.664 140.353 15.7649 139.573 14.6837 139.171C14.5572 139.12 14.4243 139.012 14.2914 139.171C14.2425 139.226 14.2115 139.295 14.2025 139.368C14.1934 139.442 14.2068 139.516 14.2408 139.582C14.5874 140.558 15.2573 141.386 16.1392 141.93C17.2053 142.517 18.0831 143.395 18.6704 144.461C19.4639 145.794 20.5803 146.906 21.9168 147.695C22.2496 147.925 22.6304 148.076 23.0305 148.138C23.0812 148.138 23.1444 148.074 23.214 148.03" fill="#0FADE8"/>
<path d="M26.8335 128.957C25.6845 129.048 24.5331 128.813 23.5112 128.28C22.5128 127.794 21.369 127.697 20.3029 128.008C20.2682 128.018 20.2367 128.037 20.2112 128.062C20.1857 128.088 20.1671 128.119 20.157 128.154C20.1469 128.189 20.1457 128.225 20.1535 128.261C20.1613 128.296 20.1779 128.329 20.2016 128.356C20.2984 128.462 20.4067 128.558 20.5244 128.641C21.409 129.248 22.4838 129.513 23.5492 129.387C24.4631 129.285 25.3871 129.446 26.2134 129.849C26.7829 130.102 27.3587 130.349 27.9473 130.545C29.3064 131 30.758 131.104 32.1681 130.849C32.2195 130.839 32.2683 130.818 32.3117 130.789C32.3551 130.76 32.3924 130.722 32.4213 130.678C32.5162 130.507 32.3643 130.406 32.2504 130.33C31.3585 129.748 30.3572 129.354 29.3078 129.172C28.4941 129.005 27.6638 128.933 26.8335 128.957Z" fill="#0FADE8"/>
<path d="M12.2595 154.599C12.1343 153.119 11.6499 151.692 10.8483 150.441C10.7334 150.253 10.6088 150.072 10.475 149.897C9.74043 148.989 9.27561 147.892 9.13342 146.733C8.99229 145.67 8.48149 144.691 7.69061 143.967C7.61163 143.894 7.50751 143.853 7.39952 143.853C7.20967 143.853 7.20967 144.037 7.19702 144.183C7.09704 145.213 7.39853 146.242 8.03866 147.055C8.81136 148.039 9.29749 149.218 9.4435 150.46C9.67442 152.061 10.3299 153.571 11.3419 154.833C11.5067 155.026 11.6866 155.206 11.8798 155.371C11.9102 155.388 11.9443 155.399 11.9794 155.401C12.0145 155.404 12.0496 155.398 12.0821 155.384C12.1146 155.371 12.1435 155.35 12.1666 155.324C12.1897 155.297 12.2064 155.265 12.2152 155.231C12.2152 155.054 12.2152 154.871 12.2152 154.599" fill="#0FADE8"/>
<path d="M12.2726 93.2157C12.2726 93.1398 12.2726 93.0638 12.2726 92.9942C12.2726 92.9246 12.2726 92.6715 12.0827 92.6525C11.9755 92.6481 11.8702 92.6817 11.7853 92.7474C10.9538 93.4865 10.4206 94.5035 10.2855 95.6078C10.1841 96.6703 9.78245 97.6821 9.12749 98.525C8.19508 99.7152 7.5712 101.117 7.31132 102.607C7.26421 102.857 7.2388 103.111 7.23538 103.366C7.23538 103.638 7.03921 103.999 7.39991 104.138C7.76062 104.277 7.88718 103.866 8.03272 103.651C9.10622 102.428 9.80869 100.924 10.0577 99.316C10.1613 98.1045 10.5995 96.9455 11.3234 95.9684C11.9472 95.189 12.2745 94.2137 12.2473 93.2157" fill="#0FADE8"/>
<path d="M20.0693 119.756C20.2654 120.072 20.6071 120.079 20.9236 120.11C22.1702 120.243 23.4307 120.104 24.6192 119.705C25.5557 119.402 26.5176 119.072 27.4099 118.705C27.8902 118.524 28.4106 118.476 28.916 118.566C30.128 118.714 31.3508 118.393 32.3332 117.668C32.4218 117.604 32.504 117.509 32.4344 117.389C32.4028 117.324 32.3489 117.273 32.2826 117.244C31.2438 116.987 30.1518 117.051 29.1501 117.427C28.9766 117.49 28.811 117.573 28.6565 117.674C28.0233 118.055 27.2855 118.226 26.5493 118.161C25.6325 118.102 24.7121 118.138 23.8029 118.269C22.5245 118.466 21.2958 118.906 20.1832 119.566C20.1274 119.62 20.0804 119.681 20.0439 119.75" fill="#0FADE8"/>
<path d="M11.0895 106.207C11.1637 106.221 11.24 106.217 11.3125 106.196C11.385 106.175 11.4516 106.138 11.5072 106.087C12.5755 105.301 13.4535 104.284 14.0764 103.113C14.2999 102.692 14.4944 102.257 14.6586 101.809C15.0501 100.621 15.7643 99.5649 16.7216 98.7591C16.7773 98.7118 16.8302 98.6611 16.8798 98.6073C17.26 98.2371 17.5601 97.7928 17.7615 97.3018C17.9629 96.8109 18.0613 96.2838 18.0505 95.7533C18.0505 95.7533 17.9872 95.6963 17.9745 95.709C17.4802 95.9041 17.0328 96.2018 16.6619 96.5825C16.291 96.9632 16.0051 97.4182 15.823 97.9175C15.3358 99.2639 14.5252 100.47 13.4626 101.43C12.306 102.514 11.466 103.892 11.0326 105.416C10.9818 105.623 10.9584 105.836 10.963 106.049C10.963 106.1 11.0516 106.15 11.0895 106.188" fill="#0FADE8"/>
<path d="M19.5498 115.984C20.9886 115.871 22.3803 115.42 23.6125 114.668C23.9635 114.474 24.2979 114.252 24.6123 114.004C25.408 113.345 26.3862 112.945 27.4157 112.858C28.4801 112.739 29.4717 112.259 30.2254 111.498C30.3057 111.422 30.3798 111.339 30.4468 111.251C30.4646 111.221 30.4751 111.186 30.4775 111.151C30.4798 111.116 30.474 111.081 30.4606 111.049C30.4471 111.016 30.4263 110.987 30.3997 110.964C30.3732 110.941 30.3417 110.924 30.3076 110.915C30.1284 110.881 29.9457 110.868 29.7634 110.878C28.7307 110.92 27.7398 111.297 26.9411 111.953C26.2343 112.543 25.3736 112.919 24.4604 113.035C23.5563 113.179 22.6683 113.41 21.8089 113.725C20.7673 114.088 19.8217 114.683 19.0436 115.465C18.9647 115.542 18.9192 115.647 18.917 115.757C18.917 115.921 19.1005 115.946 19.2461 115.965H19.5435" fill="#0FADE8"/>
<path d="M4.12812 151.257C3.94544 152.971 4.22742 154.702 4.94445 156.269C5.10329 156.597 5.28736 156.913 5.495 157.212C5.5277 157.254 5.57012 157.288 5.61862 157.31C5.66712 157.332 5.72025 157.342 5.77344 157.339C5.84938 157.339 5.91899 157.193 5.96328 157.098C6.06211 156.823 6.10513 156.53 6.08985 156.238C6.15472 154.695 5.87363 153.158 5.26719 151.738C5.11531 151.359 4.9761 150.985 4.81789 150.612C4.52442 149.939 4.40265 149.204 4.46352 148.473C4.56172 147.362 4.29033 146.25 3.69149 145.309C3.59024 145.151 3.48266 144.967 3.28016 145.024C3.18523 145.056 3.09031 145.246 3.07133 145.379C2.83972 146.388 2.95336 147.447 3.39406 148.384C3.92229 149.242 4.17823 150.239 4.12812 151.245" fill="#0FADE8"/>
<path d="M-0.820387 102.626C-0.534507 102.245 -0.34752 101.799 -0.276167 101.328C0.0375556 99.8156 0.00510454 98.2515 -0.37109 96.7531C-0.640323 95.6839 -0.627236 94.5631 -0.333118 93.5004C-0.0355014 92.3919 -0.152506 91.2129 -0.662184 90.1845C-0.693984 90.118 -0.747577 90.0644 -0.814057 90.0326C-0.927964 89.9946 -1.01656 90.0896 -1.06085 90.1718C-1.51328 91.0183 -1.68397 91.9871 -1.54812 92.9372C-1.50951 93.2285 -1.44816 93.5162 -1.36461 93.7979C-1.13811 94.65 -1.13811 95.5466 -1.36461 96.3987C-1.70968 97.6762 -1.81058 99.0073 -1.66202 100.322C-1.5941 100.941 -1.45611 101.55 -1.2507 102.138C-1.22321 102.247 -1.17051 102.348 -1.09686 102.433C-1.0232 102.517 -0.930657 102.583 -0.826711 102.626" fill="#0FADE8"/>
<path d="M20.5248 123.913C20.5262 123.997 20.5539 124.078 20.6038 124.145C20.6538 124.212 20.7236 124.262 20.8032 124.287C21.6987 124.733 22.7225 124.849 23.6952 124.616C24.973 124.265 26.3219 124.265 27.5997 124.616C29.0577 124.974 30.5833 124.95 32.0293 124.546C32.2761 124.477 32.5166 124.388 32.7571 124.306C32.8963 124.255 33.0292 124.186 33.0608 124.021C33.0925 123.857 32.909 123.793 32.7951 123.743C31.5678 123.24 30.2304 123.068 28.9159 123.243C28.2605 123.303 27.6109 123.415 26.9732 123.578C26.0519 123.853 25.068 123.835 24.1572 123.527C23.5627 123.339 22.9346 123.281 22.3157 123.357C21.673 123.392 21.0481 123.581 20.4932 123.907" fill="#0FADE8"/>
<path d="M6.08368 92.102C6.11664 91.6986 6.0627 91.293 5.92547 90.9123C5.9069 90.8817 5.88221 90.8553 5.85294 90.8347C5.82367 90.8141 5.79046 90.7998 5.7554 90.7927C5.72033 90.7855 5.68417 90.7857 5.64919 90.7932C5.6142 90.8007 5.58115 90.8154 5.55211 90.8363C5.44578 90.9338 5.35222 91.0444 5.27368 91.1654C4.75224 92.0156 4.50276 93.0046 4.55859 94.0004C4.64288 95.0932 4.4239 96.1881 3.92578 97.1645C3.21103 98.662 2.8929 100.318 3.00187 101.974C2.99735 102.266 3.05114 102.557 3.16008 102.828C3.17705 102.86 3.20084 102.887 3.22972 102.908C3.2586 102.929 3.29183 102.944 3.32701 102.95C3.36218 102.957 3.39839 102.956 3.43301 102.947C3.46763 102.938 3.49978 102.921 3.52711 102.898C3.6472 102.762 3.75519 102.616 3.84985 102.461C4.50334 101.307 4.8843 100.019 4.96359 98.6959C5.00156 97.9998 5.03953 97.3037 5.01422 96.6076C4.95968 95.7997 5.15166 94.9943 5.56477 94.2978C5.96445 93.6313 6.14998 92.8583 6.09633 92.083" fill="#0FADE8"/>
<path d="M-1.02883 136.38C-2.19316 136.459 -3.3622 136.324 -4.47767 135.981C-7.05542 135.194 -9.31454 133.604 -10.926 131.444C-12.2598 129.637 -13.0797 127.503 -13.2991 125.268C-13.5538 122.995 -13.1335 120.697 -12.0904 118.661C-11.1893 116.894 -9.8894 115.36 -8.29353 114.181C-6.14683 112.558 -3.52375 111.69 -0.832664 111.713C-0.101248 111.732 0.626162 111.828 1.33788 111.998C1.95455 112.08 2.5597 112.233 3.1414 112.453C4.90931 113.178 6.5192 114.239 7.88117 115.579C9.37984 117.101 10.4364 119.002 10.9377 121.079C11.1591 122.009 11.1718 122.977 11.3237 123.895C11.3972 124.333 11.3624 124.783 11.2224 125.204C11.1693 125.379 11.1416 125.56 11.1402 125.742C11.0611 127.242 10.6274 128.702 9.87453 130.001C8.95444 131.767 7.59715 133.269 5.93211 134.361C3.89048 135.768 1.44854 136.476 -1.02883 136.38ZM-0.794697 109.296C-2.20449 109.199 -3.62061 109.328 -4.99025 109.675C-6.83643 110.164 -8.572 111.002 -10.1034 112.143C-12.3319 113.788 -14.0302 116.05 -14.9887 118.648C-15.6305 120.249 -15.9675 121.955 -15.9822 123.679C-16.0242 125.476 -15.7456 127.265 -15.1596 128.963C-14.5543 130.616 -13.6844 132.159 -12.584 133.532C-11.5333 134.804 -10.2805 135.895 -8.87572 136.76C-7.72256 137.472 -6.47978 138.027 -5.18009 138.411C-3.49502 138.926 -1.72982 139.128 0.0279617 139.006C1.82137 138.91 3.57914 138.467 5.20437 137.702C8.66636 136.091 11.3825 133.219 12.7981 129.672C13.5061 128.087 13.8541 126.364 13.817 124.629C13.817 124.3 13.817 123.97 13.817 123.641C13.8384 121.581 13.3768 119.543 12.4691 117.693C11.4322 115.416 9.81516 113.452 7.77992 111.998C5.81122 110.576 3.52675 109.653 1.12273 109.308C0.490999 109.256 -0.143987 109.256 -0.775713 109.308" fill="#0FADE8"/>
<path d="M-1.02897 136.38C1.44851 136.477 3.89074 135.769 5.93197 134.361C7.59701 133.269 8.95431 131.767 9.8744 130.001C10.6385 128.704 11.0852 127.245 11.178 125.742C11.1739 125.56 11.1996 125.378 11.2539 125.204C11.3939 124.783 11.4287 124.333 11.3552 123.895C11.2033 122.958 11.1907 121.996 10.9692 121.079C10.4679 119.002 9.41135 117.101 7.91268 115.579C6.55071 114.239 4.94082 113.178 3.17291 112.453C2.59121 112.233 1.98605 112.08 1.36939 111.998C0.657663 111.828 -0.069746 111.732 -0.801162 111.713C-3.49209 111.691 -6.11487 112.559 -8.26202 114.181C-9.85789 115.36 -11.1578 116.894 -12.0589 118.661C-13.112 120.692 -13.5434 122.987 -13.2992 125.261C-13.0799 127.497 -12.2599 129.631 -10.9262 131.438C-9.32058 133.597 -7.06845 135.189 -4.49679 135.981C-3.38059 136.321 -2.2122 136.456 -1.04796 136.38" fill="#036EC2"/>
</svg>
